<svg width="72" height="24" viewBox="0 0 72 24" fill="none" xmlns="http://www.w3.org/2000/svg">
<g clip-path="url(#clip0_46_3793)">
<mask id="mask0_46_3793" style="mask-type:luminance" maskUnits="userSpaceOnUse" x="0" y="0" width="72" height="24">
<path d="M0 0H72V24H0V0Z" fill="white"/>
</mask>
<g mask="url(#mask0_46_3793)">
<path fill-rule="evenodd" clip-rule="evenodd" d="M56.7775 3.85132L50.4985 15.5026H52.753L54.1068 12.9518H61.885L63.2035 15.5026H65.8098L59.4498 3.85132H56.7775ZM60.937 11.1158L58.9983 7.36432C58.8212 7.01312 58.6519 6.65803 58.4905 6.29932C58.348 5.97607 58.2145 5.65807 58.0885 5.34532H57.9655C57.8508 5.65807 57.7195 5.97532 57.5725 6.29932C57.4248 6.61732 57.2575 6.97207 57.0723 7.36432L55.0811 11.1151H60.937V11.1158ZM32.8923 13.9771C31.417 14.9941 29.608 15.5026 27.466 15.5026H22.3105V3.93007H27.466C29.608 3.93007 31.417 4.44232 32.8923 5.46457C34.3735 6.48232 35.1138 7.89907 35.1138 9.71707C35.1138 11.5343 34.3735 12.9541 32.8923 13.9771ZM31.3675 6.76807C30.3678 6.09532 29.0673 5.75857 27.466 5.75857H24.5155V13.6748H27.466C29.0673 13.6748 30.3685 13.3381 31.3675 12.6653C32.3733 11.9926 32.8758 11.0093 32.8758 9.71707C32.8758 8.42407 32.3733 7.44082 31.3683 6.76807H31.3675ZM47.941 13.9771C46.4658 14.9941 44.6575 15.5026 42.5155 15.5026H37.3585V3.93007H42.5148C44.6568 3.93007 46.465 4.44232 47.9403 5.46457C49.4215 6.48232 50.1618 7.89907 50.1618 9.71707C50.1618 11.5343 49.4223 12.9541 47.941 13.9771ZM46.417 6.76807C45.4165 6.09532 44.116 5.75857 42.5155 5.75857H39.5635V13.6748H42.5148C44.1153 13.6748 45.4158 13.3381 46.4163 12.6653C47.4213 11.9926 47.9238 11.0093 47.9238 9.71707C47.9238 8.42407 47.422 7.44082 46.417 6.76807Z" fill="white"/>
<path d="M3.9885 5.11352C3.9885 4.61552 4.221 4.14602 4.617 3.84452L8.292 1.04477C8.41028 0.955057 8.55124 0.900114 8.69904 0.886121C8.84683 0.872129 8.9956 0.89964 9.12861 0.965564C9.26163 1.03149 9.37362 1.13321 9.45199 1.25929C9.53036 1.38537 9.57201 1.53082 9.57225 1.67927V23.202C9.57225 23.643 9.21525 24 8.775 24H0.798C0.586357 24 0.383383 23.9159 0.233729 23.7663C0.0840748 23.6166 0 23.4137 0 23.202V11.4945C0 10.9973 0.2325 10.5278 0.6285 10.2263L3.9885 7.66577V5.11352ZM11.7863 11.0933C11.5938 11.2424 11.438 11.4337 11.3309 11.6523C11.2238 11.871 11.1682 12.1113 11.1683 12.3548V23.202C11.1683 23.643 11.5253 24 11.9655 24H15.954C16.395 24 16.752 23.643 16.752 23.202V8.87477C16.7518 8.72567 16.7098 8.57961 16.6308 8.45315C16.5518 8.3267 16.4389 8.22491 16.305 8.15932C16.1711 8.09373 16.0215 8.06697 15.8732 8.08208C15.7248 8.09718 15.5837 8.15354 15.4657 8.24477L11.7863 11.0933ZM25.131 23.9205L24.2055 22.1858H23.2275V23.9205H22.3088V19.4925H23.8387C25.374 19.4925 25.959 19.908 25.959 20.8365C25.959 21.3495 25.7017 21.765 25.1167 22.0028L26.1517 23.9205H25.131ZM23.9415 20.1765H23.229V21.5078H23.9865C24.7065 21.5078 25.0148 21.2828 25.0148 20.8425C25.0148 20.3295 24.564 20.1765 23.9415 20.1765ZM27.6225 23.9205V19.4925H31.0155V20.2013H28.5413V21.3H30.8812V22.008H28.5413V23.2118H31.0163V23.9198L27.6225 23.9205ZM32.1353 23.9205L33.87 19.4925H34.7955L36.537 23.9205H35.541L35.2132 23.0228H33.4012L33.0735 23.9205H32.1353ZM34.3073 20.5613L33.6645 22.3088H34.95L34.3073 20.5613ZM38.835 19.4925V23.2125H41.1038V23.9205H37.9163V19.4925H38.835ZM44.8958 23.9205V19.4925H48.2887V20.2013H45.8145V21.3H48.1545V22.008H45.8145V23.2118H48.2895V23.9198H44.895L44.8958 23.9205ZM51.6577 22.0823L51.0667 21.9788C50.3145 21.8318 49.6717 21.4658 49.6717 20.6963C49.6717 19.8038 50.6745 19.4138 51.5288 19.4138C52.4933 19.4138 53.3093 19.9508 53.3603 20.7998H52.4737C52.4032 20.2808 51.9277 20.1098 51.4905 20.1098C51.06 20.1098 50.5905 20.262 50.5905 20.6595C50.5905 20.9708 50.8605 21.1418 51.24 21.2093L51.8505 21.3128C52.608 21.4478 53.4443 21.7223 53.4443 22.644C53.4443 23.5538 52.4932 24 51.5542 24C50.4105 24 49.6523 23.4135 49.569 22.461H50.4563C50.559 23.1143 51.0337 23.304 51.5865 23.304C51.9982 23.304 52.5188 23.157 52.5188 22.6868C52.5188 22.3148 52.152 22.1618 51.6577 22.0823ZM55.935 23.9205V20.2005H54.5025V19.4925H58.2937V20.2013H56.8545V23.9213H55.9358L55.935 23.9205ZM58.6478 23.9205L60.3825 19.4925H61.308L63.0495 23.9205H62.0535L61.7258 23.0228H59.9137L59.586 23.9205H58.6478ZM60.8198 20.5613L60.177 22.3088H61.4625L60.8198 20.5613ZM64.836 23.9205V20.2005H63.4028V19.4925H67.194V20.2013H65.7547V23.9213H64.836V23.9205ZM68.6055 23.9205V19.4925H71.9985V20.2013H69.525V21.3H71.865V22.008H69.525V23.2118H72V23.9198H68.6062L68.6055 23.9205Z" fill="white"/>
</g>
</g>
<defs>
<clipPath id="clip0_46_3793">
<rect width="72" height="24" fill="white"/>
</clipPath>
</defs>
</svg>
