<svg width="28" height="20" viewBox="0 0 28 20" fill="none" xmlns="http://www.w3.org/2000/svg">
<rect width="28" height="20" rx="2" fill="white"/>
<mask id="mask0_27_392" style="mask-type:luminance" maskUnits="userSpaceOnUse" x="0" y="0" width="28" height="20">
<rect width="28" height="20" rx="2" fill="white"/>
</mask>
<g mask="url(#mask0_27_392)">
<rect x="13.333" width="14.6667" height="20" fill="#1AB11F"/>
<path fill-rule="evenodd" clip-rule="evenodd" d="M0 20H9.33333V0H0V20Z" fill="#262626"/>
<path fill-rule="evenodd" clip-rule="evenodd" d="M9.33301 20H18.6663V0H9.33301V20Z" fill="#DC0D18"/>
<path opacity="0.75" d="M15.4345 11.5815L14.8499 11.2612L15.7937 12.1431L15.4345 11.5815ZM16.6663 9.33337H17.333L16.0817 9.01302L16.6663 9.33337ZM11.333 9.33337L11.9106 9.00048L10.6663 6.84157V9.33337H11.333ZM12.6633 11.6415L12.3287 12.2181L14.4868 13.4703L13.2409 11.3086L12.6633 11.6415ZM15.4345 11.5815L15.7937 12.1431C16.7179 11.552 17.333 10.5147 17.333 9.33337H16.6663H15.9997C15.9997 10.0411 15.6326 10.6635 15.0753 11.0199L15.4345 11.5815ZM16.6663 9.33337L16.0817 9.01302L14.8499 11.2612L15.4345 11.5815L16.0192 11.9019L17.251 9.65372L16.6663 9.33337ZM11.333 9.33337H10.6663C10.6663 10.5664 11.3362 11.6423 12.3287 12.2181L12.6633 11.6415L12.9979 11.0649C12.3996 10.7177 11.9997 10.0719 11.9997 9.33337H11.333ZM12.6633 11.6415L13.2409 11.3086L11.9106 9.00048L11.333 9.33337L10.7554 9.66627L12.0857 11.9744L12.6633 11.6415Z" fill="white"/>
<path fill-rule="evenodd" clip-rule="evenodd" d="M14.0003 10.6666C14.7367 10.6666 15.3337 9.7712 15.3337 8.66663C15.3337 7.56206 14.7367 6.66663 14.0003 6.66663C13.2639 6.66663 12.667 7.56206 12.667 8.66663C12.667 9.7712 13.2639 10.6666 14.0003 10.6666Z" fill="white" fill-opacity="0.5"/>
</g>
</svg>
