<svg width="28" height="20" viewBox="0 0 28 20" fill="none" xmlns="http://www.w3.org/2000/svg">
<rect x="0.25" y="0.25" width="27.5" height="19.5" rx="1.75" fill="white" stroke="#F5F5F5" stroke-width="0.5"/>
<mask id="mask0_27_2382" style="mask-type:luminance" maskUnits="userSpaceOnUse" x="0" y="0" width="28" height="20">
<rect x="0.25" y="0.25" width="27.5" height="19.5" rx="1.75" fill="white" stroke="white" stroke-width="0.5"/>
</mask>
<g mask="url(#mask0_27_2382)">
<rect x="10.667" width="6.66667" height="20" fill="#D6182D"/>
<rect y="6.66663" width="28" height="6.66667" fill="#1425A2"/>
<path fill-rule="evenodd" clip-rule="evenodd" d="M16.6667 11.6666L16.1953 11.8047L16.3333 11.3333L16.1953 10.8619L16.6667 11L17.1381 10.8619L17 11.3333L17.1381 11.8047L16.6667 11.6666Z" fill="white"/>
<path fill-rule="evenodd" clip-rule="evenodd" d="M11.3337 11.6666L10.8623 11.8047L11.0003 11.3333L10.8623 10.8619L11.3337 11L11.8051 10.8619L11.667 11.3333L11.8051 11.8047L11.3337 11.6666Z" fill="white"/>
<path fill-rule="evenodd" clip-rule="evenodd" d="M19.3337 10.3334L18.8623 10.4714L19.0003 10L18.8623 9.52864L19.3337 9.66671L19.8051 9.52864L19.667 10L19.8051 10.4714L19.3337 10.3334Z" fill="white"/>
<path fill-rule="evenodd" clip-rule="evenodd" d="M8.66667 10.3334L8.19526 10.4714L8.33333 10L8.19526 9.52864L8.66667 9.66671L9.13807 9.52864L9 10L9.13807 10.4714L8.66667 10.3334Z" fill="white"/>
<path fill-rule="evenodd" clip-rule="evenodd" d="M13.9997 9L13.5283 9.13807L13.6663 8.66667L13.5283 8.19526L13.9997 8.33333L14.4711 8.19526L14.333 8.66667L14.4711 9.13807L13.9997 9Z" fill="white"/>
</g>
</svg>
