<svg width="28" height="20" viewBox="0 0 28 20" fill="none" xmlns="http://www.w3.org/2000/svg">
<rect width="28" height="20" rx="2" fill="white"/>
<mask id="mask0_27_555" style="mask-type:luminance" maskUnits="userSpaceOnUse" x="0" y="0" width="28" height="20">
<rect width="28" height="20" rx="2" fill="white"/>
</mask>
<g mask="url(#mask0_27_555)">
<rect width="28" height="20" fill="#0B36B2"/>
<g filter="url(#filter0_d_27_555)">
<path fill-rule="evenodd" clip-rule="evenodd" d="M22.667 20V0H8.66699L22.667 20Z" fill="#FFD045"/>
</g>
<path fill-rule="evenodd" clip-rule="evenodd" d="M17.3333 18.6666L16.3905 18.9428L16.6667 18L16.3905 17.0572L17.3333 17.3333L18.2761 17.0572L18 18L18.2761 18.9428L17.3333 18.6666Z" fill="white"/>
<path fill-rule="evenodd" clip-rule="evenodd" d="M14.6663 14.6666L13.7235 14.9428L13.9997 14L13.7235 13.0572L14.6663 13.3333L15.6092 13.0572L15.333 14L15.6092 14.9428L14.6663 14.6666Z" fill="white"/>
<path fill-rule="evenodd" clip-rule="evenodd" d="M12.0003 10.6666L11.0575 10.9428L11.3337 9.99996L11.0575 9.05715L12.0003 9.33329L12.9431 9.05715L12.667 9.99996L12.9431 10.9428L12.0003 10.6666Z" fill="white"/>
<path fill-rule="evenodd" clip-rule="evenodd" d="M9.33333 6.66663L8.39052 6.94277L8.66667 5.99996L8.39052 5.05715L9.33333 5.33329L10.2761 5.05715L10 5.99996L10.2761 6.94277L9.33333 6.66663Z" fill="white"/>
<path fill-rule="evenodd" clip-rule="evenodd" d="M6.66634 2.66663L5.72353 2.94277L5.99967 1.99996L5.72353 1.05715L6.66634 1.33329L7.60915 1.05715L7.33301 1.99996L7.60915 2.94277L6.66634 2.66663Z" fill="white"/>
</g>
<defs>
<filter id="filter0_d_27_555" x="8.66699" y="0" width="14" height="20" filterUnits="userSpaceOnUse" color-interpolation-filters="sRGB">
<feFlood flood-opacity="0" result="BackgroundImageFix"/>
<feColorMatrix in="SourceAlpha" type="matrix" values="0 0 0 0 0 0 0 0 0 0 0 0 0 0 0 0 0 0 127 0" result="hardAlpha"/>
<feOffset/>
<feColorMatrix type="matrix" values="0 0 0 0 0 0 0 0 0 0 0 0 0 0 0 0 0 0 0.06 0"/>
<feBlend mode="normal" in2="BackgroundImageFix" result="effect1_dropShadow_27_555"/>
<feBlend mode="normal" in="SourceGraphic" in2="effect1_dropShadow_27_555" result="shape"/>
</filter>
</defs>
</svg>
