<svg width="28" height="20" viewBox="0 0 28 20" fill="none" xmlns="http://www.w3.org/2000/svg">
<rect width="28" height="20" rx="2" fill="white"/>
<mask id="mask0_27_524" style="mask-type:luminance" maskUnits="userSpaceOnUse" x="0" y="0" width="28" height="20">
<rect width="28" height="20" rx="2" fill="white"/>
</mask>
<g mask="url(#mask0_27_524)">
<rect width="28" height="20" fill="#E4233B"/>
<path fill-rule="evenodd" clip-rule="evenodd" d="M28 0L16 10L28 20V0Z" fill="#34CD4E"/>
<path fill-rule="evenodd" clip-rule="evenodd" d="M0 0L12 10L0 20V0Z" fill="#34CD4E"/>
<path d="M30.7732 0.294434L18.4539 8.60303C18.592 9.044 18.6667 9.51298 18.6667 9.99951C18.6667 10.4857 18.5908 10.9543 18.4529 11.395L30.7732 19.7056L29.282 21.9165L16.9617 13.606C16.1561 14.2683 15.1251 14.6664 14.0007 14.6665C12.8757 14.6665 11.8437 14.268 11.0378 13.605L-1.28247 21.9165L-2.77368 19.7056L9.54565 11.394C9.40802 10.9538 9.33374 10.4851 9.33374 9.99951C9.33378 9.51344 9.40773 9.04461 9.54565 8.604L-2.77368 0.294434L-1.28247 -1.9165L11.0378 6.39307C11.8436 5.73048 12.8761 5.3335 14.0007 5.3335C15.1246 5.33357 16.1552 5.73121 16.9607 6.39307L29.282 -1.9165L30.7732 0.294434Z" fill="white"/>
<path d="M12.667 11.3336L12.9434 12.276L12 11.9996L11.0576 12.276L11.334 11.3336L11.0576 10.3903L12 10.6666L12.9434 10.3903L12.667 11.3336ZM16.667 11.3336L16.9434 12.276L16 11.9996L15.0576 12.276L15.334 11.3336L15.0576 10.3903L16 10.6666L16.9434 10.3903L16.667 11.3336ZM14.667 7.99963L14.9434 8.94299L14 8.66663L13.0576 8.94299L13.334 7.99963L13.0576 7.05725L14 7.33362L14.9434 7.05725L14.667 7.99963Z" fill="#DF2239"/>
</g>
</svg>
