<svg width="28" height="20" viewBox="0 0 28 20" fill="none" xmlns="http://www.w3.org/2000/svg">
<rect width="28" height="20" rx="2" fill="white"/>
<mask id="mask0_27_608" style="mask-type:luminance" maskUnits="userSpaceOnUse" x="0" y="0" width="28" height="20">
<rect width="28" height="20" rx="2" fill="white"/>
</mask>
<g mask="url(#mask0_27_608)">
<rect width="28" height="20" fill="#05AB41"/>
<path fill-rule="evenodd" clip-rule="evenodd" d="M3.532 10.5597C3.12601 10.297 3.126 9.70295 3.532 9.44025L13.6382 2.90097C13.8585 2.75837 14.1421 2.75837 14.3625 2.90097L24.4686 9.44025C24.8746 9.70295 24.8746 10.297 24.4686 10.5597L14.3625 17.0989C14.1421 17.2416 13.8585 17.2416 13.6382 17.0989L3.532 10.5597Z" fill="#FDD216"/>
<path fill-rule="evenodd" clip-rule="evenodd" d="M13.9997 14.6667C16.577 14.6667 18.6663 12.5774 18.6663 10C18.6663 7.42271 16.577 5.33337 13.9997 5.33337C11.4223 5.33337 9.33301 7.42271 9.33301 10C9.33301 12.5774 11.4223 14.6667 13.9997 14.6667Z" fill="#053087"/>
<mask id="mask1_27_608" style="mask-type:luminance" maskUnits="userSpaceOnUse" x="9" y="5" width="10" height="10">
<path fill-rule="evenodd" clip-rule="evenodd" d="M13.9997 14.6667C16.577 14.6667 18.6663 12.5774 18.6663 10C18.6663 7.42271 16.577 5.33337 13.9997 5.33337C11.4223 5.33337 9.33301 7.42271 9.33301 10C9.33301 12.5774 11.4223 14.6667 13.9997 14.6667Z" fill="white"/>
</mask>
<g mask="url(#mask1_27_608)">
<path d="M8.77962 8.78033C9.51232 8.187 11.8767 8.74907 14.0837 9.33781C16.2908 9.92656 18.5927 11.1606 19.1788 11.8843" stroke="white" stroke-width="1.33333" stroke-linecap="square"/>
</g>
</g>
</svg>
