<svg width="28" height="20" viewBox="0 0 28 20" fill="none" xmlns="http://www.w3.org/2000/svg">
<rect width="28" height="20" rx="2" fill="white"/>
<mask id="mask0_27_573" style="mask-type:luminance" maskUnits="userSpaceOnUse" x="0" y="0" width="28" height="20">
<rect width="28" height="20" rx="2" fill="white"/>
</mask>
<g mask="url(#mask0_27_573)">
<path fill-rule="evenodd" clip-rule="evenodd" d="M0 20H28V13.3334H0V20Z" fill="#5CBE6B"/>
<path fill-rule="evenodd" clip-rule="evenodd" d="M0 13.3333H28V0H0V13.3333Z" fill="#E54252"/>
<path d="M4 2.99902L3.33301 4L4 5V6.99902L3.33301 8L4 9V10.999L3.33301 12L4 13V14.999L3.33301 16L4 17V20H0V0H4V2.99902Z" fill="white"/>
<path d="M0.666992 16L-0.666992 18L-2 16L-0.666992 14L0.666992 16ZM0.666992 12L-0.666992 14L-2 12L-0.666992 10L0.666992 12ZM0.666992 8L-0.666992 10L-2 8L-0.666992 6L0.666992 8ZM0.666992 4L-0.666992 6L-2 4L-0.666992 2L0.666992 4Z" fill="#E54252"/>
<path d="M3.33398 18L2 20L0.666992 18L2 16L3.33398 18ZM3.33398 14L2 16L0.666992 14L2 12L3.33398 14ZM3.33398 10L2 12L0.666992 10L2 8L3.33398 10ZM3.33398 6L2 8L0.666992 6L2 4L3.33398 6ZM3.33398 2L2 4L0.666992 2L2 0L3.33398 2Z" fill="#E54252"/>
</g>
</svg>
