<svg width="28" height="20" viewBox="0 0 28 20" fill="none" xmlns="http://www.w3.org/2000/svg">
<rect width="28" height="20" rx="2" fill="white"/>
<mask id="mask0_27_2299" style="mask-type:luminance" maskUnits="userSpaceOnUse" x="0" y="0" width="28" height="20">
<rect width="28" height="20" rx="2" fill="white"/>
</mask>
<g mask="url(#mask0_27_2299)">
<rect width="28" height="20" fill="#19BFBF"/>
<path fill-rule="evenodd" clip-rule="evenodd" d="M8.0282 5.50262C8.0105 5.39643 8.04518 5.28824 8.1213 5.21212L10.569 2.76438C10.6315 2.70187 10.7163 2.66675 10.8047 2.66675H12.4607C12.5869 2.66675 12.7023 2.73808 12.7588 2.85101L13.2412 3.81582C13.2977 3.92875 13.4131 4.00008 13.5393 4.00008H15.794C15.9202 4.00008 16.0357 4.07142 16.0921 4.18434L17.9079 7.81582C17.9643 7.92875 18.0798 8.00008 18.206 8.00008H19.3333C19.608 8.00008 19.7648 8.31367 19.6 8.53341L18.018 10.6427C18.006 10.6587 17.9955 10.6757 17.9866 10.6936L17.3685 11.9297C17.3454 11.976 17.3333 12.027 17.3333 12.0788V13.2547C17.3333 13.3065 17.3213 13.3575 17.2981 13.4038L16.6667 14.6667L16 16.0001L15.4255 17.1492C15.369 17.2621 15.2536 17.3334 15.1273 17.3334H14.206C14.0798 17.3334 13.9643 17.2621 13.9079 17.1492L13.3685 16.0705C13.3454 16.0242 13.3333 15.9731 13.3333 15.9214V12.1382C13.3333 12.0497 13.2982 11.965 13.2357 11.9024L12.7223 11.3891C12.6857 11.3525 12.6581 11.3079 12.6418 11.2588L12.076 9.56134C12.0306 9.42522 11.9032 9.33341 11.7597 9.33341H8.94904C8.7861 9.33341 8.64703 9.21561 8.62024 9.05488L8.0282 5.50262Z" fill="white"/>
<path fill-rule="evenodd" clip-rule="evenodd" d="M18.667 13.6666C18.667 13.4825 18.8162 13.3333 19.0003 13.3333H19.667C19.8511 13.3333 20.0003 13.4825 20.0003 13.6666V14.5879C20.0003 14.6396 19.9883 14.6907 19.9651 14.737L19.4258 15.8157C19.3693 15.9286 19.2539 15.9999 19.1276 15.9999H19.0003C18.8162 15.9999 18.667 15.8507 18.667 15.6666V13.6666Z" fill="white"/>
</g>
</svg>
