<svg width="28" height="20" viewBox="0 0 28 20" fill="none" xmlns="http://www.w3.org/2000/svg">
<rect width="28" height="20" rx="2" fill="white"/>
<mask id="mask0_27_2314" style="mask-type:luminance" maskUnits="userSpaceOnUse" x="0" y="0" width="28" height="20">
<rect width="28" height="20" rx="2" fill="white"/>
</mask>
<g mask="url(#mask0_27_2314)">
<rect width="28" height="20" fill="#19BFBF"/>
<path d="M17.0002 2.66675C17.1841 2.66689 17.3331 2.8159 17.3333 2.99976V3.86206C17.3332 3.95038 17.298 4.03493 17.2356 4.09741L17.1702 4.16382C16.9706 4.36358 17.0942 4.70532 17.3752 4.7312L23.5139 5.28882C23.7475 5.31024 23.8863 5.5604 23.7815 5.77026L23.426 6.48218C23.3696 6.59503 23.2533 6.66665 23.1272 6.66675H21.4719C21.3836 6.66675 21.2981 6.70198 21.2356 6.7644L20.3821 7.6189C20.2069 7.79411 20.2769 8.0923 20.512 8.17065L21.8694 8.6228C21.953 8.65075 22.0222 8.71103 22.0618 8.78979L22.5178 9.7019C22.6 9.86647 22.5329 10.0668 22.3684 10.1492L21.6321 10.5173C21.4675 10.5996 21.4005 10.8 21.4827 10.9646L21.7844 11.5691C21.883 11.7671 21.7391 11.9996 21.5178 11.9998C21.4051 11.9997 21.3018 11.9364 21.2512 11.8357L20.8733 11.0808C20.7716 10.8774 20.501 10.8332 20.3401 10.9939L19.5696 11.7644C19.4394 11.8946 19.4394 12.1059 19.5696 12.2361L19.9026 12.5691C19.9649 12.6315 20.0001 12.7162 20.0002 12.8044V13.7937C20.0002 13.9199 19.9285 14.036 19.8157 14.0925L18.7375 14.6316C18.6913 14.6547 18.6398 14.6667 18.5881 14.6667H17.4719C17.3836 14.6667 17.2981 14.702 17.2356 14.7644L16.9026 15.0974C16.7724 15.2276 16.7724 15.4389 16.9026 15.5691L17.2356 15.9021C17.298 15.9646 17.3333 16.0501 17.3333 16.1384V16.7937C17.3333 17.0414 17.0724 17.2031 16.8508 17.0925L16.0491 16.6912C16.0172 16.6752 15.9874 16.6539 15.9622 16.6287L14.7053 15.3718C14.68 15.3465 14.6588 15.3169 14.6428 15.2849L14.3323 14.6638C14.2036 14.4068 13.8318 14.4224 13.7249 14.6892L12.7502 17.1238C12.6997 17.2501 12.5776 17.3335 12.4417 17.3337H12.179C12.0677 17.3337 11.9635 17.2777 11.9016 17.1853L10.7229 15.4177C10.6864 15.363 10.6672 15.298 10.6672 15.2322V14.2605C10.6672 14.1076 10.5626 13.9744 10.4143 13.9373L8.41431 13.4373C8.20394 13.3847 8.00024 13.5437 8.00024 13.7605V13.7937C8.00024 13.92 8.07189 14.0361 8.18481 14.0925L8.92017 14.4597C9.12333 14.5616 9.16674 14.8331 9.0061 14.9939L8.66724 15.3337L7.50317 16.4968C7.40177 16.5981 7.24664 16.6233 7.11841 16.5593L6.12329 16.0623C6.04434 16.0227 5.98424 15.9527 5.9563 15.8689L5.35083 14.0515C5.33951 14.0175 5.33326 13.9819 5.33325 13.946V13.4714C5.33327 13.3832 5.3686 13.2986 5.43091 13.2361L5.61841 13.0486C5.79339 12.8734 5.72335 12.5743 5.48853 12.4958L4.22778 12.0759C4.09188 12.0304 4.00024 11.9029 4.00024 11.7595V10.9998C4.00042 10.8159 4.14942 10.6669 4.33325 10.6667H5.92114C5.97277 10.6668 6.02437 10.6788 6.07056 10.7019L7.0354 11.1843C7.20002 11.2665 7.40037 11.1995 7.48267 11.0349L7.85083 10.2986C7.93298 10.1341 7.8666 9.93381 7.70239 9.85132L5.63208 8.81616C5.4675 8.73387 5.40051 8.53351 5.48267 8.3689L5.93872 7.45679C5.97806 7.37791 5.98407 7.28654 5.9563 7.20288L5.58813 6.09644C5.49464 5.81498 5.78757 5.56079 6.05298 5.69312L6.55688 5.94507C6.62787 5.98042 6.70942 5.98964 6.78638 5.97046L9.33325 5.33374L11.9104 4.68921C11.9689 4.67453 12.023 4.64398 12.0657 4.60132L13.9026 2.7644C13.965 2.70206 14.0497 2.66685 14.1379 2.66675H17.0002ZM14.0002 15.9998C14.3682 16.0001 14.6663 16.2988 14.6663 16.6667C14.6662 17.0347 14.3681 17.3334 14.0002 17.3337C13.6321 17.3337 13.3333 17.0349 13.3333 16.6667C13.3333 16.2986 13.6321 15.9998 14.0002 15.9998ZM22.9211 11.9998C23.1897 11.9999 23.2747 12.362 23.0344 12.4822L22.6663 12.6667L23.3333 13.3337L22.7581 14.4822C22.7016 14.5951 22.5865 14.6667 22.4602 14.6667H22.1379C21.841 14.6667 21.6918 14.3074 21.9016 14.0974L22.6663 13.3337V12.2546C22.6663 12.114 22.7805 11.9998 22.9211 11.9998ZM10.0002 9.33374C9.63219 9.33374 9.33347 9.63175 9.33325 9.99976C9.33325 10.3679 9.63205 10.6667 10.0002 10.6667C10.3682 10.6664 10.6663 10.3677 10.6663 9.99976C10.666 9.63195 10.368 9.33406 10.0002 9.33374Z" fill="white"/>
</g>
</svg>
