<svg width="28" height="20" viewBox="0 0 28 20" fill="none" xmlns="http://www.w3.org/2000/svg">
<rect width="28" height="20" rx="2" fill="white"/>
<mask id="mask0_27_2305" style="mask-type:luminance" maskUnits="userSpaceOnUse" x="0" y="0" width="28" height="20">
<rect width="28" height="20" rx="2" fill="white"/>
</mask>
<g mask="url(#mask0_27_2305)">
<rect width="28" height="20" fill="#19BFBF"/>
<path d="M18.4609 2.66675C18.5872 2.66675 18.7023 2.73839 18.7588 2.85132L19.2988 3.92944C19.322 3.97573 19.334 4.02711 19.334 4.07886V5.86206C19.334 5.95045 19.3691 6.03491 19.4316 6.09741L19.8545 6.52124C19.9437 6.61046 19.9754 6.74234 19.9355 6.86206L19.4141 8.42554C19.3667 8.56805 19.4209 8.72503 19.5459 8.80835L21.334 9.99976L22.3291 10.4978C22.5084 10.5875 22.5692 10.8144 22.458 10.9812L21.3896 12.5828C21.3532 12.6374 21.3341 12.7016 21.334 12.7673V14.4265C21.334 14.57 21.2416 14.6976 21.1055 14.7429L19.4648 15.2898C19.381 15.3178 19.311 15.3777 19.2715 15.4568L18.6914 16.6179C18.6754 16.6499 18.6542 16.6795 18.6289 16.7048L17.5693 17.7644C17.4392 17.8946 17.2278 17.8946 17.0977 17.7644L16.0557 16.7224C16.0192 16.686 15.9919 16.6414 15.9756 16.5925L15.4092 14.8943C15.3638 14.7585 15.2369 14.6668 15.0938 14.6667C14.8771 14.6667 14.718 14.8706 14.7705 15.0808L15.2881 17.1501C15.3165 17.2637 15.2829 17.3838 15.2002 17.4666L14.9023 17.7644C14.7722 17.8943 14.5618 17.8943 14.4316 17.7644L14.0977 17.4314C14.0351 17.3689 14 17.2835 14 17.1951V16.0789C14 16.0271 13.988 15.9757 13.9648 15.9294L13.4258 14.8513C13.3694 14.7385 13.2541 14.6669 13.1279 14.6667H11.4121C11.3606 14.6668 11.3098 14.6789 11.2637 14.7019L10.124 15.2712C10.045 15.3108 9.98499 15.3807 9.95703 15.4646L9.37695 17.2029C9.34892 17.2865 9.28887 17.3558 9.20996 17.3953L8.14941 17.9255C8.05565 17.9724 7.94535 17.9723 7.85156 17.9255L6.85156 17.4255C6.73872 17.3691 6.6671 17.2538 6.66699 17.1277V14.9998C6.66717 14.8159 6.81616 14.6669 7 14.6667H8.33398C8.51782 14.6666 8.66682 14.5176 8.66699 14.3337V13.3875C8.667 13.3516 8.67325 13.316 8.68457 13.282L9.25781 11.5613C9.30321 11.4252 9.43077 11.3337 9.57422 11.3337H10.5879C10.6396 11.3337 10.6911 11.3217 10.7373 11.2986L11.9297 10.7019C11.976 10.6788 12.0274 10.6667 12.0791 10.6667H13C13.184 10.6667 13.3338 10.5177 13.334 10.3337V10.1384C13.334 10.05 13.3691 9.96461 13.4316 9.9021L13.6729 9.66089C13.8337 9.50007 14.1052 9.54353 14.207 9.74683L14.5752 10.4822C14.6317 10.5951 14.7468 10.6667 14.873 10.6667H16.4268C16.5701 10.6667 16.6977 10.5752 16.7432 10.4392L17.2578 8.89429C17.3033 8.75838 17.4309 8.66675 17.5742 8.66675H18.334C18.5178 8.66657 18.6668 8.51758 18.667 8.33374C18.667 8.14975 18.5179 7.99993 18.334 7.99976H17.667C17.4829 7.99976 17.334 7.85084 17.334 7.66675V6.74585C17.334 6.6941 17.346 6.64272 17.3691 6.59644L17.8926 5.54858C17.9567 5.42025 17.9315 5.26527 17.8301 5.16382L17.5693 4.9021C17.4392 4.77212 17.2278 4.77201 17.0977 4.9021L16.0977 5.9021C16.0351 5.96461 16 6.05002 16 6.13843V7.27905C16 7.31479 15.9947 7.35061 15.9834 7.38452L15.4092 9.10522C15.3638 9.24123 15.2371 9.33359 15.0938 9.33374H14.8047C14.7165 9.33364 14.6317 9.29842 14.5693 9.23608L14.0967 8.76245C14.0352 8.70097 14 8.61793 14 8.53101C14 8.28715 13.7435 8.12801 13.5254 8.23706L12.8818 8.55933C12.7535 8.62346 12.5985 8.59827 12.4971 8.49683L12.0977 8.09741C12.0353 8.03494 12 7.95031 12 7.86206V6.80444C12.0001 6.71624 12.0353 6.6315 12.0977 6.56909L13.334 5.33374L15.2783 3.3894C15.3149 3.35282 15.3591 3.32472 15.4082 3.30835L17.2822 2.68433C17.3162 2.673 17.3519 2.66675 17.3877 2.66675H18.4609ZM11.334 15.9998C11.702 15.9999 12 16.2987 12 16.6667C12 17.0348 11.702 17.3336 11.334 17.3337C10.9658 17.3337 10.667 17.0349 10.667 16.6667C10.667 16.2986 10.9658 15.9998 11.334 15.9998ZM8.66699 7.99976C9.03503 7.99993 9.33301 8.29867 9.33301 8.66675C9.33296 9.03479 9.03501 9.33356 8.66699 9.33374C8.29883 9.33374 8.00004 9.0349 8 8.66675C8 8.29856 8.2988 7.99976 8.66699 7.99976Z" fill="white"/>
<path fill-rule="evenodd" clip-rule="evenodd" d="M9.96448 8.73713C9.98763 8.69084 9.99967 8.63981 9.99967 8.58806V8.07877C9.99967 8.02702 9.98763 7.97598 9.96448 7.9297L9.57421 7.14915C9.46339 6.92752 9.62456 6.66675 9.87235 6.66675H10.333C10.5171 6.66675 10.6663 6.81599 10.6663 7.00008V8.58806C10.6663 8.63981 10.6784 8.69084 10.7015 8.73713L11.0918 9.51768C11.2026 9.73931 11.0415 10.0001 10.7937 10.0001H9.87235C9.62456 10.0001 9.46339 9.73931 9.57421 9.51768L9.96448 8.73713Z" fill="white"/>
</g>
</svg>
