<svg width="28" height="20" viewBox="0 0 28 20" fill="none" xmlns="http://www.w3.org/2000/svg">
<rect x="0.25" y="0.25" width="27.5" height="19.5" rx="1.75" fill="white" stroke="#F5F5F5" stroke-width="0.5"/>
<mask id="mask0_27_658" style="mask-type:luminance" maskUnits="userSpaceOnUse" x="0" y="0" width="28" height="20">
<rect x="0.25" y="0.25" width="27.5" height="19.5" rx="1.75" fill="white" stroke="white" stroke-width="0.5"/>
</mask>
<g mask="url(#mask0_27_658)">
<path fill-rule="evenodd" clip-rule="evenodd" d="M0 14.6667H28V9.33337H0V14.6667Z" fill="#37AE39"/>
<path fill-rule="evenodd" clip-rule="evenodd" d="M0 20H28V14.6666H0V20Z" fill="#FFD13F"/>
<path fill-rule="evenodd" clip-rule="evenodd" d="M0 5.33333H28V0H0V5.33333Z" fill="#083D96"/>
<path fill-rule="evenodd" clip-rule="evenodd" d="M4.66699 3.44663L3.49142 4.28466L3.92517 2.90766L2.76488 2.04859L4.20852 2.03559L4.66699 0.666626L5.12546 2.03559L6.56911 2.04859L5.40882 2.90766L5.84256 4.28466L4.66699 3.44663Z" fill="#FFD03B"/>
<path fill-rule="evenodd" clip-rule="evenodd" d="M10.667 20H17.3337V0H10.667V20Z" fill="#E42346"/>
</g>
</svg>
