<svg width="28" height="20" viewBox="0 0 28 20" fill="none" xmlns="http://www.w3.org/2000/svg">
<rect width="28" height="20" rx="2" fill="white"/>
<mask id="mask0_27_689" style="mask-type:luminance" maskUnits="userSpaceOnUse" x="0" y="0" width="28" height="20">
<rect width="28" height="20" rx="2" fill="white"/>
</mask>
<g mask="url(#mask0_27_689)">
<rect width="28" height="20" fill="#F1361D"/>
<path d="M11.9707 11.1384L12.5098 11.9597L11.5273 11.9705L10.707 12.5105L10.6953 11.5281L10.1553 10.7078L11.1377 10.696L11.959 10.156L11.9707 11.1384ZM13.4482 8.0105L14.4248 7.9021L13.9893 8.78198L14.0977 9.75854L13.2168 9.323L12.2402 9.4314L12.6758 8.55054L12.5674 7.57495L13.4482 8.0105ZM13.9766 5.16089L14.4873 5.99976L13.5059 5.97729L12.666 6.48804L12.6895 5.50562L12.1787 4.66675L13.1602 4.68921L14 4.17847L13.9766 5.16089ZM11.625 2.06714L12.5938 2.23218L11.9316 2.95874L11.7666 3.92749L11.04 3.26636L10.0723 3.10034L10.7334 2.37476L10.8984 1.40601L11.625 2.06714Z" fill="#FFDC42"/>
<path fill-rule="evenodd" clip-rule="evenodd" d="M6.66699 8.22663L4.31585 9.90269L5.18334 7.14869L2.86277 5.43056L5.75005 5.40456L6.66699 2.66663L7.58394 5.40456L10.4712 5.43056L8.15064 7.14869L9.01813 9.90269L6.66699 8.22663Z" fill="#FFDC42"/>
</g>
</svg>
