<svg width="28" height="20" viewBox="0 0 28 20" fill="none" xmlns="http://www.w3.org/2000/svg">
<rect width="28" height="20" rx="2" fill="white"/>
<mask id="mask0_27_2325" style="mask-type:luminance" maskUnits="userSpaceOnUse" x="0" y="0" width="28" height="20">
<rect width="28" height="20" rx="2" fill="white"/>
</mask>
<g mask="url(#mask0_27_2325)">
<rect width="28" height="20" fill="url(#paint0_linear_27_2325)"/>
<path d="M18.9023 17.7644C18.7722 17.8943 18.5617 17.8944 18.4316 17.7644L18 17.3337H19.334L18.9023 17.7644ZM17.8115 2.66675C17.9286 2.66675 18.0374 2.72846 18.0977 2.82886L20 5.99976L22.6113 9.91577C22.6478 9.97053 22.667 10.0355 22.667 10.1013V12.5662C22.6669 12.6318 22.6477 12.6961 22.6113 12.7507L20.0996 16.5183C20.0378 16.611 19.9336 16.6667 19.8223 16.6667H17.4541C17.3763 16.6667 17.301 16.6394 17.2412 16.5896L13.4268 13.4109C13.3669 13.361 13.2909 13.3337 13.2129 13.3337H10.7461C10.6943 13.3337 10.643 13.3458 10.5967 13.3689L6.88184 15.2263C6.75359 15.2903 6.59845 15.2651 6.49707 15.1638L5.43164 14.0974C5.36916 14.0349 5.334 13.9504 5.33398 13.8621V12.1013C5.33398 12.0355 5.31385 11.9705 5.27734 11.9158L4.10742 10.1609C4.04122 10.0614 4.03346 9.93381 4.08691 9.8269L5.28418 7.43237C5.31645 7.36804 5.36921 7.31613 5.43359 7.28394L7.96777 6.01636C7.9895 6.0055 8.01257 5.99686 8.03613 5.99097L10.6016 5.34937C10.6447 5.33859 10.6852 5.31937 10.7207 5.29272L13.2451 3.40015C13.3028 3.35693 13.3732 3.33374 13.4453 3.33374H13.7939C13.9201 3.33374 14.0363 3.40452 14.0928 3.51733L14.5752 4.48218C14.6316 4.59508 14.7468 4.66672 14.873 4.66675H16.4609C16.5872 4.66675 16.7023 4.59511 16.7588 4.48218L17.2373 3.5271C17.2949 3.41148 17.2719 3.27187 17.1807 3.18042C16.9912 2.99096 17.1256 2.66675 17.3936 2.66675H17.8115Z" fill="white"/>
</g>
<defs>
<linearGradient id="paint0_linear_27_2325" x1="0" y1="0" x2="0" y2="20" gradientUnits="userSpaceOnUse">
<stop stop-color="#19BFBF"/>
<stop offset="1" stop-color="#10ACAC"/>
</linearGradient>
</defs>
</svg>
