<svg width="28" height="20" viewBox="0 0 28 20" fill="none" xmlns="http://www.w3.org/2000/svg">
<rect width="28" height="20" rx="2" fill="white"/>
<mask id="mask0_27_2294" style="mask-type:luminance" maskUnits="userSpaceOnUse" x="0" y="0" width="28" height="20">
<rect width="28" height="20" rx="2" fill="white"/>
</mask>
<g mask="url(#mask0_27_2294)">
<rect width="28" height="20" fill="#19BFBF"/>
<path fill-rule="evenodd" clip-rule="evenodd" d="M9.99967 16.0411C9.99967 16.0139 10.003 15.9867 10.0096 15.9603L10.6663 13.3334L11.3095 10.7609C11.3248 10.6994 11.3224 10.6348 11.3023 10.5747L10.71 8.79773C10.682 8.71386 10.6219 8.64454 10.5428 8.605L9.51727 8.09221C9.40434 8.03575 9.33301 7.92033 9.33301 7.79407V5.4121C9.33301 5.36036 9.34506 5.30932 9.3682 5.26303L9.99967 4.00008L10.5742 2.85101C10.6307 2.73808 10.7461 2.66675 10.8724 2.66675H14.333C14.5171 2.66675 14.6663 2.81599 14.6663 3.00008V3.66675C14.6663 3.85084 14.8156 4.00008 14.9997 4.00008H15.6663C15.8504 4.00008 15.9997 4.14932 15.9997 4.33341V5.1274C15.9997 5.25366 16.071 5.36908 16.1839 5.42555L18.4821 6.57462C18.595 6.63108 18.6663 6.7465 18.6663 6.87276V7.92139C18.6663 7.97314 18.6543 8.02418 18.6312 8.07046L18.0393 9.25424C18.0133 9.30612 17.9743 9.35034 17.926 9.38252L16.0733 10.6176C16.0251 10.6498 15.986 10.694 15.9601 10.7459L14.7059 13.2542C14.68 13.3061 14.641 13.3503 14.5927 13.3825L12.74 14.6176C12.6917 14.6498 12.6527 14.694 12.6268 14.7459L11.4251 17.1492C11.3687 17.2621 11.2533 17.3334 11.127 17.3334H10.333C10.1489 17.3334 9.99967 17.1842 9.99967 17.0001V16.0411Z" fill="white"/>
</g>
</svg>
