<svg width="28" height="20" viewBox="0 0 28 20" fill="none" xmlns="http://www.w3.org/2000/svg">
<rect x="0.25" y="0.25" width="27.5" height="19.5" rx="1.75" fill="white" stroke="#F5F5F5" stroke-width="0.5"/>
<mask id="mask0_27_761" style="mask-type:luminance" maskUnits="userSpaceOnUse" x="0" y="0" width="28" height="20">
<rect x="0.25" y="0.25" width="27.5" height="19.5" rx="1.75" fill="white" stroke="white" stroke-width="0.5"/>
</mask>
<g mask="url(#mask0_27_761)">
<path fill-rule="evenodd" clip-rule="evenodd" d="M13.9997 16C14.3679 16 14.6663 15.7015 14.6663 15.3333C14.6663 14.9651 14.3679 14.6666 13.9997 14.6666C13.6315 14.6666 13.333 14.9651 13.333 15.3333C13.333 15.7015 13.6315 16 13.9997 16Z" fill="#445128"/>
<path opacity="0.75" d="M16 14.6666C16 14.6666 18 14 18.6667 12.6666" stroke="#445128" stroke-width="1.33333" stroke-linecap="round"/>
<path opacity="0.75" d="M12 14.6666C12 14.6666 10 14 9.33333 12.6666" stroke="#445128" stroke-width="1.33333" stroke-linecap="round"/>
<path fill-rule="evenodd" clip-rule="evenodd" d="M19.9997 3.33329C20.3628 3.15174 20.7313 3.56919 20.5061 3.90697L20.0669 4.56576C20.0225 4.63234 19.9654 4.68948 19.8988 4.73387L18.0546 5.96334C18.0181 5.98769 17.984 6.01559 17.953 6.04664L17.8044 6.19522C17.5441 6.45557 17.5441 6.87768 17.8044 7.13803L18.1949 7.52855C18.4553 7.7889 18.4553 8.21101 18.1949 8.47136L17.6728 8.99352C17.4699 9.19643 17.1599 9.24673 16.9032 9.1184L16.596 8.96477C16.2666 8.80011 15.8662 8.93359 15.7015 9.26291L15.4565 9.75297C15.3774 9.91111 15.2388 10.0314 15.071 10.0873L13.4356 10.6324C13.3677 10.6551 13.2965 10.6666 13.2248 10.6666H12.4117C12.1592 10.6666 11.9283 10.8093 11.8154 11.0352L11.6312 11.4037C11.4665 11.733 11.066 11.8665 10.7367 11.7018L8.7631 10.715C8.69902 10.683 8.64051 10.6408 8.58984 10.5901L7.52827 9.52855C7.40325 9.40353 7.33301 9.23396 7.33301 9.05715V8.47136C7.33301 8.21101 7.54406 7.99996 7.80441 7.99996C7.92944 7.99996 8.04934 7.95029 8.13775 7.86189L9.13775 6.86189C9.26277 6.73686 9.43234 6.66663 9.60915 6.66663H10.1858C10.4728 6.66663 10.7275 6.48301 10.8183 6.21078L11.1469 5.22495C11.2532 4.90598 11.5804 4.71611 11.9101 4.78204L14.5193 5.30389C14.6161 5.32325 14.716 5.32087 14.8118 5.29693L17.262 4.68438C17.3092 4.67258 17.355 4.65565 17.3985 4.6339L18.6663 3.99996L19.9997 3.33329Z" fill="#E7832C"/>
</g>
</svg>
