<svg width="28" height="20" viewBox="0 0 28 20" fill="none" xmlns="http://www.w3.org/2000/svg">
<rect width="28" height="20" rx="2" fill="white"/>
<mask id="mask0_27_786" style="mask-type:luminance" maskUnits="userSpaceOnUse" x="0" y="0" width="28" height="20">
<rect width="28" height="20" rx="2" fill="white"/>
</mask>
<g mask="url(#mask0_27_786)">
<path fill-rule="evenodd" clip-rule="evenodd" d="M0 20H28V12H0V20Z" fill="#108753"/>
<path fill-rule="evenodd" clip-rule="evenodd" d="M0 8H28V0H0V8Z" fill="#108753"/>
<path d="M16 0V8H28V12H16V20H12V12H0V8H12V0H16Z" fill="white"/>
<path d="M14.666 0V9.33301H28V10.667H14.666V20H13.333V10.667H0V9.33301H13.333V0H14.666Z" fill="#262626"/>
<path d="M13.333 0V8H28V9.33301H13.333V20H12V9.33301H0V8H12V0H13.333Z" fill="#FCD449"/>
<path fill-rule="evenodd" clip-rule="evenodd" d="M13.9997 14.6667C16.577 14.6667 18.6663 12.5774 18.6663 10C18.6663 7.42271 16.577 5.33337 13.9997 5.33337C11.4223 5.33337 9.33301 7.42271 9.33301 10C9.33301 12.5774 11.4223 14.6667 13.9997 14.6667Z" fill="url(#paint0_linear_27_786)"/>
<path fill-rule="evenodd" clip-rule="evenodd" d="M14.0003 13.3333C15.8413 13.3333 17.3337 11.8409 17.3337 9.99996C17.3337 8.15901 15.8413 6.66663 14.0003 6.66663C12.1594 6.66663 10.667 8.15901 10.667 9.99996C10.667 11.8409 12.1594 13.3333 14.0003 13.3333Z" stroke="#0E673F" stroke-width="1.33333" stroke-linecap="round" stroke-dasharray="0.67 2.67"/>
<path fill-rule="evenodd" clip-rule="evenodd" d="M14.0005 11.3333C14.7368 11.3333 14.6671 10.7363 14.6671 9.99996C14.6671 9.26358 14.7368 8.66663 14.0005 8.66663C13.2641 8.66663 13.3338 9.26358 13.3338 9.99996C13.3338 10.7363 13.2641 11.3333 14.0005 11.3333Z" fill="#0E673F"/>
</g>
<defs>
<linearGradient id="paint0_linear_27_786" x1="9.33301" y1="5.33337" x2="9.33301" y2="14.6667" gradientUnits="userSpaceOnUse">
<stop stop-color="#E02C42"/>
<stop offset="1" stop-color="#D22036"/>
</linearGradient>
</defs>
</svg>
