<svg width="28" height="20" viewBox="0 0 28 20" fill="none" xmlns="http://www.w3.org/2000/svg">
<rect x="0.25" y="0.25" width="27.5" height="19.5" rx="1.75" fill="white" stroke="#F5F5F5" stroke-width="0.5"/>
<mask id="mask0_27_803" style="mask-type:luminance" maskUnits="userSpaceOnUse" x="0" y="0" width="28" height="20">
<rect x="0.25" y="0.25" width="27.5" height="19.5" rx="1.75" fill="white" stroke="white" stroke-width="0.5"/>
</mask>
<g mask="url(#mask0_27_803)">
<path fill-rule="evenodd" clip-rule="evenodd" d="M16 20H28V12H16V20Z" fill="#083D7A"/>
<path fill-rule="evenodd" clip-rule="evenodd" d="M0 20H12V12H0V20Z" fill="#DF1E35"/>
<path fill-rule="evenodd" clip-rule="evenodd" d="M16 8H28V0H16V8Z" fill="#DF1E35"/>
<path fill-rule="evenodd" clip-rule="evenodd" d="M0 8H12V0H0V8Z" fill="#083D7A"/>
<mask id="path-7-inside-1_27_803" fill="white">
<path fill-rule="evenodd" clip-rule="evenodd" d="M12.5861 8.58579C11.805 9.36684 11.805 10.6332 12.5861 11.4142C13.3671 12.1953 14.6335 12.1953 15.4145 11.4142C16.1956 10.6332 16.1956 9.36683 15.4145 8.58579"/>
</mask>
<path d="M12.5861 8.58579L12.1147 8.11438C11.0733 9.15578 11.0733 10.8442 12.1147 11.8856L12.5861 11.4142L13.0575 10.9428C12.5368 10.4221 12.5368 9.57789 13.0575 9.05719L12.5861 8.58579ZM12.5861 11.4142L12.1147 11.8856C13.1561 12.927 14.8445 12.927 15.8859 11.8856L15.4145 11.4142L14.9431 10.9428C14.4224 11.4635 13.5782 11.4635 13.0575 10.9428L12.5861 11.4142ZM15.4145 11.4142L15.8859 11.8856C16.9273 10.8442 16.9273 9.15578 15.8859 8.11438L15.4145 8.58579L14.9431 9.05719C15.4638 9.57789 15.4638 10.4221 14.9431 10.9428L15.4145 11.4142Z" fill="#0F6D1A" mask="url(#path-7-inside-1_27_803)"/>
<path fill-rule="evenodd" clip-rule="evenodd" d="M13.9997 10.6667C14.3679 10.6667 14.6663 10.3682 14.6663 10C14.6663 9.63185 14.3679 9.33337 13.9997 9.33337C13.6315 9.33337 13.333 9.63185 13.333 10C13.333 10.3682 13.6315 10.6667 13.9997 10.6667Z" fill="#042F60"/>
</g>
</svg>
