<svg width="28" height="20" viewBox="0 0 28 20" fill="none" xmlns="http://www.w3.org/2000/svg">
<rect x="0.25" y="0.25" width="27.5" height="19.5" rx="1.75" fill="white" stroke="#F5F5F5" stroke-width="0.5"/>
<mask id="mask0_27_837" style="mask-type:luminance" maskUnits="userSpaceOnUse" x="0" y="0" width="28" height="20">
<rect x="0.25" y="0.25" width="27.5" height="19.5" rx="1.75" fill="white" stroke="white" stroke-width="0.5"/>
</mask>
<g mask="url(#mask0_27_837)">
<path fill-rule="evenodd" clip-rule="evenodd" d="M0 20H28V13.3334H0V20Z" fill="#262626"/>
<path d="M11.334 8.33301H11.7939L12.3691 9.48242L12.6533 10.0508L12.959 9.49414C12.9592 9.49377 12.9594 9.49219 12.96 9.49121C12.9611 9.48925 12.9635 9.48656 12.9658 9.48242C12.9707 9.47383 12.9775 9.46026 12.9873 9.44336C13.007 9.40956 13.0364 9.36077 13.0732 9.30176C13.1475 9.18286 13.2519 9.02617 13.3721 8.87109C13.4937 8.71413 13.6236 8.56922 13.749 8.4668C13.8826 8.35777 13.9659 8.33316 14 8.33301C14.0573 8.33301 14.1511 8.36466 14.2812 8.46875C14.4068 8.56921 14.534 8.71106 14.6504 8.86621C14.7653 9.01945 14.8619 9.17516 14.9307 9.29297C14.9648 9.35154 14.9919 9.4002 15.0098 9.43359C15.0187 9.45024 15.0259 9.46331 15.0303 9.47168C15.0323 9.47554 15.0333 9.47865 15.0342 9.48047L15.0352 9.48242L15.334 10.0791L15.6318 9.48242L16.2061 8.33301H16.667C16.8511 8.33301 17 8.4829 17 8.66699V10.7539C17 11.0201 16.7039 11.1789 16.4824 11.0312L15.5186 10.3896L15.4346 10.333H14.334V11.333C14.334 11.5171 14.1841 11.667 14 11.667C13.8161 11.6668 13.667 11.517 13.667 11.333V10.333H12.5664L12.4824 10.3896L11.5186 11.0312C11.297 11.1789 11 11.0201 11 10.7539V8.66699C11 8.4829 11.1499 8.33301 11.334 8.33301Z" fill="#F4B32E" fill-opacity="0.25" stroke="#C6A846" stroke-width="0.666667"/>
<path fill-rule="evenodd" clip-rule="evenodd" d="M0 6.66667H28V0H0V6.66667Z" fill="#E41D33"/>
</g>
</svg>
