<svg width="28" height="20" viewBox="0 0 28 20" fill="none" xmlns="http://www.w3.org/2000/svg">
<rect width="28" height="20" rx="2" fill="white"/>
<mask id="mask0_27_843" style="mask-type:luminance" maskUnits="userSpaceOnUse" x="0" y="0" width="28" height="20">
<rect width="28" height="20" rx="2" fill="white"/>
</mask>
<g mask="url(#mask0_27_843)">
<path fill-rule="evenodd" clip-rule="evenodd" d="M28 10V20.6667H0V10H28Z" fill="#579DED"/>
<path fill-rule="evenodd" clip-rule="evenodd" d="M28 0V10H0V0H28Z" fill="#29C53F"/>
<path fill-rule="evenodd" clip-rule="evenodd" d="M0 20L28 10L0 0V20Z" fill="#F42D56"/>
<path d="M8.66699 6.00037C10.876 6.00054 12.667 7.79134 12.667 10.0004C12.6668 12.2092 10.8759 14.0002 8.66699 14.0004C6.45796 14.0004 4.66717 12.2094 4.66699 10.0004C4.66699 7.79123 6.45785 6.00037 8.66699 6.00037Z" stroke="#FFC63C" stroke-width="1.33333"/>
<path fill-rule="evenodd" clip-rule="evenodd" d="M9.33366 12.6667C9.70185 12.6667 10.0003 12.3682 10.0003 12C10.0003 11.6319 9.70185 11.3334 9.33366 11.3334C8.96547 11.3334 8.66699 11.6319 8.66699 12C8.66699 12.3682 8.96547 12.6667 9.33366 12.6667Z" fill="#FFC63C"/>
<path fill-rule="evenodd" clip-rule="evenodd" d="M9.33366 11.3333C9.70185 11.3333 10.0003 11.0349 10.0003 10.6667C10.0003 10.2985 9.70185 10 9.33366 10C8.96547 10 8.66699 10.2985 8.66699 10.6667C8.66699 11.0349 8.96547 11.3333 9.33366 11.3333Z" fill="#FFC63C"/>
<path fill-rule="evenodd" clip-rule="evenodd" d="M7.99967 10.6667C8.36786 10.6667 8.66634 10.3682 8.66634 10C8.66634 9.63185 8.36786 9.33337 7.99967 9.33337C7.63148 9.33337 7.33301 9.63185 7.33301 10C7.33301 10.3682 7.63148 10.6667 7.99967 10.6667Z" fill="#FFC63C"/>
<path fill-rule="evenodd" clip-rule="evenodd" d="M7.99967 12C8.36786 12 8.66634 11.7015 8.66634 11.3333C8.66634 10.9651 8.36786 10.6666 7.99967 10.6666C7.63148 10.6666 7.33301 10.9651 7.33301 11.3333C7.33301 11.7015 7.63148 12 7.99967 12Z" fill="#FFC63C"/>
<path fill-rule="evenodd" clip-rule="evenodd" d="M9.33366 9.99996C9.70185 9.99996 10.0003 9.70148 10.0003 9.33329C10.0003 8.9651 9.70185 8.66663 9.33366 8.66663C8.96547 8.66663 8.66699 8.9651 8.66699 9.33329C8.66699 9.70148 8.96547 9.99996 9.33366 9.99996Z" fill="#FFC63C"/>
<path fill-rule="evenodd" clip-rule="evenodd" d="M7.99967 9.33333C8.36786 9.33333 8.66634 9.03486 8.66634 8.66667C8.66634 8.29848 8.36786 8 7.99967 8C7.63148 8 7.33301 8.29848 7.33301 8.66667C7.33301 9.03486 7.63148 9.33333 7.99967 9.33333Z" fill="#FFC63C"/>
<path fill-rule="evenodd" clip-rule="evenodd" d="M8.66667 8.66671C9.03486 8.66671 9.33333 8.36823 9.33333 8.00004C9.33333 7.63185 9.03486 7.33337 8.66667 7.33337C8.29848 7.33337 8 7.63185 8 8.00004C8 8.36823 8.29848 8.66671 8.66667 8.66671Z" fill="#FFC63C"/>
</g>
</svg>
