<svg width="28" height="20" viewBox="0 0 28 20" fill="none" xmlns="http://www.w3.org/2000/svg">
<rect width="28" height="20" rx="2" fill="white"/>
<mask id="mask0_27_915" style="mask-type:luminance" maskUnits="userSpaceOnUse" x="0" y="0" width="28" height="20">
<rect width="28" height="20" rx="2" fill="white"/>
</mask>
<g mask="url(#mask0_27_915)">
<rect width="28" height="20" fill="#95CEF5"/>
<path d="M14.6436 14.4492L16.5371 14.5088L15.04 15.6709L15.5684 17.4902L14.001 16.4268L12.4336 17.4902L12.9609 15.6709L11.4648 14.5088L13.3584 14.4492L14.001 12.667L14.6436 14.4492ZM9.30957 9.11523L11.2031 9.17578L9.70605 10.3379L10.2344 12.1572L8.66699 11.0938L7.09961 12.1572L7.62695 10.3379L6.13086 9.17578L8.02441 9.11523L8.66699 7.33301L9.30957 9.11523ZM19.9766 9.11523L21.8701 9.17578L20.373 10.3379L20.9014 12.1572L19.334 11.0938L17.7666 12.1572L18.2939 10.3379L16.7979 9.17578L18.6914 9.11523L19.334 7.33301L19.9766 9.11523ZM14.6436 3.78223L16.5371 3.84277L15.04 5.00488L15.5684 6.82422L14.001 5.75977L12.4336 6.82422L12.9609 5.00488L11.4648 3.84277L13.3584 3.78223L14.001 2L14.6436 3.78223Z" fill="white"/>
</g>
</svg>
