<svg width="28" height="20" viewBox="0 0 28 20" fill="none" xmlns="http://www.w3.org/2000/svg">
<rect x="0.25" y="0.25" width="27.5" height="19.5" rx="1.75" fill="white" stroke="#F5F5F5" stroke-width="0.5"/>
<mask id="mask0_27_957" style="mask-type:luminance" maskUnits="userSpaceOnUse" x="0" y="0" width="28" height="20">
<rect x="0.25" y="0.25" width="27.5" height="19.5" rx="1.75" fill="white" stroke="white" stroke-width="0.5"/>
</mask>
<g mask="url(#mask0_27_957)">
<path d="M16 -1.33337V7.99963H29.334V11.9996H16V21.3336H12V11.9996H-1.33301V7.99963H12V-1.33337H16Z" fill="#FF2B37"/>
<path d="M22.3994 15.5996L24 15.333V16.667L22.3994 16.3994L22.666 18H21.333L21.5986 16.3994L20 16.667V15.333L21.5986 15.5996L21.333 14H22.666L22.3994 15.5996Z" fill="#FD0D1B"/>
<path d="M6.39941 15.5996L8 15.333V16.667L6.39941 16.3994L6.66602 18H5.33301L5.59863 16.3994L4 16.667V15.333L5.59863 15.5996L5.33301 14H6.66602L6.39941 15.5996Z" fill="#FD0D1B"/>
<path d="M22.3994 3.59961L24 3.33301V4.66699L22.3994 4.39941L22.666 6H21.333L21.5986 4.39941L20 4.66699V3.33301L21.5986 3.59961L21.333 2H22.666L22.3994 3.59961Z" fill="#FD0D1B"/>
<path d="M6.39941 3.59961L8 3.33301V4.66699L6.39941 4.39941L6.66602 6H5.33301L5.59863 4.39941L4 4.66699V3.33301L5.59863 3.59961L5.33301 2H6.66602L6.39941 3.59961Z" fill="#FD0D1B"/>
</g>
</svg>
