<svg width="28" height="20" viewBox="0 0 28 20" fill="none" xmlns="http://www.w3.org/2000/svg">
<rect x="0.25" y="0.25" width="27.5" height="19.5" rx="1.75" fill="white" stroke="#F5F5F5" stroke-width="0.5"/>
<mask id="mask0_27_1001" style="mask-type:luminance" maskUnits="userSpaceOnUse" x="0" y="0" width="28" height="20">
<rect x="0.25" y="0.25" width="27.5" height="19.5" rx="1.75" fill="white" stroke="white" stroke-width="0.5"/>
</mask>
<g mask="url(#mask0_27_1001)">
<path d="M15.4345 11.5815L14.8499 11.2612L15.7937 12.1431L15.4345 11.5815ZM16.6663 9.33337H17.333L16.0817 9.01302L16.6663 9.33337ZM11.333 9.33337L11.9106 9.00048L10.6663 6.84157V9.33337H11.333ZM12.6633 11.6415L12.3287 12.2181L14.4868 13.4703L13.2409 11.3086L12.6633 11.6415ZM15.4345 11.5815L15.7937 12.1431C16.7179 11.552 17.333 10.5147 17.333 9.33337H16.6663H15.9997C15.9997 10.0411 15.6326 10.6635 15.0753 11.0199L15.4345 11.5815ZM16.6663 9.33337L16.0817 9.01302L14.8499 11.2612L15.4345 11.5815L16.0192 11.9019L17.251 9.65372L16.6663 9.33337ZM11.333 9.33337H10.6663C10.6663 10.5664 11.3362 11.6423 12.3287 12.2181L12.6633 11.6415L12.9979 11.0649C12.3996 10.7177 11.9997 10.0719 11.9997 9.33337H11.333ZM12.6633 11.6415L13.2409 11.3086L11.9106 9.00048L11.333 9.33337L10.7554 9.66627L12.0857 11.9744L12.6633 11.6415Z" fill="#628A40"/>
<path fill-rule="evenodd" clip-rule="evenodd" d="M14.0003 10.6667C14.7367 10.6667 15.3337 10.0697 15.3337 9.33333C15.3337 8.59695 14.7367 8 14.0003 8C13.2639 8 12.667 8.59695 12.667 9.33333C12.667 10.0697 13.2639 10.6667 14.0003 10.6667Z" fill="#DCC26D"/>
<rect x="18.667" width="9.33333" height="20" fill="#63AEE3"/>
<path fill-rule="evenodd" clip-rule="evenodd" d="M0 20H9.33333V0H0V20Z" fill="#63AEE3"/>
</g>
</svg>
