<svg width="28" height="20" viewBox="0 0 28 20" fill="none" xmlns="http://www.w3.org/2000/svg">
<rect width="28" height="20" rx="2" fill="white"/>
<mask id="mask0_27_1117" style="mask-type:luminance" maskUnits="userSpaceOnUse" x="0" y="0" width="28" height="20">
<rect width="28" height="20" rx="2" fill="white"/>
</mask>
<g mask="url(#mask0_27_1117)">
<path fill-rule="evenodd" clip-rule="evenodd" d="M0 20H28V0H0V20Z" fill="#F0371D"/>
<path d="M14.8401 10.6824C15.8904 10.3415 17.1105 11.2001 17.5657 12.6003C18.0204 14.0007 17.5377 15.4132 16.4875 15.7546C16.0967 14.5522 15.4238 14.6364 15.2356 14.0583C15.0051 13.3488 14.9472 13.167 15.2522 11.95C15.5567 10.7333 14.324 10.8503 14.8401 10.6824ZM12.7747 11.9685C14.026 11.8822 13.5335 10.7453 13.8528 11.1843C14.5018 12.0778 14.0624 13.5042 12.8713 14.3699C11.6799 15.2355 10.1876 15.2126 9.53833 14.3191C10.5612 13.5756 10.2727 12.9618 10.7649 12.6042C11.3682 12.1659 11.5226 12.0545 12.7747 11.9685ZM12.0413 13.2273C11.9331 13.0788 11.7242 13.0454 11.5754 13.1531C11.4266 13.2612 11.3934 13.47 11.5012 13.6189C11.6095 13.7677 11.8182 13.8003 11.967 13.6921C12.1154 13.584 12.1489 13.376 12.0413 13.2273ZM16.6428 13.2507C16.5858 13.076 16.3978 12.9802 16.2229 13.0369C16.0482 13.0939 15.9525 13.282 16.009 13.4568C16.0661 13.6313 16.2542 13.7272 16.429 13.6707C16.6036 13.6137 16.6993 13.4255 16.6428 13.2507ZM8.75415 7.26636C9.77747 8.00974 10.2727 7.54557 10.7649 7.90308C11.3683 8.34146 11.5218 8.45374 11.9905 9.61792C12.4593 10.7818 13.389 9.96127 13.0696 10.4011C12.4204 11.2947 10.928 11.3173 9.73657 10.4519C8.54524 9.58629 8.10512 8.15996 8.75415 7.26636ZM17.3333 7.58765C18.8055 7.58788 19.9989 8.48343 19.9993 9.58765C18.7356 9.58813 18.6073 10.2544 17.9993 10.2546C17.2539 10.2546 17.0624 10.2538 15.9993 9.58765C14.9366 8.92243 14.6666 10.1298 14.6663 9.58765C14.6666 8.48354 15.8612 7.58807 17.3333 7.58765ZM10.4924 8.84351C10.3436 8.73542 10.1348 8.76797 10.0266 8.91675C9.91844 9.06565 9.95198 9.27434 10.1008 9.38257C10.2497 9.49052 10.4585 9.45719 10.5667 9.30835C10.6743 9.15954 10.6409 8.95162 10.4924 8.84351ZM12.4944 6.25952C12.9495 4.85914 14.1696 4.00058 15.22 4.34155C14.8291 5.54464 15.4246 5.87129 15.2366 6.44995C15.0059 7.15974 14.9472 7.34053 13.9846 8.14624C13.0222 8.95188 14.0895 9.58165 13.5725 9.41382C12.522 9.07249 12.0393 7.6602 12.4944 6.25952ZM17.6663 8.66675C17.4829 8.66749 17.3335 8.8173 17.3333 9.00073C17.3339 9.18379 17.4832 9.33301 17.6663 9.33374C17.8498 9.3336 17.9996 9.18416 18.0002 9.00073C18 8.81693 17.8501 8.66689 17.6663 8.66675ZM14.0432 6.06226C13.8682 6.0056 13.6801 6.10115 13.6233 6.27612C13.5665 6.45103 13.6624 6.639 13.8372 6.69604C14.0122 6.75293 14.2012 6.65726 14.2581 6.48218C14.3149 6.30711 14.2183 6.11914 14.0432 6.06226Z" fill="white"/>
</g>
</svg>
