<svg width="28" height="20" viewBox="0 0 28 20" fill="none" xmlns="http://www.w3.org/2000/svg">
<rect x="0.25" y="0.25" width="27.5" height="19.5" rx="1.75" fill="white" stroke="#F5F5F5" stroke-width="0.5"/>
<mask id="mask0_27_1074" style="mask-type:luminance" maskUnits="userSpaceOnUse" x="0" y="0" width="28" height="20">
<rect x="0.25" y="0.25" width="27.5" height="19.5" rx="1.75" fill="white" stroke="white" stroke-width="0.5"/>
</mask>
<g mask="url(#mask0_27_1074)">
<path fill-rule="evenodd" clip-rule="evenodd" d="M0 20H28V13.3334H0V20Z" fill="#2027AC"/>
<path fill-rule="evenodd" clip-rule="evenodd" d="M0 6.66667H28V0H0V6.66667Z" fill="#FF202D"/>
<path d="M13.333 14.6666H12V13.3336H13.333V14.6666ZM16 14.6666H14.667V13.3336H16V14.6666ZM12 13.3336H10.667V11.9996H12V13.3336ZM14.667 13.3336H13.334V11.9996H14.667V13.3336ZM17.333 13.3336H16V11.9996H17.333V13.3336ZM13.333 11.9996H12V10.6666H13.333V11.9996ZM16 11.9996H14.667V10.6666H16V11.9996ZM12 10.6666H10.667V9.33362H12V10.6666ZM14.667 10.6666H13.334V9.33362H14.667V10.6666ZM17.333 10.6666H16V9.33362H17.333V10.6666ZM13.333 9.33362H12V7.99963H13.333V9.33362ZM16 9.33362H14.667V7.99963H16V9.33362ZM12 7.99963H10.667L11.334 6.66663H12V7.99963ZM14.667 7.99963H13.334V6.66663H14.667V7.99963ZM17.333 7.99963H16V6.66663H16.667L17.333 7.99963Z" fill="url(#paint0_linear_27_1074)"/>
<path opacity="0.5" d="M12 5.33362V6.66663H10.667V5.33362L11.334 4.66663L12 5.33362ZM14.667 5.33362V6.66663H13.334V5.33362L14.001 4.66663L14.667 5.33362ZM17.333 5.33362V6.66663H16V5.33362L16.667 4.66663L17.333 5.33362Z" fill="#1895DB"/>
<path opacity="0.5" d="M13.333 5.33362V6.66663H12V5.33362L12.667 4.66663L13.333 5.33362ZM16 5.33362V6.66663H14.667V5.33362L15.334 4.66663L16 5.33362Z" fill="#191F94"/>
</g>
<defs>
<linearGradient id="paint0_linear_27_1074" x1="10.667" y1="6.66663" x2="10.667" y2="14.6666" gradientUnits="userSpaceOnUse">
<stop stop-color="#FF212E"/>
<stop offset="1" stop-color="#FD0D1B"/>
</linearGradient>
</defs>
</svg>
