<svg width="28" height="20" viewBox="0 0 28 20" fill="none" xmlns="http://www.w3.org/2000/svg">
<rect width="28" height="20" rx="2" fill="#D01129"/>
<mask id="mask0_27_2435" style="mask-type:luminance" maskUnits="userSpaceOnUse" x="0" y="0" width="28" height="20">
<rect width="28" height="20" rx="2" fill="white"/>
</mask>
<g mask="url(#mask0_27_2435)">
<path fill-rule="evenodd" clip-rule="evenodd" d="M13.889 10.041C14.5499 10.041 15.0857 9.47841 15.0857 8.78459C15.0857 8.09064 14.5499 7.52808 13.889 7.52808C13.2281 7.52808 12.6924 8.09064 12.6924 8.78459C12.6924 9.47841 13.2281 10.041 13.889 10.041Z" fill="#FFF101"/>
<path fill-rule="evenodd" clip-rule="evenodd" d="M12.7978 8.27937C13.1367 8.16586 13.5764 8.29797 13.8657 8.58946C14.1728 8.53075 14.4807 8.12586 14.5761 7.76537C14.4713 6.56745 13.7249 5.65992 13.498 5.03717C13.4262 4.84035 13.0935 4.53087 12.7474 4.67497C12.4629 4.7935 12.3191 4.70127 11.3635 5.2017C10.8468 5.47228 10.4119 5.7502 10.1827 5.79864C9.95343 5.84708 9.71156 5.89026 9.52819 5.73943C9.27595 5.53197 8.99308 5.4746 8.82648 5.31827C8.62236 5.12671 8.49141 4.98212 8.35335 4.92353C8.21529 4.86482 7.98158 4.99521 8.08026 5.30555C8.3029 6.00647 8.82776 6.11998 9.05308 6.77515C9.15945 7.08488 9.31067 7.31766 9.64865 7.08292C9.98663 6.84818 10.4643 6.53638 11.2787 6.50359C11.8255 6.48145 12.3907 6.27032 12.6504 5.9239C12.6478 6.22359 12.7485 6.46922 12.7219 6.85907C12.6955 7.24904 12.6997 7.73405 12.7978 8.27937Z" fill="white"/>
<path fill-rule="evenodd" clip-rule="evenodd" d="M13.4385 8.31217C13.3381 7.72244 13.5201 7.63743 13.3028 6.94617C13.172 6.53051 13.0885 6.00954 13.0864 5.76709L12.999 5.79376C13.0011 6.0362 13.0848 6.5573 13.2154 6.97296C13.4257 7.64134 13.2622 7.74287 13.3421 8.2822C13.3668 8.28746 13.4187 8.30483 13.4385 8.31217Z" fill="#FFF101"/>
<path fill-rule="evenodd" clip-rule="evenodd" d="M12.924 8.2475C12.9247 8.17251 12.9201 8.09423 12.9091 8.02695C13.0627 7.98817 13.3259 8.13728 13.3186 8.02646C13.3164 7.99135 13.3198 7.87783 13.3219 7.81765C13.3185 7.91172 12.9525 7.75294 12.8895 7.79392C12.8218 7.4508 12.9057 7.09777 12.852 6.88236C12.9742 6.84725 13.1988 6.92383 13.1713 6.82328C13.1557 6.77178 13.1259 6.64371 13.1062 6.56358C13.1254 6.6475 12.9471 6.57802 12.8867 6.62597C12.8554 6.43991 12.8096 6.08689 12.8105 5.92554L12.6504 5.92383C12.6479 6.22352 12.7485 6.46915 12.722 6.859C12.6955 7.24897 12.6997 7.73398 12.7978 8.2793C12.8329 8.26854 12.8907 8.25471 12.924 8.2475Z" fill="#FFF101"/>
<path fill-rule="evenodd" clip-rule="evenodd" d="M12.5197 5.50821C12.2811 5.86992 11.7111 6.11958 11.1842 6.17475C10.5674 6.23934 10.1534 6.45487 9.84846 6.66588C9.82224 6.61634 9.77494 6.58967 9.73312 6.55701C9.28702 6.2101 9.4704 5.74001 9.63933 5.80717C9.5756 5.78123 9.53855 5.74625 9.50372 5.71995C9.44477 5.67408 9.27467 5.84986 9.29599 6.129C9.30508 6.2479 9.40201 6.42331 9.48088 6.51628C9.33688 6.48876 9.26791 6.4501 9.18333 6.34282C9.23087 6.31175 9.29238 6.29414 9.34201 6.2901C9.32512 6.24753 9.30158 6.20032 9.29599 6.129C9.22551 6.12839 9.13953 6.1542 9.06578 6.2068C8.88881 6.02172 8.70659 5.87408 8.60092 5.65561C8.43187 5.30564 8.60384 5.08472 8.82648 5.31836C8.62236 5.1268 8.49141 4.98221 8.35335 4.92362C8.21529 4.8649 7.98158 4.9953 8.08026 5.30564C8.3029 6.00655 8.82776 6.12007 9.05308 6.77524C9.15945 7.08496 9.31626 7.32631 9.64865 7.08301C9.69246 7.05096 9.70411 7.04337 9.7422 7.015C9.84764 6.95102 10.0147 7.05842 9.99688 7.29194C10.0823 7.0775 10.0278 7.01181 9.95529 6.88325C9.9017 6.91322 9.90601 6.73769 9.87292 6.71457C10.0626 6.59078 10.2933 6.46662 10.5843 6.37818C10.595 6.48301 10.6225 6.59432 10.7144 6.57818C10.7637 6.56668 10.8137 6.55628 10.8662 6.54711C10.7743 6.56325 10.7485 6.44142 10.7379 6.33671C10.8758 6.30344 11.0266 6.27824 11.1918 6.26405C11.3821 6.24766 11.5789 6.20704 11.7637 6.14405C11.7912 6.2446 11.848 6.41402 11.9427 6.38074C12.0267 6.35249 12.1084 6.32056 12.1851 6.2835C12.0533 6.34943 12.0015 6.16117 11.9698 6.0616C12.2106 5.95163 12.4158 5.80166 12.5384 5.6227L12.5197 5.50821Z" fill="#FFF101"/>
<path fill-rule="evenodd" clip-rule="evenodd" d="M13.5739 5.68771C13.6902 5.59304 13.79 5.54826 13.6897 5.34778C13.5257 5.01995 13.6276 5.01882 13.2684 4.81026C12.9026 4.59815 12.9488 4.58151 12.4647 4.76072C12.3457 4.80475 12.3722 4.84977 12.3931 5.03105C12.438 5.42176 12.5232 5.73639 12.6012 6.05786C12.9055 6.01614 13.3736 5.85102 13.5739 5.68771Z" fill="#FFF101"/>
<path fill-rule="evenodd" clip-rule="evenodd" d="M12.4377 5.59881C12.3738 5.407 12.3909 5.43306 12.6223 5.49153C12.6981 5.23869 12.8026 5.02528 12.8612 4.82063C12.9267 4.59152 12.9472 4.5503 13.0436 4.60644C13.1668 4.67813 13.3022 4.75384 13.3904 4.79935C13.5444 4.87861 13.5217 4.90638 13.4482 5.03238C13.3747 5.15837 13.1342 5.41373 12.9859 5.68015C13.1815 5.82474 13.2443 5.83783 13.1054 5.90009C12.9498 5.9697 12.6914 6.05593 12.5826 6.07636C12.5627 5.95049 12.4984 5.78071 12.4377 5.59881Z" fill="#FFF101"/>
<path fill-rule="evenodd" clip-rule="evenodd" d="M10.141 7.40263L10.1257 7.59994L9.98713 7.46783L9.83218 7.57829L9.84243 7.38134L9.66406 7.32471L9.81645 7.20997L9.74923 7.02697L9.92806 7.08177L10.0225 6.91235L10.0943 7.09327L10.2789 7.06404L10.1885 7.23663L10.3245 7.36997L10.141 7.40263Z" fill="#FFF101"/>
<path fill-rule="evenodd" clip-rule="evenodd" d="M14.0172 10.029C13.754 9.7775 13.6431 9.31169 13.739 8.90288C13.537 8.65309 13.049 8.57542 12.7039 8.66887C11.7683 9.36331 11.3929 10.4957 10.9927 11.0135C10.8662 11.1771 10.7773 11.6343 11.0693 11.8769C11.3093 12.0763 11.3052 12.2532 12.1956 12.8719C12.6771 13.2065 13.1238 13.463 13.2784 13.6472C13.4331 13.8314 13.5896 14.0299 13.5569 14.2719C13.5119 14.605 13.6059 14.891 13.5604 15.1205C13.5043 15.4018 13.4506 15.5933 13.4712 15.7481C13.492 15.903 13.7163 16.0503 13.9229 15.8054C14.3896 15.2525 14.221 14.7185 14.6488 14.1861C14.8509 13.9344 14.9674 13.6805 14.6048 13.4905C14.2422 13.3007 13.7462 13.0221 13.3119 12.2982C13.0203 11.812 12.5636 11.4036 12.1479 11.3407C12.3964 11.1933 12.5488 10.9788 12.8836 10.808C13.2184 10.6371 13.6164 10.391 14.0172 10.029Z" fill="white"/>
<path fill-rule="evenodd" clip-rule="evenodd" d="M13.7242 9.42993C13.2881 9.81611 13.1269 9.69293 12.6654 10.2363C12.388 10.563 12 10.8995 11.801 11.0226L11.8667 11.0886C12.0657 10.9656 12.4537 10.6291 12.7312 10.3023C13.1774 9.77697 13.3429 9.87482 13.7478 9.53244C13.7398 9.50749 13.728 9.45158 13.7242 9.42993Z" fill="#FFF101"/>
<path fill-rule="evenodd" clip-rule="evenodd" d="M13.9281 9.93036C13.866 9.96718 13.8036 10.0105 13.7537 10.0541C13.6448 9.93378 13.6362 9.6199 13.5486 9.68216C13.5206 9.70149 13.4253 9.75531 13.3746 9.78344C13.454 9.73953 13.5059 10.1516 13.5712 10.1885C13.322 10.4216 12.9889 10.5218 12.8382 10.6784C12.7481 10.5847 12.6989 10.3423 12.6297 10.4176C12.5951 10.4575 12.5044 10.5486 12.4481 10.6066C12.5078 10.5471 12.5396 10.7441 12.6092 10.7749C12.4715 10.8965 12.2032 11.1146 12.0696 11.1945L12.1482 11.3409C12.3967 11.1935 12.5491 10.979 12.8839 10.8082C13.2188 10.6373 13.6168 10.3912 14.0175 10.0292C13.9911 10.0026 13.9507 9.95702 13.9281 9.93036Z" fill="#FFF101"/>
<path fill-rule="evenodd" clip-rule="evenodd" d="M11.8711 11.6675C12.2888 11.7036 12.7796 12.097 13.0886 12.5486C13.4502 13.0772 13.8351 13.3458 14.1616 13.5176C14.1339 13.5662 14.1355 13.6225 14.1295 13.677C14.0664 14.256 13.587 14.3243 13.5579 14.1371C13.5683 14.2081 13.558 14.2592 13.5538 14.3041C13.5454 14.3807 13.7755 14.4473 13.995 14.2884C14.0885 14.2207 14.1846 14.0449 14.222 13.9267C14.2712 14.0713 14.2738 14.1534 14.2278 14.2839C14.1782 14.2563 14.133 14.2091 14.1048 14.1661C14.0782 14.2027 14.051 14.2477 13.995 14.2884C14.0297 14.3529 14.094 14.4181 14.1743 14.4588C14.1101 14.7123 14.0794 14.9518 13.952 15.1571C13.748 15.4858 13.4797 15.4399 13.5611 15.1206C13.5051 15.402 13.4514 15.5934 13.472 15.7483C13.4927 15.9031 13.717 16.0504 13.9237 15.8055C14.3904 15.2526 14.2217 14.7187 14.6495 14.1862C14.8516 13.9346 14.9725 13.6713 14.6056 13.4907C14.5571 13.4669 14.5451 13.4602 14.5027 13.4396C14.3972 13.3758 14.4023 13.1702 14.6037 13.0696C14.3842 13.0992 14.3573 13.1817 14.2875 13.3118C14.3389 13.3455 14.192 13.4294 14.1894 13.4711C13.9925 13.3605 13.7749 13.2129 13.5563 12.9923C13.6375 12.9303 13.7156 12.8495 13.6562 12.7741C13.622 12.7351 13.5885 12.6947 13.5546 12.6515C13.614 12.7271 13.5265 12.8114 13.4453 12.8735C13.349 12.7648 13.2528 12.6403 13.1585 12.4971C13.0498 12.3321 12.9179 12.1736 12.7735 12.0371C12.8427 11.9617 12.954 11.8255 12.8792 11.7558C12.814 11.6936 12.7467 11.6352 12.6779 11.5842C12.7981 11.6711 12.6687 11.8124 12.6025 11.8909C12.3913 11.727 12.165 11.6153 11.9561 11.5934L11.8711 11.6675Z" fill="#FFF101"/>
<path fill-rule="evenodd" clip-rule="evenodd" d="M11.3222 10.6979C11.1859 10.6395 11.2532 10.5607 11.138 10.7521C10.9496 11.0651 10.9132 10.9931 10.9209 11.424C10.9287 11.8625 11.0098 11.7926 11.3997 12.1431C11.6995 11.9072 12.0573 11.5505 12.2834 11.3188C12.0969 11.063 11.557 10.7986 11.3222 10.6979Z" fill="#FFF101"/>
<path fill-rule="evenodd" clip-rule="evenodd" d="M11.9862 11.6964C11.8599 11.8504 11.8728 11.8219 11.8054 11.5821C11.559 11.6396 11.3689 11.706 11.171 11.7551C10.9491 11.81 10.905 11.812 10.903 11.6964C10.9006 11.5484 10.8954 11.3875 10.8888 11.2845C10.8773 11.1049 10.9114 11.1116 11.0521 11.1155C11.1929 11.1193 11.4852 11.1556 11.7792 11.1572C11.8006 10.907 11.78 10.8434 11.9009 10.9387C12.0359 11.0453 12.2363 11.2372 12.3076 11.3259C12.2137 11.4068 12.106 11.5503 11.9862 11.6964Z" fill="#FFF101"/>
<path fill-rule="evenodd" clip-rule="evenodd" d="M14.6226 12.883L14.7931 12.7982L14.7534 12.9902L14.9221 13.0759L14.7544 13.165L14.7968 13.3555L14.6259 13.2743L14.5086 13.427L14.4644 13.2369L14.2774 13.2357L14.3909 13.0801L14.2744 12.9269L14.4621 12.9228L14.504 12.7324L14.6226 12.883Z" fill="#FFF101"/>
<path fill-rule="evenodd" clip-rule="evenodd" d="M14.8508 8.04526C14.775 8.41015 14.4461 8.74398 14.0611 8.86129C13.956 9.16979 14.1359 9.65211 14.3856 9.91939C15.4261 10.4229 16.5479 10.198 17.175 10.303C17.3733 10.3361 17.7948 10.1884 17.849 9.80171C17.8935 9.48379 18.0414 9.39915 18.1065 8.28C18.1417 7.67486 18.1299 7.14043 18.2046 6.90777C18.2793 6.67511 18.3647 6.43352 18.5807 6.34226C18.8779 6.21664 19.0667 5.98801 19.279 5.91474C19.5389 5.82496 19.7237 5.77811 19.841 5.68196C19.9585 5.58581 19.9678 5.30814 19.6625 5.24269C18.9731 5.09468 18.617 5.51511 17.9639 5.3923C17.6553 5.33431 17.3875 5.35523 17.4122 5.78006C17.4369 6.20477 17.4552 6.79499 17.0752 7.55181C16.8199 8.06018 16.7115 8.67963 16.8673 9.08905C16.6215 8.93676 16.3685 8.90545 16.0602 8.68648C15.7518 8.4674 15.3498 8.22875 14.8508 8.04526Z" fill="white"/>
<path fill-rule="evenodd" clip-rule="evenodd" d="M14.5029 8.61136C15.0396 8.81478 15.0186 9.02298 15.6975 9.17099C16.1057 9.25992 16.5772 9.44438 16.7783 9.56377L16.7998 9.47093C16.5989 9.35154 16.1272 9.1672 15.7191 9.07815C15.0626 8.93503 15.0606 8.73564 14.5757 8.53857C14.5592 8.55851 14.5189 8.59705 14.5029 8.61136Z" fill="#FFF101"/>
<path fill-rule="evenodd" clip-rule="evenodd" d="M14.8144 8.17581C14.8759 8.21385 14.9428 8.24884 15.0037 8.27257C14.9589 8.43159 14.7043 8.59648 14.7994 8.64504C14.8294 8.66082 14.9213 8.72052 14.9699 8.75257C14.8941 8.70229 15.2079 8.44908 15.2057 8.37116C15.5227 8.48125 15.7718 8.7341 15.9764 8.79293C15.9442 8.92162 15.7688 9.08749 15.8655 9.11281C15.9157 9.12431 16.0363 9.16125 16.1122 9.18339C16.0334 9.15893 16.1799 9.03147 16.1705 8.95281C16.3396 9.01715 16.6536 9.15208 16.7863 9.23367L16.8678 9.08896C16.6219 8.93666 16.3689 8.90535 16.0606 8.68639C15.7522 8.46731 15.3502 8.22865 14.8512 8.04517C14.8426 8.08235 14.8251 8.14192 14.8144 8.17581Z" fill="#FFF101"/>
<path fill-rule="evenodd" clip-rule="evenodd" d="M17.2758 9.17798C17.0967 8.78019 17.1758 8.13713 17.3939 7.63034C17.6491 7.03719 17.6782 6.55291 17.6565 6.17028C17.7106 6.17126 17.7561 6.14153 17.8041 6.11976C18.3133 5.88771 18.6093 6.28942 18.4694 6.40942C18.5227 6.36441 18.5702 6.34838 18.6092 6.32979C18.6765 6.29896 18.6165 6.05652 18.3757 5.93639C18.2731 5.88514 18.08 5.88563 17.9637 5.9107C18.0586 5.79364 18.1249 5.75034 18.2556 5.72697C18.2576 5.78581 18.2413 5.85052 18.2198 5.89762C18.2634 5.90349 18.3141 5.90569 18.3757 5.93639C18.4115 5.87254 18.4331 5.78153 18.4266 5.68807C18.6678 5.61982 18.8806 5.52795 19.1137 5.54116C19.4868 5.56233 19.5832 5.82924 19.2792 5.91474C19.5391 5.82496 19.7239 5.77811 19.8412 5.68196C19.9587 5.58581 19.968 5.30814 19.6627 5.24269C18.9733 5.09468 18.6172 5.51511 17.9641 5.3923C17.6555 5.33431 17.378 5.35609 17.4124 5.78006C17.417 5.83596 17.4175 5.85028 17.4218 5.89908C17.4218 6.02704 17.2497 6.12514 17.0661 5.99217C17.2002 6.17713 17.2816 6.16037 17.4239 6.15878C17.426 6.09505 17.5686 6.18667 17.6042 6.1682C17.6116 6.40257 17.5985 6.67437 17.5259 6.98324C17.4341 6.94055 17.3287 6.90985 17.2959 7.00159C17.2808 7.05211 17.2644 7.10275 17.2457 7.15511C17.2784 7.06337 17.3917 7.10092 17.4834 7.14361C17.4419 7.28563 17.3873 7.43535 17.3164 7.59266C17.2347 7.77395 17.1699 7.97309 17.1295 8.17272C17.0328 8.1474 16.8646 8.11437 16.8446 8.21725C16.826 8.30765 16.8114 8.39792 16.8037 8.48612C16.8152 8.33333 16.9964 8.38031 17.0944 8.40122C17.0648 8.67523 17.0858 8.93676 17.1721 9.13786L17.2758 9.17798Z" fill="#FFF101"/>
<path fill-rule="evenodd" clip-rule="evenodd" d="M16.5591 10.0094C16.5791 10.1626 16.566 10.2757 16.7816 10.2847C17.134 10.2995 17.1053 10.3451 17.457 10.1227C17.8147 9.8963 17.8243 9.94101 17.9185 9.41122C17.9417 9.28095 17.8913 9.28254 17.7313 9.21085C17.3868 9.05624 17.0857 9.0668 16.7816 8.97689C16.6638 9.2745 16.5246 9.74572 16.5591 10.0094Z" fill="#FFF101"/>
<path fill-rule="evenodd" clip-rule="evenodd" d="M17.2414 9.05845C17.4317 9.09613 17.4016 9.09869 17.2377 9.27998C17.4084 9.47521 17.539 9.61257 17.6786 9.76816C17.8348 9.94235 17.8585 9.9815 17.7641 10.0411C17.6433 10.1173 17.5133 10.2024 17.4316 10.26C17.2891 10.3603 17.2776 10.3258 17.2104 10.1959C17.1431 10.0661 17.0458 9.7842 16.9003 9.51631C16.6831 9.62175 16.641 9.67239 16.6591 9.51484C16.6795 9.33869 16.7377 9.06053 16.7752 8.95142C16.8889 8.99619 17.0611 9.02249 17.2414 9.05845Z" fill="#FFF101"/>
<path fill-rule="evenodd" clip-rule="evenodd" d="M16.9021 6.06832L16.7471 5.95566L16.9253 5.89572L16.9116 5.69952L17.0689 5.80741L17.2049 5.67358L17.2233 5.86955L17.4079 5.89988L17.2732 6.03517L17.3657 6.20569L17.1806 6.18037L17.1124 6.36288L17.0153 6.19432L16.8372 6.25144L16.9021 6.06832Z" fill="#FFF101"/>
<path d="M12.7456 4.66748C13.046 4.54248 13.408 4.76758 13.5054 5.03467C13.5508 5.15914 13.6172 5.29735 13.7222 5.49365C13.7358 5.51916 13.9517 5.91358 14.0181 6.04053C14.3497 6.675 14.5336 7.19217 14.5835 7.76709C14.481 8.15445 14.1619 8.54081 13.8618 8.59521C13.5722 8.30336 13.134 8.17484 12.8003 8.28662L12.7915 8.28076C12.7038 7.79343 12.6838 7.32217 12.7153 6.85791C12.7275 6.67854 12.7173 6.54712 12.6821 6.31299C12.6675 6.21578 12.6658 6.20186 12.6606 6.16162C12.6501 6.07919 12.6443 6.00973 12.644 5.94092C12.3887 6.26741 11.8471 6.48825 11.2798 6.51123C10.6106 6.53817 10.1928 6.715 9.65381 7.08936C9.35442 7.29729 9.18326 7.17327 9.04736 6.77783C8.95738 6.51617 8.84764 6.36443 8.58447 6.08643C8.57435 6.07573 8.57409 6.07564 8.56396 6.06494C8.28841 5.77373 8.16782 5.60422 8.07373 5.30811C7.98584 5.0317 8.1762 4.83964 8.35693 4.9165C8.36917 4.92171 8.38163 4.92744 8.39404 4.93408C8.45222 4.96522 8.51231 5.0114 8.59131 5.0835C8.63371 5.12223 8.80054 5.282 8.83252 5.31201C8.88988 5.36581 8.95885 5.40882 9.07471 5.46631C9.08043 5.46915 9.09585 5.47661 9.11475 5.48584C9.0934 5.47762 9.07318 5.473 9.05322 5.47119C8.97176 5.43021 8.91532 5.39471 8.86768 5.35791L8.86963 5.35693L8.87061 5.34424C8.85466 5.33166 8.83711 5.32481 8.81982 5.3208C8.78166 5.28479 8.62245 5.13257 8.58154 5.09521C8.50333 5.02383 8.44414 4.97821 8.38721 4.94775C8.37517 4.94132 8.36292 4.9352 8.35107 4.93018C8.1821 4.85876 8.00446 5.03932 8.08838 5.30322C8.18155 5.59637 8.2999 5.76478 8.57373 6.0542C8.58378 6.06481 8.58435 6.06524 8.59424 6.07568C8.85877 6.35512 8.97014 6.5078 9.06104 6.77197C9.19422 7.15977 9.35648 7.27774 9.646 7.07666C10.1869 6.70101 10.6068 6.52273 11.2788 6.49561C11.8504 6.47247 12.3984 6.24965 12.646 5.91943L12.6587 5.92334C12.6581 5.99706 12.6629 6.07101 12.6743 6.15967C12.6795 6.19969 12.6823 6.21334 12.6968 6.31006C12.7321 6.54551 12.7423 6.67884 12.73 6.85986C12.6988 7.31995 12.7181 7.78635 12.8042 8.26904C13.1422 8.16005 13.581 8.29023 13.8657 8.58154C14.1531 8.52622 14.4688 8.14545 14.5698 7.76611C14.52 7.19647 14.3361 6.68104 14.0054 6.04834C13.9391 5.92154 13.7232 5.52708 13.7095 5.50146C13.604 5.30428 13.5374 5.16501 13.4917 5.03955C13.3969 4.77992 13.0434 4.5608 12.7515 4.68213C12.7118 4.69866 12.6727 4.71131 12.6304 4.72314C12.6033 4.73073 12.5753 4.73794 12.5376 4.74658C12.1489 4.83558 11.9336 4.91212 11.3677 5.2085C11.3519 5.21676 11.3359 5.22538 11.3198 5.23389C11.1647 5.31601 10.6991 5.57409 10.6509 5.6001C10.4268 5.72085 10.2864 5.78474 10.1851 5.80615C9.85037 5.87686 9.68094 5.87372 9.5249 5.74561C9.47573 5.70516 9.42264 5.66815 9.36475 5.6333C9.34969 5.62424 9.33364 5.61676 9.31787 5.60791L9.32373 5.60107L9.32178 5.59229C9.33882 5.60181 9.35634 5.60987 9.37256 5.61963C9.43097 5.6548 9.48399 5.69203 9.53369 5.73291C9.68526 5.85756 9.85124 5.86043 10.1821 5.79053C10.2816 5.76945 10.4213 5.70646 10.644 5.58643C10.6919 5.56062 11.1576 5.30252 11.313 5.22021C11.329 5.21173 11.3451 5.20307 11.3608 5.19482C11.928 4.89779 12.1447 4.82121 12.5347 4.73193C12.5722 4.72334 12.5996 4.71601 12.6265 4.7085C12.6682 4.6968 12.7064 4.68379 12.7456 4.66748ZM12.7964 8.27197L12.8062 8.27783C12.8056 8.27493 12.8047 8.27195 12.8042 8.26904C12.8016 8.26989 12.799 8.2711 12.7964 8.27197ZM9.30127 5.59912C9.30223 5.59951 9.30324 5.59969 9.3042 5.6001C9.30884 5.60265 9.31332 5.60536 9.31787 5.60791L8.93896 6.07666L8.92627 6.06982C9.00036 5.7495 9.12362 5.57072 9.25342 5.57275C9.27022 5.58147 9.28582 5.59065 9.30127 5.59912ZM8.92725 6.06689L8.93994 6.07373C8.94263 6.0621 8.94592 6.0508 8.94873 6.03955L8.92725 6.06689ZM9.05322 5.47119C9.05844 5.47382 9.06344 5.47729 9.06885 5.47998C9.07475 5.48291 9.09065 5.49013 9.10986 5.49951C8.97612 5.44817 8.87679 5.52401 8.74072 5.81787L9.11963 5.50439C9.12474 5.50689 9.12993 5.50961 9.13525 5.51221L8.7251 5.85107L8.71436 5.84131C8.83916 5.56366 8.93606 5.46058 9.05322 5.47119ZM8.71631 5.83936L8.72705 5.84814C8.73169 5.83783 8.73617 5.8277 8.74072 5.81787L8.71631 5.83936ZM9.31494 5.60303C9.3117 5.60137 9.30745 5.60149 9.3042 5.6001L9.31201 5.59131L9.31494 5.60303ZM9.32178 5.58936V5.59229C9.31761 5.58996 9.31333 5.58778 9.30908 5.58545C9.313 5.58711 9.31786 5.58736 9.32178 5.58936ZM9.22021 5.5376C9.25272 5.55388 9.28145 5.57027 9.30908 5.58545C9.29026 5.57748 9.27211 5.57305 9.25342 5.57275C9.2405 5.56605 9.22736 5.55827 9.21338 5.55127C9.1984 5.54377 9.16602 5.52723 9.13525 5.51221L9.14111 5.5083L9.13916 5.49756C9.17065 5.51294 9.20495 5.52995 9.22021 5.5376ZM8.81982 5.3208C8.82089 5.3218 8.82188 5.32291 8.82275 5.32373C8.83252 5.33289 8.8444 5.33952 8.85498 5.34814L8.85107 5.35107C8.85431 5.35317 8.85866 5.35444 8.86182 5.35693V5.35303C8.86381 5.35461 8.86564 5.35634 8.86768 5.35791L8.56689 5.56885L8.55615 5.56006C8.61757 5.39816 8.72558 5.29893 8.81982 5.3208ZM8.55908 5.55615L8.56982 5.56494C8.57298 5.55663 8.5762 5.54848 8.57959 5.54053L8.55908 5.55615ZM9.1333 5.5083C9.12914 5.50633 9.1247 5.50517 9.12061 5.50342L9.13135 5.49561L9.1333 5.5083ZM9.13916 5.49463V5.49756C9.13074 5.49344 9.12241 5.48958 9.11475 5.48584C9.12257 5.48885 9.1311 5.49081 9.13916 5.49463ZM8.86182 5.35303C8.8596 5.35127 8.85715 5.34991 8.85498 5.34814L8.86182 5.34424V5.35303Z" fill="black"/>
<path d="M13.0938 5.76709C13.0961 6.03361 13.1886 6.55919 13.3096 6.94385C13.4108 7.26586 13.4315 7.4474 13.4199 7.71729C13.419 7.73874 13.419 7.73888 13.418 7.76025C13.4076 7.9863 13.4108 8.10839 13.4453 8.31104L13.4365 8.31982C13.4091 8.30966 13.3612 8.29437 13.335 8.28369C13.3086 8.10604 13.3068 7.99517 13.3164 7.78662C13.3174 7.76491 13.3174 7.7643 13.3184 7.74268C13.3299 7.47485 13.3096 7.29498 13.209 6.9751C13.0877 6.58891 12.9942 6.06203 12.9971 5.78662L13.0938 5.76709ZM13.4316 8.31396L13.4414 8.30518C13.4378 8.30385 13.4338 8.30272 13.4297 8.30127C13.4304 8.30532 13.4309 8.30985 13.4316 8.31396ZM13.0068 5.79346C13.0091 6.05969 13.1018 6.5854 13.2227 6.97021C13.3239 7.29212 13.3446 7.47384 13.333 7.74365C13.3321 7.76515 13.332 7.76539 13.3311 7.78662C13.3215 7.99432 13.3233 8.10475 13.3438 8.2749C13.3623 8.27886 13.4015 8.29133 13.4297 8.30127C13.3969 8.10454 13.3941 7.98179 13.4043 7.75928C13.4053 7.73805 13.4053 7.73778 13.4062 7.71631C13.4178 7.44827 13.3966 7.26882 13.2959 6.94873C13.1746 6.56289 13.082 6.03602 13.0889 5.7749L13.0068 5.79346Z" fill="black"/>
<path d="M12.8174 5.92554C12.8166 6.06422 12.8531 6.38348 12.8916 6.61499C12.9123 6.60303 12.9409 6.59849 12.9873 6.59937C12.9966 6.59957 12.9969 6.60008 13.0059 6.60034C13.0485 6.60156 13.0651 6.60057 13.0801 6.59644C13.0973 6.59165 13.1027 6.58309 13.0986 6.56519C13.1 6.57089 13.1023 6.58241 13.1055 6.59546C13.1003 6.602 13.0944 6.60812 13.084 6.61108C13.0671 6.61577 13.0499 6.61625 13.0059 6.61499C12.9967 6.61473 12.9961 6.61519 12.9873 6.61499C12.9374 6.61403 12.9082 6.61772 12.8906 6.63159L12.8789 6.62769C12.8397 6.39474 12.8016 6.06756 12.8096 5.93335L12.6572 5.92358C12.6566 5.99735 12.6624 6.07118 12.6738 6.15991C12.679 6.19987 12.6808 6.21354 12.6953 6.3103C12.7306 6.54562 12.7408 6.67827 12.7285 6.85913C12.6971 7.32214 12.7167 7.79217 12.7949 8.27222C12.8242 8.26323 12.8745 8.24992 12.915 8.24097C12.915 8.24309 12.916 8.24567 12.916 8.2478L12.9219 8.23999C12.9197 8.24047 12.9173 8.24046 12.915 8.24097C12.9154 8.1649 12.9121 8.09005 12.9072 8.01929C12.948 8.00907 12.9973 8.0112 13.0605 8.02222C13.0819 8.02594 13.1039 8.03016 13.1338 8.03687C13.2251 8.05733 13.2387 8.05977 13.2656 8.0603C13.299 8.06096 13.3121 8.05166 13.3105 8.0271C13.3089 8.00049 13.3107 7.92913 13.3135 7.84351C13.3223 7.83744 13.3286 7.83017 13.3291 7.81812C13.3258 7.91428 13.3244 7.99768 13.3262 8.02612C13.3284 8.06135 13.3064 8.07674 13.2656 8.07593C13.2373 8.07536 13.2238 8.07236 13.1309 8.05151C13.1012 8.04486 13.0796 8.04054 13.0586 8.03687C12.997 8.02613 12.9491 8.02415 12.916 8.02515C12.9267 8.09013 12.9324 8.16867 12.9316 8.2478L12.9258 8.25464C12.8847 8.26355 12.8307 8.27751 12.791 8.28101C12.7034 7.79368 12.6834 7.32242 12.7148 6.85815C12.7271 6.67876 12.7168 6.5473 12.6816 6.31323C12.6671 6.21602 12.6643 6.20211 12.6592 6.16187C12.6477 6.07247 12.6424 5.99793 12.6504 5.91577L12.8174 5.92554ZM13.1387 6.6687C13.1397 6.67307 13.1405 6.67297 13.1416 6.67749C13.1592 6.74981 13.1708 6.79481 13.1787 6.82104C13.1879 6.85467 13.1717 6.87447 13.1367 6.88159C13.112 6.88656 13.0876 6.88633 13.0186 6.88257C12.9984 6.88147 12.9871 6.88105 12.9746 6.88062C12.9221 6.87878 12.8845 6.88119 12.8594 6.88062C12.8809 6.96706 12.8823 7.046 12.874 7.26733C12.8659 7.48285 12.8664 7.59329 12.8848 7.72339C12.8876 7.74355 12.8908 7.76347 12.8945 7.78296C12.9218 7.77243 12.9707 7.78117 13.0947 7.8103C13.0984 7.81116 13.0985 7.81132 13.1025 7.81226C13.178 7.82993 13.2175 7.83728 13.252 7.8396C13.2936 7.84237 13.3138 7.83482 13.3145 7.81714C13.3141 7.826 13.3138 7.83491 13.3135 7.84351C13.3005 7.85243 13.28 7.85715 13.251 7.85522C13.2155 7.85286 13.175 7.84482 13.0986 7.8269C13.0949 7.82603 13.0948 7.82587 13.0908 7.82495C12.9602 7.79426 12.9131 7.78722 12.8926 7.80054L12.8818 7.79565C12.8773 7.77288 12.8735 7.74902 12.8701 7.72534C12.8516 7.59421 12.8503 7.48341 12.8584 7.26733C12.8667 7.0472 12.8656 6.96863 12.8496 6.87476C12.8816 6.86557 12.9205 6.8631 12.9746 6.86499C12.9872 6.86543 12.9992 6.86584 13.0195 6.86694C13.087 6.87061 13.1108 6.8716 13.1338 6.86694C13.1611 6.86139 13.1704 6.84946 13.1641 6.82593C13.1561 6.79951 13.1446 6.75402 13.127 6.6814C13.1259 6.67696 13.126 6.67672 13.125 6.67261C13.1238 6.66756 13.1129 6.62631 13.1055 6.59546C13.1122 6.58684 13.1167 6.57623 13.1133 6.56128L13.1387 6.6687ZM11.7617 6.14819L11.7656 6.16382V6.16479L11.7607 6.14819L11.9668 6.05444C11.8984 6.09018 11.83 6.12147 11.7617 6.14819ZM11.7285 5.01538L11.9736 5.94409C11.9625 5.92347 11.9531 5.90209 11.9424 5.88159L11.7168 5.02905C11.7194 5.02749 11.7218 5.02544 11.7246 5.02417L11.7148 5.01929L11.7168 5.02905C11.654 5.06676 11.6568 5.18806 11.7178 5.37573C11.7647 5.52006 11.8459 5.69709 11.9424 5.88159L11.9619 5.95288L11.9746 5.94702L11.9756 5.94897L11.9629 5.95483C11.8506 5.74679 11.7569 5.54279 11.7041 5.38062C11.6382 5.17799 11.6374 5.04741 11.7188 5.0105L11.7285 5.01538Z" fill="black"/>
<path d="M10.5911 6.37695C10.605 6.51324 10.6402 6.58268 10.7122 6.57031C10.7471 6.56217 10.7816 6.55545 10.8157 6.54883C10.8305 6.55563 10.8477 6.55815 10.8674 6.55469L10.8645 6.53906H10.8655L10.8684 6.55469C10.818 6.56348 10.7679 6.57288 10.7161 6.58496C10.6313 6.59982 10.5927 6.5228 10.5872 6.38477C10.3298 6.46296 10.105 6.57255 9.88306 6.7168C9.89165 6.7283 9.89989 6.74739 9.90845 6.78809C9.90937 6.79249 9.9085 6.79345 9.90942 6.79785C9.91671 6.83244 9.92154 6.84992 9.92798 6.86328C9.9352 6.87818 9.94248 6.88167 9.96216 6.87891C9.9675 6.88838 9.98734 6.92359 9.99243 6.93262C10.0036 6.95241 10.0118 6.96842 10.0188 6.9834C10.0605 7.07338 10.0595 7.15585 10.0042 7.29492L9.99048 7.29102L9.9895 7.28906L10.0042 7.29199C10.0053 7.27729 10.0026 7.26299 10.0022 7.24902C10.0413 7.13716 10.0409 7.06738 10.0051 6.99023C9.99837 6.97568 9.99069 6.9599 9.97974 6.94043C9.97498 6.93197 9.9541 6.89653 9.95825 6.88965C9.93983 6.89989 9.92482 6.89181 9.91431 6.87012C9.90708 6.85513 9.90238 6.83694 9.89478 6.80078C9.89385 6.79638 9.89373 6.79633 9.89282 6.79199C9.88317 6.74603 9.87692 6.72665 9.86841 6.7207V6.70801C10.0933 6.56121 10.3209 6.44972 10.5911 6.37695ZM8.35669 4.91602C8.36895 4.92122 8.38137 4.92695 8.3938 4.93359C8.452 4.96473 8.51203 5.01088 8.59106 5.08301C8.63305 5.12134 8.80023 5.28243 8.83228 5.3125L8.82642 5.31836L8.8313 5.3125C8.79521 5.27464 8.75883 5.24852 8.72485 5.23242C8.66793 5.17807 8.60405 5.11638 8.58032 5.09473C8.50214 5.02338 8.4429 4.97771 8.38599 4.94727C8.37402 4.94088 8.36163 4.93566 8.34985 4.93066C8.18085 4.85908 8.00328 5.03879 8.08716 5.30273C8.18039 5.59625 8.29926 5.76489 8.57349 6.05469C8.58332 6.06508 8.58299 6.06558 8.59302 6.07617C8.85764 6.35571 8.9689 6.50812 9.05981 6.77246C9.12139 6.95171 9.18683 7.06927 9.26978 7.12988C9.36855 7.20197 9.49003 7.18869 9.6438 7.07617C9.662 7.06285 9.67526 7.05431 9.69653 7.03906V7.03809C9.71083 7.0278 9.72277 7.0195 9.73853 7.00781C9.85583 6.93701 9.99672 7.05607 10.0022 7.24902C9.99808 7.26081 9.99455 7.27337 9.9895 7.28613C10.0027 7.08214 9.86031 6.95252 9.74731 7.02051C9.73213 7.03182 9.72057 7.04051 9.7063 7.05078C9.68508 7.066 9.67164 7.07565 9.65356 7.08887C9.49532 7.2047 9.36722 7.21844 9.26294 7.14258C9.17675 7.07968 9.10969 6.95954 9.04712 6.77734C8.95716 6.51577 8.84722 6.36475 8.58423 6.08691C8.57416 6.07628 8.57369 6.07596 8.56372 6.06543C8.28804 5.77409 8.1676 5.60391 8.07349 5.30762C7.98575 5.03132 8.176 4.83917 8.35669 4.91602ZM12.5276 5.50684L12.5452 5.62695C12.426 5.80072 12.2248 5.95293 11.9768 6.05859C11.9768 6.0586 11.9872 6.0916 11.9905 6.10156C11.9961 6.11878 12.0018 6.13337 12.0071 6.14746C12.0513 6.26494 12.1028 6.31362 12.1799 6.27637C12.1604 6.28576 12.14 6.29378 12.1194 6.30273C12.0667 6.2957 12.0263 6.24338 11.9924 6.15332C11.987 6.13895 11.9815 6.12391 11.9758 6.10645C11.9725 6.09618 11.9626 6.06241 11.967 6.05469C12.2165 5.94072 12.4144 5.78932 12.5305 5.62402L12.5139 5.52539C12.5172 5.52068 12.5225 5.51743 12.5256 5.5127L12.512 5.50879L12.5139 5.52539C12.2801 5.86428 11.7382 6.12364 11.1848 6.18164C10.6502 6.23763 10.2401 6.40338 9.84204 6.66895C9.83373 6.65327 9.82416 6.64107 9.81079 6.62793L9.75513 6.58301C9.74186 6.57331 9.73602 6.56817 9.72876 6.5625C9.52729 6.40582 9.43523 6.20898 9.44849 6.02637C9.45813 5.89511 9.52436 5.79877 9.59985 5.79395C9.6106 5.79976 9.62037 5.80758 9.63208 5.8125C9.55392 5.78685 9.47366 5.884 9.46313 6.02734C9.45025 6.20452 9.54005 6.39713 9.73755 6.55078C9.74465 6.55633 9.7508 6.56072 9.76392 6.57031C9.81581 6.60827 9.83731 6.62777 9.84497 6.65918C10.2346 6.38955 10.6467 6.22327 11.1838 6.16699C11.741 6.10866 12.2883 5.84543 12.5139 5.50391L12.5276 5.50684ZM11.7708 6.1416C11.8154 6.30495 11.8696 6.39801 11.9407 6.37305C12.0049 6.35142 12.0638 6.32694 12.1194 6.30273C12.1402 6.30551 12.1627 6.30258 12.1877 6.29004L12.1819 6.27637H12.1829L12.1887 6.29004C12.1155 6.32543 12.0348 6.35767 11.9456 6.3877C11.8617 6.41709 11.8049 6.31878 11.7668 6.15137C11.5834 6.2139 11.3856 6.25487 11.1926 6.27148C11.0331 6.2852 10.8823 6.30981 10.7454 6.33594C10.7597 6.47715 10.7935 6.54989 10.8635 6.53906C10.8475 6.54187 10.8317 6.54572 10.8157 6.54883C10.7672 6.5266 10.743 6.45115 10.7356 6.3291C10.8789 6.29454 11.0304 6.26963 11.1907 6.25586C11.3825 6.23934 11.5792 6.1986 11.7708 6.1416ZM8.56079 5.26367C8.59839 5.21088 8.6575 5.20051 8.72485 5.23242C8.75881 5.26485 8.79021 5.29481 8.80884 5.3125C8.71117 5.21641 8.62177 5.20476 8.57349 5.27246C8.52135 5.34566 8.53005 5.49045 8.60767 5.65137C8.66728 5.77463 8.74749 5.87503 8.88892 6.01758C8.90328 6.03205 9.00678 6.13485 9.03735 6.16602C9.04922 6.17811 9.06008 6.18971 9.06177 6.2002C9.12948 6.1519 9.21101 6.12462 9.28931 6.12793C9.27123 5.8832 9.42319 5.64797 9.50806 5.71387C9.50916 5.7147 9.54979 5.74589 9.56372 5.75586C9.58881 5.77374 9.6141 5.78812 9.64282 5.7998L9.63696 5.81348L9.63599 5.8125L9.64185 5.7998C9.62781 5.79422 9.61359 5.79307 9.59985 5.79395C9.58488 5.78584 9.56933 5.77882 9.55493 5.76855C9.5409 5.75854 9.50076 5.72673 9.49927 5.72559C9.42885 5.67079 9.28512 5.89321 9.30298 6.12793C9.31109 6.23412 9.39669 6.40583 9.4856 6.51074L9.47974 6.52344C9.33249 6.49529 9.262 6.45487 9.17896 6.33594C9.22176 6.30796 9.27893 6.29008 9.3313 6.28418C9.33282 6.2879 9.3345 6.29119 9.33521 6.29297L9.34106 6.28223C9.33779 6.28249 9.33461 6.28381 9.3313 6.28418C9.32735 6.2745 9.32212 6.26072 9.32056 6.25684C9.30215 6.21104 9.29165 6.17508 9.29517 6.13672C9.22287 6.13621 9.13924 6.1635 9.06079 6.21191C9.04994 6.20057 9.03844 6.18881 9.02661 6.17676C8.99617 6.14573 8.89286 6.04409 8.87817 6.0293C8.73556 5.88558 8.65456 5.78429 8.59399 5.65918C8.51401 5.49359 8.50485 5.34254 8.56079 5.26367ZM9.34009 6.29785C9.28812 6.3026 9.23058 6.32119 9.1897 6.33789C9.26804 6.43717 9.33248 6.47562 9.46216 6.50293C9.41587 6.44454 9.37227 6.37021 9.34009 6.29785ZM9.63599 5.8125V5.81445C9.63464 5.8139 9.63341 5.81306 9.63208 5.8125C9.63324 5.81288 9.63483 5.81207 9.63599 5.8125ZM8.82153 5.32324L8.82642 5.31836L8.82153 5.32422C8.81855 5.32142 8.81392 5.31733 8.80884 5.3125C8.81271 5.31631 8.81764 5.31917 8.82153 5.32324Z" fill="black"/>
<path d="M12.7021 8.66138C13.073 8.56095 13.5513 8.65874 13.7461 8.90454C13.6501 9.31382 13.7633 9.776 14.0225 10.0237L14.0215 10.0344C13.6635 10.3577 13.2858 10.611 12.8867 10.8147C12.7695 10.8745 12.6697 10.9419 12.5605 11.0295C12.5335 11.0513 12.5063 11.0735 12.4717 11.1028C12.4673 11.1065 12.405 11.1588 12.3867 11.1741C12.3 11.2468 12.2349 11.2945 12.165 11.3372C12.5623 11.4058 13.0156 11.7894 13.3184 12.2942C13.6753 12.889 14.0306 13.1812 14.6084 13.4836C14.9293 13.6519 14.9125 13.8692 14.6543 14.1907C14.4823 14.4048 14.4142 14.578 14.3145 14.9641C14.2057 15.385 14.1299 15.5724 13.9287 15.8108C13.7447 16.0287 13.4911 15.9519 13.4639 15.7493C13.4542 15.6768 13.4596 15.5947 13.4795 15.4807C13.491 15.4145 13.5484 15.1402 13.5527 15.1184C13.5704 15.0293 13.5694 14.9584 13.5537 14.7698C13.5574 14.7945 13.5637 14.8163 13.5723 14.8362C13.5801 14.9431 13.5819 15.0059 13.5752 15.0647L13.5713 15.0627L13.5605 15.0686C13.5582 15.0891 13.5612 15.1077 13.5664 15.1252C13.5586 15.1635 13.5053 15.4187 13.4941 15.4827C13.4745 15.5955 13.4691 15.6767 13.4785 15.7473C13.5042 15.9367 13.7412 16.0081 13.917 15.8C14.1163 15.5639 14.1916 15.379 14.2998 14.9602C14.4001 14.5719 14.4698 14.3972 14.6436 14.1809C14.8966 13.8659 14.912 13.66 14.6016 13.4973C14.0215 13.1937 13.6643 12.8998 13.3057 12.302C13.0008 11.7938 12.5427 11.4078 12.1465 11.3479L12.1445 11.3342C12.2193 11.2899 12.2858 11.2396 12.3779 11.1624C12.3964 11.1469 12.4597 11.0938 12.4629 11.0911C12.4976 11.0617 12.5246 11.0387 12.5518 11.0168C12.6616 10.9288 12.7628 10.8613 12.8809 10.801C13.2766 10.599 13.6507 10.3474 14.0059 10.0276C14.0081 10.0298 14.0104 10.0323 14.0127 10.0344V10.0227C14.0107 10.0245 14.0078 10.0258 14.0059 10.0276C13.7473 9.77445 13.6355 9.31168 13.7334 8.90747C13.5441 8.6736 13.0715 8.57712 12.708 8.67505C12.3583 8.93463 12.0673 9.26727 11.791 9.69165C11.636 9.92978 11.1581 10.7941 11.0498 10.9485C11.0325 10.9731 11.0148 10.9961 10.998 11.0178C10.831 11.2339 10.8278 11.6655 11.0742 11.8704C11.0857 11.8799 11.0966 11.8898 11.1074 11.8997C11.1407 11.9298 11.1705 11.9613 11.2061 12.0012C11.2207 12.0177 11.2989 12.1085 11.3252 12.1379C11.3787 12.1978 11.4323 12.2535 11.4961 12.3137C11.6607 12.4692 11.8834 12.6461 12.1992 12.8655C12.3595 12.9768 12.8625 13.3093 12.8633 13.3098C13.0868 13.4606 13.214 13.5582 13.2842 13.6418C13.5098 13.9105 13.5923 14.0666 13.5645 14.2727C13.5529 14.358 13.5514 14.4338 13.5547 14.5286L13.5459 14.5276L13.54 14.5325C13.5365 14.4353 13.538 14.3581 13.5498 14.2708C13.5769 14.0706 13.4954 13.918 13.2725 13.6526C13.2035 13.5704 13.0778 13.4725 12.8555 13.3225C12.8513 13.3198 12.3513 12.9892 12.1914 12.8782C11.8749 12.6583 11.6515 12.4805 11.4863 12.3245C11.4224 12.2641 11.369 12.2087 11.3154 12.1487C11.2895 12.1196 11.2117 12.0293 11.1963 12.012C11.161 11.9723 11.1305 11.9411 11.0977 11.9114C11.087 11.9017 11.0758 11.8925 11.0645 11.8831C10.811 11.6723 10.8156 11.2302 10.9873 11.0081C11.0038 10.9866 11.021 10.9639 11.0381 10.9397C11.1455 10.7867 11.6238 9.92177 11.7793 9.68286C12.0565 9.25715 12.3485 8.92325 12.7021 8.66138ZM13.8975 15.2317L13.8955 15.2463C13.7311 15.2716 13.5952 15.2222 13.5664 15.1252C13.5667 15.124 13.5672 15.1231 13.5674 15.1223C13.5702 15.1083 13.5704 15.094 13.5723 15.0803L13.5752 15.0813C13.5753 15.0778 13.5748 15.0742 13.5752 15.0706H13.5742C13.5745 15.0686 13.575 15.0667 13.5752 15.0647L13.8975 15.2317ZM13.5752 15.0813C13.5714 15.1896 13.6991 15.2508 13.8672 15.2327L13.8906 15.2454L13.8926 15.2307C13.8841 15.232 13.8755 15.2318 13.8672 15.2327L13.5752 15.0813ZM13.5723 15.0803L13.5645 15.0764L13.5742 15.0706C13.5738 15.0739 13.5727 15.077 13.5723 15.0803ZM14.0508 14.9465L14.0488 14.9612C13.7551 14.9868 13.6213 14.9498 13.5723 14.8362C13.5706 14.8141 13.5696 14.7901 13.5674 14.7639C13.5888 14.9175 13.699 14.971 14.0146 14.9475L14.0459 14.9612L14.0479 14.9465C14.0367 14.9475 14.0253 14.9467 14.0146 14.9475L13.5674 14.759C13.567 14.7539 13.5669 14.7487 13.5664 14.7434L14.0508 14.9465ZM13.5537 14.7698C13.5527 14.7628 13.5505 14.7557 13.5498 14.7483L13.5518 14.7454C13.5525 14.7537 13.5531 14.7619 13.5537 14.7698ZM13.5664 14.759L13.5547 14.7542L13.5645 14.7463C13.5648 14.7505 13.5659 14.755 13.5664 14.759ZM13.541 14.554C13.5443 14.5738 13.5497 14.5915 13.5586 14.6077C13.561 14.6457 13.5624 14.6876 13.5664 14.7336C13.5667 14.7369 13.5661 14.7402 13.5664 14.7434L13.5596 14.7405L13.5518 14.7454C13.5515 14.7419 13.5521 14.7382 13.5518 14.7346C13.5458 14.6654 13.5434 14.6066 13.541 14.554ZM14.1309 14.6399V14.6545C13.8314 14.7468 13.6232 14.7249 13.5586 14.6077C13.5573 14.5879 13.5565 14.5691 13.5557 14.551C13.5797 14.6972 13.779 14.7384 14.0947 14.6477L14.1279 14.6545L14.127 14.6399C14.1162 14.6432 14.1052 14.6447 14.0947 14.6477L13.5547 14.5442C13.5545 14.5389 13.5549 14.5337 13.5547 14.5286L14.1309 14.6399ZM13.541 14.554C13.54 14.5479 13.5375 14.5418 13.5371 14.5354L13.54 14.5325C13.5403 14.5395 13.5407 14.5467 13.541 14.554ZM13.5537 14.5442L13.543 14.5422L13.5518 14.5344C13.552 14.5378 13.5533 14.5409 13.5537 14.5442Z" fill="black"/>
<path d="M13.7305 9.42896C13.7357 9.45828 13.7476 9.50921 13.752 9.53833C13.6138 9.65517 13.5332 9.70586 13.334 9.81372C13.3175 9.82263 13.3051 9.82951 13.293 9.83618C13.084 9.95139 12.9427 10.0649 12.7363 10.3079C12.4785 10.6114 12.09 10.959 11.8613 11.094L11.7969 11.0159C12.0155 10.8806 12.4024 10.5331 12.6592 10.2307C12.8668 9.98621 13.01 9.87218 13.2207 9.7561C13.2328 9.74944 13.2453 9.74255 13.2617 9.73364C13.4753 9.61805 13.5641 9.56102 13.7188 9.42407L13.7305 9.42896ZM13.7188 9.44263C13.5684 9.57497 13.4789 9.63345 13.2686 9.74731C13.2521 9.75621 13.2396 9.76313 13.2275 9.76978C13.0183 9.88505 12.8764 9.99828 12.6699 10.2415C12.4122 10.5449 12.0243 10.8928 11.8057 11.0168L11.8623 11.0823C12.0809 10.9471 12.4687 10.5996 12.7256 10.2971C12.9331 10.0528 13.0757 9.93851 13.2861 9.82251C13.2982 9.81583 13.3107 9.80895 13.3271 9.80005C13.5256 9.69263 13.6053 9.64206 13.7402 9.53442C13.7341 9.51507 13.7246 9.47273 13.7188 9.44263ZM13.7188 9.44263C13.7217 9.44005 13.7255 9.43842 13.7285 9.43579L13.7168 9.43091C13.7174 9.43441 13.718 9.43861 13.7188 9.44263Z" fill="black"/>
<path d="M12.5186 11.9507C12.4031 12.1568 12.2813 12.3441 12.1738 12.4731C12.0396 12.6343 11.9324 12.6997 11.8613 12.644L11.8604 12.6323L12.5029 11.9458C12.4915 11.9662 12.4783 11.9854 12.4668 12.0054L12.5166 11.9526L12.5049 11.9429L12.5068 11.9419L12.5186 11.9507ZM11.877 12.6353C11.8746 12.6338 11.8714 12.6331 11.8691 12.6313L11.8701 12.6431L11.877 12.6353C11.9395 12.6744 12.0374 12.6122 12.1621 12.4624C12.2577 12.3475 12.3629 12.1853 12.4668 12.0054L11.877 12.6353ZM12.7783 12.0308L12.7686 12.0425L12.7773 12.0308H12.7783ZM13.6025 9.68408C13.6155 9.70011 13.627 9.72633 13.6406 9.76709C13.6463 9.78416 13.6709 9.86345 13.6777 9.88428C13.7034 9.96198 13.7275 10.0142 13.749 10.0483C13.7973 10.0062 13.8593 9.96218 13.9248 9.92334L13.9336 9.92529C13.961 9.95758 13.9995 10.0001 14.0225 10.0347C13.6645 10.3579 13.2867 10.6113 12.8877 10.8149C12.7705 10.8748 12.6707 10.9422 12.5615 11.0298C12.5345 11.0515 12.5073 11.0737 12.4727 11.103C12.4686 11.1065 12.4061 11.1589 12.3877 11.1743C12.2951 11.2519 12.2279 11.3023 12.1426 11.3442L12.0664 11.188C12.1815 11.1192 12.4266 10.9243 12.5977 10.7739C12.5772 10.7604 12.5581 10.7369 12.5342 10.6909C12.5274 10.6778 12.524 10.6693 12.5215 10.6646C12.5165 10.6549 12.5117 10.6477 12.5078 10.6411C12.4913 10.6128 12.4794 10.6009 12.4668 10.604L12.4531 10.6118C12.4572 10.6076 12.4658 10.5984 12.4756 10.5884C12.4903 10.5915 12.5052 10.6061 12.5205 10.6323C12.5245 10.6392 12.529 10.6469 12.5342 10.6567C12.5367 10.6615 12.5401 10.67 12.5469 10.6831C12.5731 10.7334 12.5912 10.7577 12.6123 10.7671L12.6143 10.7808C12.4425 10.9324 12.191 11.13 12.0762 11.1899L12.1445 11.3335C12.2192 11.2892 12.2859 11.2397 12.3779 11.1626C12.396 11.1475 12.4593 11.0934 12.4629 11.0903C12.4975 11.061 12.5246 11.0389 12.5518 11.0171C12.6616 10.9289 12.7628 10.8616 12.8809 10.8013C13.2788 10.5982 13.6561 10.3457 14.0127 10.0347C13.9903 10.0122 13.954 9.97189 13.9268 9.93994C13.9284 9.93897 13.93 9.93798 13.9316 9.93701L13.9229 9.93506C13.9242 9.93662 13.9254 9.93833 13.9268 9.93994C13.864 9.97751 13.8049 10.0193 13.749 10.0591C13.7158 10.0223 13.6903 9.96871 13.6641 9.88916C13.6571 9.86812 13.6326 9.78881 13.627 9.77197C13.6139 9.73288 13.6033 9.70801 13.5918 9.69385C13.5798 9.6792 13.568 9.67716 13.5527 9.68799C13.5314 9.70275 13.4668 9.73827 13.3994 9.77588C13.3913 9.77196 13.3836 9.77114 13.375 9.7749C13.4485 9.73416 13.5222 9.69097 13.5449 9.67529C13.5663 9.66015 13.586 9.66398 13.6025 9.68408ZM13.3994 9.77588C13.4138 9.78287 13.428 9.80097 13.4414 9.82959C13.4572 9.86332 13.4704 9.90324 13.4941 9.98291C13.5103 10.0371 13.5107 10.0385 13.5166 10.0571C13.5401 10.1319 13.5587 10.1718 13.5752 10.1812L13.5762 10.1938C13.5046 10.2608 13.423 10.3205 13.3232 10.3813C13.2591 10.4205 13.0491 10.5371 13.0186 10.5552C12.9392 10.6022 12.8836 10.6412 12.833 10.6831C12.8075 10.6565 12.7847 10.62 12.7559 10.562C12.7524 10.555 12.7277 10.5034 12.7207 10.4897C12.708 10.4647 12.6982 10.447 12.6885 10.4341C12.6684 10.4073 12.6531 10.4036 12.6357 10.4224C12.6174 10.4435 12.5846 10.4771 12.5303 10.5327C12.529 10.534 12.5286 10.5343 12.5273 10.5356C12.5205 10.5426 12.4953 10.5682 12.4756 10.5884C12.4714 10.5875 12.4672 10.5862 12.4629 10.5874L12.4434 10.6011C12.4558 10.5883 12.5075 10.5352 12.5176 10.5249C12.5189 10.5236 12.5192 10.5233 12.5205 10.522C12.5745 10.4667 12.6068 10.4326 12.625 10.4116C12.6497 10.385 12.6753 10.3922 12.7002 10.4253C12.7104 10.439 12.7214 10.4574 12.7344 10.4829C12.7417 10.4972 12.7661 10.5483 12.7695 10.5552C12.7976 10.6116 12.819 10.6472 12.833 10.6724C12.8744 10.6294 12.9305 10.5891 13.0107 10.5415C13.0412 10.5235 13.2511 10.4078 13.3154 10.3687C13.4124 10.3095 13.4917 10.2506 13.5615 10.186C13.5436 10.1685 13.5245 10.1306 13.5029 10.062C13.4971 10.0433 13.4966 10.042 13.4805 9.98779C13.4569 9.90887 13.4441 9.8692 13.4287 9.83643C13.41 9.79661 13.393 9.78123 13.3779 9.78955C13.3853 9.78546 13.3921 9.77998 13.3994 9.77588ZM13.3721 9.77686L13.3711 9.77588L13.3721 9.77686Z" fill="black"/>
<path d="M14.6064 13.0769C14.4281 13.1661 14.3919 13.3634 14.5059 13.4324L14.5508 13.4548C14.5839 13.4715 14.5874 13.4738 14.6084 13.4841C14.7831 13.5702 14.8583 13.6794 14.8477 13.8123C14.8389 13.922 14.7742 14.0431 14.6553 14.1912C14.4832 14.4053 14.4143 14.5782 14.3145 14.9646C14.2057 15.3855 14.1299 15.572 13.9287 15.8103C13.7448 16.0282 13.4924 15.9521 13.4648 15.7498C13.4552 15.6772 13.4605 15.5945 13.4805 15.4802C13.4921 15.4137 13.5494 15.1407 13.5537 15.1189C13.5414 15.1673 13.5385 15.2105 13.541 15.2478C13.5227 15.3362 13.5008 15.4448 13.4941 15.4832C13.4745 15.5958 13.4692 15.6763 13.4785 15.7468C13.5039 15.9366 13.7421 16.009 13.918 15.8005C14.1172 15.5645 14.1916 15.3794 14.2998 14.9607C14.4001 14.5723 14.4698 14.3977 14.6436 14.1814C14.7607 14.0356 14.8245 13.917 14.833 13.8113C14.8431 13.6854 14.7713 13.5814 14.6016 13.4978L14.5439 13.4685C14.5276 13.4603 14.5151 13.4544 14.498 13.446C14.3812 13.3749 14.4079 13.1863 14.5635 13.0847C14.5763 13.0824 14.5901 13.0788 14.6045 13.0769L14.5996 13.0623H14.6025L14.6064 13.0769ZM14.2285 13.9246C14.2786 14.0721 14.28 14.1559 14.2236 14.2908C14.179 14.2658 14.1358 14.2225 14.1045 14.1775C14.1069 14.1741 14.1095 14.1718 14.1104 14.1707H14.0986C14.1003 14.1731 14.1028 14.175 14.1045 14.1775C14.0976 14.1871 14.0865 14.2037 14.082 14.2097C14.0703 14.2255 14.0598 14.239 14.0479 14.2517C14.0332 14.2673 14.0168 14.2817 14.001 14.2849C14.0367 14.351 14.1013 14.4135 14.1807 14.4607C14.1675 14.5127 14.1646 14.5258 14.1357 14.6531C14.0777 14.9089 14.0377 15.031 13.957 15.1609C13.8606 15.3163 13.7415 15.4008 13.6484 15.3894C13.5841 15.3814 13.5465 15.3294 13.541 15.2478C13.5541 15.1843 13.5646 15.131 13.5664 15.1218L13.5684 15.1228C13.531 15.2692 13.5671 15.3634 13.6504 15.3738C13.7368 15.3844 13.8515 15.3041 13.9453 15.1531C14.0248 15.0251 14.0644 14.9034 14.1221 14.6492C14.1509 14.5221 14.1538 14.5089 14.1709 14.4656C14.0969 14.428 14.0334 14.3679 13.9971 14.2947C13.8044 14.4333 13.5342 14.4134 13.5459 14.3035C13.5467 14.2953 13.5479 14.2876 13.5498 14.2712C13.556 14.2179 13.5569 14.1847 13.5508 14.1414C13.5535 14.1563 13.5598 14.1688 13.5674 14.1804C13.5686 14.2085 13.5678 14.2362 13.5635 14.2732C13.5616 14.2891 13.5613 14.2965 13.5605 14.3044C13.5505 14.3959 13.8056 14.4156 13.9902 14.282C14.0738 14.2214 14.1726 14.058 14.2148 13.9246H14.2285ZM14.2197 13.949C14.1946 14.0207 14.1552 14.098 14.1113 14.1638C14.1415 14.2091 14.1864 14.2521 14.2207 14.281C14.2635 14.1595 14.2625 14.0816 14.2197 13.949ZM11.957 11.5857C12.1595 11.607 12.3854 11.7129 12.5967 11.8855C12.6179 11.8606 12.6297 11.8467 12.6416 11.8318C12.6733 11.792 12.6953 11.7575 12.708 11.7253C12.7292 11.6713 12.7215 11.6285 12.6777 11.5945C12.6929 11.6058 12.7074 11.6184 12.7227 11.6306C12.7356 11.6603 12.7365 11.6934 12.7217 11.7312C12.7083 11.7651 12.6849 11.8007 12.6523 11.8416C12.6403 11.8566 12.6286 11.8712 12.5977 11.8972C12.3783 11.727 12.1543 11.622 11.96 11.5994L11.8867 11.6628C11.8814 11.6623 11.8763 11.6604 11.8711 11.6599L11.875 11.6736L11.8867 11.6628C12.2833 11.7055 12.769 12.0691 13.0938 12.5437C13.4072 13.0018 13.7486 13.2919 14.167 13.5212C14.1494 13.5522 14.1448 13.5802 14.1396 13.6443L14.1387 13.6453C14.1375 13.6603 14.1367 13.6685 14.1357 13.6775C14.1072 13.9392 13.9904 14.1218 13.833 14.2009C13.7208 14.2572 13.6098 14.2454 13.5674 14.1804L13.5645 14.1355C13.5782 14.2238 13.7011 14.2505 13.8271 14.1873C13.9798 14.1105 14.094 13.9329 14.1221 13.6765C14.123 13.6677 14.1238 13.6593 14.125 13.6443V13.6423C14.1303 13.5761 14.1361 13.547 14.1582 13.5242C13.7407 13.3045 13.3969 13.0137 13.082 12.5535C12.7552 12.0757 12.2647 11.7096 11.8701 11.6755L11.8662 11.6619L11.957 11.5857ZM13.5508 14.1384H13.5498H13.5508ZM13.6611 12.7693C13.7159 12.8389 13.6725 12.9134 13.5615 12.9871C13.7544 13.1817 13.9561 13.3311 14.1855 13.4607C14.1905 13.4469 14.2033 13.4308 14.2383 13.3972C14.2416 13.394 14.2418 13.3936 14.2451 13.3904C14.2668 13.3694 14.2793 13.3564 14.2861 13.3445C14.2934 13.3318 14.2926 13.3243 14.2812 13.3083C14.284 13.3033 14.3091 13.2553 14.3164 13.2419C14.3782 13.1296 14.4399 13.0842 14.5977 13.0623C14.5852 13.0685 14.5746 13.0775 14.5635 13.0847C14.4368 13.1077 14.3828 13.1496 14.3281 13.2488C14.3211 13.2615 14.2967 13.309 14.291 13.3054C14.3077 13.3165 14.3089 13.3331 14.2979 13.3523C14.2901 13.3658 14.2776 13.3801 14.2549 13.4021C14.2517 13.4052 14.2512 13.4049 14.248 13.408C14.2091 13.4454 14.1971 13.46 14.1963 13.4714L14.1855 13.4773C13.9521 13.3462 13.7469 13.1954 13.5518 12.9861C13.6572 12.9055 13.697 12.8383 13.6504 12.7791C13.6262 12.7514 13.6034 12.7228 13.5801 12.6941C13.5779 12.678 13.5718 12.6617 13.5596 12.6462C13.5927 12.6885 13.6262 12.7293 13.6611 12.7693ZM12.6816 11.5779C12.7473 11.6265 12.8145 11.6836 12.8838 11.7498C12.95 11.8114 12.8976 11.9125 12.7783 12.031C12.9217 12.1666 13.054 12.3258 13.1641 12.4929C13.2552 12.6312 13.3507 12.7558 13.4404 12.8669C13.5512 12.7822 13.595 12.7147 13.5488 12.656C13.559 12.669 13.5698 12.6814 13.5801 12.6941C13.5876 12.7498 13.5379 12.8098 13.4395 12.8787C13.3396 12.766 13.244 12.6406 13.1523 12.5017C13.0429 12.3356 12.9105 12.1778 12.7676 12.032C12.88 11.9096 12.9299 11.8137 12.874 11.7615C12.8227 11.7125 12.7716 11.6698 12.7227 11.6306C12.7196 11.6236 12.7186 11.6156 12.7139 11.6091L12.6816 11.5779ZM12.6738 11.5906H12.6729H12.6738Z" fill="black"/>
<path d="M14.624 12.873L14.79 12.791L14.7998 12.7998L14.7568 12.9834L14.9248 13.0693V13.083L14.7617 13.1631L14.8037 13.3535L14.7939 13.3623L14.6318 13.2793L14.5137 13.4316L14.501 13.4287L14.4639 13.2441L14.2773 13.2432L14.2715 13.2314L14.3848 13.085L14.2686 12.9316L14.2744 12.9189L14.4551 12.9209L14.4971 12.7305L14.5098 12.7275L14.624 12.873ZM14.5029 13.4219L14.5156 13.4248L14.5117 13.4102L14.5029 13.4219ZM14.4619 12.9307L14.2891 12.9336L14.2803 12.9219L14.2744 12.9346L14.2891 12.9336L14.3965 13.085L14.292 13.2275H14.2773L14.2832 13.2402L14.292 13.2275L14.4717 13.2354L14.5117 13.4102L14.6289 13.2676L14.7871 13.3418L14.751 13.1582L14.9062 13.0752L14.9189 13.083V13.0693L14.9062 13.0752L14.7461 12.9883L14.7822 12.8105L14.7959 12.8047L14.7861 12.7969L14.7822 12.8105L14.626 12.8896L14.6172 12.8877L14.5068 12.748L14.4619 12.9307ZM14.79 13.3574L14.7998 13.3486L14.7871 13.3418L14.79 13.3574ZM14.498 12.7373L14.5068 12.748L14.5107 12.7344L14.498 12.7373Z" fill="black"/>
<path d="M18.7808 5.30542C19.1743 5.19606 19.3692 5.1717 19.6646 5.23511C19.9363 5.29345 19.9999 5.56238 19.8462 5.68823C19.788 5.7359 19.7128 5.77304 19.5972 5.81519C19.5428 5.83497 19.3193 5.90866 19.2817 5.92163C19.2463 5.93387 19.2101 5.95103 19.1714 5.97339C19.132 5.99616 19.0914 6.02399 19.0386 6.06226C19.0324 6.06672 19.0158 6.07741 18.9966 6.09155C19.0146 6.07579 19.0289 6.05959 19.0405 6.04175C19.0884 6.00734 19.1265 5.98213 19.1636 5.96069C19.1853 5.94814 19.2075 5.93884 19.228 5.92944L19.229 5.93433L19.2407 5.94019C19.2645 5.93083 19.282 5.91649 19.2964 5.90015C19.3631 5.87762 19.5431 5.81808 19.5913 5.80054C19.7058 5.75883 19.7797 5.72202 19.8364 5.67554C19.9802 5.55775 19.9204 5.30545 19.6606 5.24976C19.3683 5.18708 19.175 5.21132 18.7837 5.32007C18.7706 5.32372 18.7705 5.32421 18.7573 5.32788C18.4084 5.42465 18.2224 5.44904 17.9624 5.40015C17.576 5.32758 17.3984 5.41558 17.4194 5.77905C17.459 6.45863 17.3953 6.93053 17.0815 7.55542C16.8149 8.08664 16.726 8.69541 16.8745 9.08569L16.8638 9.09546C16.7819 9.04475 16.7062 9.00912 16.5698 8.95386C16.3018 8.84526 16.2095 8.80203 16.0562 8.69312C15.6919 8.43432 15.2971 8.21769 14.855 8.05444C14.8556 8.05178 14.8574 8.04929 14.8579 8.04663L14.8481 8.05249C14.8503 8.05329 14.8528 8.05364 14.855 8.05444C14.7761 8.41643 14.4507 8.75066 14.0679 8.86401C13.9697 9.15282 14.1259 9.63002 14.3882 9.91187C14.5301 9.98053 14.678 10.0382 14.8315 10.0847C15.3046 10.2281 15.6926 10.2596 16.4624 10.2615C16.8573 10.2625 17.0115 10.2681 17.1763 10.2957C17.438 10.3393 17.7965 10.1269 17.8423 9.80054C17.8499 9.74634 17.8597 9.69626 17.8755 9.6394C17.8844 9.60737 17.9206 9.49036 17.9243 9.47827C17.9461 9.40563 17.9634 9.34166 17.98 9.26831C18.034 9.02975 18.0734 8.72138 18.0991 8.27905C18.109 8.10867 18.1116 8.04053 18.1245 7.67651C18.1407 7.22063 18.156 7.03524 18.1978 6.90503C18.3068 6.56538 18.3939 6.41243 18.5776 6.33472C18.6514 6.30354 18.7184 6.26371 18.7935 6.2146L18.7974 6.22437L18.8042 6.22632C18.7275 6.27664 18.6589 6.31748 18.5835 6.34937C18.4052 6.42483 18.3201 6.57455 18.2124 6.90991C18.1713 7.03811 18.1562 7.22326 18.1401 7.67749C18.1272 8.04171 18.1237 8.10939 18.1138 8.28003C18.088 8.72342 18.0489 9.03267 17.9946 9.27222C17.9779 9.34595 17.9608 9.41019 17.939 9.48315C17.9349 9.49629 17.8988 9.61286 17.8901 9.64429C17.8746 9.70029 17.8644 9.74922 17.8569 9.80249C17.8099 10.1382 17.4434 10.3553 17.1743 10.3103C17.0106 10.2829 16.8567 10.2771 16.4624 10.2761C15.6912 10.2742 15.3024 10.2433 14.8276 10.0994C14.6735 10.0526 14.525 9.99511 14.3804 9.92456C14.1121 9.63725 13.9537 9.15316 14.0591 8.85327C14.4445 8.73584 14.7696 8.40291 14.8442 8.0437L14.854 8.03784C15.2998 8.20182 15.698 8.41972 16.0649 8.68042C16.217 8.78837 16.3079 8.83209 16.5747 8.94019C16.703 8.99215 16.7781 9.02685 16.855 9.073C16.7141 8.67742 16.8044 8.07433 17.0688 7.54761C17.3811 6.92569 17.4451 6.45699 17.4058 5.78003C17.384 5.40396 17.571 5.3105 17.9653 5.38452C18.2226 5.4329 18.4067 5.40937 18.7534 5.31323C18.7669 5.3095 18.7673 5.30916 18.7808 5.30542ZM18.8091 6.22827L18.8042 6.22632C18.8094 6.22288 18.8145 6.21913 18.8198 6.21558C18.8157 6.21908 18.8136 6.22504 18.8091 6.22827ZM18.811 6.21948L18.8003 6.21558C18.803 6.21362 18.8046 6.20983 18.8071 6.20776L18.811 6.21948ZM18.9663 6.10522L18.9741 6.10815C18.9439 6.13043 18.9116 6.15522 18.897 6.16577C18.8708 6.18457 18.8441 6.19936 18.8198 6.21558C18.834 6.20345 18.8451 6.19071 18.854 6.17554C18.8651 6.16779 18.8777 6.16134 18.8892 6.15308C18.9037 6.14263 18.9345 6.11841 18.9644 6.09644L18.9663 6.10522ZM18.6099 5.62866C18.8381 5.85719 18.9223 6.05878 18.854 6.17554C18.8407 6.18483 18.8268 6.19234 18.814 6.20093C18.9192 6.10491 18.8542 5.90307 18.6226 5.66284L18.6118 5.63159L18.6001 5.6394C18.6078 5.64716 18.6151 5.65516 18.6226 5.66284L18.8062 6.20581C18.8018 6.20869 18.7977 6.2118 18.7935 6.2146L18.5981 5.63647L18.6099 5.62866ZM18.8071 6.20776L18.8062 6.20581C18.8087 6.20412 18.8114 6.20265 18.814 6.20093C18.8116 6.20311 18.8097 6.20569 18.8071 6.20776ZM18.978 6.11011L18.9741 6.10815C18.9819 6.10246 18.9894 6.09681 18.9966 6.09155C18.9902 6.09715 18.9852 6.10471 18.978 6.11011ZM18.98 6.10229L18.9692 6.09741C18.9726 6.09489 18.9749 6.09118 18.978 6.08862L18.98 6.10229ZM18.9038 5.54956C19.0697 5.8008 19.1064 5.94059 19.0405 6.04175C19.037 6.04428 19.0334 6.04693 19.0298 6.04956C19.024 6.05373 19.0091 6.0631 18.9917 6.07593C19.0959 5.98036 19.0811 5.85309 18.9087 5.58569L18.9048 5.55347L18.8921 5.55835C18.8981 5.56738 18.9031 5.57696 18.9087 5.58569L18.9771 6.08667C18.9728 6.08978 18.9687 6.09323 18.9644 6.09644L18.8911 5.55542L18.9038 5.54956ZM18.978 6.08862L18.9771 6.08667C18.9821 6.08296 18.987 6.07937 18.9917 6.07593C18.9872 6.08007 18.983 6.0846 18.978 6.08862ZM19.2456 5.93335L19.2339 5.92651C19.2375 5.9249 19.241 5.92315 19.2446 5.92163L19.2456 5.93335ZM19.2173 5.54761C19.3318 5.68076 19.3637 5.82368 19.2964 5.90015C19.2878 5.90304 19.2812 5.90549 19.2769 5.90698C19.266 5.91074 19.2557 5.91699 19.2446 5.92163V5.91968C19.349 5.86865 19.3342 5.72192 19.2202 5.57788L19.2192 5.55151L19.2046 5.5564C19.3338 5.7065 19.3539 5.86623 19.2446 5.91968L19.2339 5.92651C19.2319 5.9274 19.23 5.92853 19.228 5.92944L19.2026 5.55249L19.2173 5.54761Z" fill="black"/>
<path d="M14.6338 8.55469C14.7748 8.61667 14.8369 8.65368 15.0234 8.7793C15.2471 8.92989 15.4016 9.00076 15.7207 9.07031C16.1002 9.15314 16.5813 9.33238 16.8066 9.47266L16.7744 9.57031C16.5535 9.43919 16.0741 9.26108 15.6963 9.17871C15.3753 9.10872 15.2183 9.03737 14.9932 8.88574C14.8084 8.76132 14.7478 8.72422 14.6094 8.66309C14.5748 8.64781 14.5383 8.63267 14.5 8.61816L14.498 8.60547C14.5202 8.58558 14.5563 8.54987 14.5781 8.53125C14.5971 8.53897 14.6157 8.54675 14.6338 8.55469ZM14.5146 8.6084C14.5114 8.60715 14.5082 8.60574 14.5049 8.60449L14.5068 8.61719C14.5095 8.61483 14.5117 8.61113 14.5146 8.6084C14.5496 8.62181 14.5833 8.63534 14.6152 8.64941C14.7544 8.71087 14.8159 8.7474 15.001 8.87207C15.2247 9.02271 15.3793 9.09352 15.6982 9.16309C16.0774 9.24568 16.5587 9.42467 16.7705 9.56152L16.7959 9.47754C16.5754 9.34654 16.0949 9.16844 15.7168 9.08594C15.396 9.01599 15.2397 8.9445 15.0146 8.79297C14.8289 8.66786 14.7678 8.63083 14.6279 8.56934C14.6102 8.56154 14.5919 8.55356 14.5811 8.54395C14.5684 8.55919 14.5371 8.58766 14.5146 8.6084Z" fill="black"/>
<path d="M14.8535 8.0376C15.2994 8.20157 15.6975 8.41947 16.0645 8.68018C16.2165 8.78816 16.3074 8.83184 16.5742 8.93994C16.7115 8.99554 16.7887 9.03054 16.874 9.09229L16.7822 9.23975C16.6676 9.16929 16.3839 9.04235 16.1748 8.9624C16.1743 8.98432 16.1674 9.00957 16.1494 9.04248C16.1455 9.04968 16.1415 9.05706 16.1357 9.06689C16.1083 9.11389 16.1024 9.12471 16.0977 9.14111C16.0921 9.16041 16.0969 9.17089 16.1143 9.17627L16.1094 9.19092C16.0971 9.18734 16.088 9.18421 16.0645 9.17725C16.0397 9.16991 16.0391 9.17014 16.0137 9.1626C16.0108 9.16176 16.0106 9.16148 16.0078 9.16064C15.934 9.13883 15.8898 9.12572 15.8633 9.11963C15.829 9.11062 15.8214 9.08525 15.8359 9.04639C15.8458 9.02007 15.8455 9.0211 15.9023 8.92822C15.9157 8.9064 15.9258 8.8888 15.9346 8.87256C15.9514 8.84149 15.9626 8.81495 15.9736 8.80029C15.9192 8.78459 15.8599 8.75502 15.7842 8.7085C15.7397 8.68114 15.571 8.56994 15.5693 8.56885C15.4307 8.47918 15.3234 8.4216 15.21 8.38135C15.2048 8.41142 15.1756 8.45103 15.0869 8.55225C15.0837 8.55597 15.0833 8.55633 15.0801 8.56006C15.0302 8.61711 15.0039 8.64963 14.9854 8.6792C14.9631 8.71476 14.9596 8.73629 14.9736 8.74561C14.9659 8.74053 14.9578 8.73595 14.9502 8.73096C14.9499 8.71528 14.9577 8.69529 14.9727 8.67139C14.9918 8.64071 15.0185 8.60745 15.0693 8.54932C15.0725 8.54566 15.0731 8.54602 15.0762 8.54248C15.1698 8.43565 15.1987 8.3972 15.1982 8.37158L15.207 8.36377C15.3246 8.40459 15.4346 8.46392 15.5771 8.55615C15.5798 8.55789 15.7465 8.66745 15.791 8.69482C15.8661 8.74094 15.9251 8.76983 15.9834 8.79443C15.977 8.81986 15.9648 8.84799 15.9473 8.88037C15.9383 8.89685 15.9285 8.91409 15.915 8.93604C15.8592 9.02724 15.8589 9.02663 15.8496 9.05127C15.8378 9.08263 15.8423 9.09857 15.8662 9.10498C15.893 9.11111 15.9376 9.12408 16.0117 9.146C16.0145 9.14683 16.0148 9.14616 16.0176 9.14697C16.0433 9.15458 16.0436 9.15524 16.0684 9.1626C16.0743 9.16436 16.0796 9.1652 16.084 9.1665C16.0813 9.15798 16.0805 9.14804 16.084 9.13623C16.0893 9.11798 16.0947 9.1077 16.123 9.05908C16.1288 9.04918 16.1328 9.04182 16.1367 9.03467C16.1562 8.999 16.1655 8.97377 16.1631 8.95361L16.1729 8.9458C16.3833 9.02589 16.6725 9.15548 16.7793 9.22998L16.8633 9.09521C16.7815 9.04458 16.7057 9.00886 16.5693 8.95361C16.3013 8.84501 16.2091 8.80188 16.0557 8.69287C15.6896 8.43285 15.2926 8.2153 14.8574 8.04639C14.8501 8.07778 14.8341 8.13043 14.8213 8.17139C14.8201 8.17063 14.8186 8.1702 14.8174 8.16943L14.8203 8.17822C14.821 8.17618 14.8206 8.1735 14.8213 8.17139C14.8841 8.20996 14.9485 8.24359 15.0098 8.2749C15.0076 8.28257 15.0051 8.29044 15.002 8.29834C14.9836 8.34439 14.952 8.39032 14.8994 8.45264C14.8903 8.46344 14.8528 8.50734 14.8438 8.51807C14.8243 8.54125 14.8103 8.55866 14.8008 8.57373C14.7797 8.60749 14.7795 8.62665 14.8018 8.63818C14.8243 8.65009 14.885 8.68822 14.9502 8.73096C14.9504 8.74275 14.9556 8.7525 14.9658 8.75928C14.8928 8.71112 14.8205 8.66487 14.7959 8.65186C14.7633 8.63522 14.7634 8.6058 14.7891 8.56494C14.799 8.5491 14.8131 8.53108 14.833 8.50732C14.8425 8.49603 14.8797 8.45247 14.8887 8.44189C14.94 8.38102 14.9707 8.33642 14.9883 8.29248C14.9913 8.28495 14.9945 8.2777 15.001 8.27979C14.9421 8.25684 14.8752 8.2221 14.8105 8.18213L14.8066 8.17334C14.8197 8.13199 14.8365 8.07554 14.8535 8.0376ZM16.084 9.1665C16.0874 9.17753 16.0948 9.18637 16.1094 9.19092L16.1133 9.17627C16.1041 9.1736 16.097 9.17035 16.084 9.1665ZM17.1855 8.44775C17.4132 8.44968 17.628 8.46641 17.7881 8.49951C17.9884 8.54096 18.0965 8.60618 18.0859 8.69873L18.0771 8.70459L17.1836 8.46338L17.1855 8.44775ZM18.0713 8.69678L18.0811 8.68994L18.0703 8.68701C18.0703 8.69021 18.0717 8.69351 18.0713 8.69678ZM18.0703 8.68701C18.0705 8.61118 17.9711 8.55345 17.7861 8.51514C17.6426 8.48543 17.4541 8.46971 17.252 8.46533L18.0703 8.68701ZM17.1855 8.46338C17.2078 8.46357 17.23 8.46486 17.252 8.46533L17.1875 8.44873L17.1855 8.46338ZM17.1436 8.17334H17.1426L17.127 8.17139V8.17041L17.1436 8.17334Z" fill="black"/>
<path d="M17.8008 6.11304C18.0308 6.00819 18.2398 6.02226 18.3838 6.12573C18.4857 6.19901 18.5309 6.30563 18.5 6.37671C18.489 6.38414 18.4777 6.39141 18.4639 6.40308C18.5299 6.34644 18.4904 6.22143 18.375 6.13843C18.2353 6.03823 18.032 6.024 17.8066 6.12671C17.7985 6.1304 17.7916 6.13333 17.7773 6.14038C17.7761 6.141 17.7757 6.14074 17.7744 6.14136C17.7196 6.16836 17.6923 6.17843 17.6631 6.16968C17.6908 6.65878 17.6226 7.11693 17.4004 7.63354C17.1697 8.16962 17.1131 8.79875 17.2822 9.17456L17.2725 9.1853L17.165 9.14038C17.0814 8.9454 17.0561 8.68737 17.0928 8.40894C17.0905 8.40846 17.064 8.40191 17.0557 8.40015C17.0254 8.3938 17.0016 8.38997 16.9785 8.38745C16.8753 8.37624 16.817 8.40277 16.8105 8.48608C16.8125 8.4643 16.8156 8.44224 16.8184 8.41968C16.8469 8.37778 16.9013 8.36436 16.9795 8.3728C17.0032 8.37537 17.0279 8.37905 17.0586 8.3855C17.0671 8.38729 17.0925 8.39341 17.1006 8.4021C17.0699 8.68656 17.0954 8.94239 17.1738 9.13062L17.2627 9.16479C17.1 8.78272 17.1576 8.15908 17.3867 7.62671C17.6078 7.1127 17.6764 6.65749 17.6562 6.16284C17.6899 6.16342 17.7157 6.15372 17.7686 6.12769C17.7697 6.12713 17.7703 6.12731 17.7715 6.12671C17.7857 6.11969 17.7926 6.11677 17.8008 6.11304ZM17.2686 9.1814L17.2773 9.17065L17.2627 9.16479C17.265 9.17013 17.2662 9.17616 17.2686 9.1814ZM17.2676 7.10913C17.3099 7.07503 17.3847 7.09044 17.4902 7.14526C17.4472 7.2925 17.3911 7.44267 17.3223 7.59546C17.24 7.7779 17.1758 7.97733 17.127 8.18042C16.9701 8.13936 16.8668 8.14155 16.8516 8.21851C16.837 8.28926 16.8262 8.35623 16.8184 8.41968C16.8067 8.43681 16.798 8.45771 16.7959 8.48511C16.8032 8.40126 16.817 8.31213 16.8369 8.21558C16.8547 8.12444 16.9648 8.12131 17.1221 8.17065C17.1622 7.97242 17.2269 7.77294 17.3096 7.5896C17.3781 7.43741 17.4327 7.28751 17.4795 7.15015C17.3545 7.09202 17.2773 7.08681 17.252 7.15796C17.2577 7.14193 17.2622 7.1252 17.2676 7.10913ZM18.7803 5.30542C19.1736 5.19613 19.3688 5.17172 19.6641 5.23511C19.9356 5.29359 19.9984 5.56243 19.8447 5.68823C19.7865 5.73578 19.7113 5.77309 19.5957 5.81519C19.541 5.83508 19.3195 5.90842 19.2812 5.92163L19.2803 5.92065C19.3295 5.9068 19.3692 5.88779 19.3994 5.86499C19.4741 5.83991 19.5597 5.81185 19.5908 5.80054C19.7053 5.75884 19.7792 5.722 19.8359 5.67554C19.9797 5.55781 19.9206 5.3056 19.6611 5.24976C19.3685 5.18694 19.1748 5.21126 18.7832 5.32007C18.7701 5.3237 18.7701 5.32419 18.7568 5.32788C18.4079 5.42465 18.2219 5.44806 17.9619 5.39917C17.7835 5.36569 17.6539 5.36691 17.5625 5.41187C17.4537 5.46563 17.403 5.58298 17.4189 5.77905C17.4208 5.80167 17.4208 5.80191 17.4238 5.84253C17.4239 5.84412 17.4237 5.84485 17.4238 5.84644C17.4252 5.86468 17.427 5.8791 17.4287 5.89917C17.4285 6.04044 17.2615 6.11005 17.1006 6.02124C17.0917 6.01025 17.0805 5.99981 17.0713 5.98706L17.0615 5.99878C17.0741 6.00788 17.0878 6.0142 17.1006 6.02124C17.1478 6.07981 17.1883 6.11564 17.2324 6.13354C17.2742 6.15045 17.3063 6.15286 17.3945 6.15112C17.4083 6.15086 17.4146 6.15111 17.416 6.15796C17.4169 6.13645 17.4313 6.12753 17.4541 6.12866C17.4698 6.1295 17.4873 6.1336 17.5195 6.14429C17.5217 6.145 17.5223 6.14553 17.5244 6.14624C17.5726 6.16226 17.591 6.16585 17.6006 6.16089L17.6113 6.16772C17.62 6.44519 17.5976 6.70771 17.5225 6.98999C17.403 6.93442 17.3285 6.93182 17.3027 7.00366C17.292 7.03963 17.2793 7.07435 17.2676 7.10913C17.2551 7.11916 17.2451 7.13308 17.2383 7.1521C17.2562 7.10171 17.2723 7.05139 17.2881 6.99878C17.3183 6.91417 17.4019 6.91714 17.5186 6.9812C17.5828 6.70795 17.6047 6.44898 17.5967 6.17554C17.5828 6.1778 17.5631 6.1744 17.5195 6.15991L17.4531 6.14331C17.4376 6.14254 17.4313 6.14696 17.4238 6.16577C17.4155 6.16587 17.4087 6.16647 17.3945 6.16675C17.3043 6.16853 17.2708 6.16612 17.2266 6.14819C17.1714 6.12576 17.1195 6.07945 17.0596 5.99683L17.0693 5.98608C17.2321 6.10397 17.414 6.03739 17.4141 5.89917C17.4124 5.87988 17.4115 5.86565 17.4102 5.84741C17.41 5.84597 17.4093 5.84569 17.4092 5.84448C17.4062 5.80348 17.4061 5.80267 17.4043 5.78003C17.388 5.57836 17.4409 5.45499 17.5557 5.39819C17.6506 5.35129 17.7832 5.35039 17.9648 5.38452C18.2222 5.43291 18.406 5.40944 18.7529 5.31323C18.7664 5.3095 18.7668 5.30916 18.7803 5.30542ZM19.1133 5.53296C19.29 5.54298 19.4191 5.6105 19.4561 5.70093C19.4808 5.76151 19.4594 5.81974 19.3994 5.86499C19.3429 5.88396 19.2926 5.90137 19.2764 5.90698C19.4157 5.86778 19.4762 5.78762 19.4434 5.70679C19.409 5.6227 19.2841 5.55832 19.1123 5.54858C19.0235 5.5436 18.9336 5.55322 18.8311 5.5769C18.7587 5.59364 18.7293 5.6027 18.5586 5.65601C18.5048 5.67281 18.4668 5.68422 18.4336 5.68726C18.4396 5.77298 18.4207 5.85989 18.3789 5.92944C18.5902 6.03518 18.7083 6.2923 18.6113 6.33667C18.6068 6.33882 18.6064 6.33934 18.6016 6.34155C18.5222 6.37768 18.5115 6.38286 18.4736 6.41479C18.4861 6.40405 18.4939 6.39082 18.5 6.37671C18.5206 6.36286 18.5429 6.35092 18.5957 6.3269C18.6004 6.32474 18.601 6.32511 18.6055 6.323C18.6859 6.28619 18.5746 6.04418 18.3721 5.94312C18.2805 5.89737 18.0963 5.88944 17.9648 5.91772L17.958 5.90601C18.055 5.78631 18.1231 5.74248 18.2627 5.72632C18.2645 5.77913 18.2498 5.83973 18.2285 5.89038C18.2263 5.89011 18.224 5.88996 18.2197 5.8894L18.2256 5.90112C18.227 5.89794 18.2271 5.89366 18.2285 5.89038C18.2302 5.89059 18.232 5.89096 18.2354 5.89136C18.3027 5.89947 18.3329 5.90662 18.3691 5.93237C18.4059 5.8667 18.4246 5.77636 18.4238 5.68042C18.4622 5.66955 18.5001 5.65811 18.5537 5.64136C18.725 5.58784 18.7552 5.57911 18.8281 5.56226C18.9319 5.5383 19.0231 5.52787 19.1133 5.53296ZM18.2559 5.73413C18.1345 5.75588 18.0703 5.79522 17.9824 5.90015C18.0541 5.88712 18.1377 5.88342 18.2139 5.89038C18.2358 5.84069 18.2493 5.77942 18.2559 5.73413Z" fill="black"/>
</g>
</svg>
