<svg width="28" height="20" viewBox="0 0 28 20" fill="none" xmlns="http://www.w3.org/2000/svg">
<rect x="0.25" y="0.25" width="27.5" height="19.5" rx="1.75" fill="white" stroke="#F5F5F5" stroke-width="0.5"/>
<mask id="mask0_27_1163" style="mask-type:luminance" maskUnits="userSpaceOnUse" x="0" y="0" width="28" height="20">
<rect x="0.25" y="0.25" width="27.5" height="19.5" rx="1.75" fill="white" stroke="white" stroke-width="0.5"/>
</mask>
<g mask="url(#mask0_27_1163)">
<path fill-rule="evenodd" clip-rule="evenodd" d="M0 19.9999H28V13.3333H0V19.9999Z" fill="#DE1B27"/>
<path fill-rule="evenodd" clip-rule="evenodd" d="M0 6.66667H28V0H0V6.66667Z" fill="#38BB56"/>
<path d="M2.33301 13.3333C2.51699 13.3333 2.66584 13.4823 2.66602 13.6663V14.3333C2.66602 14.5173 2.5171 14.6663 2.33301 14.6663H1.66602C1.48207 14.6661 1.33301 14.5172 1.33301 14.3333V13.6663C1.33318 13.4824 1.48218 13.3334 1.66602 13.3333H2.33301ZM5 13.3333C5.18399 13.3333 5.33283 13.4823 5.33301 13.6663V14.3333C5.33301 14.5173 5.18409 14.6663 5 14.6663H4.33301C4.14906 14.6661 4 14.5172 4 14.3333V13.6663C4.00018 13.4824 4.14917 13.3334 4.33301 13.3333H5ZM7.66602 13.3333C7.85 13.3333 7.99885 13.4823 7.99902 13.6663V14.3333C7.99902 14.5173 7.85011 14.6663 7.66602 14.6663H6.99902C6.81508 14.6661 6.66602 14.5172 6.66602 14.3333V13.6663C6.66619 13.4824 6.81519 13.3334 6.99902 13.3333H7.66602ZM10.333 13.3333C10.517 13.3333 10.6658 13.4823 10.666 13.6663V14.3333C10.666 14.5173 10.5171 14.6663 10.333 14.6663H9.66602C9.48207 14.6661 9.33301 14.5172 9.33301 14.3333V13.6663C9.33318 13.4824 9.48218 13.3334 9.66602 13.3333H10.333ZM13 13.3333C13.184 13.3333 13.3328 13.4823 13.333 13.6663V14.3333C13.333 14.5173 13.1841 14.6663 13 14.6663H12.333C12.1491 14.6661 12 14.5172 12 14.3333V13.6663C12.0002 13.4824 12.1492 13.3334 12.333 13.3333H13ZM15.666 13.3333C15.85 13.3333 15.9988 13.4823 15.999 13.6663V14.3333C15.999 14.5173 15.8501 14.6663 15.666 14.6663H14.999C14.8151 14.6661 14.666 14.5172 14.666 14.3333V13.6663C14.6662 13.4824 14.8152 13.3334 14.999 13.3333H15.666ZM18.333 13.3333C18.517 13.3333 18.6658 13.4823 18.666 13.6663V14.3333C18.666 14.5173 18.5171 14.6663 18.333 14.6663H17.666C17.4821 14.6661 17.333 14.5172 17.333 14.3333V13.6663C17.3332 13.4824 17.4822 13.3334 17.666 13.3333H18.333ZM21 13.3333C21.184 13.3333 21.3328 13.4823 21.333 13.6663V14.3333C21.333 14.5173 21.1841 14.6663 21 14.6663H20.333C20.1491 14.6661 20 14.5172 20 14.3333V13.6663C20.0002 13.4824 20.1492 13.3334 20.333 13.3333H21ZM23.666 13.3333C23.85 13.3333 23.9988 13.4823 23.999 13.6663V14.3333C23.999 14.5173 23.8501 14.6663 23.666 14.6663H22.999C22.8151 14.6661 22.666 14.5172 22.666 14.3333V13.6663C22.6662 13.4824 22.8152 13.3334 22.999 13.3333H23.666ZM26.333 13.3333C26.517 13.3333 26.6658 13.4823 26.666 13.6663V14.3333C26.666 14.5173 26.5171 14.6663 26.333 14.6663H25.666C25.4821 14.6661 25.333 14.5172 25.333 14.3333V13.6663C25.3332 13.4824 25.4822 13.3334 25.666 13.3333H26.333ZM2.33301 5.33325C2.51699 5.33325 2.66584 5.48231 2.66602 5.66626V6.33325C2.66602 6.51735 2.5171 6.66626 2.33301 6.66626H1.66602C1.48207 6.66608 1.33301 6.51724 1.33301 6.33325V5.66626C1.33318 5.48242 1.48218 5.33343 1.66602 5.33325H2.33301ZM5 5.33325C5.18399 5.33325 5.33283 5.48231 5.33301 5.66626V6.33325C5.33301 6.51735 5.18409 6.66626 5 6.66626H4.33301C4.14906 6.66608 4 6.51724 4 6.33325V5.66626C4.00018 5.48242 4.14917 5.33343 4.33301 5.33325H5ZM7.66602 5.33325C7.85 5.33325 7.99885 5.48231 7.99902 5.66626V6.33325C7.99902 6.51735 7.85011 6.66626 7.66602 6.66626H6.99902C6.81508 6.66608 6.66602 6.51724 6.66602 6.33325V5.66626C6.66619 5.48242 6.81519 5.33343 6.99902 5.33325H7.66602ZM10.333 5.33325C10.517 5.33325 10.6658 5.48231 10.666 5.66626V6.33325C10.666 6.51735 10.5171 6.66626 10.333 6.66626H9.66602C9.48207 6.66608 9.33301 6.51724 9.33301 6.33325V5.66626C9.33318 5.48242 9.48218 5.33343 9.66602 5.33325H10.333ZM13 5.33325C13.184 5.33325 13.3328 5.48231 13.333 5.66626V6.33325C13.333 6.51735 13.1841 6.66626 13 6.66626H12.333C12.1491 6.66608 12 6.51724 12 6.33325V5.66626C12.0002 5.48242 12.1492 5.33343 12.333 5.33325H13ZM15.666 5.33325C15.85 5.33325 15.9988 5.48231 15.999 5.66626V6.33325C15.999 6.51735 15.8501 6.66626 15.666 6.66626H14.999C14.8151 6.66608 14.666 6.51724 14.666 6.33325V5.66626C14.6662 5.48242 14.8152 5.33343 14.999 5.33325H15.666ZM18.333 5.33325C18.517 5.33325 18.6658 5.48231 18.666 5.66626V6.33325C18.666 6.51735 18.5171 6.66626 18.333 6.66626H17.666C17.4821 6.66608 17.333 6.51724 17.333 6.33325V5.66626C17.3332 5.48242 17.4822 5.33343 17.666 5.33325H18.333ZM21 5.33325C21.184 5.33325 21.3328 5.48231 21.333 5.66626V6.33325C21.333 6.51735 21.1841 6.66626 21 6.66626H20.333C20.1491 6.66608 20 6.51724 20 6.33325V5.66626C20.0002 5.48242 20.1492 5.33343 20.333 5.33325H21ZM23.666 5.33325C23.85 5.33325 23.9988 5.48231 23.999 5.66626V6.33325C23.999 6.51735 23.8501 6.66626 23.666 6.66626H22.999C22.8151 6.66608 22.666 6.51724 22.666 6.33325V5.66626C22.6662 5.48242 22.8152 5.33343 22.999 5.33325H23.666ZM26.333 5.33325C26.517 5.33325 26.6658 5.48231 26.666 5.66626V6.33325C26.666 6.51735 26.5171 6.66626 26.333 6.66626H25.666C25.4821 6.66608 25.333 6.51724 25.333 6.33325V5.66626C25.3332 5.48242 25.4822 5.33343 25.666 5.33325H26.333Z" fill="white" fill-opacity="0.5"/>
<mask id="path-6-inside-1_27_1163" fill="white">
<path fill-rule="evenodd" clip-rule="evenodd" d="M12.6535 8.52124C12.252 8.88703 12 9.41414 12 10.0001C12 11.1047 12.8954 12.0001 14 12.0001C15.1046 12.0001 16 11.1047 16 10.0001C16 9.4252 15.7574 8.90695 15.3691 8.54212"/>
</mask>
<path d="M12.6535 8.52124L12.2045 8.02842C11.6702 8.51522 11.3333 9.2188 11.3333 10.0001H12H12.6667C12.6667 9.60948 12.8338 9.25885 13.1025 9.01406L12.6535 8.52124ZM12 10.0001H11.3333C11.3333 11.4729 12.5272 12.6668 14 12.6668V12.0001V11.3334C13.2636 11.3334 12.6667 10.7365 12.6667 10.0001H12ZM14 12.0001V12.6668C15.4728 12.6668 16.6667 11.4729 16.6667 10.0001H16H15.3333C15.3333 10.7365 14.7364 11.3334 14 11.3334V12.0001ZM16 10.0001H16.6667C16.6667 9.23361 16.3424 8.54179 15.8255 8.05622L15.3691 8.54212L14.9126 9.02802C15.1724 9.27211 15.3333 9.61679 15.3333 10.0001H16Z" fill="#D80915" mask="url(#path-6-inside-1_27_1163)"/>
<rect x="13.333" y="9.33325" width="1.33333" height="2.66667" rx="0.666667" fill="#D80915"/>
</g>
</svg>
