<svg width="28" height="20" viewBox="0 0 28 20" fill="none" xmlns="http://www.w3.org/2000/svg">
<rect width="28" height="20" rx="2" fill="white"/>
<mask id="mask0_27_1273" style="mask-type:luminance" maskUnits="userSpaceOnUse" x="0" y="0" width="28" height="20">
<rect width="28" height="20" rx="2" fill="white"/>
</mask>
<g mask="url(#mask0_27_1273)">
<path fill-rule="evenodd" clip-rule="evenodd" d="M0 20.0001H28V14.6667H0V20.0001Z" fill="#018301"/>
<path fill-rule="evenodd" clip-rule="evenodd" d="M0 5.33333H28V0H0V5.33333Z" fill="#262626"/>
<path fill-rule="evenodd" clip-rule="evenodd" d="M0 14.6666H28V5.33325H0V14.6666Z" fill="white"/>
<path fill-rule="evenodd" clip-rule="evenodd" d="M0 13.3334H28V6.66675H0V13.3334Z" fill="#DC0808"/>
<path fill-rule="evenodd" clip-rule="evenodd" d="M14.0003 16.6666C15.3337 16.6666 17.3337 14.05 17.3337 9.99992C17.3337 5.94983 15.3337 3.33325 14.0003 3.33325C12.667 3.33325 10.667 5.94983 10.667 9.99992C10.667 14.05 12.667 16.6666 14.0003 16.6666Z" fill="#BC0000"/>
<mask id="mask1_27_1273" style="mask-type:luminance" maskUnits="userSpaceOnUse" x="10" y="3" width="8" height="14">
<path fill-rule="evenodd" clip-rule="evenodd" d="M14.0003 16.6666C15.3337 16.6666 17.3337 14.05 17.3337 9.99992C17.3337 5.94983 15.3337 3.33325 14.0003 3.33325C12.667 3.33325 10.667 5.94983 10.667 9.99992C10.667 14.05 12.667 16.6666 14.0003 16.6666Z" fill="white"/>
</mask>
<g mask="url(#mask1_27_1273)">
<path fill-rule="evenodd" clip-rule="evenodd" d="M19.3333 17.3332C21.1743 17.3332 22.6667 14.0499 22.6667 9.99984C22.6667 5.94975 21.1743 2.6665 19.3333 2.6665C17.4924 2.6665 16 5.94975 16 9.99984C16 14.0499 17.4924 17.3332 19.3333 17.3332Z" fill="#262626"/>
<g filter="url(#filter0_d_27_1273)">
<path d="M14.001 11.9995C14.369 12.0002 14.667 13.1942 14.667 14.6665C14.667 16.1388 14.369 17.3328 14.001 17.3335C13.6328 17.3335 13.334 16.1393 13.334 14.6665C13.334 13.1937 13.6328 11.9995 14.001 11.9995ZM14.001 7.99951C14.369 8.00004 14.6669 8.89542 14.667 9.99951C14.667 11.1038 14.369 11.999 14.001 11.9995C13.6328 11.9995 13.334 11.1041 13.334 9.99951C13.334 8.89509 13.6328 7.99951 14.001 7.99951ZM14.001 2.6665C14.369 2.66721 14.667 3.86117 14.667 5.3335C14.6669 6.80567 14.369 7.99881 14.001 7.99951C13.6328 7.99951 13.334 6.80611 13.334 5.3335C13.334 3.86074 13.6328 2.6665 14.001 2.6665Z" fill="url(#paint0_linear_27_1273)"/>
</g>
<path fill-rule="evenodd" clip-rule="evenodd" d="M8.66732 17.3332C10.5083 17.3332 12.0007 14.0499 12.0007 9.99984C12.0007 5.94975 10.5083 2.6665 8.66732 2.6665C6.82637 2.6665 5.33398 5.94975 5.33398 9.99984C5.33398 14.0499 6.82637 17.3332 8.66732 17.3332Z" fill="#262626"/>
</g>
</g>
<defs>
<filter id="filter0_d_27_1273" x="13.334" y="2.6665" width="1.33301" height="15.667" filterUnits="userSpaceOnUse" color-interpolation-filters="sRGB">
<feFlood flood-opacity="0" result="BackgroundImageFix"/>
<feColorMatrix in="SourceAlpha" type="matrix" values="0 0 0 0 0 0 0 0 0 0 0 0 0 0 0 0 0 0 127 0" result="hardAlpha"/>
<feOffset dy="1"/>
<feColorMatrix type="matrix" values="0 0 0 0 0 0 0 0 0 0 0 0 0 0 0 0 0 0 0.06 0"/>
<feBlend mode="normal" in2="BackgroundImageFix" result="effect1_dropShadow_27_1273"/>
<feBlend mode="normal" in="SourceGraphic" in2="effect1_dropShadow_27_1273" result="shape"/>
</filter>
<linearGradient id="paint0_linear_27_1273" x1="13.334" y1="2.6665" x2="13.334" y2="17.3335" gradientUnits="userSpaceOnUse">
<stop stop-color="white"/>
<stop offset="1" stop-color="#F0F0F0"/>
</linearGradient>
</defs>
</svg>
