<svg width="28" height="20" viewBox="0 0 28 20" fill="none" xmlns="http://www.w3.org/2000/svg">
<rect width="28" height="20" rx="2" fill="white"/>
<mask id="mask0_27_1289" style="mask-type:luminance" maskUnits="userSpaceOnUse" x="0" y="0" width="28" height="20">
<rect width="28" height="20" rx="2" fill="white"/>
</mask>
<g mask="url(#mask0_27_1289)">
<rect width="28" height="20" fill="#F22A46"/>
<path fill-rule="evenodd" clip-rule="evenodd" d="M14.0003 13.3334C15.8413 13.3334 17.3337 11.841 17.3337 10.0001C17.3337 8.15913 15.8413 6.66675 14.0003 6.66675C12.1594 6.66675 10.667 8.15913 10.667 10.0001C10.667 11.841 12.1594 13.3334 14.0003 13.3334Z" fill="#FFF04D"/>
<path d="M16.0459 5.75366L18.5723 4.26636L17.6855 7.06128L20.6074 6.81812L18.5957 8.95093L21.334 9.99976L18.5957 11.0486L20.6074 13.1814L17.6855 12.9392L18.5723 15.7332L16.0459 14.2468L15.6318 17.1492L14 14.7136L12.3682 17.1492L11.9551 14.2468L9.42773 15.7332L10.3154 12.9392L7.39355 13.1814L9.40527 11.0486L6.66699 9.99976L9.40527 8.95093L7.39355 6.81812L10.3154 7.06128L9.42773 4.26636L11.9551 5.75366L12.3682 2.85034L14 5.28687L15.6318 2.85034L16.0459 5.75366ZM14.001 5.33374C11.4238 5.33374 9.3342 7.42261 9.33398 9.99976C9.33398 12.5771 11.4236 14.6667 14.001 14.6667C16.5782 14.6666 18.667 12.577 18.667 9.99976C18.6668 7.42272 16.578 5.33392 14.001 5.33374Z" fill="#FFF04D"/>
</g>
</svg>
