<svg width="28" height="20" viewBox="0 0 28 20" fill="none" xmlns="http://www.w3.org/2000/svg">
<rect width="28" height="20" rx="2" fill="white"/>
<mask id="mask0_27_1232" style="mask-type:luminance" maskUnits="userSpaceOnUse" x="0" y="0" width="28" height="20">
<rect width="28" height="20" rx="2" fill="white"/>
</mask>
<g mask="url(#mask0_27_1232)">
<path fill-rule="evenodd" clip-rule="evenodd" d="M0 20.0001H28V14.6667H0V20.0001Z" fill="#0F3EB6"/>
<path fill-rule="evenodd" clip-rule="evenodd" d="M0 5.33333H28V0H0V5.33333Z" fill="#0F3EB6"/>
<path fill-rule="evenodd" clip-rule="evenodd" d="M0 14.6666H28V5.33325H0V14.6666Z" fill="#ED1A3C"/>
<path d="M11.334 13.3333H8.66699L10 10.6663H11.334V13.3333ZM16 13.3333H12V10.6663H16V13.3333ZM19.334 13.3333H16.667V10.6663H18L19.334 13.3333ZM10.667 8.00024C11.0349 8.00042 11.3328 8.29837 11.333 8.66626V10.0002H10V8.66626C10.0002 8.29826 10.2989 8.00024 10.667 8.00024ZM14 7.33325C14.3682 7.33325 14.667 7.63205 14.667 8.00024V8.72681H16V10.0002H12V8.72681H13.333V8.00024C13.333 7.63205 13.6318 7.33325 14 7.33325ZM17.334 8.00024C17.7019 8.00042 17.9998 8.29833 18 8.66626V10.0002H16.667V8.66626C16.6672 8.29822 16.9659 8.00024 17.334 8.00024Z" fill="white"/>
</g>
</svg>
