<svg width="28" height="20" viewBox="0 0 28 20" fill="none" xmlns="http://www.w3.org/2000/svg">
<rect x="0.25" y="0.25" width="27.5" height="19.5" rx="1.75" fill="white" stroke="#F5F5F5" stroke-width="0.5"/>
<mask id="mask0_27_725" style="mask-type:luminance" maskUnits="userSpaceOnUse" x="0" y="0" width="28" height="20">
<rect x="0.25" y="0.25" width="27.5" height="19.5" rx="1.75" fill="white" stroke="white" stroke-width="0.5"/>
</mask>
<g mask="url(#mask0_27_725)">
<path fill-rule="evenodd" clip-rule="evenodd" d="M0 14.6667H28V9.33337H0V14.6667Z" fill="#DC1D34"/>
<path fill-rule="evenodd" clip-rule="evenodd" d="M0 20H28V14.6666H0V20Z" fill="#4985D4"/>
<path fill-rule="evenodd" clip-rule="evenodd" d="M0 5.33333H28V0H0V5.33333Z" fill="#FFCB49"/>
<path fill-rule="evenodd" clip-rule="evenodd" d="M0 20L13.3333 10L0 0V20Z" fill="#4BA343"/>
<path d="M5.33301 6C5.6783 6 6.01339 6.04371 6.33301 6.12598C4.60778 6.57002 3.33301 8.13616 3.33301 10C3.33301 11.8638 4.60778 13.43 6.33301 13.874C6.01339 13.9563 5.6783 14 5.33301 14C3.12387 14 1.33301 12.2091 1.33301 10C1.33301 7.79086 3.12387 6 5.33301 6ZM7.33301 12C7.70105 12.0002 7.99902 12.2989 7.99902 12.667C7.99885 13.0349 7.70094 13.3328 7.33301 13.333C6.96493 13.333 6.66619 13.035 6.66602 12.667C6.66602 12.2988 6.96482 12 7.33301 12ZM7.33301 9.33301C7.70103 9.33318 7.999 9.63194 7.99902 10C7.99902 10.3681 7.70105 10.6668 7.33301 10.667C6.96482 10.667 6.66602 10.3682 6.66602 10C6.66604 9.63183 6.96483 9.33301 7.33301 9.33301ZM7.33301 6.66699C7.70095 6.66717 7.99887 6.96506 7.99902 7.33301C7.99902 7.70109 7.70105 7.99982 7.33301 8C6.96482 8 6.66602 7.7012 6.66602 7.33301C6.66617 6.96495 6.96491 6.66699 7.33301 6.66699Z" fill="white"/>
</g>
</svg>
