<svg width="28" height="20" viewBox="0 0 28 20" fill="none" xmlns="http://www.w3.org/2000/svg">
<rect x="0.25" y="0.25" width="27.5" height="19.5" rx="1.75" fill="white" stroke="#F5F5F5" stroke-width="0.5"/>
<mask id="mask0_27_1297" style="mask-type:luminance" maskUnits="userSpaceOnUse" x="0" y="0" width="28" height="20">
<rect x="0.25" y="0.25" width="27.5" height="19.5" rx="1.75" fill="white" stroke="white" stroke-width="0.5"/>
</mask>
<g mask="url(#mask0_27_1297)">
<path fill-rule="evenodd" clip-rule="evenodd" d="M13.9997 14.6666C16.577 14.6666 18.6663 12.5772 18.6663 9.99992C18.6663 7.42259 16.577 5.33325 13.9997 5.33325C11.4223 5.33325 9.33301 7.42259 9.33301 9.99992C9.33301 12.5772 11.4223 14.6666 13.9997 14.6666Z" fill="#E01B41"/>
<mask id="mask1_27_1297" style="mask-type:luminance" maskUnits="userSpaceOnUse" x="9" y="5" width="10" height="10">
<path fill-rule="evenodd" clip-rule="evenodd" d="M13.9997 14.6666C16.577 14.6666 18.6663 12.5772 18.6663 9.99992C18.6663 7.42259 16.577 5.33325 13.9997 5.33325C11.4223 5.33325 9.33301 7.42259 9.33301 9.99992C9.33301 12.5772 11.4223 14.6666 13.9997 14.6666Z" fill="white"/>
</mask>
<g mask="url(#mask1_27_1297)">
<path fill-rule="evenodd" clip-rule="evenodd" d="M9.33307 10.6665C10.6664 11.9165 12.6664 12.6665 13.9997 10.6665C15.3331 8.6665 17.9997 8.6665 18.6664 10.6665C19.3331 12.6665 18.6664 14.6665 18.6664 14.6665H9.33307C9.33307 14.6665 7.99974 9.4165 9.33307 10.6665Z" fill="#0E4B9C"/>
</g>
<path opacity="0.75" d="M5.20581 12.7678C5.36522 12.6759 5.56887 12.7305 5.66089 12.8899L7.32788 15.7766C7.41978 15.9359 7.36501 16.1396 7.20581 16.2317L6.62866 16.5657C6.46927 16.6577 6.26469 16.6029 6.17261 16.4436L4.50659 13.5569C4.41454 13.3975 4.46923 13.1929 4.62866 13.1008L5.20581 12.7678ZM22.3386 12.8899C22.4307 12.7305 22.6352 12.6758 22.7947 12.7678L23.3718 13.1008C23.5313 13.1929 23.5859 13.3975 23.4939 13.5569L21.8269 16.4436C21.7349 16.6028 21.5312 16.6575 21.3718 16.5657L20.7947 16.2317C20.6352 16.1396 20.5806 15.936 20.6726 15.7766L22.3386 12.8899ZM6.93823 11.7678C7.09764 11.6759 7.30129 11.7305 7.39331 11.8899L9.0603 14.7766C9.1522 14.9359 9.09743 15.1396 8.93823 15.2317L8.36108 15.5657C8.20169 15.6577 7.99711 15.6029 7.90503 15.4436L6.23901 12.5569C6.14697 12.3975 6.20165 12.1929 6.36108 12.1008L6.93823 11.7678ZM20.6062 11.8899C20.6982 11.7305 20.9028 11.6758 21.0623 11.7678L21.6394 12.1008C21.7988 12.1929 21.8535 12.3975 21.7615 12.5569L20.0945 15.4436C20.0024 15.6028 19.7987 15.6575 19.6394 15.5657L19.0623 15.2317C18.9028 15.1396 18.8481 14.936 18.9402 14.7766L20.6062 11.8899ZM7.90503 4.55688C7.99708 4.39745 8.20165 4.34277 8.36108 4.43481L8.93823 4.76782C9.09745 4.85985 9.15208 5.06356 9.0603 5.2229L7.39331 8.10962C7.30127 8.26904 7.09766 8.32371 6.93823 8.23169L6.36108 7.89868C6.20169 7.80666 6.14707 7.60302 6.23901 7.4436L7.90503 4.55688ZM19.6394 4.43481C19.7988 4.34279 20.0024 4.39747 20.0945 4.55688L21.7615 7.4436C21.8532 7.60294 21.7986 7.80666 21.6394 7.89868L21.0623 8.23169C20.9028 8.32374 20.6982 8.26905 20.6062 8.10962L18.9402 5.2229C18.8482 5.06349 18.9029 4.85985 19.0623 4.76782L19.6394 4.43481ZM6.17261 3.55688C6.26465 3.39745 6.46923 3.34277 6.62866 3.43481L7.20581 3.76782C7.36503 3.85985 7.41966 4.06356 7.32788 4.2229L5.66089 7.10962C5.56885 7.26904 5.36524 7.32371 5.20581 7.23169L4.62866 6.89868C4.46927 6.80666 4.41465 6.60302 4.50659 6.4436L6.17261 3.55688ZM21.3718 3.43481C21.5313 3.34279 21.7349 3.39747 21.8269 3.55688L23.4939 6.4436C23.5857 6.60294 23.531 6.80666 23.3718 6.89868L22.7947 7.23169C22.6352 7.32374 22.4307 7.26905 22.3386 7.10962L20.6726 4.2229C20.5807 4.06349 20.6353 3.85985 20.7947 3.76782L21.3718 3.43481Z" fill="#262626"/>
</g>
</svg>
