<svg width="28" height="20" viewBox="0 0 28 20" fill="none" xmlns="http://www.w3.org/2000/svg">
<rect width="28" height="20" rx="2" fill="white"/>
<mask id="mask0_27_1340" style="mask-type:luminance" maskUnits="userSpaceOnUse" x="0" y="0" width="28" height="20">
<rect width="28" height="20" rx="2" fill="white"/>
</mask>
<g mask="url(#mask0_27_1340)">
<rect width="28" height="20" fill="#07319C"/>
<path fill-rule="evenodd" clip-rule="evenodd" d="M20.667 6.66667C21.7716 6.66667 22.667 6.06971 22.667 5.33333C22.667 4.59695 21.7716 4 20.667 4C19.5624 4 18.667 4.59695 18.667 5.33333C18.667 6.06971 19.5624 6.66667 20.667 6.66667Z" fill="#FAD051"/>
<path fill-rule="evenodd" clip-rule="evenodd" d="M17.333 9.99992C17.333 7.99992 17.333 5.33325 17.333 5.33325H23.9997C23.9997 5.33325 23.9997 7.99992 23.9997 9.99992C23.9997 13.3333 20.6663 14.6666 20.6663 14.6666C20.6663 14.6666 17.333 13.3333 17.333 9.99992Z" fill="url(#paint0_linear_27_1340)"/>
<mask id="mask1_27_1340" style="mask-type:luminance" maskUnits="userSpaceOnUse" x="17" y="5" width="7" height="10">
<path fill-rule="evenodd" clip-rule="evenodd" d="M17.333 9.99992C17.333 7.99992 17.333 5.33325 17.333 5.33325H23.9997C23.9997 5.33325 23.9997 7.99992 23.9997 9.99992C23.9997 13.3333 20.6663 14.6666 20.6663 14.6666C20.6663 14.6666 17.333 13.3333 17.333 9.99992Z" fill="white"/>
</mask>
<g mask="url(#mask1_27_1340)">
<path d="M24 14.667H17.333V13.333H24V14.667ZM24 12H17.333V10.667H24V12ZM24 9.33301H17.333V8H24V9.33301Z" fill="#125FBA"/>
<path fill-rule="evenodd" clip-rule="evenodd" d="M17.333 5.33325H23.9997V6.66659H21.333H19.9997H17.333V5.33325Z" fill="#CF142C"/>
</g>
<path d="M12.333 0.495117C12.333 0.710418 12.2289 0.912945 12.0537 1.03809L7.66699 4.1709V5.17969L11.7646 8.69238C12.1547 9.02696 11.9182 9.66674 11.4043 9.66699C11.2889 9.66699 11.176 9.63057 11.082 9.56348L6.55859 6.33301H5.42871L0.176758 9.61621L-0.333008 9.93457V8.49512L-0.193359 8.39551L4.33301 5.16211V4.15234L-0.216797 0.25293L-0.901367 -0.333008H0.773438L0.860352 -0.271484L5.43945 3H6.57129L11.8232 -0.282227L12.333 -0.601562V0.495117Z" fill="#DB1E36" stroke="white" stroke-width="0.666667"/>
<path fill-rule="evenodd" clip-rule="evenodd" d="M0 3.33333V6H4.66667V9.33333C4.66667 9.70152 4.96514 10 5.33333 10H6.66667C7.03486 10 7.33333 9.70152 7.33333 9.33333V6H12C12.3682 6 12.6667 5.70152 12.6667 5.33333V4C12.6667 3.63181 12.3682 3.33333 12 3.33333H7.33333V0H4.66667V3.33333H0Z" fill="white"/>
<path fill-rule="evenodd" clip-rule="evenodd" d="M0 4H5.33333V3.33333V0H6.66667V3.33333V4H12V5.33333H6.66667V6V9.33333H5.33333V6V5.33333H0V4Z" fill="#DB1E36"/>
</g>
<defs>
<linearGradient id="paint0_linear_27_1340" x1="17.333" y1="5.33325" x2="17.333" y2="14.6666" gradientUnits="userSpaceOnUse">
<stop stop-color="white"/>
<stop offset="1" stop-color="#F0F0F0"/>
</linearGradient>
</defs>
</svg>
