<svg width="28" height="20" viewBox="0 0 28 20" fill="none" xmlns="http://www.w3.org/2000/svg">
<rect width="28" height="20" rx="2" fill="white"/>
<mask id="mask0_27_1251" style="mask-type:luminance" maskUnits="userSpaceOnUse" x="0" y="0" width="28" height="20">
<rect width="28" height="20" rx="2" fill="white"/>
</mask>
<g mask="url(#mask0_27_1251)">
<rect width="28" height="20" fill="#30C6E0"/>
<path fill-rule="evenodd" clip-rule="evenodd" d="M14 14C16.2091 14 18 12.2091 18 10C18 7.79086 16.2091 6 14 6C11.7909 6 10 7.79086 10 10C10 12.2091 11.7909 14 14 14Z" fill="#FFCD4B"/>
<path d="M16.0459 5.75366L18.5723 4.26636L17.6855 7.06128L20.6074 6.81812L18.5957 8.95093L21.334 9.99976L18.5957 11.0486L20.6074 13.1814L17.6855 12.9392L18.5723 15.7332L16.0459 14.2468L15.6318 17.1492L14 14.7136L12.3682 17.1492L11.9551 14.2468L9.42773 15.7332L10.3154 12.9392L7.39355 13.1814L9.40527 11.0486L6.66699 9.99976L9.40527 8.95093L7.39355 6.81812L10.3154 7.06128L9.42773 4.26636L11.9551 5.75366L12.3682 2.85034L14 5.28687L15.6318 2.85034L16.0459 5.75366ZM14.001 5.33374C11.4238 5.33374 9.3342 7.42261 9.33398 9.99976C9.33398 12.5771 11.4236 14.6667 14.001 14.6667C16.5782 14.6666 18.667 12.577 18.667 9.99976C18.6668 7.42272 16.578 5.33392 14.001 5.33374Z" fill="#FFCD4B"/>
<path d="M2.33301 17.3333C2.51699 17.3333 2.66584 17.4823 2.66602 17.6663V18.3333C2.66602 18.5173 2.5171 18.6663 2.33301 18.6663H1.66602C1.48207 18.6661 1.33301 18.5172 1.33301 18.3333V17.6663C1.33318 17.4824 1.48218 17.3334 1.66602 17.3333H2.33301ZM3.66602 16.0002C3.85008 16.0002 3.99898 16.1492 3.99902 16.3333V17.0002C3.99889 17.1842 3.85003 17.3333 3.66602 17.3333H2.99902C2.81516 17.3331 2.66615 17.1841 2.66602 17.0002V16.3333C2.66606 16.1493 2.81511 16.0004 2.99902 16.0002H3.66602ZM2.33301 14.6663C2.5171 14.6663 2.66602 14.8161 2.66602 15.0002V15.6663C2.66602 15.8504 2.5171 16.0002 2.33301 16.0002H1.66602C1.48207 16.0001 1.33301 15.8502 1.33301 15.6663V15.0002C1.33301 14.8163 1.48207 14.6664 1.66602 14.6663H2.33301ZM3.66602 13.3333C3.85 13.3333 3.99885 13.4823 3.99902 13.6663V14.3333C3.99902 14.5173 3.85011 14.6663 3.66602 14.6663H2.99902C2.81508 14.6661 2.66602 14.5172 2.66602 14.3333V13.6663C2.66619 13.4824 2.81519 13.3334 2.99902 13.3333H3.66602ZM2.33301 12.0002C2.5171 12.0002 2.66602 12.1492 2.66602 12.3333V13.0002C2.66584 13.1842 2.51699 13.3333 2.33301 13.3333H1.66602C1.48218 13.3331 1.33318 13.1841 1.33301 13.0002V12.3333C1.33301 12.1493 1.48207 12.0004 1.66602 12.0002H2.33301ZM3.66602 10.6663C3.85011 10.6663 3.99902 10.8161 3.99902 11.0002V11.6663C3.99902 11.8504 3.85011 12.0002 3.66602 12.0002H2.99902C2.81508 12.0001 2.66602 11.8502 2.66602 11.6663V11.0002C2.66602 10.8163 2.81508 10.6664 2.99902 10.6663H3.66602ZM2.33301 9.33325C2.51699 9.33325 2.66584 9.48232 2.66602 9.66626V10.3333C2.66602 10.5173 2.5171 10.6663 2.33301 10.6663H1.66602C1.48207 10.6661 1.33301 10.5172 1.33301 10.3333V9.66626C1.33318 9.48242 1.48218 9.33343 1.66602 9.33325H2.33301ZM3.66602 8.00024C3.85008 8.00024 3.99898 8.14919 3.99902 8.33325V9.00024C3.99889 9.18423 3.85003 9.33325 3.66602 9.33325H2.99902C2.81516 9.33308 2.66615 9.18412 2.66602 9.00024V8.33325C2.66606 8.1493 2.81511 8.00042 2.99902 8.00024H3.66602ZM2.33301 6.66626C2.5171 6.66626 2.66602 6.81615 2.66602 7.00024V7.66626C2.66602 7.85035 2.5171 8.00024 2.33301 8.00024H1.66602C1.48207 8.00007 1.33301 7.85025 1.33301 7.66626V7.00024C1.33301 6.81626 1.48207 6.66644 1.66602 6.66626H2.33301ZM3.66602 5.33325C3.85 5.33325 3.99885 5.48231 3.99902 5.66626V6.33325C3.99902 6.51735 3.85011 6.66626 3.66602 6.66626H2.99902C2.81508 6.66608 2.66602 6.51724 2.66602 6.33325V5.66626C2.66619 5.48242 2.81519 5.33343 2.99902 5.33325H3.66602ZM2.33301 4.00024C2.5171 4.00024 2.66602 4.14916 2.66602 4.33325V5.00024C2.66584 5.18419 2.51699 5.33325 2.33301 5.33325H1.66602C1.48218 5.33308 1.33318 5.18408 1.33301 5.00024V4.33325C1.33301 4.14927 1.48207 4.00042 1.66602 4.00024H2.33301ZM3.66602 2.66626C3.85011 2.66626 3.99902 2.81615 3.99902 3.00024V3.66626C3.99902 3.85035 3.85011 4.00024 3.66602 4.00024H2.99902C2.81508 4.00007 2.66602 3.85025 2.66602 3.66626V3.00024C2.66602 2.81626 2.81508 2.66644 2.99902 2.66626H3.66602ZM2.33301 1.33325C2.51699 1.33325 2.66584 1.48231 2.66602 1.66626V2.33325C2.66602 2.51735 2.5171 2.66626 2.33301 2.66626H1.66602C1.48207 2.66608 1.33301 2.51724 1.33301 2.33325V1.66626C1.33318 1.48242 1.48218 1.33343 1.66602 1.33325H2.33301Z" fill="#FFCD4B"/>
</g>
</svg>
