<svg width="28" height="20" viewBox="0 0 28 20" fill="none" xmlns="http://www.w3.org/2000/svg">
<rect width="28" height="20" rx="2" fill="white"/>
<mask id="mask0_27_1425" style="mask-type:luminance" maskUnits="userSpaceOnUse" x="0" y="0" width="28" height="20">
<rect width="28" height="20" rx="2" fill="white"/>
</mask>
<g mask="url(#mask0_27_1425)">
<rect width="28" height="20" fill="#FFBF19"/>
<path fill-rule="evenodd" clip-rule="evenodd" d="M10.667 1.33325H25.3337C26.07 1.33325 26.667 1.93021 26.667 2.66659V17.3333C26.667 18.0696 26.07 18.6666 25.3337 18.6666H10.667V1.33325Z" fill="#A52531"/>
<path d="M12.667 15.9998C13.035 15.9999 13.333 16.2987 13.333 16.6667C13.333 17.0348 13.035 17.3336 12.667 17.3337H12C12 17.3337 12 16.8553 12 16.6667C12 16.2986 12.2988 15.9998 12.667 15.9998ZM24.666 15.9998C25.0342 15.9998 25.333 16.2986 25.333 16.6667V17.3337C25.333 17.3337 24.8456 17.3337 24.666 17.3337C24.298 17.3336 24 17.0348 24 16.6667C24 16.2987 24.298 15.9999 24.666 15.9998ZM12.667 2.66675C13.035 2.66692 13.333 2.96566 13.333 3.33374C13.3328 3.70167 13.0349 3.99958 12.667 3.99976C12.2989 3.99976 12.0002 3.70178 12 3.33374V2.66675H12.667ZM25.333 3.33374C25.3328 3.70178 25.0341 3.99976 24.666 3.99976C24.2981 3.99958 24.0002 3.70167 24 3.33374C24 2.96566 24.298 2.66692 24.666 2.66675H25.333C25.333 2.66675 25.333 3.14517 25.333 3.33374Z" fill="#FFBF18"/>
<path fill-rule="evenodd" clip-rule="evenodd" d="M16.0001 12.5736C16.0001 12.2568 15.7433 12 15.4265 12C15.3649 12 15.3038 11.9902 15.2457 11.9694C14.86 11.8316 13.3334 11.2491 13.3334 10.6667C13.3334 10.3018 13.5331 9.937 13.7139 9.68142C13.8713 9.4589 13.9299 9.16973 13.8333 8.91484C13.6067 8.31687 13.2398 7.22836 13.3334 6.66668C13.3833 6.36754 13.5825 6.1056 13.8123 5.8949C14.1679 5.56881 14.6668 5.87699 14.6668 6.35951V8.92133C14.6668 9.17384 14.8094 9.40469 15.0353 9.51761L15.7118 9.85587C15.884 9.94195 16.0919 9.90821 16.228 9.77209C16.4439 9.55625 16.3848 9.19238 16.1118 9.05587L15.3334 8.66668V8.00002C15.6656 8.00002 15.7713 7.55227 15.4742 7.40373L15.3334 7.33335V6.66668H16.3906C16.5674 6.66668 16.737 6.59645 16.862 6.47142L17.1382 6.19528C17.2632 6.07026 17.4328 6.00002 17.6096 6.00002H18.2548C18.5073 6.00002 18.7381 6.14269 18.851 6.36854L19.2099 7.08636C19.289 7.24451 19.302 7.42759 19.2461 7.59532L18.9593 8.45587C18.8154 8.88755 19.1367 9.33335 19.5917 9.33335H21.7833C21.9221 9.33335 22.0552 9.27822 22.1534 9.18008C22.4059 8.92751 22.3369 8.50172 22.0174 8.34199L21.4742 8.0704C21.3816 8.02412 21.2796 8.00002 21.1761 8.00002H20.6668C20.2986 8.00002 20.0001 7.70154 20.0001 7.33335V6.94283C20.0001 6.76602 20.0703 6.59645 20.1954 6.47142L20.6668 6.00002V6.66669C20.6668 7.03487 20.9653 7.33335 21.3334 7.33335H22.2548C22.5073 7.33335 22.7381 7.47602 22.851 7.70188L23.28 8.55975C23.3153 8.63048 23.3379 8.70659 23.3451 8.78533C23.3757 9.12089 23.4488 10.0897 23.3334 10.6667C23.2399 11.1342 22.9782 11.5669 22.8118 11.8061C22.7224 11.9347 22.6668 12.0858 22.6668 12.2424V14.1574C22.6668 14.4387 22.4388 14.6667 22.1575 14.6667C21.7789 14.6667 21.5327 14.2683 21.702 13.9296L21.9297 13.4741C21.974 13.3855 21.974 13.2812 21.9297 13.1926L21.8982 13.1296C21.7576 12.8482 21.3334 12.9484 21.3334 13.263C21.3334 13.3093 21.3227 13.3549 21.302 13.3963L20.8316 14.3371C20.7306 14.5391 20.5241 14.6667 20.2982 14.6667C19.855 14.6667 19.5667 14.2002 19.7649 13.8037L19.9297 13.4741C19.976 13.3815 20.0001 13.2795 20.0001 13.176V12.6667C20.0001 12.2985 19.7016 12 19.3334 12H18.0001C17.6319 12 17.3334 12.2985 17.3334 12.6667V13.176C17.3334 13.2795 17.3093 13.3815 17.2631 13.4741L16.8316 14.3371C16.7306 14.5391 16.5241 14.6667 16.2982 14.6667C15.855 14.6667 15.5667 14.2002 15.7649 13.8037L15.9297 13.4741C15.976 13.3815 16.0001 13.2795 16.0001 13.176V12.5736Z" fill="#FFBF18"/>
<rect x="5.33301" y="1.33325" width="4" height="17.3333" rx="0.666667" fill="#FF6816"/>
<path d="M1.33301 2.66659C1.33301 1.93021 1.92996 1.33325 2.66634 1.33325H5.33301V18.6666H2.66634C1.92996 18.6666 1.33301 18.0696 1.33301 17.3333V2.66659Z" fill="#03664F"/>
</g>
</svg>
