<svg width="28" height="20" viewBox="0 0 28 20" fill="none" xmlns="http://www.w3.org/2000/svg">
<rect x="0.25" y="0.25" width="27.5" height="19.5" rx="1.75" fill="white" stroke="#F5F5F5" stroke-width="0.5"/>
<mask id="mask0_27_1384" style="mask-type:luminance" maskUnits="userSpaceOnUse" x="0" y="0" width="28" height="20">
<rect x="0.25" y="0.25" width="27.5" height="19.5" rx="1.75" fill="white" stroke="white" stroke-width="0.5"/>
</mask>
<g mask="url(#mask0_27_1384)">
<path d="M28 18.667H0V16H28V18.667ZM28 13.333H13.333V10.667H28V13.333ZM28 8H13.333V5.33301H28V8ZM28 2.66699H13.333V0H28V2.66699Z" fill="#E1244A"/>
<rect width="13.3333" height="13.3333" fill="#0C3F8E"/>
<path fill-rule="evenodd" clip-rule="evenodd" d="M6.66699 8.22675L4.31585 9.90282L5.18334 7.14881L2.86277 5.43068L5.75005 5.40468L6.66699 2.66675L7.58394 5.40468L10.4712 5.43068L8.15064 7.14881L9.01813 9.90282L6.66699 8.22675Z" fill="white"/>
</g>
</svg>
