<svg width="28" height="20" viewBox="0 0 28 20" fill="none" xmlns="http://www.w3.org/2000/svg">
<rect x="0.25" y="0.25" width="27.5" height="19.5" rx="1.75" fill="white" stroke="#F5F5F5" stroke-width="0.5"/>
<mask id="mask0_27_1401" style="mask-type:luminance" maskUnits="userSpaceOnUse" x="0" y="0" width="28" height="20">
<rect x="0.25" y="0.25" width="27.5" height="19.5" rx="1.75" fill="white" stroke="white" stroke-width="0.5"/>
</mask>
<g mask="url(#mask0_27_1401)">
<path fill-rule="evenodd" clip-rule="evenodd" d="M0 19.9999H28V13.3333H0V19.9999Z" fill="#1DB158"/>
<path fill-rule="evenodd" clip-rule="evenodd" d="M13.3336 9.99992L13.3678 9.89729C13.5704 9.28949 14.4301 9.28949 14.6327 9.89729L14.6669 9.99992L15.8487 11.7726C15.9368 11.9048 15.9174 12.0791 15.7856 12.1677C15.4919 12.3652 14.8968 12.6666 14.0003 12.6666C13.1038 12.6666 12.5087 12.3652 12.2149 12.1677C12.0831 12.0791 12.0637 11.9048 12.1518 11.7726L13.3336 9.99992Z" fill="#262626"/>
<path d="M14 7.66626C14.5522 7.66626 14.9998 8.11412 15 8.66626C15 9.21854 14.5523 9.66626 14 9.66626C13.4479 9.66608 13 9.21844 13 8.66626C13.0002 8.11423 13.448 7.66644 14 7.66626Z" stroke="#262626" stroke-width="0.666667"/>
<path fill-rule="evenodd" clip-rule="evenodd" d="M0 6.66667H28V0H0V6.66667Z" fill="#0C33B8"/>
</g>
</svg>
