<svg width="28" height="20" viewBox="0 0 28 20" fill="none" xmlns="http://www.w3.org/2000/svg">
<rect width="28" height="20" rx="2" fill="white"/>
<mask id="mask0_27_1373" style="mask-type:luminance" maskUnits="userSpaceOnUse" x="0" y="0" width="28" height="20">
<rect width="28" height="20" rx="2" fill="white"/>
</mask>
<g mask="url(#mask0_27_1373)">
<g filter="url(#filter0_d_27_1373)">
<path fill-rule="evenodd" clip-rule="evenodd" d="M0 13.3334H28V6.66675H0V13.3334Z" fill="#262626"/>
</g>
<g filter="url(#filter1_d_27_1373)">
<path fill-rule="evenodd" clip-rule="evenodd" d="M0 19.9999H28V13.3333H0V19.9999Z" fill="#34B857"/>
</g>
<path d="M14 8C14.4122 8 14.795 8.12513 15.1133 8.33887C15.0758 8.33634 15.0381 8.33302 15 8.33301C14.0795 8.33301 13.333 9.07953 13.333 10C13.3331 10.9204 14.0796 11.667 15 11.667C15.0381 11.667 15.0758 11.6627 15.1133 11.6602C14.7949 11.8741 14.4124 12 14 12C12.8954 12 12 11.1046 12 10C12 8.89543 12.8954 8 14 8ZM15.334 9.33301C15.702 9.33318 16 9.63192 16 10C16 10.368 15.702 10.6668 15.334 10.667C14.9658 10.667 14.667 10.3682 14.667 10C14.667 9.63181 14.9658 9.33301 15.334 9.33301Z" fill="white"/>
<path fill-rule="evenodd" clip-rule="evenodd" d="M0 6.66667H28V0H0V6.66667Z" fill="#F41F34"/>
</g>
<defs>
<filter id="filter0_d_27_1373" x="0" y="6.66675" width="28" height="6.66675" filterUnits="userSpaceOnUse" color-interpolation-filters="sRGB">
<feFlood flood-opacity="0" result="BackgroundImageFix"/>
<feColorMatrix in="SourceAlpha" type="matrix" values="0 0 0 0 0 0 0 0 0 0 0 0 0 0 0 0 0 0 127 0" result="hardAlpha"/>
<feOffset/>
<feColorMatrix type="matrix" values="0 0 0 0 0 0 0 0 0 0 0 0 0 0 0 0 0 0 0.06 0"/>
<feBlend mode="normal" in2="BackgroundImageFix" result="effect1_dropShadow_27_1373"/>
<feBlend mode="normal" in="SourceGraphic" in2="effect1_dropShadow_27_1373" result="shape"/>
</filter>
<filter id="filter1_d_27_1373" x="0" y="13.3333" width="28" height="6.66675" filterUnits="userSpaceOnUse" color-interpolation-filters="sRGB">
<feFlood flood-opacity="0" result="BackgroundImageFix"/>
<feColorMatrix in="SourceAlpha" type="matrix" values="0 0 0 0 0 0 0 0 0 0 0 0 0 0 0 0 0 0 127 0" result="hardAlpha"/>
<feOffset/>
<feColorMatrix type="matrix" values="0 0 0 0 0 0 0 0 0 0 0 0 0 0 0 0 0 0 0.06 0"/>
<feBlend mode="normal" in2="BackgroundImageFix" result="effect1_dropShadow_27_1373"/>
<feBlend mode="normal" in="SourceGraphic" in2="effect1_dropShadow_27_1373" result="shape"/>
</filter>
</defs>
</svg>
