<svg width="28" height="20" viewBox="0 0 28 20" fill="none" xmlns="http://www.w3.org/2000/svg">
<rect width="28" height="20" rx="2" fill="white"/>
<mask id="mask0_27_1567" style="mask-type:luminance" maskUnits="userSpaceOnUse" x="0" y="0" width="28" height="20">
<rect width="28" height="20" rx="2" fill="white"/>
</mask>
<g mask="url(#mask0_27_1567)">
<rect width="28" height="20" fill="#E6BE53"/>
<path fill-rule="evenodd" clip-rule="evenodd" d="M1.33301 17.6666C1.33301 18.2189 1.78072 18.6666 2.33301 18.6666H25.6663C26.2186 18.6666 26.6663 18.2189 26.6663 17.6666V2.33325C26.6663 1.78097 26.2186 1.33325 25.6663 1.33325H2.33301C1.78072 1.33325 1.33301 1.78097 1.33301 2.33325V17.6666Z" fill="#E01826"/>
<path d="M8.49219 5.12036C8.82897 4.67131 9.53662 4.81416 9.67285 5.35864L9.98145 6.59595C9.9932 6.64293 10.0106 6.68835 10.0322 6.73169L10.6182 7.90356C10.6502 7.96752 10.6926 8.02584 10.7432 8.07642L11.0537 8.38696C11.2079 8.54114 11.2078 8.79132 11.0537 8.94556C10.8631 9.13612 10.9153 9.45778 11.1562 9.57837L11.4795 9.7395C11.7186 9.85901 12 9.68549 12 9.41821C12 9.36239 12.0131 9.30701 12.0381 9.25708L12.4512 8.42993C12.5795 8.17327 12.5291 7.86331 12.3262 7.6604L11.333 6.66626L11.3203 6.65356C10.9989 6.33186 11.0866 5.78975 11.4932 5.58618L11.5703 5.5481C11.8269 5.42001 12.137 5.47029 12.3398 5.6731L13.5283 6.86157C13.7887 7.12192 14.2104 7.12191 14.4707 6.86157L14.666 6.66626L15.6602 5.6731C15.8631 5.47029 16.1731 5.41979 16.4297 5.5481L16.5059 5.58618C16.9128 5.78968 17.0003 6.33181 16.6787 6.65356L16.666 6.66626L15.6729 7.6604C15.47 7.86331 15.4195 8.1733 15.5479 8.42993L15.9619 9.25708C15.9869 9.30701 16 9.36239 16 9.41821C16 9.6855 16.2814 9.85904 16.5205 9.7395L16.8428 9.57837C17.0839 9.45782 17.1359 9.13615 16.9453 8.94556C16.7914 8.79131 16.7912 8.54108 16.9453 8.38696L17.2568 8.07642C17.3074 8.02582 17.3498 7.96753 17.3818 7.90356L17.9668 6.73169C17.9884 6.68834 18.0058 6.64295 18.0176 6.59595L18.3262 5.35864C18.4624 4.81411 19.17 4.67134 19.5068 5.12036L20.5332 6.48853C20.6198 6.60392 20.666 6.74467 20.666 6.88892V9.17603C20.666 9.27947 20.642 9.38135 20.5957 9.47388L20.0479 10.5696C20.0158 10.6337 19.9735 10.6927 19.9229 10.7434L18.7432 11.9231C18.6925 11.9738 18.6334 12.0161 18.5693 12.0481L17.3955 12.635C17.3542 12.6556 17.3088 12.6662 17.2627 12.6663C16.9482 12.6663 16.8478 13.0909 17.1289 13.2317L17.2842 13.3088C17.3166 13.3251 17.3464 13.3466 17.3721 13.3723L17.666 13.6663C17.8501 13.8504 18.1489 13.8504 18.333 13.6663C18.5171 13.4824 18.816 13.4823 19 13.6663L19.0537 13.7209C19.2203 13.8876 19.2615 14.1419 19.1562 14.3528L18.8506 14.9651C18.7376 15.1908 18.5063 15.3333 18.2539 15.3333H17.4902C17.3868 15.3332 17.2849 15.3092 17.1924 15.2629L16.1982 14.7659C16.0694 14.7014 15.9649 14.5969 15.9004 14.468L15.5977 13.8635C15.4673 13.6029 15.1202 13.5462 14.9141 13.7522C14.7701 13.8961 14.7475 14.1219 14.8604 14.2913L15.6299 15.4456C15.8339 15.7517 15.7513 16.1651 15.4453 16.3694L14.3691 17.0872C14.1453 17.2361 13.8537 17.2362 13.6299 17.0872L12.5547 16.3694C12.2484 16.1652 12.1652 15.7519 12.3691 15.4456L13.1387 14.2913C13.2516 14.1218 13.2289 13.8962 13.085 13.7522C12.8788 13.5464 12.5317 13.6029 12.4014 13.8635L12.0986 14.468C12.0341 14.5969 11.9297 14.7014 11.8008 14.7659L10.8066 15.2629C10.7142 15.3091 10.6121 15.3333 10.5088 15.3333H9.74512C9.49264 15.3333 9.26139 15.1909 9.14844 14.9651L8.84277 14.3528C8.73761 14.142 8.77885 13.8876 8.94531 13.7209L9 13.6663C9.184 13.4826 9.48201 13.4826 9.66602 13.6663C9.85011 13.8504 10.1489 13.8504 10.333 13.6663L10.6279 13.3723C10.6536 13.3466 10.6833 13.3251 10.7158 13.3088L10.8701 13.2317C11.1515 13.091 11.0509 12.6663 10.7363 12.6663C10.6902 12.6662 10.6448 12.6556 10.6035 12.635L9.42969 12.0481C9.36567 12.0161 9.30746 11.9737 9.25684 11.9231L8.07617 10.7434C8.0255 10.6927 7.98322 10.6337 7.95117 10.5696L7.40332 9.47388C7.35711 9.38138 7.33302 9.27942 7.33301 9.17603V6.88892C7.33301 6.74467 7.38025 6.60392 7.4668 6.48853L8.49219 5.12036ZM13.7891 3.40356C13.9259 3.35795 14.0741 3.35795 14.2109 3.40356L14.9766 3.65845C15.4467 3.81517 15.5877 4.41251 15.2373 4.76294L14.8623 5.13794C14.7373 5.26294 14.5674 5.33323 14.3906 5.33325H13.6094C13.4326 5.33323 13.2627 5.26294 13.1377 5.13794L12.7627 4.76294C12.4123 4.41251 12.5533 3.81517 13.0234 3.65845L13.7891 3.40356Z" fill="#E6BE53"/>
<path fill-rule="evenodd" clip-rule="evenodd" d="M12.667 11.3333C12.667 11.5787 13.0804 11.6604 13.2 11.446C13.4324 11.0294 13.7164 10.6666 14.0003 10.6666C14.2843 10.6666 14.5682 11.0294 14.8007 11.446C14.9203 11.6604 15.3337 11.5787 15.3337 11.3333C15.3337 10.2287 14.7367 9.33325 14.0003 9.33325C13.2639 9.33325 12.667 10.2287 12.667 11.3333Z" fill="#215F90"/>
</g>
</svg>
