<svg width="28" height="20" viewBox="0 0 28 20" fill="none" xmlns="http://www.w3.org/2000/svg">
<rect width="28" height="20" rx="2" fill="white"/>
<mask id="mask0_27_1541" style="mask-type:luminance" maskUnits="userSpaceOnUse" x="0" y="0" width="28" height="20">
<rect width="28" height="20" rx="2" fill="white"/>
</mask>
<g mask="url(#mask0_27_1541)">
<rect width="28" height="20" fill="#E81B26"/>
<path fill-rule="evenodd" clip-rule="evenodd" d="M14.0003 13.3334C15.8413 13.3334 17.3337 11.841 17.3337 10.0001C17.3337 8.15913 15.8413 6.66675 14.0003 6.66675C12.1594 6.66675 10.667 8.15913 10.667 10.0001C10.667 11.841 12.1594 13.3334 14.0003 13.3334Z" fill="#FFE94F"/>
<path d="M10.208 12.7192C10.4093 12.9995 10.6403 13.2569 10.8975 13.4858L1.96191 23.5308L-0.714844 20.5581L10.208 12.7192ZM28.7148 20.5581L26.0381 23.5308L17.1006 13.4849C17.3576 13.256 17.5887 12.9993 17.79 12.7192L28.7148 20.5581ZM16 19.9995H12L13.084 14.5757C13.3801 14.6346 13.6865 14.6665 14 14.6665C14.3133 14.6665 14.6191 14.6346 14.915 14.5757L16 19.9995ZM9.37988 9.33936C9.34932 9.55504 9.33303 9.7754 9.33301 9.99951C9.33301 10.2232 9.34946 10.4434 9.37988 10.6587L0 11.9995V7.99951L9.37988 9.33936ZM28 11.9995L18.6182 10.6587C18.6486 10.4434 18.666 10.2232 18.666 9.99951C18.666 9.77533 18.6487 9.55509 18.6182 9.33936L28 7.99951V11.9995ZM28.7148 -0.558105L17.79 7.27979C17.5886 6.99959 17.3578 6.74211 17.1006 6.51318L26.0381 -3.53076L28.7148 -0.558105ZM10.8984 6.51318C10.6413 6.74206 10.4094 6.99869 10.208 7.27881L-0.714844 -0.558105L1.96191 -3.53076L10.8984 6.51318ZM14.915 5.42334C14.6191 5.36448 14.3132 5.33352 14 5.3335C13.6866 5.3335 13.3801 5.36442 13.084 5.42334L12 -0.000488281H16L14.915 5.42334Z" fill="#FFE94F"/>
</g>
</svg>
