<svg width="28" height="20" viewBox="0 0 28 20" fill="none" xmlns="http://www.w3.org/2000/svg">
<rect width="28" height="20" rx="2" fill="white"/>
<mask id="mask0_27_1527" style="mask-type:luminance" maskUnits="userSpaceOnUse" x="0" y="0" width="28" height="20">
<rect width="28" height="20" rx="2" fill="white"/>
</mask>
<g mask="url(#mask0_27_1527)">
<path fill-rule="evenodd" clip-rule="evenodd" d="M18.667 20H28.0003V0H18.667V20Z" fill="#E43642"/>
<path fill-rule="evenodd" clip-rule="evenodd" d="M9.33301 20H18.6663V0H9.33301V20Z" fill="#146BBC"/>
<path fill-rule="evenodd" clip-rule="evenodd" d="M0 20H9.33333V0H0V20Z" fill="#E43642"/>
<path d="M4 16H2.66699V12H4V16ZM4.66699 16L4 14.667H5.33301L4.66699 16ZM6.66699 16H5.33398V12H6.66699V16ZM4.66699 13.333C5.03503 13.3332 5.33301 13.6319 5.33301 14C5.33296 14.368 5.03501 14.6668 4.66699 14.667C4.29883 14.667 4.00004 14.3682 4 14C4 13.6318 4.2988 13.333 4.66699 13.333ZM4.66699 13.333L4 12H5.33301L4.66699 13.333ZM4.66699 10.667C5.0349 10.6672 5.33279 10.9651 5.33301 11.333C5.33301 11.7011 5.03503 11.9998 4.66699 12C4.2988 12 4 11.7012 4 11.333C4.00022 10.965 4.29894 10.667 4.66699 10.667ZM5.33301 10.667H4L4.66699 10L5.33301 10.667Z" fill="url(#paint0_linear_27_1527)"/>
</g>
<defs>
<linearGradient id="paint0_linear_27_1527" x1="2.66699" y1="10" x2="2.66699" y2="16" gradientUnits="userSpaceOnUse">
<stop stop-color="#F8D246"/>
<stop offset="1" stop-color="#F9CE2F"/>
</linearGradient>
</defs>
</svg>
