<svg width="28" height="20" viewBox="0 0 28 20" fill="none" xmlns="http://www.w3.org/2000/svg">
<rect width="28" height="20" rx="2" fill="white"/>
<mask id="mask0_27_1438" style="mask-type:luminance" maskUnits="userSpaceOnUse" x="0" y="0" width="28" height="20">
<rect width="28" height="20" rx="2" fill="white"/>
</mask>
<g mask="url(#mask0_27_1438)">
<path fill-rule="evenodd" clip-rule="evenodd" d="M0 20H28V0H0V20Z" fill="#079D7B"/>
<path d="M17.5549 14.6665C16.5837 15.5004 15.347 16.0005 14.0002 16.0005C12.6535 16.0005 11.4168 15.5004 10.4456 14.6665H17.5549ZM11.2727 11.8696C11.8759 11.8879 12.8723 12.0005 13.9993 12.0005C15.1056 12.0005 16.0863 11.8928 16.6926 11.8716C16.4983 11.9214 16.307 11.9657 16.1194 12.0005H19.3333C19.1751 12.4751 18.9619 12.9222 18.7024 13.3335H9.29712C9.03764 12.9222 8.82439 12.4751 8.66626 12.0005H11.8401C11.6542 11.9642 11.4647 11.9205 11.2727 11.8696ZM14.0002 5.3335C15.0413 5.3335 15.8859 6.8257 15.886 8.6665C15.886 8.95874 15.8615 9.24211 15.8215 9.51221C15.9245 9.48054 16.0294 9.44995 16.136 9.42139C17.9141 8.94496 19.5013 9.10258 19.6809 9.77295C19.8433 10.379 18.799 11.1944 17.2834 11.6978C17.0137 10.9061 15.6465 10.6665 13.9993 10.6665C12.3498 10.6665 10.98 10.9064 10.7131 11.7007C9.21944 11.1963 8.1952 10.3893 8.35571 9.78857C8.53534 9.11819 10.1225 8.96058 11.9006 9.43701C11.9948 9.46225 12.0876 9.48941 12.179 9.51709C12.1386 9.24558 12.1155 8.96044 12.1155 8.6665C12.1156 6.82587 12.9594 5.33376 14.0002 5.3335Z" fill="white"/>
<path d="M8.66699 5.99976C9.03503 5.99993 9.33301 6.29867 9.33301 6.66675C9.33301 7.03483 9.03503 7.33356 8.66699 7.33374C8.2988 7.33374 8 7.03494 8 6.66675C8 6.29856 8.2988 5.99976 8.66699 5.99976ZM19.334 5.99976C19.702 5.99993 20 6.29867 20 6.66675C20 7.03479 19.702 7.33356 19.334 7.33374C18.9658 7.33374 18.667 7.0349 18.667 6.66675C18.667 6.29856 18.9658 5.99976 19.334 5.99976ZM10.667 3.99976C11.035 3.99993 11.333 4.29867 11.333 4.66675C11.333 5.03483 11.035 5.33356 10.667 5.33374C10.2988 5.33374 10 5.03494 10 4.66675C10 4.29856 10.2988 3.99976 10.667 3.99976ZM17.334 3.99976C17.702 3.99993 18 4.29867 18 4.66675C18 5.03479 17.702 5.33356 17.334 5.33374C16.9658 5.33374 16.667 5.0349 16.667 4.66675C16.667 4.29856 16.9658 3.99976 17.334 3.99976ZM14 2.66675C14.368 2.66692 14.666 2.96566 14.666 3.33374C14.6658 3.70167 14.3679 3.99958 14 3.99976C13.6319 3.99976 13.3332 3.70178 13.333 3.33374C13.333 2.96555 13.6318 2.66675 14 2.66675Z" fill="#FCD117"/>
</g>
</svg>
