<svg width="28" height="20" viewBox="0 0 28 20" fill="none" xmlns="http://www.w3.org/2000/svg">
<rect width="28" height="20" rx="2" fill="white"/>
<mask id="mask0_27_1596" style="mask-type:luminance" maskUnits="userSpaceOnUse" x="0" y="0" width="28" height="20">
<rect width="28" height="20" rx="2" fill="white"/>
</mask>
<g mask="url(#mask0_27_1596)">
<rect width="28" height="20" fill="#108B4D"/>
<path fill-rule="evenodd" clip-rule="evenodd" d="M19.8139 7.73341C19.8625 8.04085 19.8877 8.35605 19.8877 8.67714C19.8877 11.9908 17.2014 14.6771 13.8877 14.6771C10.574 14.6771 7.8877 11.9908 7.8877 8.67714C7.8877 8.35605 7.91292 8.04085 7.96149 7.73341C8.41417 10.5988 10.8951 12.7897 13.8877 12.7897C16.8803 12.7897 19.3612 10.5988 19.8139 7.73341ZM14.0007 8.56417L12.3526 9.73905L12.9607 7.80856L11.334 6.60419L13.3579 6.58597L14.0007 4.66675L14.6434 6.58597L16.6673 6.60419L15.0407 7.80856L15.6487 9.73905L14.0007 8.56417Z" fill="#FFC941"/>
</g>
</svg>
