<svg width="28" height="20" viewBox="0 0 28 20" fill="none" xmlns="http://www.w3.org/2000/svg">
<rect x="0.25" y="0.25" width="27.5" height="19.5" rx="1.75" fill="white" stroke="#F5F5F5" stroke-width="0.5"/>
<mask id="mask0_27_1559" style="mask-type:luminance" maskUnits="userSpaceOnUse" x="0" y="0" width="28" height="20">
<rect x="0.25" y="0.25" width="27.5" height="19.5" rx="1.75" fill="white" stroke="white" stroke-width="0.5"/>
</mask>
<g mask="url(#mask0_27_1559)">
<mask id="path-3-outside-1_27_1559" maskUnits="userSpaceOnUse" x="1.66699" y="1.66675" width="6" height="6" fill="black">
<rect fill="white" x="1.66699" y="1.66675" width="6" height="6"/>
<path d="M5.33301 3.99976H6.66699V5.33374H5.33301V6.66675H4V5.33374H2.66699V3.99976H4V2.66675H5.33301V3.99976Z"/>
</mask>
<path d="M5.33301 3.99976H6.66699V5.33374H5.33301V6.66675H4V5.33374H2.66699V3.99976H4V2.66675H5.33301V3.99976Z" fill="#CCCCCD"/>
<path d="M5.33301 3.99976H4.66634V4.66642H5.33301V3.99976ZM6.66699 3.99976H7.33366V3.33309H6.66699V3.99976ZM6.66699 5.33374V6.00041H7.33366V5.33374H6.66699ZM5.33301 5.33374V4.66707H4.66634V5.33374H5.33301ZM5.33301 6.66675V7.33341H5.99967V6.66675H5.33301ZM4 6.66675H3.33333V7.33341H4V6.66675ZM4 5.33374H4.66667V4.66707H4V5.33374ZM2.66699 5.33374H2.00033V6.00041H2.66699V5.33374ZM2.66699 3.99976V3.33309H2.00033V3.99976H2.66699ZM4 3.99976V4.66642H4.66667V3.99976H4ZM4 2.66675V2.00008H3.33333V2.66675H4ZM5.33301 2.66675H5.99967V2.00008H5.33301V2.66675ZM5.33301 3.99976V4.66642H6.66699V3.99976V3.33309H5.33301V3.99976ZM6.66699 3.99976H6.00033V5.33374H6.66699H7.33366V3.99976H6.66699ZM6.66699 5.33374V4.66707H5.33301V5.33374V6.00041H6.66699V5.33374ZM5.33301 5.33374H4.66634V6.66675H5.33301H5.99967V5.33374H5.33301ZM5.33301 6.66675V6.00008H4V6.66675V7.33341H5.33301V6.66675ZM4 6.66675H4.66667V5.33374H4H3.33333V6.66675H4ZM4 5.33374V4.66707H2.66699V5.33374V6.00041H4V5.33374ZM2.66699 5.33374H3.33366V3.99976H2.66699H2.00033V5.33374H2.66699ZM2.66699 3.99976V4.66642H4V3.99976V3.33309H2.66699V3.99976ZM4 3.99976H4.66667V2.66675H4H3.33333V3.99976H4ZM4 2.66675V3.33341H5.33301V2.66675V2.00008H4V2.66675ZM5.33301 2.66675H4.66634V3.99976H5.33301H5.99967V2.66675H5.33301Z" fill="#7B716A" fill-opacity="0.66" mask="url(#path-3-outside-1_27_1559)"/>
<path fill-rule="evenodd" clip-rule="evenodd" d="M4.66667 5.33333C5.03486 5.33333 5.33333 5.03486 5.33333 4.66667C5.33333 4.29848 5.03486 4 4.66667 4C4.29848 4 4 4.29848 4 4.66667C4 5.03486 4.29848 5.33333 4.66667 5.33333Z" fill="#7B716A"/>
<path fill-rule="evenodd" clip-rule="evenodd" d="M14.667 20H28.0003V0H14.667V20Z" fill="#DE233C"/>
</g>
</svg>
