<svg width="28" height="20" viewBox="0 0 28 20" fill="none" xmlns="http://www.w3.org/2000/svg">
<rect width="28" height="20" rx="2" fill="white"/>
<mask id="mask0_27_1485" style="mask-type:luminance" maskUnits="userSpaceOnUse" x="0" y="0" width="28" height="20">
<rect width="28" height="20" rx="2" fill="white"/>
</mask>
<g mask="url(#mask0_27_1485)">
<path d="M28 20H0V18.667H28V20ZM28 17.333H0V16H28V17.333ZM28 14.667H0V13.333H28V14.667ZM28 12H0V10.667H28V12ZM28 9.33301H13.333V8H28V9.33301ZM28 6.66699H13.333V5.33301H28V6.66699ZM28 4H13.333V2.66699H28V4ZM28 1.33301H13.333V0H28V1.33301Z" fill="#E1244A"/>
<rect width="16" height="10.6667" fill="#0C3F8E"/>
<path d="M6.66699 1.33325C7.61132 1.33325 8.47883 1.66099 9.16309 2.20825C8.80107 2.0735 8.40896 2.00024 8 2.00024C6.1592 2.00042 4.66699 3.49241 4.66699 5.33325C4.66699 7.17409 6.1592 8.66608 8 8.66626C8.40908 8.66626 8.80098 8.59211 9.16309 8.45728C8.47875 9.00477 7.61154 9.33325 6.66699 9.33325C4.45785 9.33325 2.66699 7.54239 2.66699 5.33325C2.66699 3.12411 4.45785 1.33325 6.66699 1.33325ZM11.1406 4.3479L12.752 3.67017L11.7324 5.09009L13.2666 5.927L11.5215 6.01489L11.8232 7.7356L10.667 6.42603L9.50977 7.7356L9.81152 6.01489L8.06641 5.927L9.60059 5.09009L8.58203 3.67017L10.1924 4.3479L10.667 2.66626L11.1406 4.3479Z" fill="#FFD34F"/>
</g>
</svg>
