<svg width="28" height="20" viewBox="0 0 28 20" fill="none" xmlns="http://www.w3.org/2000/svg">
<rect x="0.25" y="0.25" width="27.5" height="19.5" rx="1.75" fill="white" stroke="#F5F5F5" stroke-width="0.5"/>
<mask id="mask0_27_2332" style="mask-type:luminance" maskUnits="userSpaceOnUse" x="0" y="0" width="28" height="20">
<rect x="0.25" y="0.25" width="27.5" height="19.5" rx="1.75" fill="white" stroke="white" stroke-width="0.5"/>
</mask>
<g mask="url(#mask0_27_2332)">
<path fill-rule="evenodd" clip-rule="evenodd" d="M0 20.0001H28V14.6667H0V20.0001Z" fill="#D82332"/>
<path fill-rule="evenodd" clip-rule="evenodd" d="M13.0679 10.7527L12.7834 11.018C13.0406 11.0901 13.3973 11.0061 13.5393 10.7527H13.0679Z" fill="#064A89"/>
<path fill-rule="evenodd" clip-rule="evenodd" d="M10.7725 10.9335C10.9649 11.126 11.2838 11.1035 11.4763 10.9817C11.6689 10.8598 11.8103 10.852 11.9303 10.8648C11.943 10.9734 11.9714 11.1127 12.0201 11.2503H10.8782C10.8498 11.1798 10.7945 11.0154 10.7725 10.9335Z" fill="#064A89"/>
<path fill-rule="evenodd" clip-rule="evenodd" d="M10.9844 11.4479C11.2085 11.342 11.4376 11.426 11.5368 11.5023C11.7198 11.6435 12.0223 11.6052 12.1706 11.5251C12.2272 11.6175 12.296 11.7083 12.379 11.7777H11.1572C11.1075 11.6976 11.0002 11.5007 10.9844 11.4479Z" fill="#064A89"/>
<path fill-rule="evenodd" clip-rule="evenodd" d="M16.2985 12.325C16.3522 12.2704 16.4248 12.1807 16.4722 12.1166C16.3932 12.1069 16.3015 12.0498 16.2039 12.0011C16.0239 11.9112 15.8519 11.9112 15.6988 12.0171C15.4716 12.1742 15.1875 12.2127 14.9666 12.0556C14.7241 11.8831 14.4995 11.9209 14.31 12.03C14.1206 12.1389 14.0007 12.1454 13.8871 12.1454C13.7734 12.1454 13.6535 12.1389 13.4641 12.03C13.2747 11.9209 13.05 11.8831 12.8076 12.0556C12.5867 12.2127 12.3025 12.1742 12.0753 12.0171C11.9222 11.9112 11.7503 11.9112 11.5703 12.0011C11.4726 12.0498 11.3809 12.1069 11.302 12.1166C11.3494 12.1807 11.422 12.2704 11.4757 12.325H16.2985Z" fill="#064A89"/>
<path fill-rule="evenodd" clip-rule="evenodd" d="M15.707 12.8612C15.7575 12.8292 15.8965 12.7234 15.9659 12.6688C15.8901 12.6849 15.7174 12.6286 15.6282 12.5822C15.3693 12.4474 15.1989 12.4603 15.0064 12.5629C14.8138 12.6656 14.5424 12.7201 14.3435 12.6111C14.1447 12.5021 14.0026 12.4731 13.8985 12.4731C13.7943 12.4731 13.6522 12.5021 13.4534 12.6111C13.2545 12.7201 12.9831 12.6656 12.7905 12.5629C12.598 12.4603 12.4277 12.4474 12.1687 12.5822C12.0795 12.6286 11.9068 12.6849 11.8311 12.6688C11.9005 12.7234 12.0394 12.8292 12.0899 12.8612H15.707Z" fill="#064A89"/>
<path fill-rule="evenodd" clip-rule="evenodd" d="M14.5687 11.7952C14.515 11.7663 14.4523 11.6991 14.395 11.6129C14.3035 11.4749 14.1583 11.3979 13.9405 11.3979C13.7228 11.3979 13.5776 11.4749 13.486 11.6129C13.4288 11.6991 13.366 11.7663 13.3125 11.7952H14.5687Z" fill="#064A89"/>
<path fill-rule="evenodd" clip-rule="evenodd" d="M14.2106 11.3001C14.1885 11.2616 14.1412 11.1396 14.1254 11.0754C14.0749 11.0916 13.9771 11.0979 13.9203 11.0979C13.8634 11.0979 13.7657 11.0916 13.7151 11.0754C13.6993 11.1396 13.652 11.2616 13.6299 11.3001H14.2106Z" fill="#064A89"/>
<path fill-rule="evenodd" clip-rule="evenodd" d="M14.7363 10.7527L15.0208 11.018C14.7636 11.0901 14.4069 11.0061 14.2649 10.7527H14.7363Z" fill="#064A89"/>
<path fill-rule="evenodd" clip-rule="evenodd" d="M17.1002 10.9335C16.9077 11.126 16.5888 11.1035 16.3963 10.9817C16.2038 10.8598 16.0623 10.852 15.9423 10.8648C15.9295 10.9734 15.9012 11.1127 15.8525 11.2503H16.9944C17.0228 11.1798 17.078 11.0154 17.1002 10.9335Z" fill="#064A89"/>
<path fill-rule="evenodd" clip-rule="evenodd" d="M16.9298 11.4479C16.7056 11.342 16.4765 11.426 16.3774 11.5023C16.1943 11.6435 15.8919 11.6052 15.7435 11.5251C15.6869 11.6175 15.6181 11.7083 15.5352 11.7777H16.757C16.8066 11.6976 16.914 11.5007 16.9298 11.4479Z" fill="#064A89"/>
<path fill-rule="evenodd" clip-rule="evenodd" d="M15.1591 13.0717C14.7763 13.2304 14.3575 13.318 13.9185 13.318C13.4792 13.318 13.0606 13.2305 12.6775 13.0714C12.7595 13.0619 12.8682 13.0217 12.9558 12.9721C13.0979 12.8919 13.3566 12.8759 13.4798 12.9561C13.6029 13.0363 13.7512 13.1164 13.9185 13.1164C14.0859 13.1164 14.2342 13.0363 14.3573 12.9561C14.4803 12.8759 14.7392 12.8919 14.8813 12.9721C14.9688 13.0217 15.077 13.0621 15.1591 13.0717Z" fill="#064A89"/>
<path fill-rule="evenodd" clip-rule="evenodd" d="M14.6255 6.727C13.9343 6.5827 13.3125 6.66604 13.3125 7.32679C13.3125 7.97464 13.3125 8.93679 13.3125 9.13571C13.3125 9.33453 13.3164 9.35969 13.5492 9.41475C14.0542 9.53421 14.1015 9.54625 14.6507 9.67442V7.81431C14.2215 7.76614 14.0574 7.52141 14.0574 7.237C14.0574 6.9612 14.2467 6.78152 14.6255 6.727Z" fill="#514537"/>
<path fill-rule="evenodd" clip-rule="evenodd" d="M12.8545 11.8285C12.4694 11.8285 12.0654 11.4885 12.0654 10.8406C12.0654 10.1927 12.0654 9.37804 12.0654 9.23051C12.0654 9.08459 12.0816 9.06406 12.0481 9.03008C12.0284 9.01008 12.0702 8.9804 12.0985 8.95148C12.1412 8.90814 12.1704 8.87212 12.1128 8.81352C12.0551 8.75502 12.0797 8.73976 12.116 8.70298C12.1523 8.66599 12.1665 8.62922 12.1318 8.59384C12.0971 8.55857 12.0891 8.54739 12.127 8.5089C12.1649 8.4704 12.1491 8.45438 12.1176 8.42223C12.0859 8.39019 12.071 8.36696 12.1112 8.3261C12.1507 8.28599 12.1538 8.27954 12.1996 8.27954C12.2454 8.27954 12.3448 8.27954 12.389 8.27954C12.4332 8.27954 12.434 8.2932 12.3968 8.33094C12.3487 8.37976 12.3345 8.399 12.389 8.45438C12.4434 8.50965 12.4411 8.52814 12.4064 8.56341C12.3542 8.61632 12.3313 8.65244 12.3842 8.70621C12.4372 8.75986 12.4418 8.78395 12.4016 8.82481C12.3614 8.86567 12.3574 8.9018 12.4016 8.94664C12.4356 8.98115 12.4379 9.00126 12.4379 9.06212C12.4379 9.42943 12.4379 10.4301 12.4379 10.7059C12.4379 10.9817 12.6336 11.1485 13.006 11.1485C13.3785 11.1485 13.5048 10.9945 13.6121 10.8919C13.5427 11.3858 13.3407 11.8285 12.8545 11.8285Z" fill="#514537"/>
<path fill-rule="evenodd" clip-rule="evenodd" d="M13.9406 10.2551C13.9926 10.271 14.0431 10.348 14.0431 10.4314H14.1458C14.1458 10.3609 14.1157 10.2518 14.0613 10.1844C14.0605 10.1668 14.0581 10.1516 14.0542 10.1363C14.0921 10.0882 14.1473 10.0112 14.1458 9.93742C14.1447 9.89086 14.0905 9.89258 14.0842 9.92946C14.079 9.95978 14.059 10.0064 14.0211 10.0225C14.0211 9.96312 13.9879 9.89258 13.9406 9.89258C13.8933 9.89258 13.86 9.96312 13.86 10.0225C13.8222 10.0064 13.8022 9.95978 13.797 9.92946C13.7906 9.89258 13.7363 9.89086 13.7354 9.93742C13.7338 10.0112 13.789 10.0882 13.8269 10.1363C13.823 10.1516 13.8207 10.1668 13.8198 10.1844C13.7654 10.2518 13.7354 10.3609 13.7354 10.4314H13.838C13.838 10.348 13.8885 10.271 13.9406 10.2551Z" fill="#514537"/>
<path fill-rule="evenodd" clip-rule="evenodd" d="M13.4122 10.2551C13.4643 10.271 13.5149 10.348 13.5149 10.4314H13.6174C13.6174 10.3609 13.5875 10.2518 13.533 10.1844C13.5322 10.1668 13.5298 10.1516 13.5259 10.1363C13.5638 10.0882 13.619 10.0112 13.6174 9.93742C13.6165 9.89086 13.5622 9.89258 13.5558 9.92946C13.5507 9.95978 13.5306 10.0064 13.4928 10.0225C13.4928 9.96312 13.4597 9.89258 13.4122 9.89258C13.3649 9.89258 13.3318 9.96312 13.3318 10.0225C13.2939 10.0064 13.2738 9.95978 13.2687 9.92946C13.2623 9.89258 13.2081 9.89086 13.2071 9.93742C13.2055 10.0112 13.2607 10.0882 13.2986 10.1363C13.2947 10.1516 13.2924 10.1668 13.2915 10.1844C13.2371 10.2518 13.2071 10.3609 13.2071 10.4314H13.3097C13.3097 10.348 13.3602 10.271 13.4122 10.2551Z" fill="#514537"/>
<path fill-rule="evenodd" clip-rule="evenodd" d="M12.8827 10.2551C12.9348 10.271 12.9852 10.348 12.9852 10.4314H13.0879C13.0879 10.3609 13.0578 10.2518 13.0034 10.1844C13.0026 10.1668 13.0003 10.1516 12.9964 10.1363C13.0342 10.0882 13.0895 10.0112 13.0879 9.93742C13.0868 9.89086 13.0327 9.89258 13.0263 9.92946C13.0211 9.95978 13.001 10.0064 12.9631 10.0225C12.9631 9.96312 12.93 9.89258 12.8827 9.89258C12.8353 9.89258 12.8022 9.96312 12.8022 10.0225C12.7643 10.0064 12.7443 9.95978 12.7391 9.92946C12.7328 9.89258 12.6785 9.89086 12.6775 9.93742C12.6759 10.0112 12.7312 10.0882 12.7691 10.1363C12.7651 10.1516 12.7627 10.1668 12.762 10.1844C12.7075 10.2518 12.6775 10.3609 12.6775 10.4314H12.7801C12.7801 10.348 12.8306 10.271 12.8827 10.2551Z" fill="#514537"/>
<path fill-rule="evenodd" clip-rule="evenodd" d="M14.4701 10.2551C14.418 10.271 14.3676 10.348 14.3676 10.4314H14.2649C14.2649 10.3609 14.2949 10.2518 14.3494 10.1844C14.3501 10.1668 14.3525 10.1516 14.3566 10.1363C14.3186 10.0882 14.2633 10.0112 14.2649 9.93742C14.266 9.89086 14.3202 9.89258 14.3265 9.92946C14.3317 9.95978 14.3518 10.0064 14.3896 10.0225C14.3896 9.96312 14.4228 9.89258 14.4701 9.89258C14.5175 9.89258 14.5506 9.96312 14.5506 10.0225C14.5884 10.0064 14.6085 9.95978 14.6137 9.92946C14.6201 9.89258 14.6742 9.89086 14.6753 9.93742C14.6769 10.0112 14.6216 10.0882 14.5838 10.1363C14.5877 10.1516 14.5901 10.1668 14.5909 10.1844C14.6453 10.2518 14.6753 10.3609 14.6753 10.4314H14.5727C14.5727 10.348 14.5222 10.271 14.4701 10.2551Z" fill="#514537"/>
<path fill-rule="evenodd" clip-rule="evenodd" d="M14.9992 10.2551C14.9471 10.271 14.8966 10.348 14.8966 10.4314H14.794C14.794 10.3609 14.824 10.2518 14.8784 10.1844C14.8793 10.1668 14.8816 10.1516 14.8855 10.1363C14.8476 10.0882 14.7924 10.0112 14.794 9.93742C14.7949 9.89086 14.8492 9.89258 14.8556 9.92946C14.8608 9.95978 14.8808 10.0064 14.9186 10.0225C14.9186 9.96312 14.9519 9.89258 14.9992 9.89258C15.0466 9.89258 15.0797 9.96312 15.0797 10.0225C15.1176 10.0064 15.1376 9.95978 15.1428 9.92946C15.1491 9.89258 15.2033 9.89086 15.2043 9.93742C15.2059 10.0112 15.1507 10.0882 15.1128 10.1363C15.1167 10.1516 15.1191 10.1668 15.1199 10.1844C15.1744 10.2518 15.2043 10.3609 15.2043 10.4314H15.1018C15.1018 10.348 15.0512 10.271 14.9992 10.2551Z" fill="#514537"/>
<path fill-rule="evenodd" clip-rule="evenodd" d="M12.5713 10.5376H15.3489V10.6709H12.5713V10.5376Z" fill="#514537"/>
<path fill-rule="evenodd" clip-rule="evenodd" d="M15.0225 11.8285C15.4075 11.8285 15.8116 11.4885 15.8116 10.8406C15.8116 10.1927 15.8116 9.37804 15.8116 9.23051C15.8116 9.08459 15.7954 9.06406 15.8289 9.03008C15.8486 9.01008 15.8068 8.9804 15.7784 8.95148C15.7358 8.90814 15.7066 8.87212 15.7642 8.81352C15.8218 8.75502 15.7973 8.73976 15.7611 8.70298C15.7247 8.66599 15.7105 8.62922 15.7452 8.59384C15.7799 8.55857 15.7879 8.54739 15.75 8.5089C15.7121 8.4704 15.7279 8.45438 15.7594 8.42223C15.791 8.39019 15.806 8.36696 15.7657 8.3261C15.7263 8.28599 15.7232 8.27954 15.6774 8.27954C15.6316 8.27954 15.5322 8.27954 15.488 8.27954C15.4438 8.27954 15.443 8.2932 15.4801 8.33094C15.5283 8.37976 15.5425 8.399 15.488 8.45438C15.4336 8.50965 15.4359 8.52814 15.4706 8.56341C15.5228 8.61632 15.5455 8.65244 15.4927 8.70621C15.4398 8.75986 15.4351 8.78395 15.4754 8.82481C15.5156 8.86567 15.5196 8.9018 15.4754 8.94664C15.4414 8.98115 15.4391 9.00126 15.4391 9.06212C15.4391 9.42943 15.4391 10.4301 15.4391 10.7059C15.4391 10.9817 15.2433 11.1485 14.8709 11.1485C14.4984 11.1485 14.3723 10.9945 14.2649 10.8919C14.3343 11.3858 14.5363 11.8285 15.0225 11.8285Z" fill="#514537"/>
<path fill-rule="evenodd" clip-rule="evenodd" d="M12.5713 9.67434C12.5713 9.67434 12.5714 9.57971 12.5714 9.4624L13.1266 9.67445L12.5713 9.67434Z" fill="#EEA339"/>
<path fill-rule="evenodd" clip-rule="evenodd" d="M11.9094 9.77297L10.667 9.60276C10.7031 9.33222 10.7713 9.06846 10.8695 8.81738L11.9094 9.23685V9.77297Z" fill="#EEA339"/>
<path fill-rule="evenodd" clip-rule="evenodd" d="M14.4766 7.69589L14.6974 6.77417C14.9558 6.83783 15.207 6.93374 15.4451 7.06019L14.7329 8.44557L14.7354 7.74998C14.6532 7.75041 14.527 7.73761 14.4766 7.69589Z" fill="#EEA339"/>
<path fill-rule="evenodd" clip-rule="evenodd" d="M11.9387 9.86298L10.6731 9.78491C10.6568 10.0546 10.673 10.3267 10.7217 10.5952C10.7217 10.5952 11.9387 10.603 11.9387 10.5952V9.86298Z" fill="#EEA339"/>
<path fill-rule="evenodd" clip-rule="evenodd" d="M11.9261 8.99574C11.8851 8.94122 11.9104 8.91219 11.9545 8.88327C11.9988 8.85445 11.9924 8.83197 11.9704 8.79036C11.9483 8.74864 11.9262 8.7037 11.9672 8.65886C12.0083 8.61391 11.9924 8.59466 11.9609 8.56262C11.9293 8.53058 11.9262 8.49531 11.9545 8.46961C11.983 8.44391 11.9767 8.42466 11.9578 8.39907C11.9388 8.37337 11.9016 8.32133 11.9349 8.28767L11.4186 7.84961C11.248 8.05692 11.1019 8.28574 10.9844 8.53111L11.9261 8.99574Z" fill="#EEA339"/>
<path fill-rule="evenodd" clip-rule="evenodd" d="M13.1631 9.23445L12.5477 8.62811C12.6345 8.53994 12.6432 8.52553 12.5817 8.46295C12.5146 8.39478 12.5122 8.38768 12.6487 8.24886C12.6953 8.20166 12.6692 8.16865 12.603 8.16865C12.5367 8.16865 12.2321 8.16865 12.1974 8.16865C12.1627 8.16865 12.1354 8.17047 12.11 8.19628L11.6194 7.7137C11.8066 7.51789 12.0157 7.34703 12.2415 7.20435L13.1631 8.71026V9.23445Z" fill="#EEA339"/>
<path fill-rule="evenodd" clip-rule="evenodd" d="M12.523 9.32685C12.523 9.1762 12.5231 9.02706 12.5231 9.00588C12.5231 8.96093 12.5199 8.9433 12.4852 8.90803C12.4505 8.87276 12.4678 8.85588 12.4947 8.81738L13.0784 9.31147V9.60158L12.523 9.32685Z" fill="#EEA339"/>
<path fill-rule="evenodd" clip-rule="evenodd" d="M13.0698 8.44632C13.0698 8.15697 13.0698 7.88933 13.0698 7.73514C13.0698 7.27331 13.0953 7.04234 13.1616 6.99589L13.1086 6.77417C12.8494 6.84503 12.5982 6.94094 12.3601 7.0674L13.0698 8.44632Z" fill="#EEA339"/>
<path fill-rule="evenodd" clip-rule="evenodd" d="M15.3493 9.67434C15.3493 9.67434 15.3492 9.57971 15.3492 9.4624L14.7939 9.67445L15.3493 9.67434Z" fill="#EEA339"/>
<path fill-rule="evenodd" clip-rule="evenodd" d="M15.958 9.77297L17.2004 9.60276C17.1644 9.33222 17.0961 9.06846 16.9979 8.81738L15.958 9.23685V9.77297Z" fill="#EEA339"/>
<path fill-rule="evenodd" clip-rule="evenodd" d="M15.958 9.86298L17.2235 9.78491C17.2398 10.0546 17.2237 10.3267 17.1749 10.5952C17.1749 10.5952 15.958 10.603 15.958 10.5952V9.86298Z" fill="#EEA339"/>
<path fill-rule="evenodd" clip-rule="evenodd" d="M15.9184 8.99574C15.9594 8.94122 15.934 8.91219 15.8899 8.88327C15.8457 8.85445 15.852 8.83197 15.874 8.79036C15.8961 8.74864 15.9183 8.7037 15.8772 8.65886C15.8361 8.61391 15.852 8.59466 15.8836 8.56262C15.9151 8.53058 15.9183 8.49531 15.8899 8.46961C15.8614 8.44391 15.8678 8.42466 15.8866 8.39907C15.9057 8.37337 15.9427 8.32133 15.9096 8.28767L16.4259 7.84961C16.5965 8.05692 16.7424 8.28574 16.86 8.53111L15.9184 8.99574Z" fill="#EEA339"/>
<path fill-rule="evenodd" clip-rule="evenodd" d="M14.7939 9.23445L15.4093 8.62811C15.3224 8.53994 15.3137 8.52553 15.3753 8.46295C15.4424 8.39478 15.4448 8.38768 15.3083 8.24886C15.2617 8.20166 15.2878 8.16865 15.3541 8.16865C15.4203 8.16865 15.725 8.16865 15.7597 8.16865C15.7944 8.16865 15.8217 8.17047 15.8471 8.19628L16.3376 7.7137C16.1505 7.51789 15.9414 7.34703 15.7155 7.20435L14.7939 8.71026V9.23445Z" fill="#EEA339"/>
<path fill-rule="evenodd" clip-rule="evenodd" d="M15.3494 9.32685C15.3494 9.1762 15.3493 9.02706 15.3493 9.00588C15.3493 8.96093 15.3525 8.9433 15.3872 8.90803C15.4219 8.87276 15.4045 8.85588 15.3776 8.81738L14.7939 9.31147V9.60158L15.3494 9.32685Z" fill="#EEA339"/>
<path fill-rule="evenodd" clip-rule="evenodd" d="M12.1484 9.03223C12.1706 9.0547 12.1801 9.07707 12.1801 9.13158C12.1801 9.1861 12.1801 10.3792 12.1801 10.8475C12.1801 11.4184 12.5209 11.7359 12.8713 11.7359C13.1932 11.7359 13.4047 11.4376 13.5152 11.0913C13.3732 11.2035 13.1648 11.2388 12.9659 11.2388C12.7355 11.2388 12.3631 11.0817 12.3631 10.7417C12.3631 10.4274 12.3631 9.26309 12.3631 9.07707C12.3631 9.03223 12.3189 9.03223 12.1484 9.03223Z" fill="#D82332"/>
<path fill-rule="evenodd" clip-rule="evenodd" d="M14.1614 6.78402C13.7213 6.73875 13.313 6.83176 13.313 7.44186C13.313 8.08337 13.313 8.86584 13.313 9.06283C13.313 9.33348 13.2921 9.30133 13.5178 9.35821C13.9273 9.46143 13.9738 9.47455 14.4705 9.58982V7.94057C14.0463 7.89337 13.8625 7.61111 13.8625 7.29853C13.8625 7.04982 13.9707 6.81574 14.1614 6.78402Z" fill="#D82332"/>
<path fill-rule="evenodd" clip-rule="evenodd" d="M15.7379 9.03223C15.7157 9.0547 15.7062 9.07707 15.7062 9.13158C15.7062 9.1861 15.7062 10.3792 15.7062 10.8475C15.7062 11.4184 15.3654 11.7359 15.015 11.7359C14.6931 11.7359 14.4816 11.4376 14.3711 11.0913C14.5132 11.2035 14.7215 11.2388 14.9204 11.2388C15.1508 11.2388 15.5232 11.0817 15.5232 10.7417C15.5232 10.4274 15.5232 9.26309 15.5232 9.07707C15.5232 9.03223 15.5674 9.03223 15.7379 9.03223Z" fill="#D82332"/>
<mask id="mask1_27_2332" style="mask-type:luminance" maskUnits="userSpaceOnUse" x="10" y="6" width="8" height="8">
<path fill-rule="evenodd" clip-rule="evenodd" d="M14.0003 13.3334C15.8413 13.3334 17.3337 11.841 17.3337 10.0001C17.3337 8.15913 15.8413 6.66675 14.0003 6.66675C12.1594 6.66675 10.667 8.15913 10.667 10.0001C10.667 11.841 12.1594 13.3334 14.0003 13.3334Z" fill="white"/>
</mask>
<g mask="url(#mask1_27_2332)">
<path fill-rule="evenodd" clip-rule="evenodd" d="M14.0003 18.6667C15.8413 18.6667 17.3337 17.1743 17.3337 15.3333C17.3337 13.4924 15.8413 12 14.0003 12C12.1594 12 10.667 13.4924 10.667 15.3333C10.667 17.1743 12.1594 18.6667 14.0003 18.6667Z" fill="#064A89"/>
</g>
<path fill-rule="evenodd" clip-rule="evenodd" d="M0 5.33333H28V0H0V5.33333Z" fill="#D82332"/>
</g>
</svg>
