<svg width="28" height="20" viewBox="0 0 28 20" fill="none" xmlns="http://www.w3.org/2000/svg">
<rect width="28" height="20" rx="2" fill="white"/>
<mask id="mask0_27_1731" style="mask-type:luminance" maskUnits="userSpaceOnUse" x="0" y="0" width="28" height="20">
<rect width="28" height="20" rx="2" fill="white"/>
</mask>
<g mask="url(#mask0_27_1731)">
<rect width="28" height="20" fill="#262626"/>
<path fill-rule="evenodd" clip-rule="evenodd" d="M0 0H28V20L0 0Z" fill="#E8283F"/>
<path fill-rule="evenodd" clip-rule="evenodd" d="M6.66634 16.6667L5.72353 16.9429L5.99967 16.0001L5.72353 15.0573L6.66634 15.3334L7.60915 15.0573L7.33301 16.0001L7.60915 16.9429L6.66634 16.6667Z" fill="white"/>
<path fill-rule="evenodd" clip-rule="evenodd" d="M3.33333 12L2.39052 12.2761L2.66667 11.3333L2.39052 10.3905L3.33333 10.6667L4.27614 10.3905L4 11.3333L4.27614 12.2761L3.33333 12Z" fill="white"/>
<path fill-rule="evenodd" clip-rule="evenodd" d="M9.33333 11.3333L8.39052 11.6094L8.66667 10.6666L8.39052 9.72378L9.33333 9.99992L10.2761 9.72378L10 10.6666L10.2761 11.6094L9.33333 11.3333Z" fill="white"/>
<path fill-rule="evenodd" clip-rule="evenodd" d="M6.66634 8.66675L5.72353 8.94289L5.99967 8.00008L5.72353 7.05727L6.66634 7.33341L7.60915 7.05727L7.33301 8.00008L7.60915 8.94289L6.66634 8.66675Z" fill="white"/>
<path fill-rule="evenodd" clip-rule="evenodd" d="M18.8615 9.26565C18.7019 9.16988 18.5725 8.94428 18.5725 8.76379L18.5725 7.53507C18.5725 7.35367 18.442 7.25013 18.2445 7.31596L17.4863 7.56869C17.3052 7.62908 17.0278 7.63452 16.8303 7.56869L16.0721 7.31596C15.8909 7.25557 15.8708 7.13059 16.0331 7.03321L17.8121 5.96582C17.9717 5.87005 18.0576 5.6619 17.9918 5.46441L17.739 4.7062C17.6787 4.52505 17.7602 4.4217 17.9577 4.48753L18.7159 4.74027C18.8971 4.80065 19.12 4.72288 19.2173 4.56058L20.2847 2.78159C20.3805 2.62198 20.5016 2.62309 20.5675 2.82058L20.8202 3.57879C20.8806 3.75994 20.886 4.0373 20.8202 4.23479L20.5675 4.993C20.5071 5.17415 20.6061 5.321 20.7866 5.321H22.0153C22.1967 5.321 22.4198 5.44773 22.5172 5.61002L23.5846 7.38901C23.6803 7.54863 23.6033 7.70896 23.4302 7.74357L21.7287 8.08389C21.5477 8.12009 21.37 8.30408 21.3354 8.47717L20.9951 10.1787C20.9589 10.3597 20.8028 10.4304 20.6405 10.333L18.8615 9.26565Z" fill="#FFD84E"/>
</g>
</svg>
