<svg width="28" height="20" viewBox="0 0 28 20" fill="none" xmlns="http://www.w3.org/2000/svg">
<rect width="28" height="20" rx="2" fill="white"/>
<mask id="mask0_27_1313" style="mask-type:luminance" maskUnits="userSpaceOnUse" x="0" y="0" width="28" height="20">
<rect width="28" height="20" rx="2" fill="white"/>
</mask>
<g mask="url(#mask0_27_1313)">
<rect width="28" height="20" fill="#128C4B"/>
<path fill-rule="evenodd" clip-rule="evenodd" d="M6.66699 11.9999H17.3337V11.0786C17.3337 10.583 17.8552 10.2607 18.2985 10.4823L18.667 10.6666V11.9999H20.667C21.0352 11.9999 21.3337 12.2984 21.3337 12.6666V13.3332C21.3337 14.0696 20.7367 14.6666 20.0003 14.6666H18.0003C17.6321 14.6666 17.3337 14.3681 17.3337 13.9999V13.3332H8.27647C8.09966 13.3332 7.93009 13.263 7.80506 13.138L6.66699 11.9999Z" fill="white"/>
<path fill-rule="evenodd" clip-rule="evenodd" d="M17.333 8.13799C17.333 8.04958 17.3681 7.9648 17.4306 7.90229L17.764 7.56895C17.8941 7.43878 17.8941 7.22772 17.764 7.09755L17.4306 6.76422C17.3681 6.7017 17.333 6.61692 17.333 6.52851V5.66659C17.333 5.48249 17.4822 5.33325 17.6663 5.33325H18.4117C18.5523 5.33325 18.6663 5.44726 18.6663 5.5879C18.6663 5.8566 19.0286 5.94211 19.1487 5.70178L19.2481 5.50301C19.3001 5.39897 19.4065 5.33325 19.5228 5.33325H20.9997C21.1838 5.33325 21.333 5.48249 21.333 5.66659C21.333 5.85068 21.1838 5.99992 20.9997 5.99992H20.333C20.1489 5.99992 19.9997 6.14916 19.9997 6.33325C19.9997 6.51735 20.1489 6.66659 20.333 6.66659H20.9997C21.1838 6.66659 21.333 6.81582 21.333 6.99992V8.99992C21.333 9.18401 21.1838 9.33325 20.9997 9.33325H20.333C20.1489 9.33325 19.9997 9.18401 19.9997 8.99992V8.33325C19.9997 8.14916 20.1489 7.99992 20.333 7.99992C20.5171 7.99992 20.6663 7.85068 20.6663 7.66659C20.6663 7.48249 20.5171 7.33325 20.333 7.33325H19.6663C19.4822 7.33325 19.333 7.48249 19.333 7.66659V8.99992C19.333 9.18401 19.1838 9.33325 18.9997 9.33325C18.8156 9.33325 18.6663 9.18401 18.6663 8.99992V8.33325C18.6663 8.14916 18.5171 7.99992 18.333 7.99992C18.1489 7.99992 17.9997 8.14916 17.9997 8.33325V8.99992C17.9997 9.18401 17.8504 9.33325 17.6663 9.33325C17.4822 9.33325 17.333 9.18401 17.333 8.99992V8.13799Z" fill="white"/>
<path fill-rule="evenodd" clip-rule="evenodd" d="M16 6.33013C16 6.51595 15.8958 6.77075 15.7593 6.90727L15.574 7.09257C15.4411 7.22549 15.4375 7.43742 15.574 7.57393L15.7593 7.75924C15.8922 7.89216 16 8.14261 16 8.33637V8.9968C16 9.18262 15.8573 9.33325 15.6635 9.33325H15.0031C14.8173 9.33325 14.6667 9.19056 14.6667 8.9968V8.33637C14.6667 8.15056 14.6051 8.12297 14.512 8.30916L14.1546 9.02401C14.0692 9.1948 13.8431 9.33325 13.6697 9.33325H12.3303C12.1479 9.33325 12 9.17863 12 8.99992C12 8.81582 12.1427 8.66659 12.3365 8.66659H12.9969C13.1827 8.66659 13.3333 8.51196 13.3333 8.33325C13.3333 8.14916 13.1906 7.99992 12.9969 7.99992H12.3365C12.1506 7.99992 12 7.85655 12 7.67293V5.66024C12 5.47965 12.1427 5.33325 12.3365 5.33325H12.9969C13.1827 5.33325 13.3333 5.47594 13.3333 5.66971V6.33013C13.3333 6.51595 13.1787 6.66659 13 6.66659C12.8159 6.66659 12.6667 6.82121 12.6667 6.99992C12.6667 7.18401 12.8094 7.33325 13.0031 7.33325H13.6635C13.8494 7.33325 14 7.17632 14 7.00299V5.66351C14 5.48111 14.1546 5.33325 14.3333 5.33325C14.5174 5.33325 14.6667 5.47594 14.6667 5.66971V6.33013C14.6667 6.51595 14.8213 6.66659 15 6.66659C15.1841 6.66659 15.3333 6.5239 15.3333 6.33013V5.66971C15.3333 5.48389 15.488 5.33325 15.6667 5.33325C15.8508 5.33325 16 5.47594 16 5.66971V6.33013Z" fill="white"/>
<path fill-rule="evenodd" clip-rule="evenodd" d="M6.66699 8.13799C6.66699 8.04958 6.70211 7.9648 6.76462 7.90229L7.09796 7.56895C7.22813 7.43878 7.22813 7.22772 7.09796 7.09755L6.76462 6.76422C6.70211 6.7017 6.66699 6.61692 6.66699 6.52851V5.66659C6.66699 5.48249 6.81623 5.33325 7.00033 5.33325H7.74568C7.88632 5.33325 8.00033 5.44726 8.00033 5.5879C8.00033 5.8566 8.36256 5.94211 8.48273 5.70178L8.58211 5.50301C8.63413 5.39897 8.74047 5.33325 8.85679 5.33325H10.3337C10.5178 5.33325 10.667 5.48249 10.667 5.66659C10.667 5.85068 10.5178 5.99992 10.3337 5.99992H9.66699C9.4829 5.99992 9.33366 6.14916 9.33366 6.33325C9.33366 6.51735 9.4829 6.66659 9.66699 6.66659H10.3337C10.5178 6.66659 10.667 6.81582 10.667 6.99992V8.99992C10.667 9.18401 10.5178 9.33325 10.3337 9.33325H9.66699C9.4829 9.33325 9.33366 9.18401 9.33366 8.99992V8.33325C9.33366 8.14916 9.4829 7.99992 9.66699 7.99992C9.85109 7.99992 10.0003 7.85068 10.0003 7.66659C10.0003 7.48249 9.85109 7.33325 9.66699 7.33325H9.00033C8.81623 7.33325 8.66699 7.48249 8.66699 7.66659V8.99992C8.66699 9.18401 8.51775 9.33325 8.33366 9.33325C8.14956 9.33325 8.00033 9.18401 8.00033 8.99992V8.33325C8.00033 8.14916 7.85109 7.99992 7.66699 7.99992C7.4829 7.99992 7.33366 8.14916 7.33366 8.33325V8.99992C7.33366 9.18401 7.18442 9.33325 7.00033 9.33325C6.81623 9.33325 6.66699 9.18401 6.66699 8.99992V8.13799Z" fill="white"/>
</g>
</svg>
