<svg width="28" height="20" viewBox="0 0 28 20" fill="none" xmlns="http://www.w3.org/2000/svg">
<rect x="0.25" y="0.25" width="27.5" height="19.5" rx="1.75" fill="white" stroke="#F5F5F5" stroke-width="0.5"/>
<mask id="mask0_27_1895" style="mask-type:luminance" maskUnits="userSpaceOnUse" x="0" y="0" width="28" height="20">
<rect x="0.25" y="0.25" width="27.5" height="19.5" rx="1.75" fill="white" stroke="white" stroke-width="0.5"/>
</mask>
<g mask="url(#mask0_27_1895)">
<path fill-rule="evenodd" clip-rule="evenodd" d="M0 10.6667H28V0H0V10.6667Z" fill="#E12237"/>
<path d="M6.66699 1.33325C7.61132 1.33325 8.47883 1.66099 9.16309 2.20825C8.80107 2.0735 8.40896 2.00024 8 2.00024C6.1592 2.00042 4.66699 3.49241 4.66699 5.33325C4.66699 7.17409 6.1592 8.66608 8 8.66626C8.40908 8.66626 8.80098 8.59211 9.16309 8.45728C8.47875 9.00477 7.61154 9.33325 6.66699 9.33325C4.45785 9.33325 2.66699 7.54239 2.66699 5.33325C2.66699 3.12411 4.45785 1.33325 6.66699 1.33325ZM8.66699 6.66626C9.03503 6.66644 9.33301 6.96517 9.33301 7.33325C9.33296 7.7013 9.03501 8.00007 8.66699 8.00024C8.29883 8.00024 8.00004 7.7014 8 7.33325C8 6.96506 8.2988 6.66626 8.66699 6.66626ZM11.334 6.66626C11.702 6.66644 12 6.96517 12 7.33325C12 7.70133 11.702 8.00007 11.334 8.00024C10.9658 8.00024 10.667 7.70144 10.667 7.33325C10.667 6.96506 10.9658 6.66626 11.334 6.66626ZM7.33398 4.00024C7.70192 4.00042 7.99982 4.29833 8 4.66626C8 5.03434 7.70202 5.33308 7.33398 5.33325C6.96579 5.33325 6.66699 5.03445 6.66699 4.66626C6.66717 4.29822 6.9659 4.00024 7.33398 4.00024ZM12.667 4.00024C13.0349 4.00042 13.3328 4.29837 13.333 4.66626C13.333 5.03434 13.035 5.33308 12.667 5.33325C12.2988 5.33325 12 5.03445 12 4.66626C12.0002 4.29826 12.2989 4.00024 12.667 4.00024ZM10.001 2.00024C10.3689 2.00042 10.6668 2.29837 10.667 2.66626C10.667 3.03434 10.369 3.33308 10.001 3.33325C9.63279 3.33325 9.33398 3.03445 9.33398 2.66626C9.3342 2.29826 9.63292 2.00024 10.001 2.00024Z" fill="white"/>
</g>
</svg>
