<svg width="28" height="20" viewBox="0 0 28 20" fill="none" xmlns="http://www.w3.org/2000/svg">
<rect width="28" height="20" rx="2" fill="white"/>
<mask id="mask0_27_1929" style="mask-type:luminance" maskUnits="userSpaceOnUse" x="0" y="0" width="28" height="20">
<rect width="28" height="20" rx="2" fill="white"/>
</mask>
<g mask="url(#mask0_27_1929)">
<rect width="28" height="20" fill="url(#paint0_linear_27_1929)"/>
<path fill-rule="evenodd" clip-rule="evenodd" d="M17.333 9.99992C17.333 8.90618 17.333 7.61306 17.333 6.66574C17.333 5.92936 17.93 5.33325 18.6663 5.33325H22.6663C23.4027 5.33325 23.9997 5.92936 23.9997 6.66574C23.9997 7.61306 23.9997 8.90618 23.9997 9.99992C23.9997 13.3333 20.6663 14.6666 20.6663 14.6666C20.6663 14.6666 17.333 13.3333 17.333 9.99992Z" fill="#8FC5FF"/>
<mask id="mask1_27_1929" style="mask-type:luminance" maskUnits="userSpaceOnUse" x="17" y="5" width="7" height="10">
<path fill-rule="evenodd" clip-rule="evenodd" d="M17.333 9.99992C17.333 8.90618 17.333 7.61306 17.333 6.66574C17.333 5.92936 17.93 5.33325 18.6663 5.33325H22.6663C23.4027 5.33325 23.9997 5.92936 23.9997 6.66574C23.9997 7.61306 23.9997 8.90618 23.9997 9.99992C23.9997 13.3333 20.6663 14.6666 20.6663 14.6666C20.6663 14.6666 17.333 13.3333 17.333 9.99992Z" fill="white"/>
</mask>
<g mask="url(#mask1_27_1929)">
<path fill-rule="evenodd" clip-rule="evenodd" d="M20.0892 11.8835C20.0892 11.8835 20.7565 11.0194 21.149 11.0194C21.5415 11.0194 21.6136 11.5931 22.2172 11.5931C22.8207 11.5931 23.1391 10.6787 23.7204 10.6787C24.3018 10.6787 23.7204 13.6788 23.7204 13.6788L22.9326 14.4913L18.3213 15.0239L20.0892 11.8835Z" fill="#366CC9"/>
<path fill-rule="evenodd" clip-rule="evenodd" d="M18.1262 10.5512L18.7147 10L19.293 11.4157L20.0693 10L20.7369 14.0354L19.6266 13.8095L16 12.1514L18.1262 10.5512Z" fill="#CF6200"/>
<rect x="17.333" y="5.33325" width="6.66667" height="4" fill="#FFFF00"/>
</g>
<path d="M18.666 5.66626H22.666C23.2184 5.66626 23.6658 6.11348 23.666 6.66528V10.0002C23.6659 11.5425 22.8987 12.6256 22.1104 13.3352C21.7158 13.6903 21.3195 13.9481 21.0225 14.1165C20.8745 14.2003 20.7514 14.2612 20.667 14.301H20.665C20.5805 14.2612 20.4576 14.2003 20.3096 14.1165C20.0125 13.9481 19.6171 13.6902 19.2227 13.3352C18.4343 12.6256 17.6661 11.5427 17.666 10.0002V6.66528C17.6663 6.11359 18.1138 5.66644 18.666 5.66626Z" stroke="white" stroke-width="0.666667"/>
<mask id="mask2_27_1929" style="mask-type:luminance" maskUnits="userSpaceOnUse" x="17" y="5" width="7" height="10">
<path d="M18.666 5.66626H22.666C23.2184 5.66626 23.6658 6.11348 23.666 6.66528V10.0002C23.6659 11.5425 22.8987 12.6256 22.1104 13.3352C21.7158 13.6903 21.3195 13.9481 21.0225 14.1165C20.8745 14.2003 20.7514 14.2612 20.667 14.301H20.665C20.5805 14.2612 20.4576 14.2003 20.3096 14.1165C20.0125 13.9481 19.6171 13.6902 19.2227 13.3352C18.4343 12.6256 17.6661 11.5427 17.666 10.0002V6.66528C17.6663 6.11359 18.1138 5.66644 18.666 5.66626Z" fill="white" stroke="white" stroke-width="0.666667"/>
</mask>
<g mask="url(#mask2_27_1929)">
</g>
<path d="M12.333 0.495117C12.333 0.710418 12.2289 0.912945 12.0537 1.03809L7.66699 4.1709V5.17969L11.7646 8.69238C12.1547 9.02696 11.9182 9.66674 11.4043 9.66699C11.2889 9.66699 11.176 9.63057 11.082 9.56348L6.55859 6.33301H5.42871L0.176758 9.61621L-0.333008 9.93457V8.49512L-0.193359 8.39551L4.33301 5.16211V4.15234L-0.216797 0.25293L-0.901367 -0.333008H0.773438L0.860352 -0.271484L5.43945 3H6.57129L11.8232 -0.282227L12.333 -0.601562V0.495117Z" fill="#DB1E36" stroke="white" stroke-width="0.666667"/>
<path fill-rule="evenodd" clip-rule="evenodd" d="M0 3.33333V6H4.66667V9.33333C4.66667 9.70152 4.96514 10 5.33333 10H6.66667C7.03486 10 7.33333 9.70152 7.33333 9.33333V6H12C12.3682 6 12.6667 5.70152 12.6667 5.33333V4C12.6667 3.63181 12.3682 3.33333 12 3.33333H7.33333V0H4.66667V3.33333H0Z" fill="white"/>
<path fill-rule="evenodd" clip-rule="evenodd" d="M0 4H5.33333V3.33333V0H6.66667V3.33333V4H12V5.33333H6.66667V6V9.33333H5.33333V6V5.33333H0V4Z" fill="#DB1E36"/>
</g>
<defs>
<linearGradient id="paint0_linear_27_1929" x1="0" y1="0" x2="0" y2="20" gradientUnits="userSpaceOnUse">
<stop stop-color="#07319C"/>
<stop offset="1" stop-color="#00247E"/>
</linearGradient>
</defs>
</svg>
