<svg width="28" height="20" viewBox="0 0 28 20" fill="none" xmlns="http://www.w3.org/2000/svg">
<rect x="0.25" y="0.25" width="27.5" height="19.5" rx="1.75" fill="white" stroke="#F5F5F5" stroke-width="0.5"/>
<mask id="mask0_27_1841" style="mask-type:luminance" maskUnits="userSpaceOnUse" x="0" y="0" width="28" height="20">
<rect x="0.25" y="0.25" width="27.5" height="19.5" rx="1.75" fill="white" stroke="white" stroke-width="0.5"/>
</mask>
<g mask="url(#mask0_27_1841)">
<path fill-rule="evenodd" clip-rule="evenodd" d="M0 13.3334H28V6.66675H0V13.3334Z" fill="#0C47B7"/>
<path fill-rule="evenodd" clip-rule="evenodd" d="M0 19.9999H28V13.3333H0V19.9999Z" fill="#E53B35"/>
<path d="M13.0508 3.33301C14.1254 3.33303 15.0075 4.18298 15.0488 5.25684L15.3086 11.9971C15.332 12.6073 15.075 13.1953 14.6113 13.5928L11.7363 16.0576C10.7377 16.9136 9.26329 16.9136 8.26465 16.0576L5.38965 13.5928C4.92595 13.1953 4.66895 12.6073 4.69238 11.9971L4.95117 5.25684C4.99247 4.18297 5.87553 3.33301 6.9502 3.33301H13.0508Z" fill="#F73744" stroke="white" stroke-width="1.33333"/>
<mask id="mask1_27_1841" style="mask-type:luminance" maskUnits="userSpaceOnUse" x="4" y="2" width="12" height="16">
<path d="M13.0508 3.33301C14.1254 3.33303 15.0075 4.18298 15.0488 5.25684L15.3086 11.9971C15.332 12.6073 15.075 13.1953 14.6113 13.5928L11.7363 16.0576C10.7377 16.9136 9.26329 16.9136 8.26465 16.0576L5.38965 13.5928C4.92595 13.1953 4.66895 12.6073 4.69238 11.9971L4.95117 5.25684C4.99247 4.18297 5.87553 3.33301 6.9502 3.33301H13.0508Z" fill="white" stroke="white" stroke-width="1.33333"/>
</mask>
<g mask="url(#mask1_27_1841)">
<path fill-rule="evenodd" clip-rule="evenodd" d="M9.33374 10.9999C9.33374 10.8158 9.1845 10.6666 9.00041 10.6666H7.66707C7.48298 10.6666 7.33374 10.5173 7.33374 10.3333V9.66659C7.33374 9.48249 7.48298 9.33325 7.66707 9.33325H9.00041C9.1845 9.33325 9.33374 9.18401 9.33374 8.99992V8.33325C9.33374 8.14916 9.1845 7.99992 9.00041 7.99992H8.33374C8.14965 7.99992 8.00041 7.85068 8.00041 7.66659V6.99992C8.00041 6.81582 8.14965 6.66659 8.33374 6.66659H9.00041C9.1845 6.66659 9.33374 6.51735 9.33374 6.33325V5.66659C9.33374 5.48249 9.48298 5.33325 9.66707 5.33325H10.3337C10.5178 5.33325 10.6671 5.48249 10.6671 5.66659V6.33325C10.6671 6.51735 10.8163 6.66659 11.0004 6.66659H11.6671C11.8512 6.66659 12.0004 6.81582 12.0004 6.99992V7.66658C12.0004 7.85068 11.8512 7.99992 11.6671 7.99992H11.0004C10.8163 7.99992 10.6671 8.14916 10.6671 8.33325V8.99992C10.6671 9.18401 10.8163 9.33325 11.0004 9.33325H12.3337C12.5178 9.33325 12.6671 9.48249 12.6671 9.66659V10.3333C12.6671 10.5173 12.5178 10.6666 12.3337 10.6666H11.0004C10.8163 10.6666 10.6671 10.8158 10.6671 10.9999V12.9999C10.6671 13.184 10.5178 13.3333 10.3337 13.3333H9.66707C9.48298 13.3333 9.33374 13.184 9.33374 12.9999V10.9999Z" fill="white"/>
<path d="M10 12.6667C10.5302 12.6667 10.9863 12.9773 11.2012 13.4255C12.8234 13.6806 14 14.4384 14 15.3337C13.9996 16.4382 12.2089 17.3337 10 17.3337C7.79108 17.3337 6.00035 16.4382 6 15.3337C6 14.4386 7.17614 13.6807 8.79785 13.4255C9.01252 12.9771 9.46964 12.6669 10 12.6667Z" fill="#1251A1"/>
</g>
</g>
</svg>
