<svg width="28" height="20" viewBox="0 0 28 20" fill="none" xmlns="http://www.w3.org/2000/svg">
<rect x="0.25" y="0.25" width="27.5" height="19.5" rx="1.75" fill="white" stroke="#F5F5F5" stroke-width="0.5"/>
<mask id="mask0_27_1921" style="mask-type:luminance" maskUnits="userSpaceOnUse" x="0" y="0" width="28" height="20">
<rect x="0.25" y="0.25" width="27.5" height="19.5" rx="1.75" fill="white" stroke="white" stroke-width="0.5"/>
</mask>
<g mask="url(#mask0_27_1921)">
<path fill-rule="evenodd" clip-rule="evenodd" d="M0 19.9999H28V9.33325H0V19.9999Z" fill="#7CCCF5"/>
<path d="M15.4345 11.5814L14.8499 11.261L15.7937 12.143L15.4345 11.5814ZM16.6663 9.33325H17.333L16.0817 9.0129L16.6663 9.33325ZM11.333 9.33325L11.9106 9.00036L10.6663 6.84145V9.33325H11.333ZM12.6633 11.6414L12.3287 12.218L14.4868 13.4702L13.2409 11.3085L12.6633 11.6414ZM15.4345 11.5814L15.7937 12.143C16.7179 11.5519 17.333 10.5146 17.333 9.33325H16.6663H15.9997C15.9997 10.0409 15.6326 10.6633 15.0753 11.0198L15.4345 11.5814ZM16.6663 9.33325L16.0817 9.0129L14.8499 11.261L15.4345 11.5814L16.0192 11.9017L17.251 9.6536L16.6663 9.33325ZM11.333 9.33325H10.6663C10.6663 10.5663 11.3362 11.6421 12.3287 12.218L12.6633 11.6414L12.9979 11.0648C12.3996 10.7176 11.9997 10.0718 11.9997 9.33325H11.333ZM12.6633 11.6414L13.2409 11.3085L11.9106 9.00036L11.333 9.33325L10.7554 9.66615L12.0857 11.9743L12.6633 11.6414Z" fill="#445F42"/>
<path fill-rule="evenodd" clip-rule="evenodd" d="M14.0003 10.6667C14.7367 10.6667 15.3337 9.77132 15.3337 8.66675C15.3337 7.56218 14.7367 6.66675 14.0003 6.66675C13.2639 6.66675 12.667 7.56218 12.667 8.66675C12.667 9.77132 13.2639 10.6667 14.0003 10.6667Z" fill="#D89F3D"/>
</g>
</svg>
