<svg width="28" height="20" viewBox="0 0 28 20" fill="none" xmlns="http://www.w3.org/2000/svg">
<rect x="0.25" y="0.25" width="27.5" height="19.5" rx="1.75" fill="white" stroke="#F5F5F5" stroke-width="0.5"/>
<mask id="mask0_27_857" style="mask-type:luminance" maskUnits="userSpaceOnUse" x="0" y="0" width="28" height="20">
<rect x="0.25" y="0.25" width="27.5" height="19.5" rx="1.75" fill="white" stroke="white" stroke-width="0.5"/>
</mask>
<g mask="url(#mask0_27_857)">
<path fill-rule="evenodd" clip-rule="evenodd" d="M0 20H28V13.3334H0V20Z" fill="#1B57C4"/>
<path d="M15.5986 7.86938C16.2459 8.35593 16.666 9.12815 16.666 10.0002C16.6659 11.4728 15.4725 12.6661 14 12.6663C12.5273 12.6663 11.3332 11.4729 11.333 10.0002C11.333 9.12824 11.7532 8.35594 12.4004 7.86938L13.333 10.6663H14.667L15.5986 7.86938Z" fill="url(#paint0_linear_27_857)"/>
<path fill-rule="evenodd" clip-rule="evenodd" d="M13.9997 7.33337L14.6663 10.6667H13.333L13.9997 7.33337Z" fill="#F9C92E"/>
<path fill-rule="evenodd" clip-rule="evenodd" d="M0 6.66667H28V0H0V6.66667Z" fill="#1B57C4"/>
</g>
<defs>
<linearGradient id="paint0_linear_27_857" x1="11.333" y1="7.86938" x2="11.333" y2="12.6663" gradientUnits="userSpaceOnUse">
<stop stop-color="#3C7839"/>
<stop offset="1" stop-color="#31642E"/>
</linearGradient>
</defs>
</svg>
