<svg width="28" height="20" viewBox="0 0 28 20" fill="none" xmlns="http://www.w3.org/2000/svg">
<rect width="28" height="20" rx="2" fill="white"/>
<mask id="mask0_27_2022" style="mask-type:luminance" maskUnits="userSpaceOnUse" x="0" y="0" width="28" height="20">
<rect width="28" height="20" rx="2" fill="white"/>
</mask>
<g mask="url(#mask0_27_2022)">
<rect width="28" height="20" fill="#07319C"/>
<path d="M18.666 5.66626H22.666C23.2184 5.66626 23.6658 6.11348 23.666 6.66528V10.0002C23.6659 11.5425 22.8987 12.6256 22.1104 13.3352C21.7158 13.6903 21.3195 13.9481 21.0225 14.1165C20.8745 14.2003 20.7514 14.2612 20.667 14.301H20.665C20.5805 14.2612 20.4576 14.2003 20.3096 14.1165C20.0125 13.9481 19.6171 13.6902 19.2227 13.3352C18.4343 12.6256 17.6661 11.5427 17.666 10.0002V6.66528C17.6663 6.11359 18.1138 5.66644 18.666 5.66626Z" fill="#FFD033" stroke="white" stroke-width="0.666667"/>
<mask id="mask1_27_2022" style="mask-type:luminance" maskUnits="userSpaceOnUse" x="17" y="5" width="7" height="10">
<path d="M18.666 5.66626H22.666C23.2184 5.66626 23.6658 6.11348 23.666 6.66528V10.0002C23.6659 11.5425 22.8987 12.6256 22.1104 13.3352C21.7158 13.6903 21.3195 13.9481 21.0225 14.1165C20.8745 14.2003 20.7514 14.2612 20.667 14.301H20.665C20.5805 14.2612 20.4576 14.2003 20.3096 14.1165C20.0125 13.9481 19.6171 13.6902 19.2227 13.3352C18.4343 12.6256 17.6661 11.5427 17.666 10.0002V6.66528C17.6663 6.11359 18.1138 5.66644 18.666 5.66626Z" fill="white" stroke="white" stroke-width="0.666667"/>
</mask>
<g mask="url(#mask1_27_2022)">
<path fill-rule="evenodd" clip-rule="evenodd" d="M21.9997 9.33317C22.3679 9.33317 22.6663 8.73622 22.6663 7.99984C22.6663 7.26346 22.3679 6.6665 21.9997 6.6665C21.6315 6.6665 21.333 7.26346 21.333 7.99984C21.333 8.73622 21.6315 9.33317 21.9997 9.33317Z" fill="#BA5B1F"/>
<path fill-rule="evenodd" clip-rule="evenodd" d="M19.5385 9.29297C19.8845 9.16704 19.9608 8.504 19.709 7.81203C19.4571 7.12006 18.9724 6.66119 18.6265 6.78712C18.2805 6.91305 18.2042 7.57609 18.456 8.26806C18.7079 8.96003 19.1925 9.4189 19.5385 9.29297Z" fill="#FF9F3E"/>
<path fill-rule="evenodd" clip-rule="evenodd" d="M19.0512 9.27083C19.3849 9.42644 19.9077 9.01155 20.2189 8.34417C20.5301 7.67678 20.5119 7.00961 20.1782 6.85401C19.8445 6.69841 19.3217 7.11329 19.0105 7.78068C18.6993 8.44806 18.7175 9.11523 19.0512 9.27083Z" fill="#FF937F"/>
<path fill-rule="evenodd" clip-rule="evenodd" d="M20 10.6666L20.6667 9.33325L21.3333 10.6666V11.9999H20V10.6666Z" fill="#01A827"/>
</g>
<path d="M12.333 0.495117C12.333 0.710418 12.2289 0.912945 12.0537 1.03809L7.66699 4.1709V5.17969L11.7646 8.69238C12.1547 9.02696 11.9182 9.66674 11.4043 9.66699C11.2889 9.66699 11.176 9.63057 11.082 9.56348L6.55859 6.33301H5.42871L0.176758 9.61621L-0.333008 9.93457V8.49512L-0.193359 8.39551L4.33301 5.16211V4.15234L-0.216797 0.25293L-0.901367 -0.333008H0.773438L0.860352 -0.271484L5.43945 3H6.57129L11.8232 -0.282227L12.333 -0.601562V0.495117Z" fill="#DB1E36" stroke="white" stroke-width="0.666667"/>
<path fill-rule="evenodd" clip-rule="evenodd" d="M0 3.33333V6H4.66667V9.33333C4.66667 9.70152 4.96514 10 5.33333 10H6.66667C7.03486 10 7.33333 9.70152 7.33333 9.33333V6H12C12.3682 6 12.6667 5.70152 12.6667 5.33333V4C12.6667 3.63181 12.3682 3.33333 12 3.33333H7.33333V0H4.66667V3.33333H0Z" fill="white"/>
<path fill-rule="evenodd" clip-rule="evenodd" d="M0 4H5.33333V3.33333V0H6.66667V3.33333V4H12V5.33333H6.66667V6V9.33333H5.33333V6V5.33333H0V4Z" fill="#DB1E36"/>
</g>
</svg>
