<svg width="28" height="20" viewBox="0 0 28 20" fill="none" xmlns="http://www.w3.org/2000/svg">
<rect x="0.25" y="0.25" width="27.5" height="19.5" rx="1.75" fill="white" stroke="#F5F5F5" stroke-width="0.5"/>
<mask id="mask0_27_1962" style="mask-type:luminance" maskUnits="userSpaceOnUse" x="0" y="0" width="28" height="20">
<rect x="0.25" y="0.25" width="27.5" height="19.5" rx="1.75" fill="white" stroke="white" stroke-width="0.5"/>
</mask>
<g mask="url(#mask0_27_1962)">
<path fill-rule="evenodd" clip-rule="evenodd" d="M0 19.9999H28V13.3333H0V19.9999Z" fill="#0F7811"/>
<path d="M14 9.33301C14.368 9.33318 14.666 9.63192 14.666 10C14.666 10.1207 14.6332 10.3768 14.5771 10.667H15.333C15.7011 10.667 15.9998 10.965 16 11.333C16 11.7012 15.7012 12 15.333 12H12.667C12.2988 12 12 11.7012 12 11.333C12.0002 10.965 12.2989 10.667 12.667 10.667H13.4229C13.3668 10.3768 13.333 10.1207 13.333 10C13.333 9.63181 13.6318 9.33301 14 9.33301ZM10 9.33301C10.368 9.33318 10.666 9.63192 10.666 10C10.666 10.3681 10.368 10.6668 10 10.667C9.63181 10.667 9.33301 10.3682 9.33301 10C9.33301 9.63181 9.63181 9.33301 10 9.33301ZM18 9.33301C18.368 9.33318 18.666 9.63192 18.666 10C18.666 10.3681 18.368 10.6668 18 10.667C17.6318 10.667 17.333 10.3682 17.333 10C17.333 9.63181 17.6318 9.33301 18 9.33301ZM12.667 8C13.035 8.00018 13.333 8.29891 13.333 8.66699C13.3328 9.03492 13.0349 9.33283 12.667 9.33301C12.2989 9.33301 12.0002 9.03503 12 8.66699C12 8.2988 12.2988 8 12.667 8ZM15.333 8C15.701 8.00018 15.999 8.29891 15.999 8.66699C15.9988 9.03492 15.7009 9.33283 15.333 9.33301C14.9649 9.33301 14.6662 9.03503 14.666 8.66699C14.666 8.2988 14.9648 8 15.333 8Z" fill="#FAD14E"/>
<path fill-rule="evenodd" clip-rule="evenodd" d="M0 6.66667H28V0H0V6.66667Z" fill="#D9101C"/>
</g>
</svg>
