<svg width="28" height="20" viewBox="0 0 28 20" fill="none" xmlns="http://www.w3.org/2000/svg">
<rect x="0.25" y="0.25" width="27.5" height="19.5" rx="1.75" fill="white" stroke="#F5F5F5" stroke-width="0.5"/>
<mask id="mask0_27_2043" style="mask-type:luminance" maskUnits="userSpaceOnUse" x="0" y="0" width="28" height="20">
<rect x="0.25" y="0.25" width="27.5" height="19.5" rx="1.75" fill="white" stroke="white" stroke-width="0.5"/>
</mask>
<g mask="url(#mask0_27_2043)">
<path d="M28 20H0V10.667H16V0H28V20Z" fill="#E20F1B"/>
<path d="M9 1.33325C9.18399 1.33325 9.33381 1.48231 9.33398 1.66626V4.00024H11.667C11.8509 4.00042 12 4.14927 12 4.33325V6.33325C12 6.51724 11.8509 6.66608 11.667 6.66626H9.33398V9.00024C9.33381 9.18419 9.18399 9.33325 9 9.33325H7C6.81616 9.33308 6.66717 9.18408 6.66699 9.00024V6.66626H4.33301C4.14906 6.66608 4 6.51724 4 6.33325V4.33325C4 4.14927 4.14906 4.00042 4.33301 4.00024H6.66699V1.66626C6.66717 1.48242 6.81616 1.33343 7 1.33325H9Z" fill="url(#paint0_linear_27_2043)"/>
</g>
<defs>
<linearGradient id="paint0_linear_27_2043" x1="4" y1="1.33325" x2="4" y2="9.33325" gradientUnits="userSpaceOnUse">
<stop stop-color="#DF101B"/>
<stop offset="1" stop-color="#C00711"/>
</linearGradient>
</defs>
</svg>
