<svg width="28" height="20" viewBox="0 0 28 20" fill="none" xmlns="http://www.w3.org/2000/svg">
<rect width="28" height="20" rx="2" fill="white"/>
<mask id="mask0_27_2134" style="mask-type:luminance" maskUnits="userSpaceOnUse" x="0" y="0" width="28" height="20">
<rect width="28" height="20" rx="2" fill="white"/>
</mask>
<g mask="url(#mask0_27_2134)">
<path d="M28 20H0V18.667H28V20ZM28 17.333H0V16H28V17.333ZM28 14.667H0V13.333H28V14.667ZM28 12H0V10.667H28V12ZM28 9.33301H0V8H28V9.33301ZM28 6.66699H0V5.33301H28V6.66699ZM28 4H0V2.66699H28V4ZM28 1.33301H0V0H28V1.33301Z" fill="#D02F44"/>
<rect width="12" height="9.33333" fill="#46467F"/>
<g filter="url(#filter0_d_27_2134)">
<path d="M2 6.66626C2.36804 6.66644 2.66602 6.96517 2.66602 7.33325C2.66602 7.70133 2.36804 8.00007 2 8.00024C1.63181 8.00024 1.33301 7.70144 1.33301 7.33325C1.33301 6.96506 1.63181 6.66626 2 6.66626ZM4.66699 6.66626C5.03503 6.66644 5.33301 6.96517 5.33301 7.33325C5.33296 7.7013 5.03501 8.00007 4.66699 8.00024C4.29883 8.00024 4.00004 7.7014 4 7.33325C4 6.96506 4.2988 6.66626 4.66699 6.66626ZM7.33301 6.66626C7.70105 6.66644 7.99902 6.96517 7.99902 7.33325C7.99898 7.7013 7.70102 8.00007 7.33301 8.00024C6.96485 8.00024 6.66606 7.7014 6.66602 7.33325C6.66602 6.96506 6.96482 6.66626 7.33301 6.66626ZM10 6.66626C10.368 6.66644 10.666 6.96517 10.666 7.33325C10.666 7.70133 10.368 8.00007 10 8.00024C9.63181 8.00024 9.33301 7.70144 9.33301 7.33325C9.33301 6.96506 9.63181 6.66626 10 6.66626ZM3.33301 5.33325C3.70105 5.33343 3.99902 5.63216 3.99902 6.00024C3.99885 6.36818 3.70094 6.66608 3.33301 6.66626C2.96493 6.66626 2.66619 6.36828 2.66602 6.00024C2.66602 5.63205 2.96482 5.33325 3.33301 5.33325ZM6 5.33325C6.36804 5.33343 6.66602 5.63216 6.66602 6.00024C6.66584 6.36818 6.36793 6.66608 6 6.66626C5.63192 6.66626 5.33318 6.36828 5.33301 6.00024C5.33301 5.63205 5.63181 5.33325 6 5.33325ZM8.66699 5.33325C9.03503 5.33343 9.33301 5.63216 9.33301 6.00024C9.33283 6.36818 9.03492 6.66608 8.66699 6.66626C8.29891 6.66626 8.00018 6.36828 8 6.00024C8 5.63205 8.2988 5.33325 8.66699 5.33325ZM2 4.00024C2.36793 4.00042 2.66584 4.29833 2.66602 4.66626C2.66602 5.03434 2.36804 5.33308 2 5.33325C1.63181 5.33325 1.33301 5.03445 1.33301 4.66626C1.33318 4.29822 1.63192 4.00024 2 4.00024ZM4.66699 4.00024C5.0349 4.00042 5.33279 4.29837 5.33301 4.66626C5.33301 5.03434 5.03503 5.33308 4.66699 5.33325C4.2988 5.33325 4 5.03445 4 4.66626C4.00022 4.29826 4.29894 4.00024 4.66699 4.00024ZM7.33301 4.00024C7.70091 4.00042 7.9988 4.29837 7.99902 4.66626C7.99902 5.03434 7.70105 5.33308 7.33301 5.33325C6.96482 5.33325 6.66602 5.03445 6.66602 4.66626C6.66624 4.29826 6.96495 4.00024 7.33301 4.00024ZM10 4.00024C10.3679 4.00042 10.6658 4.29833 10.666 4.66626C10.666 5.03434 10.368 5.33308 10 5.33325C9.63181 5.33325 9.33301 5.03445 9.33301 4.66626C9.33318 4.29822 9.63192 4.00024 10 4.00024ZM3.33301 2.66626C3.70105 2.66644 3.99902 2.96517 3.99902 3.33325C3.99898 3.7013 3.70102 4.00007 3.33301 4.00024C2.96485 4.00024 2.66606 3.7014 2.66602 3.33325C2.66602 2.96506 2.96482 2.66626 3.33301 2.66626ZM6 2.66626C6.36804 2.66644 6.66602 2.96517 6.66602 3.33325C6.66602 3.70133 6.36804 4.00007 6 4.00024C5.63181 4.00024 5.33301 3.70144 5.33301 3.33325C5.33301 2.96506 5.63181 2.66626 6 2.66626ZM8.66699 2.66626C9.03503 2.66644 9.33301 2.96517 9.33301 3.33325C9.33296 3.7013 9.03501 4.00007 8.66699 4.00024C8.29883 4.00024 8.00004 3.7014 8 3.33325C8 2.96506 8.2988 2.66626 8.66699 2.66626ZM2 1.33325C2.36804 1.33343 2.66602 1.63216 2.66602 2.00024C2.66584 2.36818 2.36793 2.66608 2 2.66626C1.63192 2.66626 1.33318 2.36828 1.33301 2.00024C1.33301 1.63205 1.63181 1.33325 2 1.33325ZM4.66699 1.33325C5.03503 1.33343 5.33301 1.63216 5.33301 2.00024C5.33283 2.36818 5.03492 2.66608 4.66699 2.66626C4.29891 2.66626 4.00018 2.36828 4 2.00024C4 1.63205 4.2988 1.33325 4.66699 1.33325ZM7.33301 1.33325C7.70105 1.33343 7.99902 1.63216 7.99902 2.00024C7.99885 2.36818 7.70094 2.66608 7.33301 2.66626C6.96493 2.66626 6.66619 2.36828 6.66602 2.00024C6.66602 1.63205 6.96482 1.33325 7.33301 1.33325ZM10 1.33325C10.368 1.33343 10.666 1.63216 10.666 2.00024C10.6658 2.36818 10.3679 2.66608 10 2.66626C9.63192 2.66626 9.33318 2.36828 9.33301 2.00024C9.33301 1.63205 9.63181 1.33325 10 1.33325Z" fill="url(#paint0_linear_27_2134)"/>
</g>
</g>
<defs>
<filter id="filter0_d_27_2134" x="1.33301" y="1.33325" width="9.33301" height="7.66699" filterUnits="userSpaceOnUse" color-interpolation-filters="sRGB">
<feFlood flood-opacity="0" result="BackgroundImageFix"/>
<feColorMatrix in="SourceAlpha" type="matrix" values="0 0 0 0 0 0 0 0 0 0 0 0 0 0 0 0 0 0 127 0" result="hardAlpha"/>
<feOffset dy="1"/>
<feColorMatrix type="matrix" values="0 0 0 0 0 0 0 0 0 0 0 0 0 0 0 0 0 0 0.06 0"/>
<feBlend mode="normal" in2="BackgroundImageFix" result="effect1_dropShadow_27_2134"/>
<feBlend mode="normal" in="SourceGraphic" in2="effect1_dropShadow_27_2134" result="shape"/>
</filter>
<linearGradient id="paint0_linear_27_2134" x1="1.33301" y1="1.33325" x2="1.33301" y2="8.00024" gradientUnits="userSpaceOnUse">
<stop stop-color="white"/>
<stop offset="1" stop-color="#F0F0F0"/>
</linearGradient>
</defs>
</svg>
