<svg width="28" height="20" viewBox="0 0 28 20" fill="none" xmlns="http://www.w3.org/2000/svg">
<rect x="0.25" y="0.25" width="27.5" height="19.5" rx="1.75" fill="white" stroke="#F5F5F5" stroke-width="0.5"/>
<mask id="mask0_27_2119" style="mask-type:luminance" maskUnits="userSpaceOnUse" x="0" y="0" width="28" height="20">
<rect x="0.25" y="0.25" width="27.5" height="19.5" rx="1.75" fill="white" stroke="white" stroke-width="0.5"/>
</mask>
<g mask="url(#mask0_27_2119)">
<path d="M28 20H0V18.667H28V20ZM28 13.333V16H0V13.333H28ZM13.333 8H28V10.667H13.333V8ZM13.333 2.66699H28V5.33301H13.333V2.66699Z" fill="#0E4DC5"/>
<path d="M7.78223 4.43359L9.16113 3.62305L8.67676 5.14746L10.2705 5.01465L9.17383 6.17773L10.667 6.75L9.17383 7.32227L10.2705 8.48535L8.67676 8.35352L9.16113 9.87695L7.78223 9.06641L7.55664 10.6494L6.66699 9.32129L5.77734 10.6494L5.55176 9.06641L4.17285 9.87695L4.65723 8.35352L3.06348 8.48535L4.16016 7.32227L2.66699 6.75L4.16016 6.17773L3.06348 5.01465L4.65723 5.14746L4.17285 3.62305L5.55176 4.43359L5.77734 2.85059L6.66699 4.17871L7.55664 2.85059L7.78223 4.43359ZM6.66699 4.20508C5.26127 4.20508 4.12125 5.34432 4.12109 6.75C4.12109 8.15582 5.26118 9.2959 6.66699 9.2959C8.0726 9.29566 9.21191 8.15567 9.21191 6.75C9.21176 5.34447 8.07251 4.20532 6.66699 4.20508ZM6.66699 4.66699C7.77156 4.66699 8.66699 5.56242 8.66699 6.66699C8.66685 7.77144 7.77147 8.66699 6.66699 8.66699C5.56251 8.66699 4.66714 7.77144 4.66699 6.66699C4.66699 5.56242 5.56242 4.66699 6.66699 4.66699Z" fill="#FED443"/>
</g>
</svg>
