<svg width="28" height="20" viewBox="0 0 28 20" fill="none" xmlns="http://www.w3.org/2000/svg">
<rect x="0.25" y="0.25" width="27.5" height="19.5" rx="1.75" fill="white" stroke="#F5F5F5" stroke-width="0.5"/>
<mask id="mask0_27_2089" style="mask-type:luminance" maskUnits="userSpaceOnUse" x="0" y="0" width="28" height="20">
<rect x="0.25" y="0.25" width="27.5" height="19.5" rx="1.75" fill="white" stroke="white" stroke-width="0.5"/>
</mask>
<g mask="url(#mask0_27_2089)">
<path fill-rule="evenodd" clip-rule="evenodd" d="M0 19.9999H28V13.3333H0V19.9999Z" fill="#23C840"/>
<path fill-rule="evenodd" clip-rule="evenodd" d="M0 6.66667H28V0H0V6.66667Z" fill="#04AAC8"/>
<path d="M4.66699 1.33325C5.0792 1.33325 5.46199 1.45838 5.78027 1.67212C5.7428 1.66959 5.70511 1.66627 5.66699 1.66626C4.74652 1.66626 4 2.41278 4 3.33325C4.00004 4.25369 4.74654 5.00024 5.66699 5.00024C5.70512 5.00024 5.74278 4.99594 5.78027 4.99341C5.4619 5.20733 5.07939 5.33325 4.66699 5.33325C3.56242 5.33325 2.66699 4.43782 2.66699 3.33325C2.66699 2.22868 3.56242 1.33325 4.66699 1.33325ZM7.33398 4.00024C7.70192 4.00042 7.99982 4.29833 8 4.66626C8 5.03434 7.70202 5.33308 7.33398 5.33325C6.96579 5.33325 6.66699 5.03445 6.66699 4.66626C6.66717 4.29822 6.9659 4.00024 7.33398 4.00024ZM10.001 4.00024C10.3689 4.00042 10.6668 4.29837 10.667 4.66626C10.667 5.03434 10.369 5.33308 10.001 5.33325C9.63279 5.33325 9.33398 5.03445 9.33398 4.66626C9.3342 4.29826 9.63292 4.00024 10.001 4.00024ZM12.667 4.00024C13.0349 4.00042 13.3328 4.29837 13.333 4.66626C13.333 5.03434 13.035 5.33308 12.667 5.33325C12.2988 5.33325 12 5.03445 12 4.66626C12.0002 4.29826 12.2989 4.00024 12.667 4.00024ZM10.001 1.33325C10.369 1.33343 10.667 1.63216 10.667 2.00024C10.6668 2.36818 10.3689 2.66608 10.001 2.66626C9.63289 2.66626 9.33416 2.36828 9.33398 2.00024C9.33398 1.63205 9.63279 1.33325 10.001 1.33325ZM12.667 1.33325C13.035 1.33343 13.333 1.63216 13.333 2.00024C13.3328 2.36818 13.0349 2.66608 12.667 2.66626C12.2989 2.66626 12.0002 2.36828 12 2.00024C12 1.63205 12.2988 1.33325 12.667 1.33325Z" fill="white"/>
</g>
</svg>
