<svg width="28" height="20" viewBox="0 0 28 20" fill="none" xmlns="http://www.w3.org/2000/svg">
<rect width="28" height="20" rx="2" fill="white"/>
<mask id="mask0_27_2218" style="mask-type:luminance" maskUnits="userSpaceOnUse" x="0" y="0" width="28" height="20">
<rect width="28" height="20" rx="2" fill="white"/>
</mask>
<g mask="url(#mask0_27_2218)">
<path fill-rule="evenodd" clip-rule="evenodd" d="M0 13.3334H28V6.66675H0V13.3334Z" fill="#063191"/>
<path fill-rule="evenodd" clip-rule="evenodd" d="M0 19.9999H28V13.3333H0V19.9999Z" fill="#E2213B"/>
<path d="M10 10.667C10.3679 10.6672 10.6658 10.9651 10.666 11.333C10.666 11.7011 10.368 11.9998 10 12C9.63181 12 9.33301 11.7012 9.33301 11.333C9.33318 10.965 9.63192 10.667 10 10.667ZM18 10.667C18.3679 10.6672 18.6658 10.9651 18.666 11.333C18.666 11.7011 18.368 11.9998 18 12C17.6318 12 17.333 11.7012 17.333 11.333C17.3332 10.965 17.6319 10.667 18 10.667ZM11.333 8.66699C11.7009 8.66717 11.9988 8.96511 11.999 9.33301C11.999 9.70109 11.701 9.99982 11.333 10C10.9648 10 10.666 9.7012 10.666 9.33301C10.6662 8.965 10.965 8.66699 11.333 8.66699ZM16.667 8.66699C17.0349 8.66717 17.3328 8.96511 17.333 9.33301C17.333 9.70109 17.035 9.99982 16.667 10C16.2988 10 16 9.7012 16 9.33301C16.0002 8.965 16.2989 8.66699 16.667 8.66699ZM14 8C14.368 8.00018 14.666 8.29891 14.666 8.66699C14.6658 9.03492 14.3679 9.33283 14 9.33301C13.6319 9.33301 13.3332 9.03503 13.333 8.66699C13.333 8.2988 13.6318 8 14 8Z" fill="white"/>
<path fill-rule="evenodd" clip-rule="evenodd" d="M0 6.66667H28V0H0V6.66667Z" fill="#FFD044"/>
</g>
</svg>
