<svg width="28" height="20" viewBox="0 0 28 20" fill="none" xmlns="http://www.w3.org/2000/svg">
<rect width="28" height="20" rx="2" fill="white"/>
<mask id="mask0_27_2196" style="mask-type:luminance" maskUnits="userSpaceOnUse" x="0" y="0" width="28" height="20">
<rect width="28" height="20" rx="2" fill="white"/>
</mask>
<g mask="url(#mask0_27_2196)">
<rect width="28" height="20" fill="#07319C"/>
<path fill-rule="evenodd" clip-rule="evenodd" d="M17.333 9.99992C17.333 8.90618 17.333 7.61306 17.333 6.66574C17.333 5.92936 17.93 5.33325 18.6663 5.33325H22.6663C23.4027 5.33325 23.9997 5.92936 23.9997 6.66574C23.9997 7.61306 23.9997 8.90618 23.9997 9.99992C23.9997 13.3333 20.6663 14.6666 20.6663 14.6666C20.6663 14.6666 17.333 13.3333 17.333 9.99992Z" fill="#008339"/>
<mask id="mask1_27_2196" style="mask-type:luminance" maskUnits="userSpaceOnUse" x="17" y="5" width="7" height="10">
<path fill-rule="evenodd" clip-rule="evenodd" d="M17.333 9.99992C17.333 8.90618 17.333 7.61306 17.333 6.66574C17.333 5.92936 17.93 5.33325 18.6663 5.33325H22.6663C23.4027 5.33325 23.9997 5.92936 23.9997 6.66574C23.9997 7.61306 23.9997 8.90618 23.9997 9.99992C23.9997 13.3333 20.6663 14.6666 20.6663 14.6666C20.6663 14.6666 17.333 13.3333 17.333 9.99992Z" fill="white"/>
</mask>
<g mask="url(#mask1_27_2196)">
<path d="M19.333 10.6665C19.701 10.6667 19.999 10.9654 19.999 11.3335C19.9988 11.7014 19.7009 11.9993 19.333 11.9995C18.9649 11.9995 18.6662 11.7015 18.666 11.3335C18.666 10.9653 18.9648 10.6665 19.333 10.6665ZM22 10.6665C22.368 10.6667 22.666 10.9654 22.666 11.3335C22.6658 11.7014 22.3679 11.9993 22 11.9995C21.6319 11.9995 21.3332 11.7015 21.333 11.3335C21.333 10.9653 21.6318 10.6665 22 10.6665ZM19.333 9.3335C19.7009 9.33367 19.9988 9.63158 19.999 9.99951C19.999 10.3676 19.701 10.6663 19.333 10.6665C18.9648 10.6665 18.666 10.3677 18.666 9.99951C18.6662 9.63147 18.9649 9.3335 19.333 9.3335ZM22 9.3335C22.3679 9.33367 22.6658 9.63162 22.666 9.99951C22.666 10.3676 22.368 10.6663 22 10.6665C21.6318 10.6665 21.333 10.3677 21.333 9.99951C21.3332 9.63151 21.6319 9.3335 22 9.3335ZM19.333 7.99951C19.701 7.99969 19.999 8.29842 19.999 8.6665C19.999 9.03459 19.701 9.33332 19.333 9.3335C18.9648 9.3335 18.666 9.03469 18.666 8.6665C18.666 8.29831 18.9648 7.99951 19.333 7.99951ZM22 7.99951C22.368 7.99969 22.666 8.29842 22.666 8.6665C22.666 9.03455 22.368 9.33332 22 9.3335C21.6318 9.3335 21.3331 9.03466 21.333 8.6665C21.333 8.29831 21.6318 7.99951 22 7.99951ZM19.333 6.6665C19.701 6.66668 19.999 6.96541 19.999 7.3335C19.9988 7.70143 19.7009 7.99934 19.333 7.99951C18.9649 7.99951 18.6662 7.70154 18.666 7.3335C18.666 6.96531 18.9648 6.6665 19.333 6.6665ZM22 6.6665C22.368 6.66668 22.666 6.96541 22.666 7.3335C22.6658 7.70143 22.3679 7.99934 22 7.99951C21.6319 7.99951 21.3332 7.70154 21.333 7.3335C21.333 6.96531 21.6318 6.6665 22 6.6665Z" fill="#FFD033"/>
<path fill-rule="evenodd" clip-rule="evenodd" d="M20.6667 11.3333C21.0349 11.3333 21.3333 10.4378 21.3333 9.33325C21.3333 8.22868 21.0349 7.33325 20.6667 7.33325C20.2985 7.33325 20 8.22868 20 9.33325C20 10.4378 20.2985 11.3333 20.6667 11.3333Z" fill="white"/>
</g>
<path d="M16.667 13.3334C16.667 14.6049 18.4882 15.3334 20.667 15.3334C22.8458 15.3334 24.667 14.6049 24.667 13.3334C24.667 12.9652 24.3685 12.6667 24.0003 12.6667C23.6321 12.6667 23.3337 12.9652 23.3337 13.3334C23.3337 13.3462 23.1721 13.499 22.7764 13.6572C22.2393 13.8721 21.4827 14.0001 20.667 14.0001C19.8513 14.0001 19.0946 13.8721 18.5576 13.6572C18.1619 13.499 18.0003 13.3462 18.0003 13.3334C18.0003 12.9652 17.7018 12.6667 17.3337 12.6667C16.9655 12.6667 16.667 12.9652 16.667 13.3334Z" fill="#FFD033"/>
<path d="M12.333 0.495117C12.333 0.710418 12.2289 0.912945 12.0537 1.03809L7.66699 4.1709V5.17969L11.7646 8.69238C12.1547 9.02696 11.9182 9.66674 11.4043 9.66699C11.2889 9.66699 11.176 9.63057 11.082 9.56348L6.55859 6.33301H5.42871L0.176758 9.61621L-0.333008 9.93457V8.49512L-0.193359 8.39551L4.33301 5.16211V4.15234L-0.216797 0.25293L-0.901367 -0.333008H0.773438L0.860352 -0.271484L5.43945 3H6.57129L11.8232 -0.282227L12.333 -0.601562V0.495117Z" fill="#DB1E36" stroke="white" stroke-width="0.666667"/>
<path fill-rule="evenodd" clip-rule="evenodd" d="M0 3.33333V6H4.66667V9.33333C4.66667 9.70152 4.96514 10 5.33333 10H6.66667C7.03486 10 7.33333 9.70152 7.33333 9.33333V6H12C12.3682 6 12.6667 5.70152 12.6667 5.33333V4C12.6667 3.63181 12.3682 3.33333 12 3.33333H7.33333V0H4.66667V3.33333H0Z" fill="white"/>
<path fill-rule="evenodd" clip-rule="evenodd" d="M0 4H5.33333V3.33333V0H6.66667V3.33333V4H12V5.33333H6.66667V6V9.33333H5.33333V6V5.33333H0V4Z" fill="#DB1E36"/>
</g>
</svg>
