<svg width="28" height="20" viewBox="0 0 28 20" fill="none" xmlns="http://www.w3.org/2000/svg">
<rect width="28" height="20" rx="2" fill="white"/>
<mask id="mask0_27_2166" style="mask-type:luminance" maskUnits="userSpaceOnUse" x="0" y="0" width="28" height="20">
<rect width="28" height="20" rx="2" fill="white"/>
</mask>
<g mask="url(#mask0_27_2166)">
<rect width="28" height="20" fill="#E31F37"/>
<path fill-rule="evenodd" clip-rule="evenodd" d="M-1.33301 10.6667H14.667V-1.33325H-1.33301V10.6667Z" fill="#083B9A"/>
<path d="M7.33398 8.6665L7.61035 9.60986L6.66699 9.3335L5.72461 9.60986L6 8.6665L5.72461 7.72412L6.66699 7.99951L7.61035 7.72412L7.33398 8.6665ZM8.33301 6.6665C8.51699 6.6665 8.66682 6.81557 8.66699 6.99951C8.66699 7.18361 8.5171 7.3335 8.33301 7.3335C8.14906 7.33332 8 7.1835 8 6.99951C8.00018 6.81567 8.14917 6.66668 8.33301 6.6665ZM4.66699 5.3335L4.94336 6.27588L4 5.99951L3.05762 6.27588L3.33398 5.3335L3.05762 4.39014L4 4.6665L4.94336 4.39014L4.66699 5.3335ZM10.667 4.6665L10.9434 5.60986L10 5.3335L9.05762 5.60986L9.33398 4.6665L9.05762 3.72412L10 3.99951L10.9434 3.72412L10.667 4.6665ZM7.33398 1.99951L7.61035 2.94287L6.66699 2.6665L5.72461 2.94287L6 1.99951L5.72461 1.05713L6.66699 1.3335L7.61035 1.05713L7.33398 1.99951Z" fill="white"/>
</g>
</svg>
