<svg width="28" height="20" viewBox="0 0 28 20" fill="none" xmlns="http://www.w3.org/2000/svg">
<rect width="28" height="20" rx="2" fill="white"/>
<mask id="mask0_27_2278" style="mask-type:luminance" maskUnits="userSpaceOnUse" x="0" y="0" width="28" height="20">
<rect width="28" height="20" rx="2" fill="white"/>
</mask>
<g mask="url(#mask0_27_2278)">
<rect width="28" height="20" fill="#19BFBF"/>
<path d="M14 2.66675C18.05 2.66675 21.3338 5.94982 21.334 9.99976C21.334 14.0498 18.0501 17.3337 14 17.3337C9.95006 17.3336 6.66699 14.0497 6.66699 9.99976C6.66717 5.94993 9.95017 2.66692 14 2.66675ZM12.0156 10.6667C12.1129 12.9142 12.6988 14.9002 13.6133 15.9851C13.7412 15.9932 13.87 15.9998 14 15.9998C14.1296 15.9998 14.2582 15.9932 14.3857 15.9851C15.3005 14.9003 15.8871 12.9146 15.9844 10.6667H12.0156ZM8.03809 10.6667C8.2858 12.906 9.76516 14.7718 11.7842 15.575C11.1344 14.2511 10.7548 12.5276 10.6816 10.6667H8.03809ZM17.3184 10.6667C17.2452 12.5278 16.8647 14.251 16.2148 15.575C18.2343 14.772 19.7142 12.9063 19.9619 10.6667H17.3184ZM14 3.99976C13.8704 3.99976 13.7418 4.00533 13.6143 4.01343C12.699 5.09801 12.1129 7.08512 12.0156 9.33374H15.9844C15.8871 7.08478 15.3002 5.09791 14.3848 4.01343C14.2575 4.00537 14.1293 3.99976 14 3.99976ZM16.2139 4.42358C16.8643 5.74779 17.2452 7.47181 17.3184 9.33374H19.9619C19.7144 7.09344 18.2341 5.22643 16.2139 4.42358ZM11.7852 4.42358C9.76531 5.22661 8.28561 7.09375 8.03809 9.33374H10.6816C10.7548 7.47199 11.1349 5.74774 11.7852 4.42358Z" fill="white"/>
</g>
</svg>
