<svg width="28" height="20" viewBox="0 0 28 20" fill="none" xmlns="http://www.w3.org/2000/svg">
<rect width="28" height="20" rx="2" fill="#009F60"/>
<mask id="mask0_27_2581" style="mask-type:luminance" maskUnits="userSpaceOnUse" x="0" y="0" width="28" height="20">
<rect width="28" height="20" rx="2" fill="white"/>
</mask>
<g mask="url(#mask0_27_2581)">
<rect x="24" y="10.6667" width="4" height="9.33333" fill="#EA8B42"/>
<path fill-rule="evenodd" clip-rule="evenodd" d="M20 20.0001H24V10.6667H20V20.0001Z" fill="#1A1919"/>
<path fill-rule="evenodd" clip-rule="evenodd" d="M16 20.0001H20V10.6667H16V20.0001Z" fill="#DB3C36"/>
<path fill-rule="evenodd" clip-rule="evenodd" d="M21.0138 3.48416C20.9219 3.48674 20.8544 3.45491 20.8302 3.4014C20.98 3.31349 21.0813 3.3331 21.207 3.4451C21.2312 3.35753 21.207 3.25998 21.1539 3.20149C21.1007 3.143 21.0572 3.143 20.9848 3.13801C20.9123 3.13319 20.8398 3.11375 20.7915 3.11375C20.7207 2.95771 20.5432 3.02377 20.3728 3.08777C20.0958 3.19168 19.8469 3.38041 19.7351 3.5688C19.684 3.655 19.6779 3.68889 19.6465 3.73775C19.6724 3.73448 19.6707 3.73448 19.6868 3.72467C19.6674 3.93921 19.6417 4.1374 19.6803 4.2642C19.6321 4.44949 19.6707 4.56648 19.7286 4.62497C19.7867 4.68347 19.8107 4.7079 19.8205 4.7762C19.8301 4.84433 19.8591 4.90764 19.9074 4.94669C19.9557 4.98575 19.9847 5.04424 19.9895 5.07848C19.9943 5.11254 20.1438 5.25947 20.2069 5.29783C20.2311 5.31229 20.2359 5.34171 20.265 5.38059C20.2021 5.75117 20.4534 6.12175 20.3953 6.48734C20.4388 6.49216 20.4968 6.48734 20.5549 6.47272C20.6031 6.78463 20.632 6.93586 20.3615 7.02841C20.091 7.12115 19.9431 7.21233 20.0185 7.31607C20.0716 7.38919 20.1817 7.32553 20.2504 7.26239C20.3036 7.21371 20.3663 7.16983 20.4147 7.15521C20.463 7.14059 20.4728 7.15521 20.4484 7.21852C20.4243 7.28201 20.294 7.41844 20.289 7.48674C20.2842 7.55504 20.3421 7.60373 20.434 7.55005C20.5257 7.49637 20.6065 7.35599 20.6272 7.2722C20.6416 7.21371 20.666 7.17465 20.661 7.2722C20.6562 7.36975 20.5983 7.54523 20.7287 7.57448C20.8592 7.60373 20.8979 7.44768 20.8544 7.30626C20.8108 7.16502 20.7964 7.08691 20.8156 7.03822C20.835 6.98936 20.8544 6.96029 20.9025 6.97474C20.9509 6.98936 21.0476 6.96992 21.0428 6.89198C21.0378 6.81405 20.9703 6.75057 20.8929 6.79444C20.8156 6.83831 20.7577 6.83177 20.7915 6.73594C20.8156 6.66764 20.8592 6.58472 20.864 6.53121C20.9171 6.60915 21.2166 6.61895 21.3375 6.54583C21.3664 6.69207 21.4437 6.82368 21.2747 6.96029C21.1055 7.09672 20.9703 7.22833 20.9751 7.32588C20.98 7.42343 21.0186 7.48175 21.1055 7.43306C21.1924 7.38437 21.2456 7.31607 21.2649 7.25276C21.2843 7.18928 21.3231 7.18928 21.3037 7.26738C21.2843 7.34532 21.2505 7.45749 21.2649 7.52579C21.2795 7.59392 21.3858 7.59891 21.4292 7.53543C21.4727 7.47211 21.4629 7.38919 21.4533 7.30626C21.4437 7.22334 21.4583 7.13577 21.4775 7.10153C21.4969 7.06747 21.5355 7.01861 21.5742 7.11134C21.6129 7.2039 21.6321 7.27702 21.7095 7.30145C21.7868 7.32588 21.8447 7.29164 21.8303 7.19908C21.8157 7.10652 21.7143 7.00398 21.6129 6.92605C21.5115 6.84811 21.5452 6.80906 21.55 6.73594C21.5548 6.66282 21.5404 6.53121 21.5355 6.47272C21.6273 6.54102 21.7288 6.53121 21.777 6.53121C21.8253 6.53121 21.9047 6.51624 21.8253 6.44347C21.6659 6.29723 21.7191 6.20932 21.608 6.10214C21.4969 5.99495 21.3954 5.8291 21.3616 5.68786C21.3277 5.54644 21.2533 5.28803 21.1055 5.15641C21.0234 5.0833 20.9992 4.88338 21.0186 4.65422C21.0378 4.42506 21.0428 4.17164 20.835 4.05465C20.6272 3.93766 20.632 3.84011 20.6997 3.73775C20.7673 3.63538 20.8542 3.53525 20.9655 3.52803C20.9905 3.52648 21.0483 3.52166 21.0717 3.50446C21.0613 3.49637 21.0443 3.48347 21.0138 3.48416Z" fill="#EA8B42"/>
<path fill-rule="evenodd" clip-rule="evenodd" d="M19.6627 4.01066C19.6575 4.10976 19.6599 4.19698 19.6803 4.26408C19.6322 4.44937 19.6707 4.56636 19.7287 4.62486C19.7868 4.68335 19.8108 4.70778 19.8206 4.77608C19.8302 4.84421 19.8591 4.90752 19.9075 4.94658C19.9558 4.98563 19.9848 5.04412 19.9896 5.07836C19.9944 5.11243 20.1439 5.25935 20.207 5.29772C20.2311 5.31217 20.2359 5.34159 20.2651 5.38047C20.2388 5.53445 20.2664 5.68843 20.3042 5.84206C19.9627 6.128 19.6256 5.99311 19.7674 5.70064C19.4839 5.92808 18.9944 5.92172 19.104 5.70064C18.6595 5.85668 18.5242 5.72662 18.5822 5.58365C18.2086 5.73316 18.0152 5.59019 18.0668 5.4861C17.7576 5.57058 17.5579 5.51862 17.5256 5.46666C17.4936 5.4147 17.5707 5.29772 17.6417 5.23922C17.4999 5.29118 17.3647 5.29118 17.2358 5.27174C17.107 5.25212 17.1392 5.21307 17.165 5.15458C17.1908 5.09608 17.2246 5.00352 17.3276 4.91251C17.0813 4.9612 16.772 4.99544 16.5547 4.92215C16.5137 4.90838 16.4436 4.8929 16.487 4.8492C16.5305 4.80533 16.661 4.69797 16.8204 4.62967C16.458 4.68335 15.7719 4.7224 15.5787 4.50305C15.7671 4.54193 16.0087 4.464 16.1633 4.40068C15.5546 4.33238 14.7236 3.91311 14.7139 3.50365C14.8879 3.78632 15.1875 3.88387 15.487 3.97161C15.0811 3.73264 14.912 3.44498 14.8976 3.25488C15.1294 3.47922 15.482 3.73264 15.83 3.79131C15.5835 3.65969 15.2647 3.27449 15.1778 3.00627C15.3566 3.16713 15.8155 3.42554 16.1295 3.50847C15.9122 3.3378 15.5595 2.93316 15.5787 2.70898C15.6608 2.79191 15.8638 2.94778 16.2792 3.19157C16.6947 3.43535 16.9202 3.41746 17.2632 3.49058C17.2004 3.4061 17.144 3.29393 17.1392 3.26468C17.2407 3.27931 17.3372 3.31836 17.6271 3.49866C17.917 3.67913 18.5504 3.73436 18.9123 3.89367C19.1779 4.01066 19.5564 3.93754 19.6627 4.01066Z" fill="#EA8B42"/>
<path fill-rule="evenodd" clip-rule="evenodd" d="M21.8491 6.51428C21.8651 6.50155 21.8651 6.47953 21.8253 6.44323C21.6659 6.29699 21.719 6.20908 21.6079 6.1019C21.4969 5.99471 21.3954 5.82886 21.3616 5.68762C21.3277 5.5462 21.2533 5.28779 21.1055 5.15618C21.0234 5.08306 20.9992 4.88314 21.0186 4.65398C21.035 4.45785 21.041 4.244 20.9121 4.11308C21.1537 4.04478 21.3762 4.02998 21.4533 4.10792C21.8543 4.00555 22.2023 3.97458 22.5436 3.95205C22.9365 3.9259 23.6773 3.75695 24.2056 3.39944C24.1734 3.52951 23.993 3.72443 23.8319 3.82198C24.3666 3.69192 25.0108 3.4514 25.5583 3.04194C25.5518 3.32805 25.3201 3.54241 25.1846 3.65957C25.5583 3.4514 26.1057 3.19144 26.2926 2.86646C26.3747 3.19953 25.816 3.63514 25.5131 3.87566C25.8223 3.72615 26.2218 3.588 26.3764 3.36693C26.3731 3.63669 26.0221 3.97149 25.6871 4.16641C26.0286 4.03652 26.4086 3.89992 26.6275 3.69846C26.6533 3.96994 25.6065 4.59394 25.0879 4.76443C25.539 4.65398 26.1251 4.50448 26.3827 4.34843C26.3699 4.40366 26.2648 4.48108 26.1883 4.53751C25.8733 4.77046 25.39 4.89553 25.0945 4.95299C25.1332 5.11557 25.0816 5.20658 24.9013 5.21949C24.7209 5.23256 24.2845 5.16271 24.0655 5.05209C24.0333 5.07153 23.9946 5.07824 23.951 5.08306C24.1636 5.24392 24.2361 5.36091 24.1926 5.42921C24.1492 5.49751 23.997 5.48512 23.8811 5.46086C23.9728 5.71927 23.6659 5.70224 23.41 5.55583C23.5115 5.68762 23.5261 5.79962 23.3858 5.82886C23.2458 5.85811 23.1345 5.84848 22.9993 5.76056C22.9897 5.85811 22.8962 5.92314 22.7723 5.89063C23.1974 6.14904 23.1733 6.24332 23.1007 6.34069C23.0284 6.43824 22.7747 6.4188 22.6394 6.33106C22.5815 6.53097 22.3504 6.53166 22.1779 6.37252C22.1764 6.45218 22.0118 6.61028 21.8491 6.51428Z" fill="#EA8B42"/>
<path fill-rule="evenodd" clip-rule="evenodd" d="M19.8768 7.49465C19.8839 7.43306 19.8897 7.36149 19.9411 7.3159C19.9927 7.27031 20.025 7.23142 20.07 7.27684C20.1151 7.32244 20.0862 7.36476 20.025 7.3842C19.9638 7.40364 19.9219 7.45887 19.9122 7.49465C19.9026 7.53044 19.8703 7.54988 19.8768 7.49465Z" fill="black"/>
<path fill-rule="evenodd" clip-rule="evenodd" d="M20.2281 7.79369C20.1962 7.69149 20.2122 7.55971 20.2475 7.52066C20.283 7.4816 20.3281 7.45562 20.3699 7.49468C20.4117 7.53373 20.4278 7.58896 20.3505 7.62147C20.2821 7.6502 20.2765 7.72212 20.2734 7.77425C20.2701 7.8262 20.2475 7.85545 20.2281 7.79369Z" fill="black"/>
<path fill-rule="evenodd" clip-rule="evenodd" d="M20.6792 7.53056C20.6543 7.57236 20.6855 7.74182 20.7694 7.78398C20.8287 7.81391 20.8563 7.80686 20.8208 7.75146C20.7855 7.69623 20.7983 7.64428 20.8177 7.61503C20.8369 7.58578 20.8338 7.53382 20.7918 7.50785C20.75 7.4817 20.6984 7.49804 20.6792 7.53056Z" fill="black"/>
<path fill-rule="evenodd" clip-rule="evenodd" d="M21.0432 7.37781C20.9901 7.33755 20.9402 7.38589 20.9208 7.41996C20.8821 7.48826 20.9112 7.58581 20.9724 7.64103C21.0336 7.69626 21.0239 7.62159 21.0045 7.58907C20.9853 7.55656 20.982 7.49153 21.0239 7.48499C21.0657 7.47862 21.0948 7.41669 21.0432 7.37781Z" fill="black"/>
<path fill-rule="evenodd" clip-rule="evenodd" d="M21.3453 7.4882C21.2935 7.47289 21.2422 7.52726 21.2486 7.59229C21.2534 7.64081 21.2584 7.70274 21.3065 7.73526C21.3389 7.75693 21.3614 7.77104 21.3453 7.71255C21.3292 7.65405 21.355 7.60519 21.3838 7.58902C21.4128 7.57285 21.4 7.50455 21.3453 7.4882Z" fill="black"/>
<path fill-rule="evenodd" clip-rule="evenodd" d="M21.7745 7.21199C21.7369 7.23848 21.739 7.2999 21.7745 7.32261C21.8098 7.34532 21.8614 7.37784 21.8518 7.43306C21.842 7.48829 21.871 7.5079 21.8969 7.44614C21.9226 7.38437 21.9258 7.29336 21.8969 7.25104C21.8677 7.20872 21.8065 7.18928 21.7745 7.21199Z" fill="black"/>
<path d="M20.3689 3.07715C20.6325 2.97814 20.739 2.97118 20.7917 3.10254C20.8148 3.10255 20.827 3.10411 20.8953 3.11523C20.9342 3.12157 20.9591 3.12521 20.9851 3.12695C20.9934 3.12752 20.994 3.12741 21.0017 3.12793C21.0633 3.13209 21.0896 3.13781 21.1208 3.1582C21.1346 3.1672 21.1483 3.17935 21.1619 3.19434C21.2186 3.25701 21.2418 3.35846 21.2175 3.44727L21.2 3.45312C21.0736 3.34049 20.9766 3.32724 20.8396 3.39648C20.862 3.44607 20.9265 3.47606 21.0134 3.47363C21.041 3.47301 21.0578 3.47994 21.0779 3.5127C21.0567 3.52821 21.017 3.53494 20.9666 3.53809C20.8743 3.54408 20.7932 3.61526 20.7087 3.74316C20.6326 3.8582 20.6595 3.94299 20.8406 4.04492C21.0203 4.14624 21.0569 4.3233 21.0291 4.65527C21.0087 4.8964 21.0387 5.08225 21.113 5.14844C21.2359 5.25809 21.3148 5.44779 21.3718 5.68555C21.4045 5.82164 21.5032 5.98569 21.615 6.09375C21.6413 6.11917 21.6605 6.14556 21.6755 6.1748C21.6841 6.19148 21.6908 6.20643 21.7009 6.2334C21.7363 6.32746 21.7602 6.36903 21.8328 6.43555C21.8725 6.47209 21.8804 6.50253 21.8562 6.52246C21.8399 6.53561 21.8099 6.54198 21.7771 6.54199C21.769 6.54205 21.7688 6.54182 21.7595 6.54199C21.6815 6.54343 21.6307 6.53659 21.573 6.50781C21.5641 6.50338 21.5561 6.49757 21.5476 6.49219C21.5494 6.51148 21.5526 6.53837 21.5535 6.54883C21.5556 6.57275 21.557 6.59403 21.5583 6.61426C21.5618 6.66538 21.5623 6.70632 21.5603 6.73633C21.5596 6.7477 21.5588 6.75783 21.5564 6.77344C21.5519 6.80194 21.5507 6.80992 21.5515 6.82227C21.5536 6.853 21.5725 6.88058 21.6199 6.91699C21.744 7.01247 21.8271 7.11159 21.8406 7.19727C21.8556 7.29357 21.795 7.33972 21.7058 7.31152C21.6514 7.29422 21.6239 7.25798 21.5916 7.18066C21.5876 7.1711 21.5694 7.12766 21.5642 7.11523C21.5484 7.07749 21.5339 7.06569 21.5212 7.06934C21.5105 7.07266 21.4986 7.08615 21.4871 7.10645C21.4672 7.14189 21.455 7.22984 21.4636 7.30469C21.4783 7.43111 21.4762 7.48557 21.4382 7.54102C21.3898 7.61195 21.2713 7.60537 21.2546 7.52734C21.2471 7.49132 21.2509 7.44382 21.2644 7.38086C21.2681 7.36355 21.2725 7.34524 21.2781 7.32324C21.2797 7.31696 21.291 7.27553 21.2937 7.26465C21.3011 7.23461 21.2985 7.21812 21.2966 7.21777C21.2933 7.21787 21.2825 7.23161 21.2751 7.25586C21.2534 7.32661 21.1951 7.39526 21.1111 7.44238C21.0223 7.49214 20.9705 7.44135 20.9646 7.32617C20.9601 7.23441 21.0619 7.11862 21.2683 6.95215C21.3084 6.91975 21.3353 6.88602 21.3513 6.85156C21.38 6.78937 21.3753 6.74128 21.3435 6.61914C21.3366 6.59273 21.3333 6.57577 21.3298 6.55957C21.2067 6.6234 20.9479 6.61747 20.8699 6.5498C20.8648 6.57616 20.8549 6.608 20.8298 6.66797C20.8148 6.70392 20.8081 6.72062 20.8015 6.73926C20.7872 6.77998 20.7901 6.80176 20.8044 6.80762C20.8199 6.81394 20.8505 6.80607 20.8875 6.78516C20.9672 6.73993 21.0473 6.79867 21.0535 6.89062C21.0582 6.96697 20.9688 7.00543 20.8992 6.98438C20.8633 6.97375 20.8471 6.98861 20.8259 7.04199C20.8089 7.08528 20.8198 7.15619 20.865 7.30273C20.9153 7.46628 20.8576 7.61439 20.7263 7.58496C20.646 7.56695 20.6253 7.50306 20.6365 7.3916C20.6379 7.37779 20.6395 7.36437 20.6423 7.34375C20.6485 7.29883 20.6493 7.2885 20.6501 7.27148C20.6507 7.2599 20.6494 7.25011 20.6492 7.24219C20.6458 7.25117 20.6405 7.26198 20.6375 7.27441C20.6127 7.37458 20.5246 7.50961 20.4392 7.55957C20.3477 7.61284 20.2721 7.57059 20.2781 7.48535C20.2805 7.45402 20.3034 7.41414 20.3494 7.34961C20.3557 7.34081 20.3557 7.34078 20.3621 7.33203C20.4201 7.25173 20.4298 7.23687 20.4382 7.21484C20.4595 7.15962 20.4564 7.15333 20.4177 7.16504C20.3741 7.17823 20.3138 7.21895 20.2576 7.27051C20.1621 7.35805 20.0606 7.39255 20.0095 7.32227C19.9691 7.26663 19.9859 7.21135 20.0535 7.15918C20.113 7.11324 20.2137 7.06711 20.3582 7.01758C20.5868 6.9393 20.6043 6.86423 20.5574 6.4834C20.4993 6.498 20.4397 6.50278 20.3845 6.48535C20.4082 6.33625 20.3898 6.21622 20.3191 5.94238C20.2468 5.66236 20.2278 5.53608 20.2566 5.38672C20.2491 5.37669 20.2426 5.36688 20.2361 5.35547C20.2337 5.35133 20.2251 5.33564 20.2224 5.33105C20.2152 5.3187 20.2088 5.31134 20.2009 5.30664C20.1323 5.26474 19.9854 5.1176 19.9792 5.08008C19.974 5.04288 19.9423 4.98852 19.9011 4.95508C19.8525 4.91579 19.8207 4.85137 19.8103 4.77734C19.8021 4.71975 19.7893 4.7012 19.7214 4.63281C19.65 4.56073 19.6258 4.43062 19.6697 4.26758C19.6399 4.16973 19.6429 4.07504 19.6707 3.78125C19.6723 3.76382 19.6727 3.75213 19.6736 3.74219C19.6705 3.74327 19.6673 3.74536 19.6628 3.74609C19.6568 3.74701 19.6566 3.74699 19.6482 3.74805L19.6375 3.73145C19.6438 3.72157 19.6495 3.71174 19.655 3.70117C19.6596 3.69227 19.6593 3.69193 19.6638 3.68262C19.6657 3.6786 19.6823 3.6447 19.6882 3.63281C19.6993 3.61051 19.7114 3.58858 19.7263 3.56348C19.8398 3.37217 20.0907 3.18152 20.3689 3.07715ZM20.782 3.11816C20.7267 2.99638 20.6293 3.00279 20.3767 3.09766C20.1027 3.20042 19.8547 3.38749 19.7439 3.57422C19.7293 3.5988 19.7176 3.62079 19.7068 3.64258C19.7004 3.6556 19.6826 3.69388 19.6833 3.69238C19.6788 3.70175 19.6783 3.70165 19.6736 3.71094C19.6714 3.71511 19.668 3.71868 19.6658 3.72266C19.6667 3.72237 19.6679 3.72302 19.6687 3.72266C19.6709 3.72166 19.6732 3.71989 19.6814 3.71484L19.697 3.72559C19.6955 3.74255 19.6948 3.75477 19.6921 3.7832C19.6648 4.07317 19.6616 4.16693 19.6902 4.2666C19.648 4.42889 19.6705 4.55098 19.7361 4.61719C19.8074 4.68896 19.8217 4.71092 19.8308 4.77441C19.8405 4.84341 19.8698 4.90291 19.9138 4.93848C19.9593 4.97525 19.9938 5.03433 19.9998 5.07715C20.0048 5.10637 20.1495 5.24967 20.2126 5.28809C20.224 5.29492 20.2321 5.30426 20.241 5.31934C20.2434 5.32354 20.2523 5.34063 20.2546 5.34473C20.2607 5.35533 20.2663 5.36459 20.2751 5.38184C20.2491 5.53546 20.268 5.66031 20.3396 5.9375C20.411 6.21409 20.43 6.3359 20.3962 6.47656C20.4393 6.48132 20.4963 6.47596 20.5652 6.4707C20.6269 6.87005 20.6072 6.95517 20.365 7.03809C20.2226 7.08689 20.1244 7.13263 20.0671 7.17676C20.0078 7.22257 19.9945 7.26469 20.0271 7.30957C20.0672 7.36469 20.1559 7.33381 20.2429 7.25391C20.3014 7.20038 20.3646 7.15883 20.4119 7.14453C20.4707 7.12685 20.4852 7.15257 20.4587 7.22168C20.4492 7.24665 20.4401 7.26106 20.3796 7.34473C20.3733 7.35351 20.3732 7.3535 20.3669 7.3623C20.3234 7.42343 20.3014 7.46157 20.2996 7.4873C20.2949 7.55457 20.3513 7.58594 20.4285 7.54102C20.5083 7.49427 20.5934 7.36443 20.6169 7.26953C20.6251 7.23654 20.635 7.21101 20.6453 7.2041C20.6578 7.19575 20.6677 7.2057 20.6707 7.2207C20.6727 7.23141 20.6728 7.24855 20.6716 7.27246C20.6707 7.29041 20.6691 7.30082 20.6628 7.34668C20.6601 7.367 20.6593 7.3801 20.658 7.39355C20.6477 7.4955 20.665 7.54864 20.7312 7.56348C20.8406 7.58791 20.8906 7.45986 20.8445 7.30957C20.7978 7.15827 20.7859 7.08389 20.8054 7.03418C20.8303 6.97148 20.8562 6.94893 20.906 6.96387C20.9633 6.98104 21.0354 6.95022 21.032 6.89258C21.027 6.81479 20.9627 6.7671 20.8982 6.80371C20.856 6.82766 20.82 6.83663 20.7966 6.82715C20.7686 6.81572 20.7635 6.7824 20.781 6.73242L20.8103 6.66016C20.8403 6.58839 20.8507 6.55833 20.8533 6.53027L20.8728 6.52539C20.9229 6.59765 21.2157 6.60637 21.3318 6.53613L21.3484 6.54395C21.3523 6.56375 21.3566 6.58193 21.365 6.61426C21.3979 6.7411 21.4026 6.79285 21.3708 6.86133C21.3534 6.89891 21.3235 6.93441 21.281 6.96875C21.081 7.13004 20.9821 7.24373 20.9861 7.3252C20.9913 7.42664 21.0288 7.46387 21.1003 7.42383C21.1799 7.37927 21.2347 7.31435 21.2546 7.24902C21.2651 7.21497 21.2825 7.1931 21.3005 7.19629C21.3206 7.20007 21.3244 7.22832 21.3142 7.26953C21.3115 7.28048 21.3012 7.32165 21.2996 7.32812C21.294 7.34996 21.2896 7.36773 21.2859 7.38477C21.2729 7.44537 21.2683 7.4911 21.2751 7.52344C21.2875 7.58087 21.3819 7.58606 21.4207 7.5293C21.4377 7.50445 21.4469 7.47929 21.45 7.44531L21.4431 7.30762C21.434 7.22859 21.4461 7.13569 21.4685 7.0957C21.4828 7.07058 21.4975 7.05305 21.5154 7.04785C21.5413 7.04037 21.5643 7.06083 21.5837 7.10742C21.5892 7.12044 21.6073 7.16377 21.6111 7.17285C21.6412 7.24487 21.6656 7.27616 21.7126 7.29102C21.7873 7.31461 21.8325 7.28001 21.8201 7.2002C21.8076 7.12169 21.7261 7.02682 21.6062 6.93457C21.5544 6.89479 21.5327 6.86187 21.53 6.82422C21.529 6.80942 21.5301 6.80015 21.5349 6.76953C21.5372 6.75489 21.5391 6.74571 21.5398 6.73535C21.5417 6.70658 21.5402 6.66632 21.5369 6.61621C21.5355 6.59613 21.5341 6.57459 21.532 6.55078C21.5306 6.53532 21.526 6.48367 21.5251 6.47363L21.5417 6.46387C21.5548 6.47359 21.5686 6.48219 21.5828 6.48926C21.6365 6.51601 21.6839 6.52187 21.7585 6.52051C21.7682 6.52032 21.7685 6.52057 21.7771 6.52051C21.8053 6.52049 21.8311 6.51506 21.8425 6.50586C21.854 6.49639 21.8498 6.48023 21.8181 6.45117C21.7427 6.38196 21.7169 6.33816 21.6804 6.24121C21.6706 6.21501 21.6651 6.20028 21.657 6.18457C21.643 6.15738 21.625 6.13313 21.6003 6.10938C21.4856 5.99855 21.385 5.83075 21.3513 5.69043C21.2952 5.45654 21.2171 5.2698 21.0984 5.16406C21.0173 5.09174 20.9867 4.90085 21.0076 4.65332C21.0347 4.32914 20.9997 4.15911 20.8298 4.06348C20.6385 3.95574 20.6078 3.85749 20.6912 3.73145C20.779 3.59847 20.8637 3.52322 20.9646 3.5166C21.0105 3.51376 21.0489 3.50757 21.0652 3.5127C21.0484 3.49975 21.036 3.4947 21.0144 3.49512C20.9197 3.49778 20.8471 3.46401 20.825 3.3916C20.9691 3.30709 21.0724 3.31859 21.199 3.42578C21.2149 3.34797 21.1946 3.26258 21.1462 3.20898C21.1338 3.1953 21.1213 3.18471 21.1091 3.17676C21.0818 3.15887 21.059 3.15335 21.0007 3.14941C20.9927 3.14887 20.9925 3.14901 20.9841 3.14844C20.9571 3.14664 20.9312 3.14321 20.8914 3.13672C20.8249 3.12589 20.813 3.1244 20.782 3.11816ZM19.6599 3.72461C19.6542 3.72547 19.6539 3.72547 19.6453 3.72656L19.655 3.74316C19.6593 3.73656 19.662 3.72935 19.6658 3.72266C19.6642 3.72313 19.6625 3.72417 19.6599 3.72461ZM21.197 3.44238L21.2136 3.43652C21.209 3.43244 21.2035 3.42962 21.199 3.42578C21.1979 3.43113 21.1985 3.43712 21.197 3.44238Z" fill="black"/>
<path d="M15.5859 2.70142C15.6877 2.8042 15.9217 2.96912 16.2842 3.18188C16.5089 3.31375 16.6807 3.37459 16.9062 3.41626L17.2402 3.47485C17.1876 3.39901 17.1347 3.30012 17.1289 3.26685L17.1406 3.25415C17.2533 3.27039 17.3613 3.3206 17.6328 3.4895C17.7636 3.57094 17.9235 3.61895 18.3115 3.70923C18.3203 3.71127 18.3206 3.71117 18.3291 3.71313C18.6424 3.78603 18.7825 3.8248 18.917 3.88403C18.9871 3.91485 19.0694 3.93431 19.167 3.94556C19.2329 3.95314 19.2807 3.95595 19.4014 3.96021C19.5666 3.96604 19.6272 3.97347 19.6689 4.0022L19.6729 4.01099C19.6671 4.12127 19.6721 4.20095 19.6904 4.26685C19.6483 4.42912 19.6708 4.55124 19.7363 4.61743C19.8076 4.68913 19.822 4.71113 19.8311 4.77466C19.8408 4.84348 19.8702 4.90216 19.9141 4.93774C19.9594 4.97439 19.9938 5.03363 20 5.07642C20.004 5.10488 20.1495 5.24977 20.2129 5.28833C20.2241 5.29512 20.2315 5.30474 20.2402 5.31958C20.2427 5.32382 20.2526 5.34105 20.2549 5.34497C20.261 5.35558 20.2666 5.36476 20.2754 5.38208C20.2528 5.51456 20.267 5.6472 20.3105 5.84985C20.149 5.98511 19.975 6.03722 19.8516 5.99829C19.7383 5.96249 19.6949 5.85846 19.7441 5.72876C19.6122 5.82326 19.4368 5.87997 19.2881 5.87915C19.1353 5.87828 19.051 5.81772 19.0869 5.71704C18.7166 5.84198 18.5138 5.77224 18.5674 5.59985C18.2597 5.71593 18.0073 5.63674 18.0527 5.49927C17.7905 5.56743 17.562 5.54516 17.5166 5.47192C17.4881 5.42504 17.5352 5.33029 17.6045 5.26001C17.4872 5.29564 17.3688 5.30271 17.2344 5.28247C17.1724 5.27303 17.1412 5.25842 17.1328 5.23364C17.1265 5.21465 17.1287 5.2083 17.1523 5.15649C17.1536 5.15366 17.154 5.15357 17.1553 5.15063C17.1553 5.15064 17.1704 5.11453 17.1758 5.10278C17.1851 5.08231 17.1947 5.06427 17.2051 5.04614C17.2293 5.00381 17.2587 4.96485 17.2959 4.92798C16.9932 4.98487 16.7349 4.99396 16.5508 4.93188C16.5457 4.93019 16.5279 4.92458 16.5234 4.9231C16.498 4.91465 16.4826 4.90716 16.4727 4.89673C16.4576 4.881 16.4598 4.86195 16.4795 4.84204C16.5393 4.78175 16.646 4.7036 16.7588 4.64673C16.2331 4.71692 15.7285 4.68966 15.5703 4.51001L15.5811 4.49243C15.7277 4.52263 15.9155 4.48347 16.1191 4.40454C15.4518 4.31496 14.7124 3.88202 14.7031 3.50415L14.7227 3.49829C14.8577 3.71765 15.0391 3.8193 15.4092 3.93384C15.0891 3.72582 14.9031 3.46969 14.8867 3.2561L14.9053 3.24731C15.1689 3.50241 15.4832 3.69987 15.7715 3.76685C15.533 3.61176 15.2499 3.26211 15.168 3.01001L15.1846 2.99829C15.3666 3.16203 15.7893 3.39236 16.082 3.48267C15.8157 3.25884 15.5522 2.89817 15.5684 2.70825L15.5859 2.70142ZM15.5918 2.73462C15.6001 2.93163 15.8738 3.29383 16.1367 3.50024L16.127 3.5188C15.846 3.44457 15.4132 3.21369 15.2031 3.04028C15.1982 3.02753 15.1925 3.01547 15.1885 3.00317L15.1709 3.01392C15.1807 3.02273 15.192 3.03113 15.2031 3.04028C15.3052 3.30364 15.603 3.65738 15.835 3.78149L15.8281 3.802C15.5268 3.75106 15.1936 3.54885 14.9131 3.28345C14.9116 3.27352 14.9089 3.26388 14.9082 3.25415L14.8906 3.26294C14.8979 3.26999 14.9057 3.27648 14.9131 3.28345C14.9451 3.4996 15.1492 3.75966 15.4932 3.96216L15.4844 3.98169C15.0766 3.86221 14.8766 3.76087 14.7305 3.54614C14.728 3.53175 14.7249 3.51739 14.7246 3.50317L14.7051 3.50903C14.713 3.52193 14.7222 3.534 14.7305 3.54614C14.7932 3.90797 15.5217 4.31771 16.165 4.38989L16.168 4.4104C15.9596 4.49572 15.7649 4.53792 15.6084 4.51587C15.601 4.50926 15.5932 4.50343 15.5869 4.49634L15.5771 4.51392C15.5872 4.51599 15.598 4.5144 15.6084 4.51587C15.7879 4.67574 16.3011 4.69615 16.8193 4.61938L16.8252 4.63989C16.6951 4.69561 16.5633 4.78812 16.4951 4.85669C16.4829 4.86898 16.482 4.87556 16.4883 4.88208C16.4951 4.88916 16.5089 4.89616 16.5312 4.90356C16.5365 4.90528 16.5542 4.91089 16.5586 4.91235C16.745 4.9751 17.0126 4.96358 17.3262 4.90161L17.335 4.92017C17.3285 4.92593 17.3283 4.92626 17.3223 4.93188C17.2501 4.99959 17.2295 5.0359 17.1748 5.15942C17.1735 5.16243 17.1733 5.16303 17.1719 5.16626C17.1521 5.20976 17.1497 5.21592 17.1533 5.22681C17.1582 5.24127 17.1829 5.25267 17.2373 5.26099C17.3838 5.28308 17.512 5.27518 17.6387 5.22876L17.6484 5.24731C17.5706 5.31153 17.5101 5.42057 17.5352 5.46118C17.5751 5.52503 17.8038 5.54703 18.0645 5.47583L18.0771 5.49048C18.0157 5.61438 18.2642 5.69905 18.5781 5.57349L18.5928 5.58813C18.5261 5.75297 18.7178 5.82499 19.1006 5.69067L19.1143 5.70532C19.0676 5.79943 19.1393 5.85684 19.2891 5.85767C19.4438 5.85842 19.6306 5.79688 19.7607 5.69263L19.7773 5.70532C19.7127 5.83874 19.7491 5.94321 19.8584 5.97778C19.974 6.01421 20.1411 5.96498 20.2939 5.84497C20.2461 5.65021 20.2316 5.51486 20.2568 5.38696C20.2493 5.37694 20.2428 5.36712 20.2363 5.35571C20.2339 5.35141 20.2249 5.33421 20.2227 5.33032C20.2156 5.31829 20.2098 5.31154 20.2021 5.30688C20.1338 5.26529 19.9858 5.118 19.9795 5.08032C19.9743 5.04311 19.9426 4.98876 19.9014 4.95532C19.8527 4.91603 19.821 4.85162 19.8105 4.77759C19.8023 4.71982 19.79 4.70088 19.7217 4.63208C19.6503 4.55991 19.6258 4.43008 19.6699 4.26685C19.6513 4.20518 19.647 4.12569 19.6523 4.01685C19.6539 4.01779 19.6558 4.01877 19.6572 4.01978L19.6523 4.01001C19.6522 4.01224 19.6525 4.01463 19.6523 4.01685C19.6153 3.99395 19.5544 3.98709 19.4014 3.98169C19.2797 3.97739 19.231 3.97475 19.1641 3.96704C19.0645 3.95554 18.9805 3.93542 18.9082 3.90356C18.7754 3.84512 18.6369 3.80715 18.3252 3.73462C18.3163 3.73256 18.3163 3.73175 18.3076 3.72974C17.9171 3.63886 17.7557 3.59119 17.6221 3.50806C17.3688 3.35054 17.2599 3.29834 17.1572 3.27954C17.1546 3.27245 17.1511 3.26727 17.1504 3.26294L17.1377 3.27563C17.1442 3.27657 17.1508 3.27836 17.1572 3.27954C17.1739 3.3245 17.2244 3.41985 17.2725 3.48462L17.2617 3.50122C17.1901 3.48596 17.1522 3.47885 17.0146 3.4563C16.9659 3.44831 16.9344 3.44367 16.9023 3.43774C16.6746 3.39564 16.5013 3.33356 16.2744 3.20044C15.9315 2.99916 15.7036 2.83969 15.5918 2.73462ZM15.5713 2.71704C15.5773 2.7231 15.5849 2.72815 15.5918 2.73462C15.5914 2.72613 15.5892 2.71806 15.5898 2.71021L15.5713 2.71704Z" fill="black"/>
<path d="M26.3025 2.86426C26.3298 2.97517 26.2903 3.10111 26.1941 3.24121C26.1094 3.36452 25.984 3.49482 25.8201 3.6377C25.7471 3.70128 25.6951 3.74188 25.5857 3.8291C25.5976 3.82361 25.6107 3.81844 25.6238 3.8125C25.6562 3.7978 25.7674 3.74784 25.7712 3.74609C26.1095 3.59375 26.2728 3.49571 26.3669 3.36133L26.3865 3.36719C26.3837 3.59798 26.1224 3.89876 25.78 4.12012L25.783 4.11914C25.823 4.10393 25.8536 4.09163 25.8835 4.08008C26.2539 3.93714 26.4694 3.82895 26.6199 3.69043L26.6375 3.69727C26.6591 3.92613 25.8655 4.46236 25.2585 4.70898C25.8403 4.56281 26.1828 4.45723 26.3767 4.33984L26.3923 4.35156C26.3854 4.38026 26.3587 4.41409 26.3132 4.4541C26.2957 4.46953 26.2751 4.48495 26.2517 4.50293C26.2354 4.51549 26.2226 4.52581 26.1941 4.54688C25.9285 4.74306 25.5294 4.87993 25.1042 4.95117C25.1457 5.12563 25.0824 5.2175 24.9011 5.23047C24.6965 5.24513 24.2633 5.16412 24.071 5.06152C24.0452 5.07709 24.0162 5.08393 23.9734 5.08984C24.1703 5.24222 24.2492 5.35983 24.2009 5.43555C24.1612 5.4975 24.0438 5.50325 23.8933 5.47363C23.9294 5.59135 23.8847 5.66002 23.7761 5.6709C23.6862 5.67978 23.5612 5.64599 23.4412 5.58398C23.5295 5.7152 23.5181 5.81259 23.3875 5.83984C23.2389 5.87084 23.1304 5.85415 23.0056 5.77637C22.9898 5.86235 22.9147 5.91525 22.8171 5.9082C23.1523 6.11708 23.2049 6.21911 23.1091 6.34766C23.0375 6.44411 22.7915 6.4353 22.6433 6.3457C22.5804 6.53196 22.362 6.54579 22.1833 6.39062C22.1627 6.50134 21.9816 6.60493 21.8435 6.52344L21.8416 6.50586C21.8532 6.49654 21.8499 6.48023 21.8181 6.45117C21.7427 6.38196 21.7169 6.33816 21.6804 6.24121C21.6705 6.21485 21.6642 6.20041 21.656 6.18457C21.6421 6.15753 21.6248 6.13398 21.6003 6.11035C21.4854 5.99945 21.3839 5.83091 21.3503 5.69043C21.2942 5.4566 21.2171 5.2698 21.0984 5.16406C21.0172 5.09177 20.9866 4.90105 21.0076 4.65332C21.0304 4.38092 21.01 4.22874 20.9041 4.12109L20.9089 4.10254C21.1713 4.02838 21.3834 4.02327 21.45 4.09766C21.7949 4.00959 22.0894 3.97134 22.5427 3.94141C23.0483 3.9077 23.7435 3.6988 24.199 3.39062L24.2156 3.40234C24.1866 3.51928 24.0361 3.68915 23.8826 3.79688C24.4946 3.64173 25.0772 3.38791 25.5515 3.0332L25.5691 3.04199C25.5642 3.25758 25.4511 3.42566 25.2498 3.61133C25.3484 3.55756 25.5167 3.46633 25.5798 3.43066C25.9497 3.22151 26.1748 3.04949 26.283 2.86133L26.3025 2.86426ZM26.2839 2.89746C26.168 3.07968 25.9466 3.2479 25.5906 3.44922C25.5051 3.49757 25.2261 3.64838 25.1892 3.66895L25.1775 3.65137C25.4054 3.45414 25.5321 3.28148 25.5447 3.06348C25.5509 3.05887 25.558 3.05542 25.5642 3.05078L25.5476 3.04199C25.5474 3.04922 25.5451 3.05634 25.5447 3.06348C25.0573 3.42315 24.46 3.68067 23.8337 3.83301L23.8259 3.81348C23.9786 3.72103 24.1374 3.54728 24.1843 3.4248C24.1931 3.41903 24.203 3.41502 24.2117 3.40918L24.1951 3.39746C24.1928 3.40644 24.188 3.41513 24.1843 3.4248C23.7253 3.72578 23.0432 3.92964 22.5437 3.96289C22.0917 3.99275 21.7987 4.0314 21.4451 4.11621C21.3776 4.04809 21.179 4.05137 20.9314 4.11914C20.9275 4.11475 20.9239 4.10973 20.9197 4.10547L20.9148 4.12402C20.9204 4.12245 20.9259 4.12065 20.9314 4.11914C21.0175 4.21496 21.0418 4.34137 21.0339 4.54199L21.0164 4.5459L21.0134 4.56641C21.0156 4.56759 21.0181 4.56818 21.0203 4.56934V4.57129L21.0232 4.57031C21.026 4.57181 21.0291 4.57277 21.032 4.57422C21.0306 4.59999 21.0314 4.6271 21.0291 4.65527C21.0087 4.89636 21.0378 5.08207 21.1121 5.14844C21.2351 5.25803 21.3147 5.44755 21.3718 5.68555C21.4044 5.82185 21.5029 5.9866 21.615 6.09473C21.6413 6.12013 21.6605 6.14557 21.6755 6.1748C21.6842 6.1916 21.6907 6.20717 21.7009 6.23438C21.7362 6.32815 21.7604 6.36914 21.8328 6.43555C21.8647 6.46475 21.8742 6.48963 21.865 6.50879C21.8617 6.50712 21.8574 6.50677 21.8542 6.50488L21.8552 6.52344C21.8603 6.5194 21.8626 6.51369 21.865 6.50879C21.995 6.57548 22.1644 6.4715 22.1667 6.37305L22.1853 6.36523C22.3594 6.52561 22.5753 6.51207 22.6287 6.32812L22.6453 6.32227C22.7837 6.41196 23.0262 6.42207 23.0916 6.33496C23.181 6.21484 23.1286 6.12058 22.7664 5.90039L22.7751 5.88086C22.8881 5.91031 22.9787 5.85461 22.988 5.75977L23.0046 5.75195C23.1295 5.83313 23.2355 5.84928 23.3835 5.81836C23.5048 5.79299 23.5069 5.69987 23.4011 5.5625L23.4148 5.54688C23.5418 5.6195 23.6801 5.65868 23.7742 5.64941C23.8734 5.63948 23.9113 5.5788 23.8708 5.46484L23.8826 5.45117C24.0311 5.48227 24.1496 5.47692 24.1833 5.42383C24.224 5.36 24.1453 5.24408 23.9441 5.0918L23.95 5.07227C24.0022 5.06647 24.0332 5.05934 24.0701 5.04297C24.2691 5.14353 24.6993 5.2235 24.9001 5.20898C25.0681 5.19697 25.1228 5.11752 25.0925 4.94238C25.5231 4.85864 25.9191 4.72309 26.1814 4.5293C26.2098 4.50836 26.2229 4.49874 26.239 4.48633C26.262 4.46867 26.2815 4.45253 26.2986 4.4375C26.3244 4.41481 26.3427 4.39355 26.3552 4.37598C26.3664 4.36974 26.378 4.36469 26.3884 4.3584L26.3718 4.34668C26.3697 4.35563 26.3632 4.36475 26.3552 4.37598C26.134 4.49898 25.7489 4.61416 25.0906 4.77539L25.0847 4.75488C25.6716 4.56187 26.577 3.97343 26.613 3.72266C26.6197 3.71683 26.6281 3.71297 26.6345 3.70703L26.6169 3.7002C26.6176 3.70746 26.6142 3.71469 26.613 3.72266C26.461 3.85511 26.2484 3.9628 25.8914 4.10059L25.6902 4.17676L25.6814 4.15723C26.0431 3.94673 26.3306 3.63723 26.3591 3.40039C26.367 3.39067 26.3774 3.38316 26.3845 3.37305L26.365 3.36719C26.3649 3.37824 26.3605 3.38899 26.3591 3.40039C26.2593 3.52436 26.0975 3.62265 25.78 3.76562C25.7761 3.7674 25.6647 3.81745 25.6326 3.83203C25.5885 3.85203 25.5514 3.86926 25.5173 3.88574L25.5066 3.86719C25.665 3.74139 25.7201 3.6963 25.8064 3.62109C25.9689 3.47943 26.0931 3.35093 26.1765 3.22949C26.2615 3.10577 26.2973 2.99486 26.2839 2.89746ZM20.2595 5.51367L20.031 5.7832V5.78223L20.2585 5.51465L20.2419 5.50098H20.2429L20.2595 5.51367ZM20.2488 5.35352C20.1767 5.43977 19.957 5.60213 19.7722 5.71191L19.7605 5.69336L20.1404 5.40723C20.167 5.39309 20.1931 5.37528 20.2185 5.35254C20.1377 5.43941 19.9346 5.59054 19.7615 5.69336L19.7732 5.71094L20.2468 5.35547L20.2322 5.33984H20.2341V5.33789L20.2488 5.35352ZM19.739 5.32324C19.5903 5.44311 19.2757 5.64242 19.1052 5.70801L19.0955 5.68848L19.0964 5.6875L19.1062 5.70703L19.407 5.52441C19.4215 5.51562 19.4356 5.50605 19.45 5.49707L19.738 5.32227L19.739 5.32324ZM19.8503 5.41406L19.8445 5.41699L19.8464 5.41797C19.754 5.50858 19.5636 5.63123 19.3972 5.70312L19.6169 5.5625C19.5411 5.60969 19.4587 5.65478 19.3816 5.6875L19.3904 5.70605L19.3894 5.70703L19.3796 5.68848L19.821 5.40625C19.8219 5.40672 19.8231 5.40677 19.824 5.40723C19.8279 5.40345 19.833 5.40112 19.8367 5.39746L19.8503 5.41406ZM19.7312 5.30176C19.5874 5.41922 19.2694 5.61912 19.0984 5.68555L19.7312 5.30176ZM19.7351 5.16211C19.7154 5.17684 19.697 5.19178 19.6785 5.20508C19.6092 5.25476 19.5482 5.29368 19.4968 5.32129C19.44 5.35193 19.3924 5.37299 19.3533 5.38867C19.1928 5.47179 18.9992 5.56314 18.8582 5.62012L18.8494 5.59961L19.2468 5.41406C19.2481 5.41416 19.2494 5.41498 19.2507 5.41504C19.2849 5.39807 19.3193 5.38288 19.3513 5.36621C19.3878 5.3512 19.4333 5.33173 19.4871 5.30273C19.5374 5.27564 19.5973 5.23662 19.6658 5.1875C19.6897 5.17037 19.715 5.15238 19.741 5.13281C19.7428 5.13144 19.744 5.12931 19.7458 5.12793C19.7415 5.1396 19.7382 5.15106 19.7351 5.16211ZM19.3464 5.3916C19.3069 5.4069 19.2765 5.41614 19.2507 5.41504C19.113 5.48346 18.9646 5.55348 18.8503 5.59961L18.8591 5.61914L19.3464 5.3916ZM19.1501 5.30469C18.9756 5.40326 18.6802 5.55497 18.5779 5.59082L18.5691 5.57129L18.5701 5.57031L18.5789 5.58984L19.1501 5.30371V5.30469ZM19.1501 5.2793C18.9871 5.37208 18.7029 5.51724 18.5867 5.5625L19.1501 5.2793ZM19.824 5.40723C19.7825 5.44667 19.7237 5.49268 19.656 5.53711L19.8445 5.41699C19.8373 5.41412 19.8306 5.41057 19.824 5.40723ZM18.5535 5.24805L18.7703 5.13867L18.7712 5.13965C18.6671 5.20716 18.5988 5.25076 18.5115 5.30078C18.4505 5.33572 18.3915 5.36746 18.3357 5.39453C18.234 5.44389 18.1442 5.4774 18.0691 5.49316L18.0623 5.47363L18.7546 5.12402C18.6755 5.1753 18.6161 5.21096 18.5535 5.24805ZM18.0642 5.47266L18.071 5.49219L18.1765 5.43848C18.1359 5.45335 18.0985 5.46545 18.0642 5.47266ZM18.7781 5.30078L18.5046 5.42871C18.461 5.44384 18.4181 5.45836 18.3738 5.46777L18.3796 5.4873L18.3787 5.48828L18.3718 5.46875L18.9412 5.20117C18.9438 5.2013 18.9463 5.2011 18.949 5.20117C18.9037 5.22781 18.8286 5.27139 18.7781 5.30078ZM18.7537 5.3418C18.6259 5.41216 18.5066 5.45943 18.3826 5.48633L18.5046 5.42871C18.5825 5.40171 18.6611 5.3673 18.7429 5.32227C18.7521 5.31718 18.7638 5.30907 18.7781 5.30078L18.9919 5.20117H18.9929C18.9613 5.21839 18.8069 5.31246 18.7537 5.3418ZM20.2302 5.32227L20.2341 5.33789L20.1404 5.40723C20.0475 5.45652 19.9488 5.45667 19.8503 5.41992C19.849 5.41941 19.8478 5.41849 19.8464 5.41797C19.8483 5.41617 19.8505 5.41486 19.8523 5.41309L19.8386 5.39551L19.821 5.40625C19.7828 5.38636 19.7551 5.35876 19.739 5.32324C19.7426 5.32036 19.7474 5.31822 19.7507 5.31543L19.738 5.29883H19.7361L19.7488 5.31641L19.738 5.32227C19.7191 5.27961 19.7171 5.22616 19.7351 5.16211C19.741 5.15772 19.7477 5.15394 19.7537 5.14941C19.7571 5.1468 19.7599 5.14327 19.7634 5.14062L19.7644 5.1416V5.13965C19.7705 5.13505 19.7768 5.13069 19.783 5.12598L20.2302 5.32227ZM18.1765 5.43848C18.2225 5.42165 18.2727 5.40085 18.3259 5.375C18.3812 5.34817 18.4392 5.31692 18.4998 5.28223C18.5188 5.27133 18.5356 5.2586 18.5535 5.24805L18.1765 5.43848ZM19.7644 5.1416C19.7164 5.27731 19.7562 5.36163 19.8582 5.39941C19.9785 5.44434 20.0969 5.43148 20.2048 5.33398L20.2224 5.3418L20.2185 5.32422C20.2145 5.32815 20.2089 5.3303 20.2048 5.33398L19.7644 5.1416ZM19.241 5.12988C19.1615 5.2446 19.1494 5.30429 19.196 5.36426C19.2232 5.39903 19.2628 5.40066 19.3376 5.37207C19.3344 5.37374 19.3311 5.37528 19.3279 5.37695L19.2468 5.41406C19.2189 5.41189 19.1974 5.40079 19.1794 5.37793C19.1611 5.35441 19.1528 5.33023 19.1501 5.30469C19.1547 5.30214 19.1595 5.30033 19.1638 5.29785L19.1531 5.27832L19.1628 5.29785L19.1501 5.30371C19.146 5.26015 19.1627 5.21112 19.2048 5.14551C19.2168 5.14056 19.2288 5.13545 19.241 5.12988ZM18.7185 4.98535L18.7078 4.99023V4.99121C18.3947 5.17872 18.1874 5.28387 17.9578 5.34277L17.9509 5.32227L18.7078 4.9668H18.7087L18.7185 4.98535ZM17.9529 5.32129L17.9597 5.3418L18.1072 5.27246C18.0557 5.29106 18.005 5.30791 17.9529 5.32129ZM18.4363 4.88281C18.3311 4.93972 18.2158 4.99742 18.1033 5.04883L18.4714 4.88672C18.1913 5.04071 17.8284 5.20226 17.6443 5.25L17.6375 5.22949L18.4294 4.88281C18.4317 4.88309 18.434 4.88255 18.4363 4.88281ZM17.9724 5.10645C17.8407 5.16249 17.7218 5.20714 17.6394 5.22852L17.6462 5.24902L17.9724 5.10645ZM19.3728 5.24316L19.3591 5.22656L19.3601 5.22559L19.3738 5.24219C19.4076 5.20809 19.4986 5.13466 19.5974 5.05957L19.614 5.05664L19.3728 5.24316ZM19.363 5.22266C19.3959 5.1907 19.469 5.13185 19.5515 5.06836L19.5691 5.06445L19.363 5.22266ZM18.7664 4.85352C18.6788 5.01099 18.7376 5.1579 18.9177 5.17969C19.0036 5.19003 19.1099 5.16547 19.2253 5.11328C19.2177 5.12426 19.2114 5.13534 19.2048 5.14551C19.1289 5.17698 19.0576 5.19627 18.9929 5.20117L18.9949 5.2002L18.9851 5.18066H18.9841L18.9939 5.2002L18.9919 5.20117C18.9772 5.20226 18.9629 5.20156 18.949 5.20117C18.9626 5.19316 18.9733 5.18643 18.9802 5.18262L18.9412 5.20117C18.9327 5.20076 18.9239 5.20215 18.9158 5.20117C18.8539 5.19366 18.8062 5.17083 18.7712 5.13965C18.7733 5.13833 18.776 5.13806 18.7781 5.13672L18.7673 5.11816H18.7654L18.7761 5.13672L18.7703 5.13867C18.7283 5.10074 18.7074 5.05001 18.7078 4.99121C18.7115 4.98898 18.7157 4.9876 18.7195 4.98535L18.7097 4.96582L18.7078 4.9668C18.7114 4.9325 18.7228 4.89695 18.741 4.86035C18.7495 4.85856 18.7578 4.85548 18.7664 4.85352ZM19.7644 5.13965L19.7634 5.14062L19.7537 5.13672L19.7673 5.13086C19.7662 5.13378 19.7654 5.13678 19.7644 5.13965ZM19.241 5.12988C19.2416 5.12892 19.2422 5.12792 19.2429 5.12695L19.2488 5.125C19.246 5.1263 19.2437 5.12861 19.241 5.12988ZM19.2429 5.12695L19.238 5.12793L19.2449 5.12402C19.2442 5.12499 19.2436 5.126 19.2429 5.12695ZM19.7458 5.12793C19.7464 5.12639 19.7472 5.1246 19.7478 5.12305L19.7585 5.11816C19.7543 5.12142 19.7501 5.12473 19.7458 5.12793ZM19.9529 4.99414C19.9491 4.99717 19.884 5.04819 19.8621 5.06543C19.8339 5.08756 19.8077 5.10703 19.783 5.12598L19.7625 5.11719L19.7585 5.11816C19.7867 5.09673 19.816 5.0743 19.8484 5.04883C19.8601 5.03957 19.8845 5.02014 19.905 5.00391L19.948 4.99609L19.9392 4.97754C19.9368 4.97947 19.922 4.99044 19.905 5.00391L19.614 5.05664L19.6511 5.02832L19.9441 4.97559L19.9529 4.99414ZM19.5876 5.04004C19.5753 5.04938 19.5635 5.05914 19.5515 5.06836L19.2488 5.125C19.2721 5.11404 19.2962 5.10301 19.3201 5.08984L19.5876 5.04004ZM19.2253 5.11328L19.2273 5.11133L19.2341 5.10645L19.2449 5.10352C19.2382 5.10668 19.2319 5.11031 19.2253 5.11328ZM19.7947 4.7002C19.6445 4.87034 19.4774 5.0031 19.3201 5.08984L19.2449 5.10352C19.4105 5.02462 19.5924 4.88866 19.7566 4.70801L19.7878 4.7041L19.7781 4.68652C19.7714 4.69413 19.7634 4.70055 19.7566 4.70801L19.3523 4.76465C19.3665 4.75549 19.3812 4.74619 19.3962 4.73633L19.7859 4.68262L19.7947 4.7002ZM18.5027 5.08594L18.7078 4.99023C18.7078 4.98252 18.7069 4.97473 18.7078 4.9668C18.6341 5.01102 18.5662 5.05044 18.5027 5.08594ZM18.3025 4.78613L18.2957 4.78809C18.1078 4.87103 17.7773 4.98773 17.5193 5.06445L18.2957 4.78809C18.2925 4.78165 18.2893 4.77533 18.2869 4.76855C18.0963 4.85264 17.7579 4.97246 17.4988 5.04883L17.5046 5.06836V5.06934L17.4978 5.04883C17.7602 4.9715 18.1055 4.85087 18.2947 4.7666L18.3025 4.78613ZM19.5974 5.05957L19.5691 5.06445L19.6062 5.03613L19.6375 5.03027C19.6242 5.04022 19.6105 5.04961 19.5974 5.05957ZM19.6062 5.03613L19.5876 5.04004C19.6734 4.97492 19.7651 4.90948 19.8298 4.86523L19.6062 5.03613ZM19.6511 5.02832L19.6375 5.03027C19.7152 4.9719 19.7935 4.91483 19.8494 4.87695L19.6511 5.02832ZM19.5554 4.60742C19.5334 4.62211 19.4545 4.67467 19.4382 4.68555C19.4049 4.7078 19.3721 4.72603 19.3425 4.74512L19.3552 4.74316L19.6785 4.55273C19.6455 4.57348 19.6104 4.59613 19.5671 4.625C19.5452 4.63961 19.4663 4.69319 19.45 4.7041C19.432 4.7161 19.4131 4.72527 19.3962 4.73633L19.3552 4.74316L19.3074 4.77148L19.3523 4.76465C19.2013 4.86193 19.0939 4.92334 18.9783 4.9668L18.9695 4.94727L19.2537 4.77832L19.2986 4.77246C19.3128 4.76355 19.3276 4.75477 19.3425 4.74512L19.3005 4.75098L19.6697 4.5332C19.6358 4.55449 19.5999 4.57774 19.5554 4.60742ZM19.1638 4.85547C19.0959 4.89288 19.0349 4.92242 18.9714 4.94629L18.9802 4.96582L19.1638 4.85547ZM18.0779 4.5791C17.8472 4.72844 17.543 4.87044 17.3259 4.90234L17.3308 4.92188L17.3289 4.92285L17.323 4.90234L18.071 4.57812C18.0733 4.57856 18.0756 4.57868 18.0779 4.5791ZM18.1052 4.58691C17.8722 4.74046 17.5592 4.88624 17.3337 4.9209L17.4304 4.87891C17.5955 4.83592 17.7896 4.74825 17.9617 4.64941L18.1052 4.58691ZM18.741 4.86035C18.6493 4.87959 18.5609 4.88773 18.4802 4.88379L18.4919 4.87891V4.87793C18.4879 4.88018 18.4833 4.88153 18.4792 4.88379H18.4802L18.4714 4.88672C18.4739 4.88539 18.4768 4.88512 18.4792 4.88379C18.4647 4.88306 18.4503 4.88441 18.4363 4.88281C18.4496 4.8756 18.4634 4.86949 18.4763 4.8623C18.5609 4.86716 18.6545 4.85741 18.7517 4.83594C18.7472 4.84376 18.7448 4.85256 18.741 4.86035ZM18.3191 4.59668L18.324 4.5957C18.266 4.68728 18.2973 4.84411 18.4324 4.86133C18.4463 4.86309 18.4608 4.86145 18.4753 4.8623L18.4294 4.88281H18.4285C18.3622 4.87428 18.3192 4.83614 18.2957 4.78809C18.298 4.78705 18.3012 4.78715 18.3035 4.78613L18.2947 4.76562L18.2869 4.76855C18.2667 4.71191 18.2718 4.64539 18.3005 4.59375C18.3087 4.59336 18.3168 4.59335 18.325 4.59277L18.3191 4.59668ZM19.8562 4.87207H19.8542L19.8425 4.85547H19.8435L19.8562 4.87207ZM18.7664 4.85352C18.7673 4.85186 18.7683 4.85029 18.7693 4.84863L18.824 4.84082C18.8048 4.846 18.7854 4.84915 18.7664 4.85352ZM18.7693 4.84863L18.7634 4.84961L18.7712 4.84473C18.7705 4.84595 18.77 4.84741 18.7693 4.84863ZM19.2537 4.77832L18.824 4.84082C18.8651 4.8297 18.9061 4.81629 18.947 4.80176L19.3005 4.75098L19.2537 4.77832ZM18.7517 4.83594L18.7537 4.83398L18.7615 4.8291L18.8191 4.82031C18.7966 4.8264 18.774 4.83101 18.7517 4.83594ZM19.2986 4.77246C19.2625 4.79518 19.23 4.81751 19.198 4.83594L19.3074 4.77148L19.2986 4.77246ZM19.49 4.48145C19.3652 4.60808 19.1608 4.72591 18.947 4.80176L18.8191 4.82031C19.0601 4.75514 19.3069 4.6262 19.4558 4.48535L19.488 4.48242L19.4871 4.48145H19.49ZM18.573 4.72168V4.72266L18.5652 4.70312L18.573 4.72168ZM19.0134 4.52832C18.8742 4.6026 18.7196 4.67525 18.5769 4.7207L18.9919 4.53027L19.0134 4.52832ZM18.9558 4.53418C18.8304 4.59825 18.6962 4.66026 18.571 4.7002L18.9285 4.53613L18.9558 4.53418ZM16.365 4.2793L16.3738 4.27637C16.3726 4.27759 16.371 4.27903 16.3699 4.28027H16.365C16.3661 4.28114 16.3677 4.28137 16.3689 4.28223C16.322 4.33484 16.3372 4.40232 16.4021 4.46094C16.6489 4.68423 17.2606 4.68306 17.8484 4.4873L17.8923 4.49316C17.8927 4.49412 17.8929 4.49516 17.8933 4.49609C17.2877 4.70684 16.6479 4.71126 16.3884 4.47656C16.3571 4.44828 16.3375 4.41694 16.3279 4.38574L16.1648 4.41309L16.1589 4.3916C16.1599 4.39121 16.1609 4.39101 16.1619 4.39062L16.1677 4.41211C16.2124 4.39344 16.2833 4.38255 16.3279 4.38574C16.3257 4.37868 16.322 4.37228 16.321 4.36523L16.1638 4.38965C16.2089 4.37188 16.2747 4.36167 16.321 4.36328V4.36523L16.3318 4.36328C16.3283 4.36298 16.3248 4.36341 16.321 4.36328C16.3171 4.33041 16.3275 4.29915 16.3523 4.27051C16.3561 4.27378 16.3608 4.2761 16.365 4.2793ZM21.5222 4.46094C21.5196 4.47791 21.5121 4.49236 21.5066 4.50684L21.489 4.5127L21.4871 4.53223C21.4894 4.53362 21.4925 4.53382 21.4949 4.53516C21.4207 4.66402 21.2172 4.66854 21.032 4.57422C21.0321 4.57226 21.0319 4.5703 21.032 4.56836L21.0525 4.56445C21.2484 4.66252 21.4576 4.64117 21.4949 4.47363L21.5134 4.4707L21.5007 4.45801C21.473 4.64613 21.2401 4.66751 21.033 4.55469C21.0332 4.55041 21.0338 4.5462 21.0339 4.54199L21.5095 4.44922L21.5222 4.46094ZM18.4001 4.12207C18.2004 4.1711 17.9865 4.29018 17.9343 4.38672C17.8851 4.47813 17.9066 4.51524 18.0056 4.54297C18.2937 4.62387 18.636 4.54971 18.8982 4.36621L18.9109 4.37207C18.9124 4.37484 18.913 4.37817 18.9148 4.38086C18.8058 4.45792 18.6829 4.51532 18.5554 4.55176L18.3162 4.5752L18.3083 4.58008C18.3054 4.58442 18.3031 4.58914 18.3005 4.59375C18.2355 4.59688 18.1711 4.59532 18.1082 4.58594H18.1091L18.1082 4.58496H18.1111L18.1003 4.56641L18.071 4.57812C18.0471 4.57353 18.0231 4.57003 17.9998 4.56348C17.943 4.5476 17.9069 4.52691 17.8933 4.49609C17.8958 4.49522 17.8986 4.49503 17.9011 4.49414L17.8992 4.47461L17.9001 4.4541L17.8884 4.45117C17.8911 4.42972 17.9002 4.4048 17.9158 4.37598C17.9407 4.32994 17.9988 4.28162 18.073 4.23633C18.0881 4.23365 18.1031 4.23348 18.1169 4.23047V4.20996L18.116 4.20898C18.1578 4.18632 18.2037 4.16581 18.2507 4.14746C18.3037 4.14352 18.3535 4.13488 18.4001 4.12207ZM18.9285 4.53613L18.324 4.5957C18.3246 4.59471 18.3253 4.59375 18.3259 4.59277C18.4028 4.58722 18.4797 4.57339 18.5554 4.55176L18.989 4.50977L18.9285 4.53613ZM18.1082 4.58496V4.58594C18.0979 4.58441 18.088 4.58097 18.0779 4.5791C18.0848 4.57465 18.0926 4.57185 18.0994 4.56738L18.1082 4.58496ZM21.9812 4.4541C21.9843 4.4553 21.9878 4.45588 21.991 4.45703C21.9087 4.58023 21.6558 4.6241 21.4949 4.53516C21.4955 4.53413 21.4963 4.53326 21.4968 4.53223L21.5232 4.52441C21.6762 4.59609 21.9019 4.55368 21.9812 4.4502V4.4541ZM21.033 4.55469C21.0328 4.55922 21.0322 4.56375 21.032 4.56836L21.0232 4.57031C21.0223 4.56984 21.0212 4.56981 21.0203 4.56934L21.0232 4.55078C21.0262 4.5525 21.0299 4.55303 21.033 4.55469ZM18.9919 4.53027L18.9558 4.53418C18.973 4.52542 18.9899 4.51674 19.0066 4.50781L19.0535 4.50293L18.9919 4.53027ZM21.5037 4.5166C21.5013 4.52193 21.4996 4.52726 21.4968 4.53223L21.4949 4.5332L21.4968 4.51367C21.4989 4.51489 21.5016 4.51544 21.5037 4.5166ZM19.4558 4.48535L19.0134 4.52832C19.0307 4.51909 19.0485 4.51129 19.0652 4.50195L19.1912 4.49023C19.2697 4.49793 19.3597 4.49558 19.4568 4.48438L19.4558 4.48535ZM22.0203 4.36621C22.0213 4.38689 22.0161 4.40569 22.0095 4.42383L21.9968 4.42871C22.0052 4.41242 22.0109 4.3955 22.0115 4.37695L21.5232 4.52441C21.5168 4.52142 21.5098 4.51999 21.5037 4.5166C21.505 4.51349 21.5054 4.51007 21.5066 4.50684L22.0203 4.36621ZM19.1111 4.47852H19.1121C19.0972 4.48719 19.0806 4.49332 19.0652 4.50195L19.0535 4.50293L19.1091 4.47852C19.0986 4.4764 19.0887 4.47319 19.0789 4.4707C19.0558 4.48389 19.0309 4.49481 19.0066 4.50781L18.989 4.50977L19.0779 4.46973L19.0789 4.4707C19.0861 4.46656 19.0942 4.46411 19.1013 4.45996L19.1111 4.47852ZM22.4783 4.28027C22.4397 4.493 22.2229 4.54213 21.991 4.45703C21.9919 4.45556 21.992 4.45364 21.9929 4.45215L22.0193 4.44336C22.2251 4.51175 22.4076 4.46909 22.4509 4.29492L22.4714 4.28906L22.4578 4.27734C22.4223 4.47149 22.222 4.5173 22.0027 4.43848C22.0051 4.43355 22.0077 4.42897 22.0095 4.42383L22.4646 4.26855L22.4783 4.28027ZM17.8962 4.49414L17.8923 4.49316C17.8902 4.48762 17.8883 4.48177 17.8875 4.47559C17.8887 4.47515 17.8901 4.47505 17.8914 4.47461H17.8943L17.8962 4.49414ZM18.9216 4.30957C18.9014 4.41418 19.0793 4.48337 19.3347 4.47559L19.1912 4.49023C19.1632 4.48749 19.1368 4.4834 19.1121 4.47852H19.113L19.1033 4.45898L19.0779 4.46973C18.9996 4.44981 18.9415 4.42122 18.9148 4.38086C18.9185 4.37826 18.9229 4.37667 18.9265 4.37402L18.9246 4.35547L18.9011 4.34277C18.8991 4.33142 18.8989 4.31995 18.9011 4.30762H18.9119L18.9216 4.30957ZM17.8875 4.4707V4.47266L17.8923 4.47363L17.8914 4.47461C17.8901 4.47473 17.8887 4.47449 17.8875 4.47461V4.47559C17.8746 4.48006 17.8613 4.48302 17.8484 4.4873L17.7947 4.47949C17.8276 4.47808 17.8586 4.47719 17.8875 4.47461V4.47266L17.8718 4.46875L17.8875 4.4707ZM19.4871 4.48145C19.4769 4.48282 19.4668 4.48322 19.4568 4.48438C19.4642 4.4773 19.4733 4.47197 19.4802 4.46484L19.4871 4.48145ZM16.4119 4.28613C16.4281 4.29525 16.4462 4.3045 16.4666 4.3125C16.6871 4.39921 17.2603 4.46259 17.6658 4.46191L17.7947 4.47949C17.3896 4.49691 16.7068 4.43058 16.4587 4.33301C16.4226 4.3188 16.3934 4.3003 16.3689 4.28223L16.3699 4.28027L16.4119 4.28613ZM19.6521 4.45117C19.5968 4.46453 19.5426 4.47423 19.49 4.48145C19.491 4.48046 19.4929 4.48048 19.4939 4.47949L19.4851 4.46289C19.5233 4.45761 19.5623 4.45003 19.6023 4.44141L19.6521 4.45117ZM19.4851 4.46289C19.4328 4.47012 19.3825 4.47413 19.3347 4.47559L19.4851 4.46191V4.46289ZM17.8992 4.47266V4.47461C17.898 4.47472 17.8964 4.4745 17.8953 4.47461V4.47168L17.8992 4.47266ZM17.8953 4.47168L17.8875 4.4707C17.8871 4.46513 17.8868 4.45923 17.8875 4.45312C17.8904 4.45286 17.8934 4.4534 17.8962 4.45312L17.8953 4.47168ZM17.8718 4.46875L17.7976 4.45801C17.8069 4.45759 17.816 4.45754 17.825 4.45703L17.8718 4.46875ZM17.7976 4.45801C17.7564 4.45985 17.7122 4.46184 17.6658 4.46191L16.4119 4.28613C16.3963 4.27738 16.3827 4.2682 16.3708 4.25879L17.7976 4.45801ZM17.0613 4.24316L17.8884 4.45117L17.8875 4.45312C17.8676 4.45493 17.8468 4.4558 17.825 4.45703L16.8972 4.22363C16.9506 4.23126 17.0056 4.23734 17.0613 4.24316ZM22.0027 4.43848C22.0002 4.44357 21.996 4.44729 21.9929 4.45215L21.988 4.45508V4.44141C21.9894 4.43926 21.9916 4.43774 21.9929 4.43555C21.9961 4.43674 21.9995 4.43733 22.0027 4.43848ZM19.656 4.45215L19.6521 4.45117C19.6531 4.45093 19.654 4.45044 19.655 4.4502L19.656 4.45215ZM18.7166 4.29297H18.7185L18.7195 4.29395C18.555 4.38274 18.4426 4.42521 18.2458 4.4502L18.241 4.42773L18.6794 4.2832C18.6817 4.28372 18.684 4.28466 18.6863 4.28516C18.6937 4.28123 18.7021 4.27855 18.7097 4.27441L18.7166 4.29297ZM19.6599 4.42871V4.4502C19.6584 4.45057 19.6566 4.44982 19.655 4.4502V4.43164C19.6375 4.43603 19.6196 4.43768 19.6023 4.44141L18.9216 4.30957L18.9226 4.30762C18.9525 4.30746 18.9831 4.30695 19.0144 4.30469L19.6599 4.42871ZM21.9968 4.42871C21.9956 4.43106 21.9943 4.43325 21.9929 4.43555C21.9917 4.43508 21.9903 4.43505 21.989 4.43457L21.988 4.44141C21.986 4.44453 21.9835 4.44717 21.9812 4.4502V4.43457L21.9968 4.42871ZM18.4109 4.39453C18.3605 4.40722 18.3065 4.41967 18.2429 4.42773L18.2478 4.44922L18.4109 4.39453ZM16.3337 4.38477H16.3357V4.36328H16.3337V4.38477ZM18.9158 4.375L18.9109 4.37207C18.9088 4.36828 18.9075 4.36429 18.906 4.36035C18.9083 4.35868 18.9115 4.35813 18.9138 4.35645L18.9158 4.375ZM18.825 4.30469L18.9011 4.34277C18.9022 4.34884 18.9037 4.35458 18.906 4.36035C18.9034 4.36224 18.9009 4.36434 18.8982 4.36621L18.7644 4.29785C18.7841 4.30039 18.8042 4.30316 18.825 4.30469ZM18.6863 4.28516C18.6391 4.3101 18.5961 4.33096 18.5535 4.34863L18.7175 4.29492L18.7166 4.29297C18.7061 4.29111 18.6963 4.2873 18.6863 4.28516ZM18.7722 4.27734C18.8169 4.28285 18.8645 4.28612 18.9148 4.28613L18.9031 4.29395C18.9017 4.29847 18.9019 4.30321 18.9011 4.30762C18.875 4.30732 18.8497 4.3065 18.825 4.30469L18.7722 4.27734ZM18.9226 4.30762C18.919 4.30764 18.9154 4.30763 18.9119 4.30762L18.9236 4.2998C18.9228 4.30234 18.9232 4.30512 18.9226 4.30762ZM19.1453 4.27051L19.1433 4.29102C19.0994 4.29809 19.0562 4.30166 19.0144 4.30469L18.9177 4.28613C18.9713 4.28603 19.0273 4.28261 19.0857 4.27539L19.1394 4.29102L19.1404 4.26953C19.1221 4.27248 19.1036 4.27317 19.0857 4.27539L18.4197 4.08008C18.4192 4.07515 18.4165 4.07043 18.4167 4.06543L18.4031 4.0752L18.4197 4.08008C18.4204 4.08724 18.4224 4.09362 18.4246 4.10059L18.4216 4.09961V4.11816C18.4186 4.1191 18.4149 4.11922 18.4119 4.12012L18.4412 4.13477C18.482 4.19373 18.5749 4.24126 18.7039 4.2666L18.7644 4.29785C18.7488 4.29584 18.7333 4.29559 18.7185 4.29297L18.7117 4.27344L18.6794 4.2832C18.5332 4.25065 18.4309 4.1902 18.4031 4.11328L18.4128 4.11816L18.4138 4.09766L18.4187 4.09863L18.4216 4.09961L18.4226 4.09863L18.3972 4.08594C18.3963 4.07883 18.3949 4.07174 18.3953 4.06445L18.4089 4.05469L19.1453 4.27051ZM18.7722 4.27734C18.7485 4.27442 18.7257 4.2709 18.7039 4.2666L18.4412 4.13477C18.4334 4.12352 18.4283 4.11253 18.4246 4.10059L18.7722 4.27734ZM16.9031 4.20312C17.3 4.25931 17.7804 4.26416 18.0593 4.2168L18.0896 4.22461C18.0837 4.22804 18.0787 4.23284 18.073 4.23633C17.8294 4.27961 17.4281 4.28153 17.0613 4.24316L16.9031 4.20312ZM16.3796 4.09375H16.3806C16.2952 4.12387 16.2927 4.19674 16.3708 4.25879H16.3679L16.3582 4.26172C16.3557 4.26425 16.3545 4.26792 16.3523 4.27051C16.3318 4.25295 16.3173 4.2343 16.3074 4.21582C16.309 4.21596 16.3107 4.21666 16.3123 4.2168L16.3162 4.19531L16.2957 4.18945C16.2849 4.14655 16.3046 4.10731 16.3562 4.08301C16.3637 4.08683 16.3716 4.09004 16.3796 4.09375ZM18.1121 4.23047L18.0896 4.22461C18.0971 4.22026 18.1043 4.21519 18.1121 4.21094V4.23047ZM18.116 4.20898C18.1147 4.20968 18.1133 4.21024 18.1121 4.21094V4.20996C18.0956 4.21354 18.0776 4.21369 18.0593 4.2168L17.5671 4.09277C17.5848 4.09112 17.6017 4.08724 17.6189 4.08301L18.116 4.20898ZM15.5818 4.00977C15.7429 4.09333 15.9343 4.14683 16.1765 4.17773L16.3064 4.21484L16.3074 4.21582C15.9513 4.1837 15.6924 4.11332 15.4851 3.98242L15.5818 4.00977ZM16.3142 4.19531L16.3103 4.21582L16.3064 4.21484C16.3024 4.20711 16.2978 4.20002 16.2957 4.19238C16.3018 4.19296 16.308 4.19476 16.3142 4.19531ZM16.2957 4.18945V4.19238C15.9479 4.15983 15.6948 4.09129 15.4929 3.96289L15.4841 3.98145L15.4812 3.98047L15.49 3.96094L16.2957 4.18945ZM18.3972 4.08594C18.3978 4.09052 18.3981 4.09511 18.3992 4.09961C18.3943 4.10099 18.3895 4.10223 18.3845 4.10352L17.6296 3.73535C17.6291 3.88589 17.7257 4.03471 17.9021 4.08789C18.0765 4.14043 18.2464 4.13939 18.3845 4.10352L18.3865 4.10449C18.3412 4.11602 18.2952 4.13013 18.2507 4.14746C18.1407 4.15565 18.0193 4.14547 17.8962 4.1084C17.8359 4.09016 17.785 4.06065 17.7429 4.02441C17.7442 4.02338 17.7465 4.02352 17.7478 4.02246L17.7449 4.00391L17.7097 3.99219C17.6525 3.92973 17.6179 3.85271 17.6101 3.77246C17.6136 3.77357 17.6165 3.77645 17.6199 3.77734L17.6287 3.75879L17.6091 3.74316C17.609 3.73471 17.6077 3.72623 17.6082 3.71777L17.6238 3.70898L18.3972 4.08594ZM22.8679 4.15039L22.8669 4.15137L22.8621 4.13086L22.864 4.12988L22.8679 4.15039ZM23.4363 3.98242C23.4048 3.99343 23.374 4.00362 23.3445 4.01367C23.1353 4.08499 22.9764 4.13134 22.8738 4.14941L23.8347 3.83887C23.8204 3.84409 23.5385 3.94666 23.4363 3.98242ZM23.4294 3.96191C23.3979 3.97294 23.3671 3.98311 23.3376 3.99316C23.1278 4.06471 22.9689 4.11044 22.8679 4.12793L23.8279 3.81836C23.8136 3.8236 23.5315 3.92624 23.4294 3.96191ZM18.4109 4.11914C18.4125 4.11876 18.4142 4.11853 18.4158 4.11816H18.4089L18.4109 4.11914ZM18.4031 4.11328L18.3865 4.10449C18.3908 4.1034 18.3949 4.10162 18.3992 4.10059C18.4002 4.10486 18.4016 4.10908 18.4031 4.11328ZM18.4041 4.09961C18.4024 4.09999 18.4008 4.1002 18.3992 4.10059V4.09961C18.4007 4.09918 18.4025 4.10005 18.4041 4.09961C18.4064 4.09907 18.4086 4.09818 18.4109 4.09766H18.4128C18.41 4.09853 18.4069 4.09877 18.4041 4.09961ZM17.4148 4.05371C17.4292 4.05867 17.4438 4.06232 17.4587 4.06543L17.5671 4.09277C17.4814 4.10082 17.3939 4.07866 17.322 4.03027L17.4148 4.05371ZM16.2986 3.83984C16.367 3.80975 16.5324 3.82521 16.7937 3.875C16.7937 3.88278 16.7944 3.89006 16.7957 3.89746C16.5372 3.84799 16.3704 3.83175 16.3074 3.85938C16.2287 3.89428 16.2207 3.96175 16.3044 4.02637C16.3264 4.04319 16.3545 4.05824 16.3865 4.07324H16.3777C16.37 4.07581 16.3628 4.0799 16.3562 4.08301C16.3316 4.07041 16.3098 4.05776 16.2917 4.04395C16.2416 4.00539 16.2195 3.96314 16.2234 3.92578L16.2332 3.92871L16.24 3.90723C16.2365 3.90587 16.2327 3.90465 16.2292 3.90332C16.2396 3.87773 16.2633 3.85551 16.2986 3.83984ZM17.738 4.02441L17.7361 4.01855C17.7383 4.02056 17.7406 4.02245 17.7429 4.02441C17.7056 4.05362 17.6635 4.07201 17.6189 4.08301L17.5691 4.07031C17.6213 4.06472 17.6706 4.04709 17.7146 4.0166L17.738 4.02441ZM16.8035 3.89941L16.8171 3.90332C16.8403 3.99246 16.9689 4.04091 17.1833 3.99512L17.2283 4.00684C16.9713 4.07229 16.8148 4.00997 16.7957 3.89746C16.7983 3.89796 16.8008 3.89891 16.8035 3.89941ZM17.2732 3.99512C17.2877 4.00908 17.3054 4.01908 17.322 4.03027L17.2283 4.00684C17.2431 4.00306 17.2587 4.00075 17.2742 3.99609L17.2283 3.98438C17.2324 3.98328 17.2367 3.98261 17.241 3.98145L17.2732 3.99512ZM17.7361 4.01855C17.7328 4.01561 17.7295 4.0128 17.7263 4.00977C17.7286 4.00803 17.7319 4.00766 17.7341 4.00586L17.7361 4.01855ZM17.7097 3.99219C17.7151 3.99811 17.7205 4.00413 17.7263 4.00977C17.7227 4.01253 17.7183 4.01403 17.7146 4.0166L17.2117 3.85547C17.2094 3.8489 17.2057 3.84277 17.2039 3.83594L17.1902 3.84863L17.2117 3.85547C17.2343 3.92195 17.2773 3.97279 17.3308 4.00977L17.2751 3.99609C17.277 3.99553 17.2791 3.9957 17.281 3.99512L17.282 3.97461L17.2458 3.95996C17.2187 3.9258 17.1956 3.88671 17.1833 3.84082L17.197 3.82812L17.7097 3.99219ZM17.2732 3.99414C17.2679 3.98901 17.2645 3.98205 17.2595 3.97656C17.2642 3.9752 17.2695 3.97605 17.2742 3.97461L17.2732 3.99414ZM16.822 3.80664L16.8162 3.80957L16.8259 3.81348C16.8267 3.8116 16.827 3.80951 16.8279 3.80762C16.8466 3.81097 16.8665 3.81394 16.8884 3.81445L17.2458 3.95996C17.2504 3.96563 17.2547 3.97123 17.2595 3.97656C17.2533 3.97839 17.2471 3.97976 17.241 3.98145L16.8259 3.81348C16.8166 3.83643 16.8143 3.85836 16.8152 3.87891L16.8083 3.87793H16.8074C16.8028 3.87704 16.7982 3.87587 16.7937 3.875C16.7936 3.85268 16.798 3.82946 16.8083 3.80469C16.8128 3.80578 16.8174 3.80573 16.822 3.80664ZM16.032 3.83789C16.0543 3.8443 16.0739 3.84973 16.0925 3.85547C16.14 3.87009 16.1836 3.88555 16.2292 3.90332H16.2283L16.239 3.90723L16.2322 3.92773C16.2296 3.92672 16.2269 3.9258 16.2244 3.9248L16.2234 3.92578L15.8269 3.80273C15.8764 3.81747 16.016 3.85659 16.0261 3.85938C16.0485 3.86579 16.068 3.87122 16.0867 3.87695C16.1346 3.89171 16.1783 3.90678 16.2244 3.9248C16.2252 3.9176 16.2256 3.91011 16.2283 3.90332L15.8328 3.78125L16.032 3.83789ZM16.6912 3.54785L16.7019 3.55762C16.7028 3.55559 16.7039 3.55371 16.7048 3.55176C16.7163 3.55468 16.7275 3.5589 16.739 3.56152L16.9919 3.79102L16.9861 3.81055C16.9505 3.81528 16.918 3.81514 16.8884 3.81445L16.825 3.78906L16.8113 3.79492C16.8098 3.79803 16.8096 3.80161 16.8083 3.80469C16.7512 3.79058 16.7107 3.76353 16.6873 3.72266C16.6854 3.71942 16.685 3.71528 16.6833 3.71191L16.6882 3.69336L16.6736 3.6875C16.6597 3.6407 16.6643 3.5875 16.6833 3.5459C16.6859 3.5466 16.6886 3.54716 16.6912 3.54785ZM16.8279 3.80762C16.8259 3.80726 16.824 3.80703 16.822 3.80664L16.8298 3.80371C16.8292 3.805 16.8285 3.80633 16.8279 3.80762ZM16.7019 3.55762C16.6817 3.6038 16.6798 3.66644 16.7058 3.71191C16.7416 3.77425 16.8234 3.80334 16.9578 3.79004L16.9773 3.80762L16.9832 3.78906C16.9746 3.79021 16.966 3.78923 16.9578 3.79004L16.7019 3.55762ZM17.6248 3.75684L17.616 3.77539L17.6101 3.77051C17.6094 3.76336 17.6094 3.7562 17.6091 3.74902C17.6148 3.75102 17.6194 3.75542 17.6248 3.75684ZM17.6091 3.74316C17.6092 3.74512 17.6091 3.74707 17.6091 3.74902C17.5891 3.74199 17.5668 3.73274 17.5437 3.71973L17.6101 3.77051V3.77246C17.4987 3.73709 17.3227 3.59634 17.2527 3.49707L17.3357 3.56055C17.3079 3.53279 17.284 3.50571 17.2673 3.48145L17.2517 3.49512L17.2498 3.49316L17.2654 3.47949L17.6091 3.74316ZM17.614 3.72754L17.6296 3.73535C17.6297 3.72982 17.6294 3.72428 17.6296 3.71875L17.614 3.72754ZM16.6833 3.71191V3.71387L16.6814 3.71289V3.70898C16.6819 3.71005 16.6828 3.71086 16.6833 3.71191ZM16.6736 3.6875C16.6739 3.68849 16.6742 3.68944 16.6746 3.69043C16.4257 3.64654 16.2455 3.58921 16.1316 3.49512L16.1208 3.51367L16.2058 3.54395C16.2921 3.59388 16.403 3.6323 16.5408 3.66309L16.6785 3.71289C16.4221 3.66821 16.2368 3.60992 16.1179 3.51172L16.1287 3.49316L16.6736 3.6875ZM16.6873 3.69336L16.6814 3.70898C16.6787 3.70296 16.6766 3.69678 16.6746 3.69043C16.6787 3.69115 16.6831 3.69264 16.6873 3.69336ZM16.8796 3.56543L16.8738 3.58594C16.8287 3.58053 16.7836 3.57164 16.739 3.56152L16.7058 3.53125L16.6892 3.53418C16.6871 3.5379 16.6852 3.54195 16.6833 3.5459C16.3975 3.46844 16.1252 3.30127 15.8914 3.0791L15.9041 3.06152L16.8796 3.56543ZM16.8699 3.58496L16.8767 3.56445C16.8532 3.56164 16.8298 3.55589 16.8064 3.55176L16.8699 3.58496ZM16.7048 3.55176C16.7002 3.55059 16.6958 3.54907 16.6912 3.54785L16.7078 3.54492C16.7066 3.54708 16.7059 3.54951 16.7048 3.55176ZM15.8943 3.08105L15.9685 3.11914C15.9478 3.10078 15.9262 3.08265 15.906 3.06348L15.8943 3.08105ZM26.2839 2.89746C26.2895 2.8887 26.2964 2.8809 26.3015 2.87207L26.282 2.86914C26.2842 2.87822 26.2827 2.88813 26.2839 2.89746Z" fill="black"/>
<path d="M21.929 6.09424C21.9509 6.12082 21.9727 6.14651 21.9934 6.17041C22.0698 6.25862 22.1347 6.32555 22.1848 6.36475L22.1721 6.38135C22.1206 6.34109 22.0541 6.27328 21.9768 6.18408C21.9561 6.16018 21.9343 6.13446 21.9124 6.10791C21.8385 6.01858 21.7786 5.94132 21.6965 5.83252C21.7029 5.8285 21.7094 5.82484 21.7151 5.81982C21.7966 5.92796 21.8555 6.00543 21.929 6.09424ZM21.7659 5.50537C21.96 5.74034 22.4928 6.23554 22.6448 6.32178L22.634 6.34033C22.4845 6.25548 21.9808 5.78735 21.7708 5.54248C21.7687 5.52977 21.7649 5.5185 21.762 5.50732L21.7659 5.50537ZM21.6624 5.84814C21.7213 5.97388 21.7537 6.06436 21.7493 6.10303C21.7418 6.16358 21.7192 6.19042 21.6584 6.17627L21.6633 6.15479C21.7085 6.16532 21.7217 6.15044 21.7278 6.10107C21.7318 6.06814 21.6999 5.9774 21.6418 5.854C21.649 5.85306 21.6556 5.85015 21.6624 5.84814ZM22.0686 5.45166C22.1854 5.61017 22.5736 5.84041 22.7708 5.87842L22.7668 5.8999C22.566 5.86128 22.177 5.63043 22.054 5.46729C22.0593 5.46218 22.0644 5.45747 22.0686 5.45166ZM21.76 5.49561C21.7612 5.49935 21.7609 5.50343 21.762 5.50732L21.7493 5.51904C21.7557 5.52686 21.7636 5.53412 21.7708 5.54248C21.7765 5.57904 21.7802 5.62245 21.7776 5.67822C21.7748 5.73761 21.7513 5.78813 21.7151 5.81982C21.7133 5.81745 21.711 5.8154 21.7092 5.81299L21.6917 5.82568C21.6933 5.82787 21.6949 5.83036 21.6965 5.83252C21.6858 5.83933 21.6746 5.84451 21.6624 5.84814C21.6603 5.84371 21.6586 5.839 21.6565 5.83447L21.637 5.84326C21.6386 5.84675 21.6402 5.85056 21.6418 5.854C21.6182 5.8571 21.5925 5.85432 21.5657 5.84424C21.4631 5.80548 21.3844 5.72018 21.3323 5.61475L21.3518 5.60498C21.4017 5.70589 21.476 5.78712 21.5725 5.82373C21.6705 5.86084 21.751 5.78682 21.7561 5.67725C21.7603 5.58833 21.7534 5.53204 21.7366 5.48682C21.7445 5.48973 21.7521 5.49311 21.76 5.49561ZM22.3206 5.20557C22.4652 5.35827 22.8542 5.67727 23.0061 5.75244L22.9963 5.77197C22.8426 5.69584 22.4548 5.37842 22.3069 5.22314C22.3127 5.21788 22.317 5.21275 22.3206 5.20557ZM22.0315 5.19287C22.036 5.19486 22.0408 5.19591 22.0452 5.19775C22.1786 5.31458 22.438 5.50787 22.677 5.67432L22.6653 5.69189C22.4426 5.53679 22.2026 5.35845 22.0618 5.23975C22.0531 5.22414 22.0434 5.20832 22.0315 5.19287C22.0256 5.19026 22.019 5.18891 22.0129 5.18604L22.0198 5.1792C22.0237 5.18386 22.0279 5.18817 22.0315 5.19287ZM21.0657 5.3501C21.1348 5.44864 21.1638 5.51346 21.2073 5.64502L21.1868 5.65186C21.1439 5.5222 21.1157 5.45917 21.0481 5.36279L21.0657 5.3501ZM20.6135 5.3042C20.6527 5.42224 20.7199 5.54474 20.7786 5.59131L20.7659 5.60791C20.7031 5.55824 20.6334 5.43287 20.593 5.31104L20.6135 5.3042ZM22.6653 5.06885C22.6762 5.06979 22.6869 5.07115 22.6975 5.07178C22.888 5.23587 23.2182 5.45267 23.4143 5.54639L23.4045 5.56592C23.1998 5.46802 22.8515 5.23891 22.6633 5.07178L22.6653 5.06885ZM21.0178 4.7749C21.1787 4.98649 21.4766 5.43242 21.5256 5.55225L21.5061 5.56006C21.4579 5.44236 21.1598 4.99736 21.0002 4.7876L21.0178 4.7749ZM21.1506 4.604C21.1837 4.88867 21.4297 5.29327 21.6428 5.42041C21.8212 5.52664 22.0004 5.51621 22.054 5.43799C22.1145 5.34961 22.0534 5.18269 21.8547 5.07373C21.6789 4.97732 21.4508 4.77532 21.344 4.62646L21.3616 4.61377C21.4665 4.75993 21.6915 4.95927 21.8645 5.0542C21.9279 5.08889 21.9776 5.13054 22.0149 5.17334L22.009 5.18506C22.0101 5.18558 22.0119 5.18553 22.0129 5.18604L22.0071 5.19385C22.0227 5.20816 22.0417 5.22283 22.0618 5.23975C22.1051 5.31806 22.1085 5.39545 22.0715 5.44971L22.0686 5.45166C22.0668 5.44921 22.0644 5.44724 22.0627 5.44482L22.0452 5.45654C22.0477 5.46019 22.0511 5.46356 22.054 5.46729C21.9984 5.52082 21.8866 5.53568 21.76 5.49561C21.7583 5.49008 21.7581 5.48425 21.7561 5.479L21.7366 5.48584V5.48682C21.7024 5.4743 21.6668 5.45964 21.6321 5.43896C21.413 5.30831 21.163 4.89805 21.1292 4.60693L21.1506 4.604ZM22.8801 5.06299C22.94 5.10832 23.0407 5.17211 23.1819 5.25049C23.2018 5.26156 23.2227 5.27286 23.2444 5.28467C23.3198 5.32585 23.5471 5.44633 23.5696 5.4585L23.5598 5.47803C23.5394 5.46698 23.3106 5.34468 23.2346 5.30322C23.2129 5.29139 23.1921 5.28013 23.1721 5.26904C23.0161 5.18245 22.908 5.11519 22.8499 5.06787C22.8604 5.0665 22.8705 5.06489 22.8801 5.06299ZM22.9866 5.01221C23.3792 5.26031 23.6297 5.39147 23.884 5.45068L23.8792 5.47119C23.6204 5.41093 23.3671 5.27868 22.969 5.02686C22.9756 5.02189 22.9819 5.01789 22.9866 5.01221ZM20.7737 5.01416C20.7826 5.11105 20.8219 5.23221 20.8645 5.30713L20.845 5.31787C20.8009 5.24032 20.7614 5.11613 20.7522 5.01611L20.7737 5.01416ZM23.1702 4.97705C23.2142 4.99589 23.3709 5.06319 23.3909 5.07178C23.4123 5.08097 23.4123 5.08112 23.4338 5.09033C23.68 5.19553 23.8346 5.25565 23.9397 5.28271L23.9348 5.30322C23.8283 5.27579 23.6724 5.21556 23.425 5.10986C23.4039 5.10079 23.4035 5.10051 23.3821 5.09131C23.361 5.08223 23.2046 5.01507 23.1614 4.99658C23.0931 4.9674 23.0398 4.94446 22.9944 4.92627C22.9906 4.91764 22.9839 4.91006 22.9778 4.90088L22.9797 4.89795C23.03 4.91772 23.0902 4.94288 23.1702 4.97705ZM20.0247 4.35791C20.0153 4.47714 20.0816 4.70811 20.1497 4.78955C20.1669 4.92335 20.2575 5.10922 20.384 5.23682L20.3684 5.25146C20.2387 5.12062 20.1465 4.93105 20.1311 4.79834C20.0615 4.71806 19.9933 4.48071 20.0032 4.35596L20.0247 4.35791ZM22.1809 4.92822C22.194 4.93416 22.207 4.94015 22.22 4.9458C22.2639 4.99801 22.3043 5.06208 22.3235 5.12354C22.3341 5.15784 22.3308 5.18503 22.3206 5.20557C22.3194 5.20439 22.3177 5.20379 22.3167 5.20264L22.301 5.21729C22.3029 5.21926 22.3049 5.22111 22.3069 5.22314C22.2904 5.23812 22.2675 5.24712 22.2356 5.24463C22.1645 5.23919 22.11 5.22484 22.0452 5.19775C22.0371 5.1907 22.0288 5.1847 22.0217 5.17822L22.0198 5.1792C22.0181 5.17726 22.0166 5.17527 22.0149 5.17334L22.0188 5.1665C22.0964 5.20349 22.156 5.21694 22.2366 5.22314C22.2968 5.22794 22.3234 5.19625 22.303 5.13037C22.2812 5.06011 22.2323 4.98316 22.1799 4.93018L22.1809 4.92822ZM21.2561 4.62158C21.2982 4.74834 21.6032 5.13112 21.7444 5.22021L21.7327 5.23877C21.5873 5.14704 21.2793 4.75996 21.2356 4.62842L21.2561 4.62158ZM20.425 4.24072C20.4105 4.42331 20.4208 4.59118 20.4534 4.68506C20.4626 4.71177 20.469 4.74324 20.4778 4.80029C20.4818 4.82664 20.4846 4.84162 20.4866 4.854C20.4899 4.87522 20.4931 4.89361 20.4963 4.91064C20.512 4.992 20.5323 5.0513 20.5637 5.09619L20.5461 5.10889C20.5125 5.0609 20.491 4.99887 20.4749 4.91455C20.4715 4.89731 20.4685 4.87926 20.4651 4.85791C20.4631 4.84536 20.4613 4.82986 20.4573 4.80322C20.4487 4.74747 20.4425 4.71696 20.4338 4.69189C20.4001 4.59465 20.3888 4.42406 20.4036 4.23877L20.425 4.24072ZM23.0208 4.81982C23.0749 4.82664 23.1211 4.82842 23.1672 4.82764C23.5352 4.90445 23.8657 4.99652 23.9573 5.07471L23.9436 5.09131C23.8451 5.00679 23.4376 4.90021 23.0208 4.81982ZM21.6252 4.55811C21.8552 4.76413 22.3075 4.99694 22.5803 5.03857C22.7255 5.06055 22.8528 5.0573 22.9241 5.02979C22.996 5.00188 23.0045 4.95315 22.9387 4.88037C22.9111 4.84988 22.874 4.81954 22.8303 4.78857C22.8466 4.79165 22.8622 4.79464 22.8772 4.79736C22.9071 4.82068 22.9334 4.84359 22.9543 4.8667C22.9645 4.87793 22.9708 4.89031 22.9778 4.90088L22.9719 4.91748C22.9792 4.92032 22.9867 4.9232 22.9944 4.92627C23.0093 4.96025 23.006 4.98866 22.9866 5.01221C22.9834 5.01019 22.98 5.00838 22.9768 5.00635L22.9651 5.02393C22.9664 5.02478 22.9676 5.026 22.969 5.02686C22.9584 5.03478 22.9472 5.04434 22.9319 5.05029C22.9169 5.05608 22.8991 5.05925 22.8801 5.06299C22.8738 5.05817 22.867 5.05474 22.8616 5.05029L22.8479 5.06689L22.8499 5.06787C22.8058 5.07359 22.7543 5.07516 22.6975 5.07178C22.6911 5.06623 22.6841 5.06157 22.678 5.05615L22.6653 5.06885C22.6371 5.0664 22.6074 5.06461 22.5774 5.06006C22.4757 5.04458 22.3501 5.00228 22.22 4.9458C22.2113 4.93545 22.2046 4.92369 22.1956 4.91455L22.1809 4.92822C21.9684 4.83173 21.7495 4.69916 21.6106 4.57471L21.6252 4.55811ZM24.1848 4.77881C24.1943 4.79701 24.1995 4.81612 24.2014 4.83643C24.1988 4.83619 24.1962 4.83667 24.1936 4.83643L24.1917 4.85889C24.1955 4.85925 24.1995 4.85853 24.2034 4.85889C24.2027 4.88367 24.1966 4.90832 24.1877 4.93213C24.1839 4.93124 24.1797 4.93206 24.176 4.93115L24.1711 4.95264C24.1736 4.95325 24.1764 4.95301 24.179 4.95361C24.1543 5.00508 24.1141 5.04754 24.0696 5.06201L24.0627 5.0415C24.1441 5.01526 24.2141 4.87779 24.1663 4.7876C24.1727 4.78453 24.179 4.78224 24.1848 4.77881ZM21.4475 4.5835C21.545 4.69438 21.8678 4.94185 22.0129 5.00049L22.0051 5.02002C21.8566 4.96002 21.5305 4.71137 21.4309 4.59814L21.4475 4.5835ZM24.1877 4.93213C24.3973 4.98004 24.8637 4.9915 25.0891 4.94189L25.094 4.96338C24.8641 5.01399 24.3896 5.00301 24.179 4.95361C24.1823 4.94661 24.185 4.93942 24.1877 4.93213ZM21.884 4.52295C22.1297 4.66232 22.4598 4.81963 22.6887 4.90283L22.6819 4.92236C22.4517 4.83873 22.12 4.68148 21.8733 4.5415L21.884 4.52295ZM19.9377 4.79346C19.9491 4.81152 19.9641 4.83053 19.9817 4.85107C19.9963 4.86815 20.0087 4.88098 20.0315 4.90479L20.0159 4.92041C19.9929 4.89646 19.981 4.88315 19.9661 4.86572C19.9477 4.84432 19.9322 4.82435 19.9202 4.80518C19.9102 4.78934 19.9026 4.77426 19.8977 4.76025L19.9182 4.75342C19.9225 4.76549 19.9288 4.77918 19.9377 4.79346ZM25.0911 4.77197C24.8977 4.86453 24.5184 4.88747 24.2034 4.85889C24.2036 4.85129 24.2021 4.84391 24.2014 4.83643C24.5137 4.86523 24.8925 4.84231 25.0823 4.75146L25.0911 4.77197ZM24.2131 4.4624C24.2616 4.49563 24.2889 4.53993 24.2952 4.5874C24.2902 4.58865 24.2855 4.59104 24.2805 4.59229L24.2854 4.61279C24.2893 4.61182 24.2932 4.60987 24.2971 4.60889C24.2969 4.63819 24.2886 4.66763 24.2717 4.6958C24.262 4.69725 24.2523 4.70025 24.2424 4.70166L24.2454 4.72314C24.2477 4.72282 24.2499 4.72152 24.2522 4.72119C24.2365 4.74017 24.2179 4.75887 24.1936 4.7749C24.191 4.77662 24.1876 4.77718 24.1848 4.77881C24.1838 4.77685 24.184 4.77389 24.1829 4.77197L24.1643 4.78271C24.1651 4.7841 24.1655 4.78619 24.1663 4.7876C24.0224 4.85647 23.7264 4.83661 23.5413 4.75635V4.75342C23.5542 4.75174 23.5668 4.74949 23.5793 4.74756C23.7723 4.82031 24.0646 4.83477 24.1819 4.75732C24.306 4.67533 24.3044 4.54593 24.1956 4.47607C24.1998 4.47273 24.205 4.4707 24.2092 4.46729C24.2108 4.46601 24.2116 4.46378 24.2131 4.4624ZM24.2522 4.12451C24.2953 4.14386 24.3169 4.17624 24.3206 4.22119C24.3153 4.22315 24.3103 4.22605 24.3049 4.22803L24.3127 4.24854C24.3155 4.24753 24.3178 4.24563 24.3206 4.24463C24.3198 4.25789 24.3202 4.27204 24.3167 4.28662C24.3043 4.33749 24.2744 4.39344 24.2424 4.43311C24.2317 4.43551 24.2212 4.43955 24.2102 4.44189L24.2141 4.46045L24.2131 4.4624C24.2098 4.46009 24.2069 4.45678 24.2034 4.45459L24.1917 4.47314C24.1929 4.47393 24.1943 4.47527 24.1956 4.47607C24.0095 4.62442 23.8266 4.7096 23.5793 4.74756C23.5694 4.74382 23.5594 4.74087 23.55 4.73682L23.5413 4.75342C23.5255 4.75546 23.5097 4.76053 23.4934 4.76221L23.4924 4.7583C23.5022 4.75086 23.5111 4.74458 23.5168 4.73584C23.5084 4.73683 23.5001 4.73984 23.4915 4.74072L23.4924 4.7583C23.465 4.77931 23.4231 4.79754 23.3635 4.80811C23.2874 4.82169 23.2274 4.82661 23.1672 4.82764C23.1208 4.81793 23.0739 4.80746 23.0266 4.79834C23.1475 4.81329 23.2287 4.80997 23.3596 4.78662C23.4588 4.76901 23.5057 4.73799 23.5081 4.69775C23.5101 4.66098 23.4761 4.61224 23.4124 4.55811C23.3092 4.47066 23.009 4.36586 22.761 4.31494C22.7681 4.3095 22.774 4.30312 22.7805 4.29736C22.812 4.30403 22.8438 4.31264 22.8762 4.3208C22.8752 4.32139 22.8743 4.32216 22.8733 4.32275L22.884 4.34131C22.8916 4.33686 22.8996 4.3329 22.9075 4.32861C22.9773 4.34704 23.0476 4.36813 23.1135 4.39111C23.1119 4.39139 23.1102 4.39182 23.1086 4.39209L23.1125 4.41357C23.1271 4.41103 23.1429 4.40929 23.1594 4.40674C23.2761 4.45008 23.3751 4.49831 23.427 4.54248C23.4322 4.54691 23.4368 4.55178 23.4417 4.55615H23.4397L23.4377 4.57764C23.4464 4.57851 23.4555 4.57703 23.4641 4.57764C23.508 4.62209 23.5315 4.66245 23.5295 4.69873C23.5288 4.7118 23.5248 4.72381 23.5178 4.73486C23.797 4.70202 23.9937 4.61449 24.1956 4.45068C24.2349 4.41864 24.2797 4.34557 24.2952 4.28174C24.3136 4.20551 24.2919 4.15303 24.2219 4.13428C24.232 4.13106 24.2421 4.12779 24.2522 4.12451ZM22.9807 4.79248L22.9778 4.81104C22.9921 4.81374 23.0064 4.81706 23.0208 4.81982C22.9788 4.81454 22.9321 4.80732 22.8772 4.79736C22.8652 4.78798 22.8534 4.77743 22.8401 4.76807C22.8937 4.77815 22.9396 4.78632 22.9807 4.79248ZM23.0266 4.79834C23.012 4.79653 22.9967 4.79488 22.9807 4.79248L22.9817 4.78955C22.9967 4.79237 23.0117 4.79546 23.0266 4.79834ZM22.8303 4.78857C22.8288 4.78828 22.827 4.78887 22.8254 4.78857V4.78564C22.827 4.78674 22.8288 4.78748 22.8303 4.78857ZM22.2151 4.47314C22.4551 4.55594 22.6881 4.661 22.8401 4.76807C22.8366 4.76741 22.8329 4.76776 22.8293 4.76709L22.8254 4.78564C22.6757 4.6806 22.4455 4.5755 22.2083 4.49365L22.2151 4.47314ZM20.5969 4.53564C20.6081 4.57875 20.6154 4.6116 20.6184 4.64404C20.6228 4.69079 20.6187 4.7316 20.6038 4.76611L20.5833 4.75732C20.5966 4.72656 20.601 4.68945 20.5969 4.646C20.594 4.61499 20.5872 4.58347 20.5764 4.5415C20.5723 4.52586 20.5725 4.52507 20.5686 4.51025L20.5891 4.50537C20.593 4.51999 20.5929 4.52014 20.5969 4.53564ZM20.2708 4.40771C20.2457 4.51861 20.2487 4.6478 20.2805 4.74365L20.26 4.75049C20.2269 4.65081 20.2245 4.51825 20.2502 4.40381L20.2708 4.40771ZM25.6907 4.17627C25.6595 4.18888 25.6279 4.20396 25.594 4.22119C25.5473 4.24492 25.2818 4.39866 25.1877 4.4458C24.9267 4.57666 24.6403 4.66548 24.2522 4.72119C24.2593 4.71264 24.2664 4.70474 24.2717 4.6958C24.646 4.64019 24.9241 4.55354 25.178 4.42627C25.2712 4.37951 25.5368 4.22575 25.5842 4.20166C25.6186 4.18418 25.6511 4.16958 25.6829 4.15674L25.6907 4.17627ZM20.7151 4.36377C20.7513 4.483 20.7741 4.62836 20.7688 4.69385L20.7473 4.69189C20.7523 4.62935 20.7301 4.48643 20.6946 4.36963L20.7151 4.36377ZM22.2854 4.4585C22.4413 4.47206 22.5959 4.49582 22.7747 4.53271C22.8463 4.5475 22.9201 4.5645 23.0149 4.58643C23.0475 4.59397 23.2148 4.63294 23.2629 4.64404L23.2581 4.66455C23.2099 4.65344 23.0426 4.61447 23.01 4.60693C22.9155 4.58505 22.8412 4.56894 22.7698 4.5542C22.5919 4.51751 22.4383 4.49346 22.2834 4.47998L22.2854 4.4585ZM25.8938 3.88916C25.5142 4.20164 24.9491 4.44505 24.2971 4.60889C24.2972 4.60163 24.2961 4.59457 24.2952 4.5874C24.943 4.42429 25.504 4.18216 25.8801 3.87256L25.8938 3.88916ZM22.8762 4.3208C23.1115 4.18393 23.4984 4.12171 23.7551 4.18018C23.7951 4.18932 23.8286 4.20284 23.8567 4.21631L23.8616 4.23584C23.8688 4.23415 23.8758 4.23172 23.8831 4.22998C23.9237 4.255 23.9485 4.2846 23.9563 4.31982C23.9677 4.37128 23.9422 4.42822 23.8958 4.47217C23.8157 4.5478 23.6427 4.59009 23.4641 4.57764C23.4571 4.57057 23.4497 4.5634 23.4417 4.55615C23.6231 4.57406 23.8025 4.53078 23.8811 4.45654C23.9226 4.41732 23.9442 4.36757 23.9348 4.32471C23.923 4.27132 23.8646 4.22766 23.7512 4.20166C23.507 4.14589 23.1398 4.20229 22.9075 4.32861C22.8971 4.32586 22.8866 4.32341 22.8762 4.3208ZM19.8655 4.23291C19.849 4.30424 19.8608 4.47546 19.884 4.56885L19.8635 4.57373C19.8396 4.47738 19.8266 4.30334 19.844 4.22803L19.8655 4.23291ZM25.5188 3.8833C25.4418 3.9228 25.3748 3.95977 25.2512 4.02881C25.2371 4.03668 25.2367 4.03673 25.2229 4.04443C24.7866 4.2881 24.56 4.38965 24.2151 4.46338L24.2141 4.46045C24.2231 4.45236 24.2335 4.44415 24.2424 4.43311C24.5669 4.36048 24.7914 4.26086 25.2122 4.02588C25.2262 4.01801 25.2264 4.01811 25.2405 4.01025C25.3644 3.94102 25.4317 3.90442 25.509 3.86475L25.5188 3.8833ZM22.8645 4.07568C22.8937 4.15336 22.8533 4.23328 22.7805 4.29736C22.7731 4.29579 22.7654 4.29396 22.7581 4.29248L22.7542 4.31396C22.7564 4.31442 22.7587 4.31448 22.761 4.31494C22.6693 4.38546 22.5366 4.43005 22.4133 4.40674L22.4172 4.38525C22.6419 4.42779 22.9041 4.23864 22.845 4.08252L22.8645 4.07568ZM23.7385 4.354C23.5998 4.35401 23.3322 4.38008 23.1594 4.40674C23.1445 4.40119 23.129 4.3965 23.1135 4.39111C23.2827 4.36205 23.5866 4.33155 23.7385 4.33154V4.354ZM20.178 3.52686C20.1367 3.63097 20.1131 3.85543 20.1252 3.94092C20.128 3.9607 20.1282 3.96472 20.1204 4.03955C20.107 4.16701 20.1117 4.26301 20.1536 4.38721L20.134 4.39404C20.091 4.26627 20.0852 4.16709 20.0989 4.03662C20.1063 3.96542 20.1062 3.96087 20.1038 3.94385C20.0911 3.85467 20.1148 3.6267 20.1575 3.51904L20.178 3.52686ZM20.3284 3.6333C20.2821 3.8249 20.2838 4.18969 20.3284 4.33936L20.3079 4.34521C20.2622 4.19176 20.2607 3.8236 20.3079 3.62842L20.3284 3.6333ZM25.8167 3.47314C25.6777 3.58354 25.5266 3.68505 25.3645 3.77881C25.0505 3.96041 24.7891 4.0711 24.3206 4.24463C24.321 4.23644 24.3212 4.22881 24.3206 4.22119C24.7832 4.04968 25.0429 3.94007 25.3538 3.76025C25.5149 3.66702 25.6649 3.56623 25.803 3.45654L25.8167 3.47314ZM25.1956 3.66748C25.0485 3.81219 24.663 3.99109 24.2522 4.12451C24.2436 4.12065 24.2351 4.1154 24.2249 4.11279L24.22 4.1333L24.2219 4.13428C24.109 4.17021 23.9947 4.20307 23.8831 4.22998C23.875 4.22501 23.8661 4.22083 23.8567 4.21631V4.21436C24.3876 4.08934 24.9899 3.83885 25.1799 3.65186L25.1956 3.66748ZM21.4612 4.11963C21.3738 4.14448 21.3246 4.16923 21.2317 4.229L21.2209 4.21045C21.3154 4.14969 21.3657 4.12366 21.4553 4.09814L21.4612 4.11963ZM20.4592 3.70361C20.4541 3.86507 20.5298 4.07405 20.6545 4.21338L20.6389 4.22705C20.5107 4.08373 20.4326 3.87049 20.4377 3.70361H20.4592ZM19.9905 4.01221C19.982 4.05973 19.9846 4.13758 19.9954 4.21436L19.9739 4.21729C19.9628 4.1387 19.9601 4.05954 19.969 4.00928L19.9905 4.01221ZM19.8743 3.83838C19.8531 3.91128 19.8452 4.01382 19.8508 4.09229L19.8293 4.09424C19.8235 4.01337 19.8319 3.90818 19.8538 3.83252L19.8743 3.83838ZM20.6956 3.11182C20.6841 3.1143 20.68 3.12215 20.677 3.13818C20.6596 3.14201 20.6393 3.14895 20.4944 3.20654C20.4836 3.19798 20.473 3.19478 20.4602 3.20068L20.468 3.21924C20.3073 3.28855 20.0335 3.48094 19.8635 3.65479C19.8373 3.68155 19.818 3.69501 19.7952 3.70166C19.7893 3.70337 19.7836 3.70386 19.7747 3.70557C19.7384 3.71249 19.722 3.7177 19.6897 3.73486L19.6799 3.71631C19.7145 3.69795 19.7326 3.69235 19.7708 3.68506C19.7791 3.68347 19.7842 3.68263 19.7893 3.68115C19.8084 3.6756 19.8251 3.66446 19.8489 3.64014C20.0266 3.45835 20.3148 3.2558 20.4758 3.19189C20.4758 3.1919 20.5772 3.15103 20.6008 3.14209C20.6388 3.12771 20.6675 3.11792 20.6956 3.11182ZM20.8352 3.41162C20.7792 3.44075 20.7385 3.48346 20.7043 3.54346L20.6858 3.53174C20.7218 3.46846 20.7656 3.42322 20.8254 3.39209L20.8352 3.41162ZM20.7014 3.13232C20.6977 3.13328 20.6963 3.14124 20.6946 3.16455C20.6931 3.18412 20.6917 3.19102 20.6897 3.20166C20.6826 3.239 20.6648 3.26537 20.6292 3.27881C20.5727 3.29985 20.5379 3.28741 20.5061 3.25049C20.5053 3.24957 20.4907 3.23133 20.4866 3.22705C20.4795 3.21981 20.4749 3.21844 20.469 3.22119L20.468 3.21924C20.4735 3.21687 20.4784 3.2135 20.4836 3.21143C20.4874 3.20994 20.4908 3.20796 20.4944 3.20654C20.4964 3.20816 20.4992 3.20936 20.5012 3.21143C20.506 3.21633 20.5215 3.23561 20.5217 3.23584C20.5481 3.26659 20.5745 3.27523 20.6223 3.25732C20.6499 3.24684 20.6635 3.2278 20.6692 3.19775C20.671 3.18823 20.6717 3.18139 20.6731 3.1626C20.6738 3.15277 20.6758 3.14486 20.677 3.13818C20.6835 3.13677 20.6894 3.13483 20.7014 3.13232ZM20.7932 3.12451C20.7609 3.12373 20.7308 3.12613 20.7014 3.13232L20.7004 3.11084C20.7308 3.10459 20.7609 3.1022 20.7942 3.10303L20.7932 3.12451Z" fill="black"/>
<path d="M20.7922 5.90698C20.7956 5.90848 20.7987 5.91036 20.802 5.91187C20.921 6.13626 20.9726 6.42035 20.9309 6.57495L20.9104 6.56909C20.9522 6.41417 20.8968 6.1178 20.7698 5.89429L20.7717 5.89233C20.7796 5.8974 20.7854 5.90392 20.7922 5.90698ZM20.801 6.39819C20.8612 6.44156 20.9002 6.49443 20.9114 6.56323L20.8909 6.56714C20.8808 6.50454 20.8443 6.45615 20.7883 6.41577C20.7662 6.39984 20.7523 6.39102 20.7258 6.36792C20.6825 6.41546 20.6006 6.47136 20.5559 6.4812L20.551 6.46069C20.5905 6.45225 20.6692 6.39827 20.7229 6.35132C20.763 6.37273 20.7778 6.38146 20.801 6.39819ZM21.3049 6.07983C21.3066 6.09765 21.3089 6.11969 21.3108 6.14722C21.3121 6.16732 21.3184 6.27747 21.3206 6.30933C21.3282 6.42121 21.3367 6.49598 21.3469 6.5437L21.3254 6.54761C21.315 6.49851 21.3077 6.42296 21.3 6.3103C21.2978 6.27793 21.2907 6.16921 21.2893 6.14917C21.2861 6.1016 21.2834 6.07004 21.2805 6.04956C21.2896 6.06071 21.2977 6.07074 21.3049 6.07983ZM21.1331 6.22925C21.1655 6.30759 21.1856 6.43033 21.179 6.50464L21.1575 6.50269C21.1637 6.43201 21.1446 6.31326 21.1135 6.23804L21.1331 6.22925ZM20.3098 5.3728C20.368 5.37572 20.3914 5.38251 20.4202 5.41284C20.4378 5.43155 20.455 5.45899 20.4729 5.4978C20.5353 5.63346 20.7175 5.85 20.801 5.88745C20.9459 5.95256 21.0419 6.02584 21.0735 6.12866C21.1305 5.99935 21.1435 5.92211 21.1008 5.82886L21.1184 5.81714C21.1309 5.83273 21.1448 5.84932 21.1594 5.86694C21.3973 6.15353 21.3826 6.13404 21.3967 6.2019C21.4137 6.28314 21.4806 6.39774 21.5471 6.47046L21.5305 6.48511C21.4616 6.40979 21.3931 6.29228 21.3752 6.20679C21.3666 6.16565 21.3682 6.15926 21.3049 6.07983C21.3037 6.06669 21.3033 6.05559 21.302 6.04663L21.2805 6.04956C21.2483 6.00994 21.2049 5.95537 21.1428 5.88062C21.1409 5.87831 21.1388 5.87603 21.137 5.87378C21.1577 5.95353 21.1418 6.02918 21.092 6.14136C21.0868 6.15322 21.0865 6.15321 21.0813 6.16479L21.0608 6.16284C21.0425 6.05555 20.9489 5.97931 20.802 5.91187C20.7972 5.90283 20.7933 5.89335 20.7883 5.88452L20.7717 5.89233C20.6771 5.83136 20.5128 5.63582 20.4534 5.50659C20.4364 5.46985 20.4203 5.44423 20.4045 5.42749C20.3807 5.40236 20.3618 5.39695 20.3088 5.39429C20.2859 5.39314 20.2773 5.39279 20.2639 5.39136L20.2659 5.36987C20.2787 5.37124 20.2872 5.37167 20.3098 5.3728ZM20.676 5.92847C20.7163 6.04113 20.7564 6.20896 20.76 6.27515L20.7385 6.2771C20.7352 6.21346 20.6953 6.04635 20.6555 5.9353L20.676 5.92847ZM20.4348 5.71069C20.4729 5.82574 20.5029 5.96354 20.5061 6.04468L20.4846 6.04565C20.4816 5.96687 20.4518 5.83088 20.4143 5.71753L20.4348 5.71069Z" fill="black"/>
</g>
</svg>
