<svg width="28" height="20" viewBox="0 0 28 20" fill="none" xmlns="http://www.w3.org/2000/svg">
<rect width="28" height="20" rx="2" fill="white"/>
<mask id="mask0_27_2249" style="mask-type:luminance" maskUnits="userSpaceOnUse" x="0" y="0" width="28" height="20">
<rect width="28" height="20" rx="2" fill="white"/>
</mask>
<g mask="url(#mask0_27_2249)">
<path fill-rule="evenodd" clip-rule="evenodd" d="M0 19.9999H28V17.3333H0V19.9999Z" fill="#369D0C"/>
<path fill-rule="evenodd" clip-rule="evenodd" d="M0 17.3334H28V14.6667H0V17.3334Z" fill="#FFD40E"/>
<path fill-rule="evenodd" clip-rule="evenodd" d="M0 14.6667H28V12H0V14.6667Z" fill="#369D0C"/>
<path fill-rule="evenodd" clip-rule="evenodd" d="M0 12H28V8H0V12Z" fill="#262626"/>
<path fill-rule="evenodd" clip-rule="evenodd" d="M0 7.99992H28V5.33325H0V7.99992Z" fill="#369D0C"/>
<path fill-rule="evenodd" clip-rule="evenodd" d="M0 5.33341H28V2.66675H0V5.33341Z" fill="#FFD40E"/>
<path fill-rule="evenodd" clip-rule="evenodd" d="M0 2.66667H28V0H0V2.66667Z" fill="#369D0C"/>
<path d="M-0.220703 0.666992L12.2227 10L-0.220703 19.333H-0.666016V0.666992H-0.220703Z" fill="white" stroke="#262626" stroke-width="1.33333"/>
<path fill-rule="evenodd" clip-rule="evenodd" d="M4.00033 11.3001L2.04104 12.6968L2.76395 10.4018L0.830137 8.97002L3.2362 8.94836L4.00033 6.66675L4.76445 8.94836L7.17051 8.97002L5.2367 10.4018L5.95961 12.6968L4.00033 11.3001Z" fill="url(#paint0_linear_27_2249)"/>
</g>
<defs>
<linearGradient id="paint0_linear_27_2249" x1="0.666992" y1="6.66675" x2="0.666992" y2="13.3334" gradientUnits="userSpaceOnUse">
<stop stop-color="#F12F1F"/>
<stop offset="1" stop-color="#DE2010"/>
</linearGradient>
</defs>
</svg>
