<svg width="103" height="120" viewBox="0 0 103 120" fill="none" xmlns="http://www.w3.org/2000/svg">
<g clip-path="url(#clip0_46_4343)">
<mask id="mask0_46_4343" style="mask-type:luminance" maskUnits="userSpaceOnUse" x="7" y="-4" width="373" height="124">
<path d="M7.75 -4H379.75V120H7.75V-4Z" fill="white"/>
</mask>
<g mask="url(#mask0_46_4343)">
<path d="M28.3573 22.42C28.3573 19.847 29.5585 17.4212 31.6045 15.8635L50.592 1.39811C51.2031 0.934581 51.9314 0.650712 52.695 0.578416C53.4586 0.50612 54.2273 0.648264 54.9145 0.988867C55.6017 1.32947 56.1804 1.85503 56.5853 2.50645C56.9902 3.15788 57.2054 3.90934 57.2066 4.67636V115.877C57.2066 118.156 55.3621 120 53.0875 120H11.873C10.7795 120 9.73081 119.566 8.9576 118.793C8.18439 118.019 7.75 116.971 7.75 115.877V55.3885C7.75 52.8194 8.95125 50.3936 10.9973 48.8359L28.3573 35.6066V22.42ZM68.6456 53.3154C67.6513 54.086 66.8465 55.0741 66.2931 56.2039C65.7396 57.3336 65.4521 58.5751 65.4526 59.8331V115.877C65.4526 118.156 67.2971 120 69.5718 120H90.179C92.4575 120 94.302 118.156 94.302 115.877V41.8531C94.3008 41.0827 94.0839 40.3281 93.6757 39.6747C93.2675 39.0214 92.6844 38.4955 91.9926 38.1566C91.3007 37.8177 90.5278 37.6795 89.7614 37.7575C88.9949 37.8356 88.2657 38.1268 87.6564 38.5981L68.6456 53.3154ZM137.593 119.589L132.812 110.627H127.759V119.589H123.012V96.7115H130.917C138.849 96.7115 141.871 98.8582 141.871 103.655C141.871 106.306 140.542 108.453 137.52 109.681L142.867 119.589H137.593ZM131.448 100.245H127.767V107.124H131.68C135.4 107.124 136.993 105.961 136.993 103.686C136.993 101.036 134.664 100.245 131.448 100.245ZM150.466 119.589V96.7115H167.997V100.373H155.213V106.05H167.303V109.708H155.213V115.928H168.001V119.586L150.466 119.589ZM173.782 119.589L182.745 96.7115H187.527L196.525 119.589H191.379L189.685 114.951H180.323L178.63 119.589H173.782ZM185.004 102.233L181.683 111.262H188.325L185.004 102.233ZM208.397 96.7115V115.931H220.119V119.589H203.651V96.7115H208.397ZM239.711 119.589V96.7115H257.242V100.373H244.458V106.05H256.548V109.708H244.458V115.928H257.246V119.586H239.708L239.711 119.589ZM274.648 110.092L271.595 109.557C267.708 108.798 264.387 106.907 264.387 102.931C264.387 98.3196 269.568 96.3046 273.982 96.3046C278.965 96.3046 283.181 99.0791 283.445 103.466H278.864C278.5 100.784 276.043 99.9006 273.784 99.9006C271.56 99.9006 269.134 100.687 269.134 102.741C269.134 104.349 270.529 105.233 272.49 105.581L275.644 106.116C279.558 106.814 283.879 108.232 283.879 112.994C283.879 117.695 278.965 120 274.114 120C268.204 120 264.287 116.97 263.857 112.049H268.441C268.971 115.424 271.424 116.404 274.28 116.404C276.408 116.404 279.097 115.645 279.097 113.215C279.097 111.293 277.202 110.503 274.648 110.092ZM296.747 119.589V100.369H289.346V96.7115H308.934V100.373H301.498V119.593H296.751L296.747 119.589ZM310.763 119.589L319.726 96.7115H324.508L333.506 119.589H328.36L326.666 114.951H317.304L315.611 119.589H310.763ZM321.985 102.233L318.664 111.262H325.306L321.985 102.233ZM342.736 119.589V100.369H335.331V96.7115H354.919V100.373H347.483V119.593H342.736V119.589ZM362.212 119.589V96.7115H379.742V100.373H366.962V106.05H379.052V109.708H366.962V115.928H379.75V119.586H362.216L362.212 119.589Z" fill="#141414"/>
</g>
</g>
<defs>
<clipPath id="clip0_46_4343">
<rect width="103" height="120" fill="white"/>
</clipPath>
</defs>
</svg>
